<?xml version="1.0" encoding="UTF-8" standalone="no"?>
<svg width="296px" height="236px" viewBox="0 0 296 236" version="1.1" xmlns="http://www.w3.org/2000/svg" xmlns:xlink="http://www.w3.org/1999/xlink">
    <!-- Generator: Sketch 41.1 (35376) - http://www.bohemiancoding.com/sketch -->
    <title>rain</title>
    <desc>Created with Sketch.</desc>
    <defs></defs>
    <g id="Weather-Web-App" stroke="none" stroke-width="1" fill="none" fill-rule="evenodd">
        <g id="iPhone-SE--Copy" transform="translate(-12.000000, -37.000000)" fill="#000000">
            <g id="umbrella" transform="translate(71.000000, 58.000000)">
                <path d="M68.3000719,194.225353 C66.4785018,193.430206 60.8215065,187.907533 60.8215065,186.924989 C60.8215065,186.126903 66.1122796,179.712077 67.0759064,179.342429 C67.4854294,179.184429 68.1224652,179.364476 68.4908891,179.742208 C69.420022,180.693886 71.5953378,186.701584 71.3399363,187.608434 C71.1843469,188.160334 71.2430599,188.191934 71.5703847,187.728955 C71.9013791,187.260833 72.420989,187.474685 73.674511,188.595387 C74.5904335,189.41405 75.5782793,190.080593 75.8689085,190.076918 C76.1918299,190.072509 76.1668769,189.921857 75.8057921,189.691837 C75.0439912,189.207547 75.6714862,188.186055 77.1965557,187.427652 C77.8541411,187.100627 78.4515456,186.298866 78.5469542,185.615421 C78.640895,184.94153 78.9219833,184.141239 79.1715135,183.836261 C79.4210436,183.532018 79.6382817,181.02532 79.6544277,178.266555 C79.6830503,173.327382 79.7013981,173.249484 80.8551081,173.249484 C82.5438401,173.249484 82.8058468,172.423472 81.2418798,172.030308 C80.2635749,171.784121 80.0889038,171.585701 80.5820928,171.280723 C81.1273895,170.94341 81.1405999,170.5914 80.6518144,169.410437 C79.7821284,167.308661 80.3868721,165.428086 82.0073503,165.194392 C83.3144479,165.006261 83.3129801,165.002587 81.6455315,164.351477 L79.97001,163.697428 L80.3332965,157.456036 C80.5336546,154.024116 80.7611673,149.041585 80.838962,146.384235 C80.9218941,143.557126 81.2279355,141.254726 81.575076,140.835106 C82.2194509,140.058331 81.8135974,138.887656 81.0613374,139.353574 C80.8081377,139.510105 80.6011745,139.291109 80.6011745,138.866345 C80.6011745,138.44158 80.9351045,138.093979 81.3424258,138.093979 C81.750481,138.093979 82.084411,137.76034 82.084411,137.351743 C82.084411,136.943146 81.8752461,136.608773 81.6191107,136.608773 C81.3358206,136.608773 81.2418798,132.491938 81.3791214,126.087401 C81.6785576,112.067235 81.8803835,109.883152 82.9496935,109.094618 C83.773877,108.486867 83.773877,108.440569 82.9496935,108.120894 C82.2891726,107.864418 82.084411,107.211104 82.084411,105.362129 C82.084411,104.02978 82.3067864,102.939208 82.5790679,102.939208 C82.8506154,102.939208 83.0737247,102.604835 83.0737247,102.196238 C83.0737247,101.788376 82.8396067,101.454002 82.553381,101.454002 C82.2062405,101.454002 82.0756041,98.7092007 82.1607379,93.1600719 C82.2311935,88.5986307 82.1313814,84.4208004 81.9390964,83.8762494 C81.5097578,82.6578074 76.492,80.9932892 69.7003764,79.8167357 C65.1303051,79.0252629 64.8492167,79.0318768 60.7994892,80.0202993 C58.5001422,80.5810178 55.8962217,81.3372161 55.0133253,81.6995152 C53.6005443,82.2800757 53.3055116,82.2565593 52.5569211,81.5069749 C51.8061289,80.7544511 51.7833777,80.4649057 52.3690396,79.0465746 C52.7345279,78.162506 53.2981725,75.9909161 53.6218277,74.2213091 C53.945483,72.4509672 54.3447313,70.6681323 54.5091276,70.2595354 C54.67279,69.8516733 54.9120454,68.9602559 55.0390122,68.279016 C55.7156793,64.6670483 58.0399792,56.8243384 59.0762633,54.6630369 C60.1940116,52.329037 61.5106501,48.958847 62.1711711,46.7409592 C62.3326318,46.1956733 62.6137201,45.6386293 62.7942625,45.5026753 C62.9755389,45.3667212 63.8496283,43.4729184 64.7361942,41.2939796 C65.6234941,39.1157757 66.6304217,37.1095353 66.9746265,36.8361575 C67.3188313,36.5627796 67.7437665,35.8940328 67.9184376,35.3502167 C68.3096128,34.1361841 70.5414398,31.298052 70.8372064,31.6390394 C74.610983,35.9880983 76.7209806,39.4927726 74.410625,37.5732487 C73.8278987,37.0889585 73.4961704,37.0698514 73.0690335,37.4975554 C72.6418966,37.9252594 72.7064808,38.4962663 73.3288384,39.8036296 C73.7845979,40.7597171 73.9937629,41.537962 73.7941387,41.5328178 C73.3134262,41.5217945 71.5879986,39.6515081 70.4885981,37.9517153 C69.6842304,36.7075523 68.2369555,36.0704056 68.2398911,36.9618231 C68.240625,37.1661215 69.1308606,38.6439785 70.2177845,40.2467662 C73.0954543,44.4877968 72.6609783,44.9375475 69.085358,41.421115 C68.1694356,40.5208789 67.2498436,40.2724872 67.2498436,40.9250666 C67.2498436,41.1300999 68.3932788,42.6961433 69.7906476,44.4047547 C71.1880165,46.113366 72.2316396,47.6110649 72.1098102,47.733791 C71.9879808,47.8557822 70.3880522,46.7093591 68.5554734,45.1859391 C65.2176407,42.4117422 63.4041436,41.8745401 65.917059,44.4047547 C68.182646,46.6858427 71.3494772,50.4543412 71.0016028,50.4543412 C70.8195925,50.4543412 70.0343065,49.982544 69.2563595,49.4063929 C66.9995795,47.7359957 66.5504252,48.4914591 68.3345658,50.954799 C70.0166926,53.2755709 69.7774372,53.1726868 65.7343149,49.8392411 C63.3109367,47.8410844 62.7993999,47.6257627 62.7993999,48.602427 C62.7993999,49.3005693 65.0950773,51.9395471 65.7027566,51.9395471 C66.1137475,51.9395471 69.227737,56.081368 69.227737,56.6288585 C69.227737,56.8037615 68.567216,56.5561048 67.7599125,56.0784285 C66.0601719,55.0731036 65.2785554,55.5000727 66.1790656,56.94339 C66.7346372,57.8340726 66.7060146,57.8891891 65.9126555,57.4563409 C65.4246039,57.1903119 64.2576835,56.1739637 63.3204776,55.1987692 C61.093054,52.879467 60.0120014,52.8331692 61.3557946,55.1135223 C61.9025592,56.042419 62.6739009,56.9272225 63.0694796,57.0786091 C63.4650583,57.2307307 63.7887136,57.610667 63.7887136,57.9229939 C63.7887136,58.2353207 64.5864762,59.5794283 65.5611116,60.909573 C67.7232169,63.858673 67.2571827,64.0276969 64.4822606,61.2997978 C63.3476323,60.1849748 62.0588825,59.3494088 61.6192691,59.4434742 C61.0218646,59.5706096 61.6478917,60.6023904 64.0888837,63.5147461 C68.1121904,68.3135556 67.3621321,67.9519914 60.875816,61.96634 C59.1342424,60.3584081 58.3489563,59.9880252 58.3489563,60.7728841 C58.3489563,61.0021687 59.9070519,62.9003809 61.8108202,64.9918682 C63.7145885,67.0826206 65.2719502,68.9132231 65.2719502,69.0594655 C65.2719502,69.698082 61.009388,66.1155098 59.5745897,64.2716793 C58.8751713,63.3721781 58.301252,63.0841025 57.657611,63.3104476 C56.8649858,63.5889696 57.1585507,64.1026554 59.8065059,67.0701275 C61.4937701,68.9609907 63.3358898,71.1458086 63.9002682,71.9262582 C64.8521524,73.243175 64.8587576,73.3085799 63.9868699,72.8316385 C63.4694618,72.5494421 61.7719228,71.0752595 60.2138272,69.5562489 C58.6557316,68.0365034 57.1541472,66.7938101 56.8759945,66.7938101 C55.7831992,66.7938101 56.4994975,68.090885 59.3969829,71.3552513 C61.0607619,73.2299471 62.3296961,74.856986 62.2159397,74.9701585 C61.912834,75.2736667 59.3382699,72.7824011 59.3382699,72.1849383 C59.3382699,71.9042116 58.9823225,72.0306121 58.5478465,72.465665 C57.8242091,73.1902632 57.8242091,73.3578173 58.5478465,74.4638217 C59.5701862,76.0261906 59.5459671,76.1628795 58.3056555,75.8387945 C57.4440425,75.6131843 57.3009297,75.7638361 57.440373,76.7515237 L57.607705,77.9346911 L64.2833704,77.7678719 C70.8988551,77.6017875 71.0052723,77.6172201 76.1367865,79.4221016 C78.9850998,80.4237521 82.1130336,81.8766229 83.0891369,82.6504585 C85.8442433,84.8352764 86.9465794,84.9087651 90.695403,83.153121 C96.1388299,80.6052691 102.913573,79.574958 106.816519,80.7022741 L109.033667,81.3430952 L104.336629,81.726706 C98.6943122,82.1882148 91.8513147,84.209153 89.6224234,86.0735603 C88.0224947,87.411054 88.0100182,87.4551472 87.7553507,92.8279032 C87.6144395,95.8019893 87.4089441,107.259606 87.2995912,118.288785 C87.0522628,143.087533 86.4776095,164.832093 86.0688204,164.832093 C85.8992867,164.832093 85.8449772,166.335671 85.9484588,168.174358 C86.0512065,170.012309 85.8978189,174.294493 85.6079236,177.690404 C85.1580354,182.955132 84.8563975,184.320551 83.5581068,186.960999 C80.396413,193.391257 73.6950606,196.582134 68.3000719,194.225353 L68.3000719,194.225353 L68.3000719,194.225353 Z M68.2391572,193.331731 C68.2391572,193.211944 68.0167818,192.976046 67.7445004,192.807757 C67.472219,192.639468 67.2498436,192.737208 67.2498436,193.026018 C67.2498436,193.314094 67.472219,193.549992 67.7445004,193.549992 C68.0167818,193.549992 68.2391572,193.452252 68.2391572,193.331731 L68.2391572,193.331731 Z M77.1400445,193.054679 C77.1400445,192.782771 77.0417003,192.5601 76.9213387,192.5601 C76.801711,192.5601 76.5661251,192.782771 76.3980593,193.054679 C76.2299934,193.327322 76.3283376,193.549992 76.6160312,193.549992 C76.9037248,193.549992 77.1400445,193.327322 77.1400445,193.054679 Z M69.9697222,188.103748 C69.8016563,187.831105 69.4545158,187.608434 69.1991144,187.608434 C68.942979,187.608434 68.7338141,187.831105 68.7338141,188.103748 C68.7338141,188.375656 69.0802206,188.599061 69.5044219,188.599061 C69.9286231,188.599061 70.1377881,188.375656 69.9697222,188.103748 Z M65.2719502,187.608434 C65.2719502,187.336526 65.1736059,187.11312 65.0539782,187.11312 C64.9343505,187.11312 64.6987647,187.336526 64.5306988,187.608434 C64.3626329,187.881077 64.4602433,188.103748 64.7486708,188.103748 C65.0363643,188.103748 65.2719502,187.881077 65.2719502,187.608434 L65.2719502,187.608434 Z M66.96215,185.822659 C67.7775264,185.509598 68.0718252,183.647395 67.3070887,183.647395 C67.0663655,183.647395 66.5049227,184.204439 66.059438,184.884944 C65.2477311,186.124698 65.498729,186.384848 66.96215,185.822659 L66.96215,185.822659 Z M84.9562095,164.846056 C85.0956528,162.428279 84.5085231,160.754207 83.7768126,161.486889 C83.4091226,161.855068 83.1192273,166.901534 83.4340756,167.457843 C84.0417549,168.532247 84.8204358,167.196223 84.9562095,164.846056 Z M83.0737247,160.871054 C83.0737247,160.598411 82.8513493,160.375741 82.5790679,160.375741 C82.3067864,160.375741 82.084411,160.598411 82.084411,160.871054 C82.084411,161.142962 82.3067864,161.365633 82.5790679,161.365633 C82.8513493,161.365633 83.0737247,161.142962 83.0737247,160.871054 Z M85.2989465,159.880427 C85.1308806,159.608519 84.7837402,159.385114 84.5276048,159.385114 C84.2722033,159.385114 84.0623045,159.608519 84.0623045,159.880427 C84.0623045,160.15307 84.4094449,160.375741 84.8336462,160.375741 C85.2571135,160.375741 85.4670124,160.15307 85.2989465,159.880427 Z M85.2600492,155.153637 C85.4339864,154.460639 85.4391238,153.670635 85.2710579,153.399462 C85.1037259,153.127554 85.2350962,152.580799 85.5638888,152.18396 C85.9396519,151.730535 85.9690084,151.463036 85.6424174,151.463036 C85.3539899,151.463036 85.2072075,150.803843 85.311423,149.97783 C85.4332525,149.012189 85.2805987,148.492624 84.8747453,148.492624 C84.433664,148.492624 84.2156921,149.655215 84.13276,152.453663 C84.0190036,156.308878 84.6134725,157.733823 85.2600492,155.153637 L85.2600492,155.153637 L85.2600492,155.153637 Z M83.3210531,154.929496 C83.489119,154.656853 83.4039852,154.434183 83.1317038,154.434183 C82.8601563,154.434183 82.4998054,154.656853 82.3317395,154.929496 C82.1636736,155.201404 82.2488074,155.424075 82.5210888,155.424075 C82.7926363,155.424075 83.1529872,155.201404 83.3210531,154.929496 Z M83.5683815,153.720608 C83.5683815,153.600086 83.3452722,153.364188 83.0737247,153.195899 C82.8014433,153.02761 82.5790679,153.126084 82.5790679,153.41416 C82.5790679,153.70297 82.8014433,153.938869 83.0737247,153.938869 C83.3452722,153.938869 83.5683815,153.840394 83.5683815,153.720608 L83.5683815,153.720608 Z M82.3882507,151.546078 C82.419075,150.955964 82.251743,150.473144 82.0168911,150.473144 C81.7820392,150.473144 81.5904881,150.677442 81.5904881,150.927304 C81.5904881,151.1779 81.4437057,151.765074 81.2638972,152.233197 C81.0349166,152.83066 81.1457373,153.014382 81.6352568,152.851237 C82.018359,152.723367 82.3574264,152.136192 82.3882507,151.546078 L82.3882507,151.546078 L82.3882507,151.546078 Z M85.5462749,144.985011 C85.5462749,143.778327 84.3903632,143.94882 84.14964,145.190779 C84.0549653,145.679478 84.3074311,146.016791 84.768328,146.016791 C85.2270231,146.016791 85.5462749,145.593497 85.5462749,144.985011 L85.5462749,144.985011 Z M85.5462749,140.569812 C85.5462749,139.208067 85.3231656,138.093979 85.0516181,138.093979 C84.7793367,138.093979 84.5400813,138.261533 84.5195318,138.465831 C84.1789965,141.808096 84.275139,143.045645 84.8754792,143.045645 C85.3503204,143.045645 85.5462749,142.323251 85.5462749,140.569812 Z M85.6057218,135.247028 C85.7899338,128.041465 85.7495686,126.942809 85.2989465,126.834046 C85.0266651,126.768641 84.7837402,127.548356 84.7580532,128.567644 C84.7323663,129.586197 84.651636,131.868019 84.5775108,133.638361 C84.4160501,137.511949 84.4263249,137.5994 85.0516181,137.5994 C85.3231656,137.5994 85.5726958,136.541163 85.6057218,135.247028 Z M85.169778,125.592088 C85.8618572,125.057825 86.0064379,123.161818 86.2266116,111.740945 C86.3675227,104.463363 86.2970671,98.3939344 86.0717561,98.2543059 C85.6350783,97.9846025 85.6915896,95.7593659 86.1664308,94.5218168 C86.323488,94.1132199 86.5722842,92.2826173 86.7205345,90.4534845 C86.9957516,87.0458153 86.5788894,86.0309369 85.3290369,87.0693317 C84.8292427,87.4852775 84.6663142,89.2232844 84.6831942,93.9713867 C84.6949368,97.4620981 84.5320083,100.598594 84.3206416,100.941051 C84.1056053,101.289388 84.1966104,101.72591 84.5268709,101.930209 C85.3686682,102.451243 84.7925471,125.259184 83.924329,125.811819 C83.5764546,126.03302 83.5419607,126.199104 83.8443325,126.203513 C84.13276,126.207188 84.7286967,125.93234 85.169778,125.592088 L85.169778,125.592088 L85.169778,125.592088 Z M56.3710629,73.7259955 C56.3710629,73.4533526 56.0246563,73.2306819 55.6004551,73.2306819 C55.1762538,73.2306819 54.9670888,73.4533526 55.1351547,73.7259955 C55.3032206,73.9979036 55.6503611,74.2213091 55.9057625,74.2213091 C56.1618979,74.2213091 56.3710629,73.9979036 56.3710629,73.7259955 L56.3710629,73.7259955 Z M60.8215065,57.6334485 C60.8215065,57.2255865 60.5991311,56.8912131 60.3275836,56.8912131 C60.0553022,56.8912131 59.8329268,57.2255865 59.8329268,57.6334485 C59.8329268,58.0420455 60.0553022,58.3764189 60.3275836,58.3764189 C60.5991311,58.3764189 60.8215065,58.0420455 60.8215065,57.6334485 Z M63.2845159,52.1754457 C62.9403111,51.7602347 62.5300541,51.5493223 62.3729969,51.7073229 C62.2152058,51.8645886 62.414096,52.2004318 62.8140782,52.4539677 C63.860637,53.1168354 63.9978786,53.0359979 63.2845159,52.1754457 L63.2845159,52.1754457 Z M66.2612638,46.612354 C66.2612638,46.405116 65.8157791,45.9575701 65.2719502,45.6180525 C64.4675824,45.1146551 64.2833704,45.1234738 64.2833704,45.6636154 C64.2833704,46.0288541 64.4316207,46.4764 64.612897,46.657917 C65.0635191,47.1091374 66.2612638,47.0760675 66.2612638,46.612354 L66.2612638,46.612354 Z M70.7219822,34.1207514 C69.8009224,33.5512143 69.511761,33.8407596 69.9249536,34.9188383 C70.1788872,35.5809711 70.3799791,35.6346179 70.8474812,35.16723 C71.3142494,34.6991072 71.2870946,34.4705575 70.7219822,34.1207514 L70.7219822,34.1207514 Z M115.11413,85.0976309 C114.612134,84.222381 113.863544,83.6285926 113.260268,83.6285926 C111.931153,83.6285926 111.957574,82.8297708 113.298431,82.4792299 C114.123349,82.2631733 114.284075,81.9479069 114.049223,81.0087218 C113.884093,80.3517332 113.618417,78.9451602 113.458424,77.883984 C111.848221,67.2149002 108.417915,53.3909481 106.223518,48.7214786 C104.996416,46.1111614 104.918622,45.6827225 105.582078,45.1925531 C106.247737,44.7001791 106.233058,44.6068485 105.460249,44.4040198 C104.539189,44.1615072 104.151683,43.4817371 102.435797,39.1047524 C101.85674,37.6291001 99.6557372,33.4534744 97.5442717,29.8260741 C93.4196851,22.7410323 92.2857908,21.796703 91.6942575,24.9545107 C91.5159169,25.9076587 91.1834546,26.6873734 90.9552079,26.6873734 C90.260927,26.6873734 86.0967091,23.7169617 85.4053638,22.7285392 C84.9385956,22.0612622 84.5554935,21.9355966 84.0388193,22.2795235 C83.4648999,22.6623994 83.9412089,23.326002 86.4144931,25.5894528 C88.1164355,27.1466775 89.5071991,28.5914646 89.5049974,28.8009073 C89.5027957,29.0103499 88.9457563,29.0419501 88.2654197,28.8714564 C86.5187086,28.4319942 86.7205345,29.055178 89.1307022,31.5383599 L91.2326267,33.7033358 L88.5494437,32.0520456 C87.0735462,31.1437258 85.4383898,29.6768921 84.9158444,28.7920886 C84.3925649,27.9065503 83.7724091,27.1826869 83.5360894,27.1826869 C82.8983197,27.1826869 78.6232811,22.5896456 78.6232811,21.9047313 C78.6232811,21.5791765 79.0122545,21.2242263 79.4885636,21.1154631 C79.9641387,21.0066999 79.2067413,20.8237131 77.804235,20.7083359 C76.4017288,20.5922238 75.3456291,20.6444008 75.4564499,20.8237131 C75.5672706,21.0030254 75.4630551,21.6710374 75.2245336,22.308919 C74.8208819,23.3884674 74.7467568,23.3230625 74.1566914,21.3645897 C73.8073492,20.2071432 73.223155,19.2606093 72.8584007,19.2606093 C72.0540329,19.2606093 72.0180712,20.0902963 72.7343695,22.146509 C73.5446086,24.4753647 73.0183935,25.1000183 71.87716,23.1628572 C71.0977453,21.8400613 70.9839889,21.2073239 71.3692928,20.3423624 C71.9094522,19.1297995 71.2070982,17.9047435 70.2948453,18.4691364 C69.9198162,18.7013606 69.8434893,21.4880506 70.2111793,21.4880506 C70.2456732,21.4880506 70.364567,22.3794681 70.4753877,23.4693049 C70.5862085,24.5584069 70.7997769,25.951017 70.9509628,26.5639124 C71.3612198,28.2335748 70.2236558,27.9241875 69.5697401,26.1876505 C68.8072053,24.1659774 67.9676097,24.622342 68.0997139,26.9872071 L68.2083329,28.9155496 L67.1573706,26.6873734 C66.3985054,25.0787066 66.0476954,24.7061191 65.8957755,25.34841 C65.7798174,25.8371096 65.9148573,26.8953463 66.1944778,27.7000471 C66.9878369,29.9789305 66.017605,29.4189469 65.0840686,27.0584911 C64.3097913,25.1036927 64.3090573,24.9192362 65.0686565,24.4591972 C68.0754948,22.6374133 68.9994903,21.8187496 69.1389336,20.8523737 C69.3488325,19.3936238 68.0637522,19.405382 67.3591965,20.8692761 C66.9599482,21.6982282 66.8138997,21.7724517 66.7889467,21.1573516 C66.7705989,20.7031917 66.6311556,20.007989 66.4799697,19.6118851 C66.3280498,19.2165161 66.5665713,18.530132 67.0098543,18.0862605 C67.7540413,17.3410855 67.7210152,17.279355 66.5724426,17.279355 C64.9629731,17.279355 64.5622571,17.998809 64.721516,20.6017774 C64.838942,22.5043988 64.7376621,22.7263345 63.7571554,22.7263345 C63.1546134,22.7263345 62.3766665,23.1158244 62.0287921,23.592031 C61.4482675,24.3879132 61.3712068,24.3548433 61.0783758,23.1878433 C60.5477573,21.0691652 60.9910402,17.1735313 61.8108202,16.7561157 C63.3733193,15.9609684 71.2115017,14.3420132 72.011466,14.6491958 C72.5252045,14.8468803 72.729966,14.7748614 72.537681,14.4640044 C72.1134798,13.7761505 81.6403942,12.6231134 85.2629848,12.9236821 C86.8019987,13.0515523 87.8632358,13.0250964 87.6210448,12.865626 C87.1080401,12.5283131 86.8218144,5.8408449 87.2606939,4.45631853 C87.4456397,3.87355345 87.8801158,3.6016454 88.4063308,3.73980408 C89.400048,3.99995394 89.474907,5.90037072 88.5758645,8.07857463 C88.1068946,9.2161791 88.1105642,9.60346435 88.5934784,9.9025632 C89.3655541,10.3802395 89.9959847,10.0105915 89.9959847,9.08095997 C89.9959847,8.68853052 90.1912053,8.36738507 90.4297268,8.36738507 C90.6689822,8.36738507 90.7563177,9.32273766 90.6249474,10.4912074 C90.4627528,11.9279107 90.6029301,12.7891978 91.0564878,13.1537016 C91.4249117,13.4505958 95.8335224,14.2957154 100.852748,15.0320717 C109.199532,16.2571277 119.912448,18.9541616 119.444946,19.7125646 C119.346602,19.872035 119.781812,20.03371 120.412242,20.0719241 C121.899148,20.1608454 127.843837,22.9960379 135.015627,27.0364445 C138.686656,29.1044154 142.601344,31.8690589 145.983945,34.7828843 C151.328294,39.3854791 161.870209,50.4484621 165.329137,55.0848618 C167.328314,57.7635235 173.02861,68.7566923 175.253832,74.2249835 C175.9738,75.9931207 176.888989,78.0309613 177.288237,78.7533548 C178.103613,80.2282722 178.250396,82.4344018 177.561986,82.8606361 C176.702575,83.3919591 174.557349,82.1654333 172.39451,79.9049221 C170.600829,78.0302264 170.010029,77.6914437 168.981818,77.9501238 C167.659309,78.2822925 166.689077,77.4415822 167.480234,76.6493745 C167.757653,76.3708524 169.150618,76.5927882 171.050717,77.2167069 C172.763668,77.7803649 174.289471,78.1162081 174.442125,77.9633517 C174.837704,77.5672478 172.733578,71.435354 171.775822,70.1933956 C171.488129,69.821543 170.749813,68.2444763 170.134061,66.6894562 C169.518308,65.1344362 168.703666,63.6029325 168.322765,63.2869312 C167.941865,62.9701951 167.630686,62.4043324 167.630686,62.0295402 C167.630686,61.6540132 167.410512,61.3475655 167.1419,61.3475655 C166.873289,61.3475655 165.816455,59.6948055 164.793381,57.6753371 C163.615452,55.3508907 161.572241,52.5458285 159.224456,50.0303117 C157.18418,47.8447589 154.413661,44.791305 153.066932,43.2443687 C150.567227,40.3746365 141.363968,32.133618 140.657211,32.133618 C140.442908,32.133618 137.975495,30.5741887 135.174152,28.6678928 C132.372076,26.7615969 129.721919,25.2021675 129.283773,25.2021675 C128.845627,25.2021675 126.136024,24.0638282 123.262023,22.6719529 C114.870471,18.6087649 107.835923,16.5834174 108.403971,18.3934431 C108.511122,18.7344305 111.58915,20.5812005 115.244766,22.4977848 C118.899649,24.4143691 123.199641,26.8652159 124.799569,27.9440295 C126.399498,29.022843 128.614445,30.5190722 129.721919,31.2686565 C132.793341,33.3476507 134.804261,35.4288496 138.452538,40.3040874 C140.286585,42.7549342 142.387776,45.4284517 143.121688,46.2456456 C143.8556,47.0621046 145.42764,49.075694 146.615844,50.7196353 C149.787812,55.1083781 159.147395,75.6197983 158.475131,76.7089003 C158.365778,76.8860079 158.891993,77.7686068 159.643519,78.6710475 L161.010798,80.3113144 L162.466146,79.3816829 C163.266844,78.8709367 164.076349,78.2308504 164.265699,77.9604122 C164.455048,77.689239 164.742741,77.6010526 164.904202,77.7634626 C165.066397,77.9251376 164.689166,79.3111338 164.066074,80.8426375 C162.99603,83.4720617 162.130748,84.2370787 161.458484,83.1479767 C160.862548,82.1823357 156.740897,80.735344 153.639384,80.4031753 C151.686443,80.1937326 149.428929,80.2907376 147.794507,80.6552414 C146.329618,80.981531 144.464013,81.1681922 143.647903,81.0697174 C142.198426,80.8948144 142.221177,80.864684 144.637216,79.7461866 C146.741343,78.7724619 147.661669,78.6379776 150.818225,78.8452156 C152.857767,78.978965 155.138766,79.244994 155.886623,79.4360645 C157.108587,79.7476564 157.246562,79.6535909 157.246562,78.5049631 C157.246562,77.8016767 156.890615,76.1775772 156.456139,74.8952001 C155.164453,71.0855479 145.903215,52.3716604 144.243106,50.2169729 C139.204798,43.676482 135.714312,39.561117 135.205711,39.561117 C134.885725,39.561117 134.493082,38.9078028 134.333823,38.109716 C133.850175,35.6875297 126.549216,30.1920476 117.089088,25.1286789 C109.765378,21.2087937 108.892022,20.9199833 107.550431,21.9738107 C106.583135,22.7344183 106.604418,22.7865952 108.505984,24.3482293 C114.654701,29.3976352 117.536774,32.082176 119.941071,35.0011456 C122.838556,38.5190478 123.191568,39.3105207 121.643747,38.8181466 C120.446002,38.4374754 120.409307,38.7262858 121.45293,40.3209898 C122.293993,41.6063064 123.618705,41.9737498 123.624576,40.9228619 C123.626778,40.5826094 124.082537,40.9720993 124.638109,41.7892932 C126.254917,44.1666514 132.027871,53.9016943 132.027871,54.2507655 C132.027871,54.4256685 131.580918,54.1640488 131.035621,53.670205 C129.75788,52.5120237 129.354229,52.9367882 130.124103,54.6292321 C130.603347,55.6815897 130.970303,55.9013208 131.873749,55.6742408 C132.792607,55.4427515 133.016451,55.5875242 133.016451,56.4135368 C133.016451,56.9786646 133.450193,58.3933213 133.980077,59.5573817 C136.851876,65.8700577 139.171038,73.2784496 138.80188,74.9591352 C138.681519,75.5066258 138.404834,76.3826106 138.186128,76.9065848 C137.87128,77.6627831 137.954946,77.7950627 138.593449,77.5503454 C140.386397,76.8610218 141.558455,82.7173332 139.84477,83.8012909 C139.209202,84.202539 138.784267,84.1268457 138.075307,83.4838199 C137.561569,83.0186367 136.881232,82.6387003 136.562714,82.6387003 C135.74954,82.6387003 135.842013,81.8869113 136.74766,81.1343874 C137.188741,80.767679 137.372953,80.1658069 137.183604,79.7123818 C137.003062,79.2787987 136.760871,78.1448687 136.644913,77.1917208 C136.528954,76.2385728 135.99907,74.0427316 135.466983,72.3120737 C134.934897,70.5814157 134.499687,68.7706551 134.499687,68.2878346 C134.499687,67.8050141 134.166491,67.1325929 133.758436,66.7938101 C133.350381,66.4550274 133.016451,65.7980388 133.016451,65.3350602 C133.016451,64.8713468 132.23777,62.6931428 131.285886,60.4936272 C130.334001,58.2941116 129.555321,56.1651451 129.555321,55.7631621 C129.555321,55.3611791 129.22506,54.7571023 128.821408,54.421994 C128.136668,53.8524569 127.264781,52.3944419 123.49027,45.5026753 C120.84525,40.6722656 115.501636,33.9634857 111.225129,30.105331 C104.619919,24.1446657 98.7420165,20.2505016 96.3509305,20.2505016 C95.1737353,20.2505016 96.3002905,22.6109573 99.6887632,27.2429477 C103.114665,31.9256451 107.078525,39.2083714 108.954405,44.2651262 C112.834599,54.726972 117.536774,70.9606172 117.081749,72.3275063 C116.796257,73.185119 114.79708,66.5851023 114.036747,62.2735226 C113.970695,61.9002002 113.503927,60.2577286 112.998995,58.6240757 C112.494797,56.9904227 112.058854,55.4302585 112.030965,55.1583504 C111.802718,52.9198858 108.220493,44.512783 107.494653,44.512783 C107.117423,44.512783 106.809179,44.7156117 106.809179,44.9632685 C106.809179,45.8466022 108.930186,50.9496548 109.297876,50.9496548 C109.503371,50.9496548 109.667034,51.4508475 109.661162,52.0637429 C109.655291,52.6759035 110.031054,54.7372604 110.494153,56.6435563 C110.957251,58.5498521 111.525299,61.1528205 111.757216,62.4285837 C111.988398,63.7036119 112.394251,65.1520734 112.657726,65.6466521 C112.9212,66.1412308 113.290358,67.8829121 113.47824,69.5172999 C113.665387,71.1509528 113.900239,73.0447556 113.999317,73.7259955 C114.097662,74.4065005 114.314166,76.6346767 114.479296,78.6769266 C114.64516,80.7199114 114.99597,82.6093049 115.260179,82.8768036 C115.574293,83.1942746 116.464528,82.9995297 117.82667,82.31682 C122.04006,80.204021 124.611688,79.5293951 127.363859,79.8137962 C128.814069,79.9637131 130.401521,80.3223377 130.890307,80.6111482 C131.571377,81.0123963 130.956359,81.1233641 128.276846,81.0829454 C126.349592,81.0542848 124.305647,81.2813648 123.735397,81.5870776 C123.164413,81.8927904 122.189778,82.1433868 121.569622,82.1433868 C120.898092,82.1433868 119.533015,83.0384786 118.198763,84.3546606 L115.955927,86.5666693 L115.11413,85.0976309 L115.11413,85.0976309 L115.11413,85.0976309 Z M177.025496,80.6736135 C177.025496,80.4097892 176.6923,80.3223377 176.284245,80.4788686 C175.87619,80.6353994 175.54226,80.8514561 175.54226,80.9587495 C175.54226,81.0653081 175.87619,81.1527596 176.284245,81.1527596 C176.6923,81.1527596 177.025496,80.9374378 177.025496,80.6736135 L177.025496,80.6736135 Z M139.744958,79.8747918 C139.579827,79.4441482 139.444788,78.9848441 139.444788,78.8547692 C139.444788,78.7254291 139.231953,78.7504153 138.972148,78.9113554 C138.398229,79.2670406 138.859126,80.657446 139.550471,80.657446 C139.822752,80.657446 139.910088,80.3054353 139.744958,79.8747918 L139.744958,79.8747918 Z M177.025496,79.1722402 C177.025496,78.9003321 176.78991,78.6769266 176.502217,78.6769266 C176.214523,78.6769266 176.116179,78.9003321 176.284245,79.1722402 C176.452311,79.4448831 176.687897,79.6675538 176.807524,79.6675538 C176.927886,79.6675538 177.025496,79.4448831 177.025496,79.1722402 L177.025496,79.1722402 Z M138.186128,73.107221 C137.73624,71.6131965 136.972237,70.8253981 136.972237,71.8535044 C136.972237,73.042551 137.507993,74.2213091 138.047419,74.2213091 C138.310159,74.2213091 138.372542,73.7223211 138.186128,73.107221 L138.186128,73.107221 Z M136.49813,67.358203 C135.915404,65.3255067 135.041314,63.8226636 134.441708,63.8226636 C134.156216,63.8226636 134.03879,64.1011856 134.179701,64.442173 C134.320613,64.7824255 134.708118,65.8965136 135.04058,66.918006 C135.768621,69.1513264 137.129295,69.562128 136.49813,67.358203 L136.49813,67.358203 L136.49813,67.358203 Z M133.511107,60.4392456 C133.511107,59.79475 132.923244,59.3663112 132.445467,59.6617356 C131.93393,59.9784717 132.375011,60.8522519 133.045807,60.8522519 C133.301942,60.8522519 133.511107,60.6663256 133.511107,60.4392456 L133.511107,60.4392456 Z M129.060664,50.5087228 C129.060664,49.7385617 127.182582,47.7161537 126.811223,48.0865366 C126.384086,48.5127708 127.887872,50.9496548 128.57775,50.9496548 C128.843426,50.9496548 129.060664,50.7512354 129.060664,50.5087228 Z M126.094191,45.0683573 C126.094191,44.434885 124.639577,43.3274109 124.280694,43.6875053 C123.92181,44.0468649 125.027816,45.5026753 125.659715,45.5026753 C125.898236,45.5026753 126.094191,45.3071954 126.094191,45.0683573 Z M107.185676,42.6557245 C106.620564,41.4637384 105.838214,39.5890427 105.273835,38.0759112 C104.387269,35.6956134 102.848255,33.1242452 102.309564,33.1242452 C101.698215,33.1242452 101.729039,33.2594643 102.829907,35.4295845 C104.303603,38.3323866 105.819866,41.9215728 105.819866,42.5050728 C105.819866,42.7916785 106.167006,43.0268423 106.590474,43.0268423 C107.014675,43.0268423 107.282553,42.860023 107.185676,42.6557245 L107.185676,42.6557245 Z M119.665854,35.6566645 C119.665854,35.4156216 119.109548,34.8534334 118.429211,34.4073572 C117.014229,33.4791954 116.810201,33.8606016 118.011615,35.1892766 C118.884971,36.1556525 119.665854,36.3761184 119.665854,35.6566645 Z M101.517672,31.4788341 C100.158467,29.2264066 95.5751853,23.747092 95.0394294,23.7331292 C94.6467863,23.7228408 94.9095269,24.3901178 95.7168303,25.4498243 C96.4426695,26.4029723 97.2697886,27.1826869 97.5545465,27.1826869 C97.8400384,27.1826869 97.9354469,27.3201107 97.7666471,27.4891347 C97.5985812,27.6574237 97.7284837,28.0682253 98.0550746,28.4011289 C98.3823995,28.7340326 99.1838316,29.709962 99.8362796,30.5697793 C100.985586,32.0843806 102.318371,32.8045695 101.517672,31.4788341 L101.517672,31.4788341 Z M115.443657,31.123149 C114.034545,29.5644545 107.319982,24.525337 107.033023,24.8119427 C106.669736,25.1764465 114.827904,32.0718876 115.662362,32.1056924 C116.181972,32.1270041 116.126929,31.8786124 115.443657,31.123149 Z M83.940475,24.583393 C83.1691333,23.4185977 81.5904881,22.788065 81.5904881,23.6449428 C81.5904881,24.4055504 83.0509734,25.6967462 83.9111185,25.6967462 C84.5951247,25.6967462 84.5980604,25.5769597 83.940475,24.583393 L83.940475,24.583393 L83.940475,24.583393 Z M106.087744,23.7492967 C105.907935,23.4590165 105.524833,23.2216481 105.235672,23.2216481 C104.907613,23.2216481 104.945042,23.5053144 105.335484,23.9763767 C106.013619,24.7943055 106.61983,24.6120536 106.087744,23.7492967 L106.087744,23.7492967 Z M87.6225126,22.6271249 C87.3054625,22.3096538 86.8819952,22.2141186 86.6809032,22.4147426 C86.4805452,22.6153667 86.6376024,22.9784007 87.0295115,23.2216481 C87.9527731,23.792655 88.3696352,23.3752394 87.6225126,22.6271249 L87.6225126,22.6271249 Z M103.841972,22.231021 C103.841972,21.9591129 103.494832,21.7357074 103.071365,21.7357074 C102.647163,21.7357074 102.437998,21.9591129 102.606064,22.231021 C102.77413,22.5036639 103.120537,22.7263345 103.376672,22.7263345 C103.632807,22.7263345 103.841972,22.5036639 103.841972,22.231021 Z M91.4799552,22.0127596 C91.4799552,21.4902553 90.5310067,21.2705242 90.2484505,21.7276236 C90.0774489,22.0046759 90.2851461,22.231021 90.7086134,22.231021 C91.1328147,22.231021 91.4799552,22.1325462 91.4799552,22.0127596 Z M63.5531278,19.7177088 C63.7322023,19.152581 63.735138,18.5462995 63.559733,18.3706616 C63.1891073,17.9995439 62.3238248,19.2179859 62.3128161,20.1270406 C62.3003396,21.1301608 63.1993821,20.8340015 63.5531278,19.7184436 L63.5531278,19.7177088 Z M82.8263963,20.2505016 C82.6583304,19.9778586 82.1445919,19.7588624 81.6844289,19.7632717 C80.9637271,19.7698857 80.9512506,19.8367604 81.5904881,20.2505016 C82.5585183,20.8773598 83.213168,20.8773598 82.8263963,20.2505016 Z M93.2552888,20.1880362 C96.229835,19.437717 96.8822829,18.1876748 95.1854779,16.4893519 C94.3209293,15.6229206 93.6361892,15.3245566 93.0652055,15.5641296 C92.601373,15.7588746 90.0194699,16.1013318 87.3282138,16.3247373 C84.6369577,16.5481428 82.268623,16.909707 82.0645954,17.1287032 C81.2771076,17.9745577 82.5203549,19.7544531 83.9228611,19.7904625 C84.6795246,19.8095696 85.7436973,20.0168076 86.2875263,20.2505016 C87.7061786,20.8611923 90.6917334,20.8340015 93.2552888,20.1880362 L93.2552888,20.1880362 Z M103.594644,19.755188 C103.76271,19.4832799 103.540334,19.2606093 103.099987,19.2606093 C102.660374,19.2606093 102.437998,19.4832799 102.606064,19.755188 C102.77413,20.0278309 102.996506,20.2505016 103.099987,20.2505016 C103.204203,20.2505016 103.426578,20.0278309 103.594644,19.755188 L103.594644,19.755188 Z M72.420989,17.3138947 C72.5773123,17.0603588 72.5163976,16.7362738 72.2852152,16.5929709 C72.0540329,16.449668 71.8654174,16.6576409 71.8654174,17.0537448 C71.8654174,17.888576 72.0210068,17.9620647 72.420989,17.3138947 L72.420989,17.3138947 L72.420989,17.3138947 Z M84.1863356,15.8007631 C84.9341922,15.7970887 85.5462749,15.5714785 85.5462749,15.2988356 C85.5462749,15.0269275 84.433664,14.8042569 83.0737247,14.8042569 C81.1259217,14.8042569 80.6011745,14.9740157 80.6011745,15.6045484 C80.6011745,16.1931926 80.8954733,16.3254722 81.7137854,16.106476 C82.3258682,15.9418614 83.4384791,15.8044376 84.1863356,15.8007631 L84.1863356,15.8007631 Z M88.5127481,15.3407241 C88.5127481,14.7601637 87.460318,14.3868413 86.6588859,14.6822657 C85.5881079,15.0761649 85.9873562,15.7941492 87.2768399,15.7941492 C87.9564426,15.7941492 88.5127481,15.5898507 88.5127481,15.3407241 L88.5127481,15.3407241 Z M84.994373,79.3824178 C83.8017656,78.3910557 82.7434642,77.5018429 82.6414504,77.4070425 C82.5401705,77.3122422 82.6216348,76.8353008 82.8227267,76.3466012 C83.0245526,75.8586365 83.146382,72.8176757 83.0942742,69.5885839 C82.9885909,63.0569117 82.7948381,63.2538613 86.4387122,66.1831194 C89.0118084,68.25256 88.8275964,68.7978459 86.0783613,67.2509096 C83.0942742,65.5716937 83.1060168,66.4271017 86.1047821,69.2277546 C88.6110923,71.5683684 88.9802502,72.8786713 86.5348547,70.754849 C85.9080937,70.210298 85.0391416,69.7715707 84.6046656,69.7803893 C83.9551533,69.7936173 83.9859776,69.925162 84.7749332,70.5233597 C85.30335,70.923138 85.8603894,71.2501625 86.0145109,71.2501625 C86.1678986,71.2501625 86.599439,71.9431606 86.9744681,72.78975 C87.5227005,74.0309735 87.5322414,74.4050307 87.0236402,74.7195622 C86.5355886,75.0216006 86.6420059,75.5154444 87.4926101,76.8940917 L88.5934784,78.6769266 L87.5645335,78.6769266 C86.4548583,78.6769266 86.1356064,79.9372571 87.1528088,80.301026 C87.493344,80.4230172 87.6342552,80.6714089 87.4661893,80.8536608 C87.2988573,81.0359126 86.1862464,80.3737798 84.994373,79.3824178 L84.994373,79.3824178 L84.994373,79.3824178 Z M85.5462749,76.944064 C85.5462749,76.535467 85.336376,76.2018285 85.0809746,76.2018285 C84.4571492,76.2018285 84.0109306,76.9749292 84.4057754,77.3702982 C84.9628147,77.9280772 85.5462749,77.7098158 85.5462749,76.944064 Z M85.5462749,73.4783387 C84.8879557,72.6839263 83.5683815,72.4641952 83.5683815,73.1483746 C83.5683815,73.8259401 84.1672539,74.2213091 85.194731,74.2213091 C85.9983649,74.2213091 86.0578118,74.0956435 85.5462749,73.4783387 L85.5462749,73.4783387 Z M47.2235811,78.6710475 C43.9796891,77.1373392 38.4371841,75.6837334 35.5690552,75.6146541 C33.8524346,75.5727656 31.7622526,75.9615206 29.777754,76.6897932 L26.6725714,77.8303372 L24.8333874,75.693287 C22.1832304,72.6141121 21.6577493,71.7954484 21.8911334,71.1134736 C22.0144306,70.7541141 22.7703602,71.2626556 23.7493991,72.3642506 C24.6579824,73.385743 25.7779324,74.2213091 26.2380954,74.2213091 C27.3521741,74.2213091 28.2959852,73.0212393 28.0992968,71.856444 C28.0119612,71.3405536 28.4765276,69.71131 29.1311773,68.2371274 C29.7865609,66.76221 30.7068868,64.6648436 31.1773246,63.5757417 C33.3680525,58.499145 34.7793657,55.8190135 37.4339261,51.6918903 C41.6583248,45.1249435 47.2353237,37.8965988 49.5992549,35.925633 C50.7404884,34.9739548 52.7536096,33.1889152 54.0731838,31.9594499 C56.5824296,29.6203058 59.989984,27.1826869 60.750317,27.1826869 C60.9954437,27.1826869 61.4724867,26.8483135 61.8108202,26.4397166 C62.1491537,26.0311196 62.5917028,25.6967462 62.7935286,25.6967462 C63.2103908,25.6967462 64.9783853,32.5929222 64.645923,32.9258258 C64.5270293,33.0448774 63.810731,32.2467906 63.0533336,31.1525444 C61.7682533,29.295486 60.8215065,28.6245345 60.8215065,29.5703335 C60.8215065,29.7937391 61.1752522,31.0158555 61.6075265,32.2857396 C62.0390669,33.5548887 62.3084127,34.8482892 62.204931,35.1591462 C62.0368651,35.6640133 60.8604039,33.3087017 60.1375003,31.0195299 C59.9870483,30.5433234 59.4982628,30.1530986 59.0513103,30.1530986 C58.3915232,30.1530986 58.2997842,30.4771836 58.5625247,31.8793473 C58.7408654,32.8288208 59.3169865,34.5558043 59.8432015,35.7169252 C61.101861,38.4940617 61.1400244,39.5074703 59.9452153,38.4249823 C58.7467367,37.3388199 57.6319241,38.0663576 58.1104348,39.6228475 C58.9155365,42.2412485 56.3600542,37.8275195 55.4228483,34.9813037 C55.0705704,33.9113088 54.4907798,33.1242452 54.054836,33.1242452 C53.5410974,33.1242452 53.4038558,33.3990928 53.6269651,33.9803881 C53.9953891,34.9430896 55.87714,41.8782145 55.87714,42.2750533 C55.87714,43.1113542 55.0169949,42.2993045 54.5274754,41.0014948 C53.7539319,38.9489565 52.8013139,39.6052102 53.1484544,41.9517032 L53.4163323,43.7698126 L52.4416969,41.6650974 C51.905941,40.5083859 51.2145957,39.561117 50.9056187,39.561117 C50.1438178,39.561117 50.8131457,44.3658057 51.7819098,45.8466022 C52.181892,46.4565581 52.4064691,47.2421519 52.2817041,47.591223 C52.156939,47.9402941 51.4553189,46.8894063 50.7236084,45.2550185 C48.6965429,40.7325263 48.3273851,40.0564306 47.8819004,40.0564306 C47.1127604,40.0564306 47.4679739,41.5798505 49.5089837,47.0327092 C50.6304016,50.028107 51.4391728,52.5877171 51.3063347,52.7207315 C51.1734966,52.8530111 50.3118837,51.4684848 49.3915578,49.6422915 C47.6874136,46.2632829 46.4815959,45.1205342 46.4815959,46.8864667 C46.4815959,47.4207293 46.8272685,48.6854692 47.249268,49.697408 C47.6712676,50.708612 47.9259351,51.7947744 47.8143804,52.1093059 C47.7028258,52.4245722 47.258075,51.8469514 46.8250668,50.825459 C45.7983236,48.4040076 44.2637132,48.2195511 44.7708465,50.5778022 C44.9616637,51.4633405 45.3998093,52.7442479 45.744748,53.4247529 C46.5997557,55.1113177 47.46724,58.3771538 47.0599187,58.3749491 C46.8779085,58.3742142 46.3230708,57.384322 45.8269462,56.1769033 C44.6820431,53.3880086 43.5143888,52.2827391 43.5143888,53.9869412 C43.5143888,54.6343763 43.722086,55.8873579 43.9745518,56.7706916 C44.2277515,57.6540254 44.2519706,58.3764189 44.0281273,58.3764189 C43.805018,58.3764189 43.4820967,57.8193748 43.311829,57.1388698 C43.1408275,56.45763 42.6718576,55.9005859 42.2689398,55.9005859 C41.4264086,55.9005859 41.3207252,57.2483679 42.0186757,59.0870542 C42.2843519,59.7851965 42.3115067,60.3569383 42.0788565,60.3569383 C41.8469403,60.3569383 41.3860434,59.633075 41.0557829,58.7475366 C39.642268,54.9643404 38.8848706,53.4247529 38.4371841,53.4247529 C38.1744436,53.4247529 38.0724298,53.8149777 38.2104053,54.2919191 C38.3476468,54.7681256 38.7336847,56.2724385 39.0676147,57.6334485 C39.4022787,58.9951934 39.9035407,60.5553577 40.1816935,61.0999087 C40.6814877,62.0780427 40.6748825,62.0780427 39.6261219,61.1440019 C38.1091254,59.7932803 37.86987,60.4054408 38.7461612,63.398634 C39.6371306,66.4403297 39.4727343,67.040732 38.346179,64.8595886 C37.2805385,62.7952921 36.3594787,62.8423248 36.8299164,64.9374865 C37.0288066,65.82229 37.3047576,67.0480809 37.443467,67.6602414 C37.6298807,68.4833144 37.4728235,68.7743295 36.8431268,68.7743295 C36.173065,68.7743295 36.0585747,69.0484422 36.3110405,70.0537671 C36.7323061,71.7359226 35.9081227,71.2038647 35.1125618,69.2806664 C34.7727605,68.4575934 34.1981072,67.7844373 33.8362885,67.7844373 C33.2939274,67.7844373 33.3012665,68.1952389 33.8781215,70.1132929 C34.2626915,71.3942003 34.5107538,72.5090233 34.4278217,72.5920655 C34.3456236,72.6743728 33.8744519,72.2944364 33.380529,71.7484157 C31.6851918,69.8722501 30.9101805,71.0708502 32.5490065,73.0344672 C33.2829187,73.9133916 34.1467334,74.118425 38.095915,74.3506491 C43.7602494,74.6835528 46.7736929,75.6815288 48.9732278,77.9545331 C50.8314935,79.8747918 50.2619777,80.1077508 47.2235811,78.6710475 L47.2235811,78.6710475 L47.2235811,78.6710475 Z M36.097472,66.5138183 C36.097472,65.3791534 35.1272401,63.7528493 34.6325832,64.0585622 C34.1459995,64.3598657 35.1243044,67.2891237 35.7114342,67.2891237 C35.9235348,67.2891237 36.097472,66.9400526 36.097472,66.5138183 L36.097472,66.5138183 Z M35.8501436,61.8421441 C35.6820777,61.5702361 34.9885307,61.3475655 34.308194,61.3475655 C33.6102435,61.3475655 33.205124,61.5628872 33.3775934,61.8421441 C33.5456593,62.1147871 34.2399402,62.3374577 34.9195429,62.3374577 C35.6174934,62.3374577 36.022613,62.1221359 35.8501436,61.8421441 L35.8501436,61.8421441 Z M37.5851121,56.159266 C37.2225594,55.2039134 36.8878955,54.9114285 36.5466263,55.2524159 C36.206091,55.5941382 36.33159,56.3224108 36.9363337,57.5129271 C37.9674803,59.5426839 38.4709441,58.492531 37.5851121,56.159266 Z M41.0425725,52.9625092 C41.0425725,52.0497801 40.0694049,49.9590277 39.6452036,49.9590277 C39.4066822,49.9590277 39.4558543,50.7387424 39.7538226,51.6918903 C40.2506812,53.2829198 41.0425725,54.0626345 41.0425725,52.9625092 L41.0425725,52.9625092 L41.0425725,52.9625092 Z M42.5302125,49.2219364 C42.1940807,48.816279 41.6979561,48.621534 41.4278764,48.7883533 C41.129908,48.9735447 41.2003636,49.2594156 41.6076849,49.5180957 C42.6740593,50.1949263 43.1973387,50.0266372 42.5302125,49.2219364 L42.5302125,49.2219364 Z M51.4266963,38.5704899 C51.4266963,38.2985818 51.0927663,38.0759112 50.6847111,38.0759112 C50.2766559,38.0759112 49.9427258,38.2985818 49.9427258,38.5704899 C49.9427258,38.8431328 50.2766559,39.0658034 50.6847111,39.0658034 C51.0927663,39.0658034 51.4266963,38.8431328 51.4266963,38.5704899 Z M53.3693619,37.9517153 C53.3510141,37.6114628 53.1836822,36.9515347 52.9987363,36.4848817 C52.4960064,35.2157325 51.2322096,36.1879875 51.6542091,37.5188671 C52.0086887,38.6373645 53.4280749,38.9959892 53.3693619,37.9517153 L53.3693619,37.9517153 L53.3693619,37.9517153 Z M58.8436131,35.9359214 C58.8436131,35.1201972 57.1636881,31.1437258 56.8194832,31.1437258 C56.1574944,31.1437258 56.2756543,33.9737741 56.9846135,35.1113786 C57.4880773,35.919019 58.8436131,36.5201562 58.8436131,35.9359214 L58.8436131,35.9359214 Z M116.705986,75.116401 C116.711857,73.5569716 116.842493,73.1829143 117.193303,73.7259955 C117.820064,74.6975156 117.820064,76.5560439 117.193303,76.944064 C116.892399,77.1307252 116.701582,76.4149456 116.705986,75.116401 L116.705986,75.116401 Z M0.61795408,72.4076089 C0.234851907,72.2525479 0,71.1810832 0,69.5885839 C0,67.5029757 0.313380513,66.5424789 1.66377898,64.4892057 C3.17123466,62.1970944 6.58392643,56.3576854 8.3614618,53.0279141 C8.74456397,52.3106648 9.43003798,51.3817681 9.88432963,50.9650874 C10.3386213,50.5476718 12.3062399,48.284956 14.2562447,45.9369932 C18.860076,40.3930087 21.8903995,37.6283652 23.7772878,37.2506335 C24.761464,37.052949 25.4550111,36.52824 25.7471081,35.7580788 C26.3048814,34.2897754 28.4801972,32.334977 30.2760804,31.6882768 C31.8738073,31.1135954 31.9185759,31.1709166 32.352318,34.3617942 C32.8227557,37.8164962 33.6139131,40.1218355 34.2039785,39.7565968 C34.9048647,39.3222789 34.2054463,32.6642062 33.3108074,31.2532239 C32.9166965,30.6329796 32.7075315,29.9436559 32.8440392,29.7209853 C32.9812808,29.4990495 34.542312,28.6032228 36.3117744,27.7309124 C38.0819706,26.858602 39.6606158,25.9326448 39.8206087,25.6732299 C39.9806015,25.4138149 40.7424024,25.2021675 41.5130102,25.2021675 C42.3430649,25.2021675 43.0388137,24.8780825 43.2186222,24.4077551 C43.3976968,23.9403672 43.8365763,23.734599 44.2864644,23.9072973 C44.7062622,24.0682375 44.9381785,24.0190001 44.8016708,23.7977992 C44.4963633,23.3039554 55.5666951,17.9113575 57.8065952,17.4623418 L59.4234038,17.1389916 L59.0711259,21.7893541 C58.8773731,24.3467595 58.6417873,26.5264332 58.5478465,26.6322569 C58.4539057,26.7380805 58.1537356,26.2368879 57.8807203,25.5181688 C57.1064429,23.4773887 56.3732646,23.9793162 56.3541829,26.5639124 C56.3373029,28.8053166 56.3050108,28.8589633 55.6694428,27.7103355 C55.2841389,27.0129281 55.0867165,25.6056203 55.2026746,24.3680712 C55.3626675,22.6491715 55.2459755,22.231021 54.6038023,22.231021 C53.9168605,22.231021 53.8390658,22.7829208 54.0401577,26.2133715 C54.205288,29.0390105 54.1113472,30.1420753 53.7150346,30.0112655 C53.3957828,29.9054418 53.0948788,28.4143569 53.0112128,26.5242285 C52.9304824,24.7075888 52.7969104,23.2216481 52.7139783,23.2216481 C52.3059232,23.2216481 47.6419111,25.879733 46.572601,26.721913 C45.677962,27.4266693 45.1825713,27.5413116 44.7158031,27.1532915 C44.240228,26.7579225 43.939324,26.8835881 43.5320027,27.6456655 C42.8362539,28.9464148 42.0311522,28.9640521 42.0311522,27.6780005 C42.0311522,25.7871373 41.1012855,26.6998664 40.7695571,28.9155496 C40.4143436,31.2840891 39.558602,31.9837012 39.558602,29.9054418 C39.558602,29.1749645 39.2753119,28.6678928 38.8672567,28.6678928 C37.9256473,28.6678928 37.6298807,32.717118 38.3608573,35.6000782 C38.672036,36.8251342 39.0793573,39.217925 39.2665049,40.9162479 C39.549795,43.4920255 39.4881464,43.9594134 38.8951454,43.7308636 C38.2757235,43.4934953 37.4405314,39.3612279 37.3311784,35.9976518 C37.3165002,35.5354082 37.1440308,34.9974712 36.9480763,34.8012564 C36.7521217,34.6050417 36.5921288,34.0362395 36.5921288,33.5365166 C36.5921288,33.0375286 36.3433326,32.6289316 36.039493,32.6289316 C35.7341855,32.6289316 35.6013474,33.0639845 35.7415246,33.6011866 C35.8809679,34.1354492 35.6703351,34.843145 35.2732886,35.1731091 C34.642858,35.6970832 34.6494632,35.827893 35.3246625,36.2063596 C35.7495976,36.4444629 36.097472,37.2690057 36.097472,38.0376971 C36.097472,38.8071233 36.3836978,40.3004129 36.7337739,41.3557101 C37.092657,42.438933 37.243109,44.1372559 37.0787126,45.2550185 L36.7873495,47.2355379 L36.0204112,44.7597049 C35.0788019,41.719479 33.8304172,41.2065281 33.5346506,43.7382125 C33.422362,44.7023837 33.5918957,45.7723786 33.9111475,46.1155707 C34.6890945,46.9518716 35.2747564,50.9496548 34.6201067,50.9496548 C34.3448897,50.9496548 34.1195786,50.5484067 34.1195786,50.0582374 C34.1195786,49.568068 33.9052762,48.952233 33.6425357,48.6891436 C32.9438513,47.9895315 31.6037276,41.1668443 31.7600509,39.1054873 C31.8730733,37.6151373 31.7240892,37.3086896 30.8257806,37.1808193 C29.8071105,37.0353117 29.768947,37.1727355 29.9979276,40.151231 C30.1300318,41.8693959 30.8888971,45.6349548 31.6844579,48.5201197 C32.4800187,51.4052845 33.130265,53.9119827 33.130265,54.0905602 C33.130265,54.7909071 32.2422312,54.3661427 31.9985723,53.5489487 C31.8569273,53.0720073 31.1787924,51.117209 30.4933184,49.2035642 C29.7961018,47.2590543 29.1062243,43.9829297 28.9300854,41.7760653 C28.5763397,37.351313 28.3069939,36.0953918 27.7117911,36.0953918 C26.4678099,36.0953918 26.7217435,42.2669695 28.2020445,48.0034944 C28.7957794,50.3044244 29.3696988,52.7442479 29.4775839,53.4247529 C29.6566585,54.5550085 29.6096881,54.5336968 28.9410941,53.177831 C28.5389102,52.3606371 27.8556379,50.5263601 27.4233636,49.101415 C26.6637645,46.5969214 25.9540714,45.5915965 25.363272,46.1831803 C25.021269,46.5256374 26.3320362,52.2136598 27.9789352,57.5357086 C29.3366727,61.9215119 29.3227284,61.8421441 28.7488091,61.8421441 C28.1528723,61.8421441 24.8275161,51.7249602 24.3636836,48.498808 C23.9791136,45.8223509 23.1329128,44.7699933 22.5626631,46.2581387 C21.9564516,47.8396147 24.3974436,57.474713 26.9140285,63.4361132 C28.0273734,66.0728864 27.8769214,67.4610872 26.7114688,65.3086043 C24.7188971,61.6297619 21.9960828,52.8287599 21.4874817,48.4260542 C21.1124525,45.1712414 20.5686236,44.0196741 19.7804019,44.8082074 C19.4127118,45.1763856 19.3936301,46.0251796 19.7194872,47.5272879 C21.5586711,56.0225771 22.997873,61.2490907 24.4869809,64.8368071 C26.2872675,69.1770474 26.4479943,69.7649567 25.8337098,69.7649567 C25.463818,69.7649567 25.0315437,68.907344 23.4609716,65.0609475 C23.0162208,63.9718455 22.3637728,62.4116813 22.0107611,61.5952222 C21.6577493,60.7780283 21.0060353,58.4381494 20.5627523,56.3958995 C20.1187354,54.3536496 19.3914284,51.3994054 18.9466776,49.8304225 C18.1988211,47.1987936 18.0718542,47.0378534 17.2983108,47.7389352 C16.5445829,48.4223798 16.3948648,48.4201751 15.816542,47.7220328 C14.6863172,46.3588182 14.4096323,47.6331115 15.0760246,51.129702 C15.7541595,54.6843486 17.3188603,57.3380241 17.2953751,54.8930564 C17.2887699,54.22137 17.0774032,52.7817271 16.8249374,51.6926252 C16.5732055,50.6035232 16.5504542,49.5283841 16.7750314,49.3027739 C17.2601473,48.8177488 18.2883583,51.5397688 18.3133114,53.3747806 C18.3228522,54.0832113 18.6487092,55.2200809 19.0376827,55.9005859 C19.4266562,56.5818258 19.7547149,57.8068818 19.7671914,58.6240757 C19.7943462,60.3951524 20.8724632,64.1063298 21.9858081,66.2624871 C22.4261554,67.1156905 22.6507325,68.0328289 22.4848684,68.3017974 C22.0680062,68.9771582 21.2629045,68.3936583 21.2629045,67.4162591 C21.2629045,66.9738573 20.8291624,65.7054431 20.2992778,64.5979689 C19.7693932,63.4912297 19.1074044,61.9722191 18.8285177,61.2233696 C18.5488972,60.4745202 18.0924038,59.8616247 17.8135171,59.8616247 C16.9819946,59.8616247 17.2307909,61.5797896 18.5980693,65.2740646 C20.3565229,70.0236368 20.1025893,70.5167457 16.1834981,69.9663156 C14.4896287,69.7282124 11.2750933,69.5569838 9.03886277,69.5849095 C5.22398711,69.6326771 4.86583795,69.7311519 3.21159983,71.1854925 C2.2421018,72.037961 1.40103841,72.7177311 1.34232543,72.6964194 C1.28434637,72.6751077 0.957755433,72.5450327 0.61795408,72.4076089 L0.61795408,72.4076089 L0.61795408,72.4076089 Z M18.7903543,68.4575934 C18.7903543,67.5132641 15.975801,62.3837556 15.4459164,62.3624439 C14.9681395,62.3433368 14.9982299,62.7614873 15.5758188,64.1467486 C15.9912131,65.141785 16.1974425,66.088319 16.0345139,66.2507289 C15.5354536,66.7482472 13.8452538,64.2804979 13.8452538,63.0547071 C13.8452538,62.419765 13.6082002,61.7539578 13.3183049,61.5746454 C12.5543023,61.1013784 12.1359723,61.7098646 12.7164969,62.4491605 C12.9887783,62.7967619 13.3491292,63.8042914 13.5164612,64.6898298 C13.8973616,66.7034191 12.8016307,66.9150664 11.9282751,64.9970124 C11.2222516,63.444197 10.7356678,63.7565238 10.675487,65.8009783 C10.6380575,67.0598391 10.8215355,67.2950028 11.8673604,67.3295425 C13.6815914,67.3890683 15.6800344,67.7579814 16.9401616,68.2650531 C18.3103757,68.816953 18.7903543,68.8669253 18.7903543,68.4575934 L18.7903543,68.4575934 L18.7903543,68.4575934 Z M7.91157362,61.8421441 C7.91157362,61.5702361 7.68919822,61.3475655 7.4176507,61.3475655 C7.14536927,61.3475655 6.92299387,61.5702361 6.92299387,61.8421441 C6.92299387,62.1147871 7.14536927,62.3374577 7.4176507,62.3374577 C7.68919822,62.3374577 7.91157362,62.1147871 7.91157362,61.8421441 Z M10.2608266,59.5728143 C9.78965496,59.1010171 8.84437603,59.8652992 9.19591998,60.4341014 C9.40435105,60.7728841 9.68103595,60.7640655 10.0362495,60.4083804 C10.3276126,60.1166304 10.4281586,59.7411033 10.2608266,59.5728143 L10.2608266,59.5728143 L10.2608266,59.5728143 Z M11.3734375,57.3865266 C11.3734375,57.1138837 11.0395075,56.8912131 10.6314523,56.8912131 C10.2233971,56.8912131 9.88946702,57.1138837 9.88946702,57.3865266 C9.88946702,57.6584347 10.2233971,57.8811053 10.6314523,57.8811053 C11.0395075,57.8811053 11.3734375,57.6584347 11.3734375,57.3865266 Z M17.3438133,57.2498377 C17.2828986,56.658254 16.6047637,56.7728963 16.3919292,57.4107779 C16.2833102,57.7378024 16.4616509,57.915645 16.7875079,57.8068818 C17.1140988,57.6981186 17.3643629,57.4475222 17.3438133,57.2498377 Z M14.3399107,52.0975477 C14.3399107,51.4677499 14.2026691,51.4376195 13.6037967,51.9351378 C13.1986772,52.2717158 12.9917139,52.7479223 13.1436338,52.9941094 C13.5333411,53.6261118 14.3399107,53.022035 14.3399107,52.0975477 L14.3399107,52.0975477 Z M11.8673604,51.9395471 C11.8673604,51.667639 11.5341643,51.4442335 11.1261091,51.4442335 C10.7180539,51.4442335 10.3841238,51.667639 10.3841238,51.9395471 C10.3841238,52.21219 10.7180539,52.4348606 11.1261091,52.4348606 C11.5341643,52.4348606 11.8673604,52.21219 11.8673604,51.9395471 Z M13.8283738,48.8449396 C13.8379147,48.6406411 13.6162732,48.4738218 13.3351848,48.4738218 C12.7186986,48.4738218 11.879103,50.5248903 12.2431235,51.1399904 C12.4860484,51.5500572 13.7894765,49.6621335 13.8283738,48.8449396 L13.8283738,48.8449396 Z M23.3288674,42.5690079 C23.1534624,40.7259123 22.3270772,39.7044199 22.1971748,41.1705187 C22.1069036,42.1883366 22.3351503,44.2379354 22.5832126,44.6443277 C23.1197024,45.5232521 23.507942,44.4444385 23.3288674,42.5690079 L23.3288674,42.5690079 Z M26.208005,42.03695 C26.208005,41.7643071 25.9848957,41.5416364 25.7133482,41.5416364 C25.4410667,41.5416364 25.2186913,41.7643071 25.2186913,42.03695 C25.2186913,42.308858 25.4410667,42.5322636 25.7133482,42.5322636 C25.9848957,42.5322636 26.208005,42.308858 26.208005,42.03695 Z M25.7133482,40.0564306 C25.7133482,39.7837877 25.5041832,39.561117 25.2480478,39.561117 C24.9919125,39.561117 24.644772,39.7837877 24.4767061,40.0564306 C24.3086402,40.3283386 24.5185391,40.5510093 24.9420064,40.5510093 C25.3662077,40.5510093 25.7133482,40.3283386 25.7133482,40.0564306 Z M36.5921288,31.1437258 C36.5921288,30.5991748 36.3697534,30.1530986 36.097472,30.1530986 C35.8251906,30.1530986 35.6028152,30.5991748 35.6028152,31.1437258 C35.6028152,31.6882768 35.8251906,32.133618 36.097472,32.133618 C36.3697534,32.133618 36.5921288,31.6882768 36.5921288,31.1437258 Z M49.9427258,23.2216481 C49.9427258,22.9490052 49.7203504,22.7263345 49.4488029,22.7263345 C49.1765215,22.7263345 48.9541461,22.9490052 48.9541461,23.2216481 C48.9541461,23.4935562 49.1765215,23.7162268 49.4488029,23.7162268 C49.7203504,23.7162268 49.9427258,23.4935562 49.9427258,23.2216481 Z M57.7420109,20.9964115 C57.6884353,20.3489764 57.3963382,19.962426 57.0587386,20.0925009 C56.378402,20.3541206 55.7964096,22.1957464 56.1919883,22.8365675 C56.654353,23.585417 57.8396212,22.178844 57.7420109,20.9964115 Z M38.3021443,70.2272004 C37.8493205,69.4923138 38.2749895,69.1873358 39.2378824,69.5577187 C39.6833671,69.7282124 39.9248242,70.06773 39.7743722,70.3117123 C39.4037465,70.9113798 38.6999247,70.870961 38.3021443,70.2272004 Z M87.2768399,64.7420067 C86.4607296,64.1981906 85.1815206,63.5242996 84.433664,63.2443078 C83.6043432,62.9341856 83.0737247,62.368323 83.0737247,61.7943765 C83.0737247,60.242296 84.2090869,60.7118885 86.7821831,63.3280849 C89.441147,66.0309978 89.5116026,66.2323568 87.2768399,64.7420067 L87.2768399,64.7420067 Z M89.2547333,62.8327713 C89.0866674,62.5601284 89.1850117,62.3374577 89.4727053,62.3374577 C89.7603988,62.3374577 89.9967186,62.5601284 89.9967186,62.8327713 C89.9967186,63.1054142 89.8983743,63.3280849 89.7780127,63.3280849 C89.658385,63.3280849 89.4227992,63.1054142 89.2547333,62.8327713 Z M85.1749154,60.0681279 C82.6597982,58.3668654 81.8877226,56.8823944 83.1199612,56.1195821 C83.4179295,55.9351256 83.5595746,55.2538857 83.4362773,54.6049808 C83.1052829,52.8721182 84.0821201,53.1440262 86.2787193,55.3964537 C88.3674335,57.5379133 88.3872491,58.4704844 86.3154149,57.1109441 C84.3008259,55.789618 84.2604608,56.6347376 86.2288133,58.9371374 C87.7399385,60.7038048 88.4114682,61.8722745 87.894794,61.8333255 C87.8265402,61.8281813 86.6031085,61.0337689 85.1749154,60.0681279 L85.1749154,60.0681279 Z M30.0493015,56.9125248 C29.7080323,55.6940828 29.9120599,54.9885916 30.4507515,55.5279984 C30.6085426,55.685999 30.6599165,56.3363737 30.5645079,56.9720506 L30.3905707,58.1287621 L30.0493015,56.9125248 L30.0493015,56.9125248 L30.0493015,56.9125248 Z M87.5615979,54.2132862 C87.2438139,53.8296754 86.2156029,53.1513751 85.2761952,52.704564 C84.1591809,52.1739759 83.5683815,51.5471176 83.5683815,50.8923337 C83.5683815,49.8936228 83.5705833,49.8936228 84.9275869,50.8702871 C86.8269517,52.2371761 89.3002359,54.9106936 88.6661357,54.9106936 C88.3762404,54.9106936 87.8793819,54.5968971 87.5615979,54.2132862 L87.5615979,54.2132862 L87.5615979,54.2132862 Z M85.9183684,50.0236977 C84.5099909,49.2425132 83.5705833,48.3746121 83.5698494,47.8550473 C83.5683815,46.8835272 84.5709056,46.7049497 85.3943551,47.5294925 C85.6923235,47.8278565 86.348441,47.979978 86.8533726,47.8682753 C87.5909544,47.7043955 87.4074763,47.4427759 85.9169006,46.5344561 C83.8678177,45.2866186 83.5368233,44.512783 85.0516181,44.512783 C86.2104655,44.512783 86.3704584,43.7551149 85.2989465,43.3428435 C84.1944087,42.9188139 84.2846799,38.7725837 85.411969,38.1405812 C86.2222081,37.6864213 86.2222081,37.6121977 85.411969,36.7156361 C83.5654459,34.6726513 85.052352,33.7400802 86.9429099,35.7558741 C87.5344431,36.385672 88.0180913,37.0926329 88.0180913,37.3255919 C88.0180913,37.5592859 88.3865152,38.1574836 88.8371373,38.6557367 C89.2870255,39.1532549 89.4257349,39.561117 89.1446465,39.561117 C88.8635581,39.561117 88.3571587,39.2267436 88.0180913,38.8181466 C87.3296816,37.9877248 86.5348547,37.8348684 86.5348547,38.5330106 C86.5348547,38.7843419 87.3539007,40.0652492 88.3542231,41.3799614 L90.1743253,43.7698126 L88.3872491,42.4080677 C85.0648285,39.8756485 84.417518,40.9926761 87.6181091,43.7360078 C89.3083089,45.1844694 89.5703156,45.6254013 89.0396971,46.126594 C88.521555,46.6152936 88.3432144,46.6145587 88.162672,46.1221847 C88.0379069,45.7811973 87.7303977,45.5026753 87.4786658,45.5026753 C87.2269339,45.5026753 87.2951877,45.9428723 87.6313195,46.4808093 C88.1002894,47.2333332 88.1061607,47.5941625 87.6570065,48.0439132 C87.2071183,48.4936638 87.3032608,48.9537028 88.0738686,50.0369256 C89.2752829,51.72643 88.9831858,51.7249602 85.9183684,50.0236977 L85.9183684,50.0236977 L85.9183684,50.0236977 Z M40.8055188,40.4275483 C40.210316,37.8385428 39.7633635,32.0652736 40.1398605,31.8330494 C40.3644376,31.6941558 40.5479157,31.816147 40.5479157,32.1049575 C40.5479157,32.393033 40.8818457,32.6289316 41.289167,32.6289316 C41.6972222,32.6289316 42.0311522,32.1968183 42.0311522,31.6676999 C42.0311522,29.8686975 42.969092,30.118559 43.2648587,31.9961942 C43.4263193,33.0250355 43.6736478,34.4242596 43.813825,35.1047646 C43.9540022,35.7852696 44.1925237,36.9552091 44.3422418,37.7040585 C44.5081059,38.5271316 44.4016887,39.0658034 44.0750977,39.0658034 C43.7771294,39.0658034 43.3991646,38.452908 43.2355022,37.7040585 C42.7224975,35.3605051 42.5779168,35.1047646 41.7662099,35.1047646 C41.2466001,35.1047646 41.0623881,35.4016588 41.2282523,35.9711959 C41.8939106,38.2581631 42.1148182,41.5416364 41.6025475,41.5416364 C41.3045791,41.5416364 40.9456961,41.0404438 40.8055188,40.4275483 L40.8055188,40.4275483 L40.8055188,40.4275483 Z M42.0311522,34.1141375 C42.0311522,33.8422294 41.8087768,33.6195588 41.5364954,33.6195588 C41.2649479,33.6195588 41.0425725,33.8422294 41.0425725,34.1141375 C41.0425725,34.3867804 41.2649479,34.609451 41.5364954,34.609451 C41.8087768,34.609451 42.0311522,34.3867804 42.0311522,34.1141375 Z M45.2728425,33.0963195 C44.5095738,29.7364179 44.5844328,28.3533613 45.4981535,28.919224 C45.7359411,29.0662013 46.0684033,30.2390804 46.237937,31.5266017 C46.4067368,32.814123 46.6599365,34.4793761 46.8001138,35.2282256 C46.940291,35.9778099 46.8324059,36.5899704 46.5608584,36.5899704 C46.288577,36.5899704 45.7095202,35.018048 45.2728425,33.0963195 L45.2728425,33.0963195 Z M87.5381127,34.6190046 C85.2160144,33.080152 84.0417549,31.6243416 85.1506963,31.6588813 C85.8875441,31.6823977 90.2557896,35.5052778 89.9247952,35.8367117 C89.8044336,35.9572331 88.7299861,35.4090077 87.5381127,34.6190046 L87.5381127,34.6190046 Z M73.7200136,32.8067742 C72.6096044,31.5427692 71.7002872,30.2758247 71.7002872,29.9906887 C71.7002872,29.3630955 74.3790668,31.8543611 75.7353365,33.7430197 C77.3220547,35.9542935 75.9100076,35.2980398 73.7200136,32.8067742 L73.7200136,32.8067742 Z M48.052168,32.6656759 C47.3556853,30.6653146 47.283028,27.9984111 47.9362099,28.4025987 C48.4726997,28.7347675 49.1611093,32.7487181 48.8455271,33.6989265 C48.728835,34.0487325 48.3714198,33.5842842 48.052168,32.6656759 Z M75.4836046,30.7880407 C74.2190739,29.5034589 73.1835238,28.2784029 73.1835238,28.0652858 C73.1835238,27.1966498 74.0576132,27.7911731 75.7052461,29.7819809 C79.0049154,33.7680059 78.8970303,34.2552357 75.4836046,30.7880407 L75.4836046,30.7880407 L75.4836046,30.7880407 Z M50.2524368,30.5866817 C49.8098877,28.3709986 49.8708024,26.1920598 50.375734,26.1920598 C50.8681891,26.1920598 51.4266963,28.5929344 51.4266963,30.7101427 C51.4266963,32.6105595 50.6399424,32.5275173 50.2524368,30.5866817 L50.2524368,30.5866817 Z M76.6600659,28.6833254 C74.9992226,26.90343 74.8311567,25.9297053 75.9327589,24.4702205 C76.8618918,23.2392854 77.8321237,23.7595851 79.6947929,26.4874842 C81.3747179,28.9478846 81.0495948,29.2969557 78.9630824,27.2723431 C77.503331,25.8554817 76.1507308,25.2330328 76.1507308,25.9774729 C76.1507308,26.1317991 76.7378606,27.0290956 77.4556267,27.9719552 C79.16711,30.2185035 78.5807142,30.7432126 76.6600659,28.6833254 L76.6600659,28.6833254 L76.6600659,28.6833254 Z M90.0040577,4.77746398 C90.0084612,4.43721148 90.227167,3.82431604 90.4906415,3.41571909 C90.8642028,2.83662844 90.9720879,2.97331735 90.9779592,4.03449362 C90.9816288,4.78334307 90.7629229,5.3962385 90.4906415,5.3962385 C90.219094,5.3962385 89.9996542,5.11771648 90.0040577,4.77746398 Z M87.7120499,1.70637283 C87.1513409,0.24394848 88.480456,-0.526212688 89.9526838,0.407828194 C90.5456849,0.783355252 90.5324745,0.968546677 89.8646144,1.63802838 C88.8848416,2.619102 88.0716669,2.64482304 87.7120499,1.70637283 L87.7120499,1.70637283 Z" id="path3516"></path>
            </g>
        </g>
    </g>
</svg>