<?xml version="1.0" standalone="no"?><!DOCTYPE svg PUBLIC "-//W3C//DTD SVG 1.1//EN" "http://www.w3.org/Graphics/SVG/1.1/DTD/svg11.dtd"><svg width="100%" height="100%" viewBox="0 0 254 176" version="1.1" xmlns="http://www.w3.org/2000/svg" xmlns:xlink="http://www.w3.org/1999/xlink" xml:space="preserve" style="fill-rule:evenodd;clip-rule:evenodd;stroke-linecap:round;stroke-linejoin:round;stroke-miterlimit:1.41421;"><g id="cloud"><path d="M59.361,55.85c3.713,-21.279 25.494,-53.783 71.353,-53.197c35.223,0.449 63.768,22.587 70.754,43.442c-32.747,-2.094 -67.809,21.557 -61.838,56.412c-3.277,-46.64 63.849,-70.525 95.362,-37.122c18.042,19.122 20.165,47.461 8.209,70.138c-12.879,24.428 -45.343,37.985 -69.099,23.179c-26.717,19.091 -62.808,18.583 -89.057,-1.136c-9.353,5.762 -17.904,7.669 -28.76,8.1c-34.489,1.371 -59.902,-33.463 -51.626,-66.028c4.029,-15.853 14.27,-26.697 28.416,-34.253c5.337,-2.852 14.014,-4.947 23.195,-5.008c9.181,-0.061 36.652,6.354 39.909,24.038c-3.637,-19.747 -36.818,-28.565 -36.818,-28.565Z" style="fill:none;stroke-width:3px;stroke:#000;"/></g></svg>