<?xml version="1.0" standalone="no"?><!DOCTYPE svg PUBLIC "-//W3C//DTD SVG 1.1//EN" "http://www.w3.org/Graphics/SVG/1.1/DTD/svg11.dtd"><svg width="100%" height="100%" viewBox="0 0 248 254" version="1.1" xmlns="http://www.w3.org/2000/svg" xmlns:xlink="http://www.w3.org/1999/xlink" xml:space="preserve" style="fill-rule:evenodd;clip-rule:evenodd;stroke-linecap:round;stroke-linejoin:round;stroke-miterlimit:1.41421;"><g id="sun"><path d="M124,250.5l-19.582,-37.719c6.298,1.434 12.852,2.192 19.582,2.192c6.73,0 13.284,-0.758 19.582,-2.192l-19.582,37.719ZM184.34,233.954l-35.313,-22.599c12.735,-3.777 24.267,-10.363 33.879,-19.038l1.434,41.637ZM65.094,192.317c9.611,8.675 21.144,15.261 33.879,19.038l-35.313,22.599l1.434,-41.637ZM228.512,188.75l-40.47,-1.46c8.728,-9.267 15.469,-20.426 19.54,-32.792l20.93,34.252ZM40.418,154.498c4.071,12.366 10.813,23.525 19.54,32.792l-40.47,1.46l20.93,-34.252ZM38.064,108.109c-1.334,6.086 -2.037,12.407 -2.037,18.891c0,6.484 0.703,12.805 2.037,18.891l-34.744,-18.891l34.744,-18.891ZM244.68,127l-34.744,18.891c1.334,-6.086 2.037,-12.407 2.037,-18.891c0,-6.484 -0.703,-12.805 -2.037,-18.891l34.744,18.891ZM59.958,66.71c-8.728,9.267 -15.469,20.426 -19.54,32.792l-20.93,-34.252l40.47,1.46ZM207.582,99.502c-4.071,-12.366 -10.813,-23.525 -19.54,-32.792l40.47,-1.46l-20.93,34.252ZM98.973,42.645c-12.735,3.777 -24.267,10.363 -33.879,19.038l-1.434,-41.637l35.313,22.599ZM182.906,61.683c-9.611,-8.675 -21.144,-15.261 -33.879,-19.038l35.313,-22.599l-1.434,41.637ZM143.582,41.219c-6.298,-1.434 -12.852,-2.192 -19.582,-2.192c-6.73,0 -13.284,0.758 -19.582,2.192l19.582,-37.719l19.582,37.719Z" style="fill:none;stroke-width:3px;stroke:#000;"/><circle cx="124" cy="127" r="79.694" style="fill:none;stroke-width:3px;stroke:#000;"/></g></svg>