<?xml version="1.0" standalone="no"?><!DOCTYPE svg PUBLIC "-//W3C//DTD SVG 1.1//EN" "http://www.w3.org/Graphics/SVG/1.1/DTD/svg11.dtd"><svg width="100%" height="100%" viewBox="0 0 248 265" version="1.1" xmlns="http://www.w3.org/2000/svg" xmlns:xlink="http://www.w3.org/1999/xlink" xml:space="preserve" style="fill-rule:evenodd;clip-rule:evenodd;stroke-linecap:round;stroke-linejoin:round;stroke-miterlimit:1.41421;"><g id="umbrella"><g><g><path d="M124,3.5l0,237.017" style="fill:none;stroke-width:3px;stroke:#000;"/><clipPath id="_clip1"><rect x="82.4" y="240.161" width="45.067" height="24.249"/></clipPath><g clip-path="url(#_clip1)"><ellipse cx="104.5" cy="239.676" rx="19.5" ry="21.824" style="fill:none;stroke-width:3px;stroke:#000;"/></g></g><path d="M3.816,146l-0.496,0c0,0 6.291,-125.035 120.68,-123.499c114.338,1.535 120.675,123.39 120.68,123.499l-0.496,0c-2.022,-12.949 -9.982,-22.633 -19.512,-22.72l-0.13,-0.001l-0.13,0.001c-9.531,0.087 -17.49,9.771 -19.512,22.72l-0.993,0c-2.031,-13.008 -10.054,-22.721 -19.642,-22.721c-9.588,0 -17.611,9.713 -19.642,22.721l-0.994,0c-2.03,-13.008 -10.053,-22.721 -19.641,-22.721c-9.588,0 -17.611,9.713 -19.642,22.721l-0.843,0c-2.031,-13.008 -10.054,-22.721 -19.642,-22.721c-9.588,0 -17.611,9.713 -19.641,22.721l-0.994,0c-2.031,-13.008 -10.054,-22.721 -19.642,-22.721c-9.588,0 -17.611,9.713 -19.642,22.721l-0.842,0c-2.031,-13.008 -10.054,-22.721 -19.642,-22.721c-9.588,0 -17.611,9.713 -19.642,22.721Z" style="fill:#fff;stroke-width:3px;stroke:#000;"/><path d="M98.459,58c-21.579,41.653 -14.459,85 -14.459,85" style="fill:none;stroke-width:3px;stroke:#000;"/><path d="M124,143l0,-85" style="fill:none;stroke-width:3px;stroke:#000;"/><path d="M71,58c-21.614,21.336 -26.304,66.065 -26.694,85.006" style="fill:none;stroke-width:3px;stroke:#000;"/><path d="M107.51,24.719c0.959,1.72 8.853,6.233 16.827,6.233c7.974,0 16.204,-6.233 16.204,-6.233c0,0 -10.739,-2.598 -16.204,-2.181c-5.465,0.418 -6.446,-0.23 -5.609,0c0.837,0.231 -12.177,0.462 -11.218,2.181Z" style="fill:none;stroke-width:3px;stroke:#000;"/><path d="M164,143c0.409,0.714 5.806,-47.711 -16.459,-85" style="fill:none;stroke-width:3px;stroke:#000;"/><path d="M177,58c36.084,32.745 26.694,88 26.694,88" style="fill:none;stroke-width:3px;stroke:#000;"/></g></g></svg>