<svg xmlns="http://www.w3.org/2000/svg" xmlns:xlink="http://www.w3.org/1999/xlink" version="1.1" x="0px" y="0px" viewBox="0 0 100 100" style="enable-background:new 0 0 100 100;" xml:space="preserve"><path d="M81.971,50.033C81.469,41.66,74.498,35,66,35c-1.142,0-2.296,0.129-3.443,0.385C59.429,27.341,51.684,22,43,22  c-11.253,0-20.467,8.897-20.978,20.026C12.549,42.535,5,50.402,5,60c0,6.885,3.889,12.873,9.582,15.898  c0.023,0.012,0.044,0.024,0.068,0.033C17.148,77.246,19.986,78,23,78h58c7.72,0,14-6.28,14-14  C95,56.607,89.239,50.533,81.971,50.033z M81.436,75.979l2.271-2.271c0.391-0.391,0.391-1.023,0-1.414s-1.023-0.391-1.414,0  L78.586,76h-3.172l2.293-2.293c0.391-0.391,0.391-1.023,0-1.414s-1.023-0.391-1.414,0L72.586,76h-3.172l2.293-2.293  c0.391-0.391,0.391-1.023,0-1.414s-1.023-0.391-1.414,0L66.586,76h-3.172l2.293-2.293c0.391-0.391,0.391-1.023,0-1.414  s-1.023-0.391-1.414,0L60.586,76h-3.172l2.293-2.293c0.391-0.391,0.391-1.023,0-1.414s-1.023-0.391-1.414,0L54.586,76h-3.172  l2.293-2.293c0.391-0.391,0.391-1.023,0-1.414s-1.023-0.391-1.414,0L48.586,76h-3.172l2.293-2.293c0.391-0.391,0.391-1.023,0-1.414  s-1.023-0.391-1.414,0L42.586,76h-3.172l2.293-2.293c0.391-0.391,0.391-1.023,0-1.414s-1.023-0.391-1.414,0L36.586,76h-3.172  l2.293-2.293c0.391-0.391,0.391-1.023,0-1.414s-1.023-0.391-1.414,0L30.586,76h-3.172l2.293-2.293c0.391-0.391,0.391-1.023,0-1.414  s-1.023-0.391-1.414,0L24.586,76H23c-0.51,0-1.012-0.029-1.509-0.076l3.216-3.217c0.391-0.391,0.391-1.023,0-1.414  s-1.023-0.391-1.414,0l-4,4c-0.064,0.064-0.102,0.143-0.145,0.219c-0.84-0.209-1.659-0.469-2.44-0.805l3-3  c0.391-0.391,0.391-1.023,0-1.414s-1.023-0.391-1.414,0l-3.448,3.447c-0.656-0.391-1.287-0.816-1.877-1.294l3.739-3.739  c0.391-0.391,0.391-1.023,0-1.414s-1.023-0.391-1.414,0l-3.798,3.799c-0.521-0.541-1-1.121-1.442-1.73l3.655-3.654  c0.391-0.391,0.391-1.023,0-1.414s-1.023-0.391-1.414,0l-3.347,3.348c-0.382-0.701-0.697-1.441-0.973-2.199l3.734-3.734  c0.391-0.391,0.391-1.023,0-1.414s-1.023-0.391-1.414,0l-2.959,2.959c-0.192-0.925-0.29-1.883-0.314-2.857l3.687-3.688  c0.391-0.391,0.391-1.023,0-1.414s-1.023-0.391-1.414,0l-2.054,2.055C8.509,49.785,15.083,44,23,44  c4.264,0,8.276,1.658,11.297,4.669c0.195,0.194,0.451,0.292,0.706,0.292c0.256,0,0.513-0.098,0.708-0.294  c0.39-0.392,0.389-1.024-0.002-1.414c-0.601-0.599-1.248-1.132-1.914-1.634l1.912-1.912c0.391-0.391,0.391-1.023,0-1.414  s-1.023-0.391-1.414,0l-2,2c-0.065,0.065-0.103,0.144-0.146,0.221c-0.694-0.412-1.405-0.788-2.146-1.1l2.707-2.707  c0.391-0.391,0.391-1.023,0-1.414s-1.023-0.391-1.414,0l-3,3c-0.124,0.124-0.194,0.274-0.239,0.431  c-0.91-0.265-1.845-0.449-2.796-0.567l3.45-3.45c0.391-0.391,0.391-1.023,0-1.414s-1.023-0.391-1.414,0l-3.091,3.091  C25.483,31.144,33.413,24,43,24c7.79,0,14.732,4.758,17.609,11.933c-2.497,0.893-4.756,2.413-6.535,4.399  c-0.367,0.412-0.333,1.043,0.078,1.412C54.344,41.916,54.582,42,54.819,42c0.274,0,0.548-0.112,0.745-0.333  c1.57-1.753,3.564-3.091,5.769-3.87c0.153-0.054,0.276-0.148,0.382-0.258c0.156,0.035,0.318,0.046,0.482,0  C63.463,37.181,64.742,37,66,37c7.396,0,13.456,5.77,13.951,13.043c-2.766,0.201-5.364,1.198-7.568,2.922  c-0.435,0.34-0.512,0.968-0.172,1.402c0.197,0.253,0.492,0.385,0.789,0.385c0.215,0,0.432-0.069,0.615-0.213  C75.74,52.879,78.294,52,81,52c6.617,0,12,5.383,12,12C93,70.47,87.85,75.746,81.436,75.979z"/></svg>
