<svg xmlns="http://www.w3.org/2000/svg" xmlns:xlink="http://www.w3.org/1999/xlink" version="1.1" x="0px" y="0px" viewBox="0 0 100 100" enable-background="new 0 0 100 100" xml:space="preserve"><path d="M72.105,80.674c0.014-0.046,0.029-0.092,0.029-0.143V79.25c0-0.246-0.18-0.455-0.422-0.494  c-0.098-0.016-2.391-0.404-2.391-2.194c0-2.203,1.39-18.124,1.404-18.285c0.015-0.169-0.057-0.334-0.191-0.438  c-0.009-0.007-0.934-0.751-0.932-1.645c0.001-0.511,0.314-1.011,0.931-1.486c0.087-0.068,0.15-0.162,0.178-0.269  c0.013-0.049,0.257-1.059-1.109-1.817c0.486-0.497,1.032-1.339,1.032-2.623s-0.546-2.126-1.032-2.623  c1.367-0.758,1.123-1.768,1.109-1.817c-0.028-0.107-0.09-0.201-0.178-0.269c-0.615-0.474-0.928-0.973-0.931-1.482  c-0.004-0.901,0.924-1.643,0.933-1.65c0.132-0.104,0.205-0.269,0.19-0.437c-0.014-0.161-1.404-16.082-1.404-18.285  c0-1.79,2.293-2.178,2.391-2.194c0.242-0.039,0.422-0.248,0.422-0.494v-1.281c0-0.051-0.015-0.097-0.029-0.143  c1.399-0.809,2.353-2.305,2.353-4.034c0-2.579-2.098-4.677-4.677-4.677H30.219c-2.579,0-4.677,2.098-4.677,4.677  c0,1.729,0.954,3.225,2.353,4.035c-0.014,0.046-0.029,0.092-0.029,0.143v1.281c0,0.246,0.18,0.455,0.422,0.494  c0.098,0.016,2.391,0.404,2.391,2.194c0,2.203-1.39,18.124-1.404,18.285c-0.015,0.169,0.057,0.334,0.191,0.438  c0.009,0.007,0.934,0.751,0.932,1.645c-0.001,0.511-0.314,1.011-0.931,1.486c-0.087,0.068-0.15,0.162-0.178,0.269  c-0.013,0.049-0.257,1.059,1.109,1.817c-0.486,0.497-1.032,1.339-1.032,2.623s0.546,2.126,1.032,2.623  c-1.367,0.758-1.123,1.768-1.109,1.817c0.028,0.107,0.09,0.201,0.178,0.269c0.615,0.474,0.928,0.973,0.931,1.482  c0.004,0.901-0.924,1.643-0.933,1.65c-0.132,0.104-0.205,0.269-0.19,0.437c0.014,0.161,1.404,16.082,1.404,18.285  c0,1.79-2.293,2.178-2.391,2.194c-0.242,0.039-0.422,0.248-0.422,0.494v1.281c0,0.051,0.015,0.097,0.029,0.143  c-1.399,0.809-2.353,2.305-2.353,4.035c0,2.579,2.098,4.677,4.677,4.677h39.563c2.579,0,4.677-2.098,4.677-4.677  C74.458,82.979,73.504,81.483,72.105,80.674z M71.134,20.346c-1.157,0.306-2.813,1.218-2.813,3.092  c0,2.118,1.201,15.996,1.386,18.121c-0.375,0.356-1.107,1.189-1.105,2.249c0.001,0.77,0.377,1.479,1.119,2.113  c-0.074,0.223-0.388,0.572-1.244,0.855c-0.19,0.063-0.323,0.234-0.34,0.434s0.089,0.391,0.266,0.485  c0.05,0.026,1.23,0.67,1.23,2.306s-1.18,2.28-1.228,2.305c-0.179,0.092-0.287,0.282-0.271,0.483s0.15,0.374,0.342,0.437  c0.868,0.287,1.178,0.642,1.25,0.85c-0.745,0.635-1.124,1.347-1.125,2.119c-0.002,1.06,0.73,1.893,1.105,2.249  c-0.185,2.125-1.386,16.002-1.386,18.121c0,1.874,1.656,2.786,2.813,3.092v0.6c-0.431-0.131-0.879-0.223-1.353-0.223h-5.147v-0.377  c1.157-0.306,2.813-1.218,2.813-3.092c0-2.118-1.201-15.996-1.386-18.121c0.375-0.356,1.107-1.189,1.105-2.249  c-0.001-0.77-0.377-1.479-1.119-2.113c0.074-0.223,0.388-0.572,1.244-0.855c0.19-0.063,0.323-0.234,0.34-0.434  s-0.089-0.391-0.266-0.485c-0.05-0.026-1.23-0.67-1.23-2.306s1.18-2.28,1.228-2.305c0.179-0.092,0.287-0.282,0.271-0.483  s-0.15-0.374-0.342-0.437c-0.868-0.287-1.178-0.642-1.25-0.85c0.745-0.635,1.124-1.347,1.125-2.119  c0.002-1.06-0.73-1.893-1.105-2.249c0.185-2.125,1.386-16.002,1.386-18.121c0-1.874-1.656-2.786-2.813-3.092v-0.377h5.147  c0.474,0,0.922-0.092,1.353-0.223V20.346z M61.914,80.031c0.958-1.992,1.533-4.26,1.59-6.346c0.139-4.999-3.202-9.206-6.149-12.918  c-0.957-1.205-1.86-2.342-2.623-3.467c-1.085-1.599-2.377-3.743-2.739-6.152c-0.29-1.932,0.224-4.073,1.571-6.546  c0.337-0.62,0.72-1.242,1.168-1.903c0.763-1.125,1.667-2.262,2.623-3.467c2.948-3.712,6.289-7.919,6.149-12.918  c-0.058-2.086-0.632-4.354-1.59-6.346h1.72v0.781c0,0.246,0.18,0.455,0.422,0.494c0.098,0.016,2.391,0.404,2.391,2.194  c0,2.203-1.39,18.124-1.404,18.285c-0.015,0.169,0.057,0.334,0.191,0.438c0.009,0.007,0.934,0.751,0.932,1.645  c-0.001,0.511-0.314,1.011-0.931,1.486c-0.087,0.068-0.15,0.162-0.178,0.269c-0.013,0.049-0.257,1.059,1.109,1.817  c-0.486,0.497-1.032,1.339-1.032,2.623s0.546,2.126,1.032,2.623c-1.367,0.758-1.123,1.768-1.109,1.817  c0.028,0.107,0.09,0.201,0.178,0.269c0.615,0.474,0.928,0.973,0.931,1.482c0.004,0.901-0.924,1.643-0.933,1.65  c-0.132,0.104-0.205,0.269-0.19,0.437c0.014,0.161,1.404,16.082,1.404,18.285c0,1.79-2.293,2.178-2.391,2.194  c-0.242,0.039-0.422,0.248-0.422,0.494v0.781H61.914z M35.944,78.756c-0.098-0.016-2.391-0.404-2.391-2.194  c0-2.203,1.39-18.124,1.404-18.285c0.015-0.169-0.057-0.334-0.191-0.438c-0.009-0.007-0.934-0.751-0.932-1.645  c0.001-0.511,0.314-1.011,0.931-1.486c0.087-0.068,0.15-0.162,0.178-0.269c0.013-0.049,0.257-1.059-1.109-1.817  c0.486-0.497,1.032-1.339,1.032-2.623s-0.546-2.126-1.032-2.623c1.367-0.758,1.123-1.768,1.109-1.817  c-0.028-0.107-0.09-0.201-0.178-0.269c-0.615-0.474-0.928-0.973-0.931-1.482c-0.004-0.901,0.924-1.643,0.933-1.65  c0.132-0.104,0.205-0.269,0.19-0.437c-0.014-0.161-1.404-16.082-1.404-18.285c0-1.79,2.293-2.178,2.391-2.194  c0.242-0.039,0.422-0.248,0.422-0.494v-0.781h1.72c-0.958,1.991-1.533,4.26-1.591,6.346c-0.139,5,3.203,9.207,6.15,12.919  c0.956,1.204,1.859,2.341,2.623,3.466c1.566,2.307,2.48,4.427,2.779,6.451c0.082,0.691,0.083,1.358-0.014,1.999  c-0.362,2.41-1.654,4.554-2.739,6.152c-0.763,1.125-1.667,2.262-2.623,3.467c-2.948,3.712-6.289,7.919-6.149,12.918  c0.058,2.086,0.632,4.354,1.59,6.346h-1.746V79.25C36.366,79.004,36.186,78.795,35.944,78.756z M60.792,19.969  c1.03,1.966,1.655,4.27,1.713,6.373c0.129,4.635-2.952,8.516-5.933,12.269c-0.968,1.219-1.883,2.371-2.667,3.527  c-0.467,0.688-0.866,1.337-1.219,1.986c-0.246,0.451-0.456,0.89-0.65,1.323c0.598-2.102,1.363-4.108,2.349-5.945  c0.214-0.398,0.436-0.79,0.665-1.177c1.675-2.823,3.308-5.678,4.77-8.651v0c0,0-3.973-2.718-8.549,1.445  c-3.622,3.296-8.489,1.762-10.36,0.979c-0.106-0.044-0.187,0.104-0.104,0.191c0.795,0.839,1.585,2.243,2.135,3.001  c0.969,1.336,1.879,2.731,2.673,4.211c0.959,1.787,1.71,3.734,2.301,5.774c-0.175-0.378-0.362-0.76-0.576-1.152  c-0.353-0.648-0.752-1.298-1.219-1.986c-0.784-1.156-1.699-2.308-2.667-3.527c-2.98-3.753-6.062-7.634-5.933-12.269  c0.058-2.103,0.682-4.407,1.713-6.373H60.792z M39.235,80.031c-1.03-1.966-1.655-4.27-1.713-6.373  c-0.129-4.635,2.952-8.516,5.933-12.269c0.968-1.219,1.883-2.371,2.667-3.527c1.145-1.686,2.509-3.957,2.901-6.565  c0.029-0.196,0.044-0.396,0.058-0.595c0.929,6.315,0.623,13.07-0.254,18.918c-0.768,5.12-3.951,8.623-8.024,10.411H39.235z   M59.197,80.031c-4.073-1.788-7.257-5.291-8.024-10.411c-0.882-5.883-1.189-12.684-0.239-19.032c0.015,0.238,0.034,0.475,0.07,0.708  c0.392,2.609,1.756,4.879,2.901,6.565c0.784,1.156,1.699,2.308,2.667,3.527c2.98,3.753,6.062,7.634,5.933,12.269  c-0.058,2.103-0.682,4.407-1.713,6.373H59.197z M26.542,15.292c0-2.027,1.649-3.677,3.677-3.677h39.563  c2.028,0,3.677,1.649,3.677,3.677c0,2.028-1.649,3.677-3.677,3.677H30.219C28.191,18.969,26.542,17.319,26.542,15.292z   M28.866,79.654c1.157-0.306,2.813-1.218,2.813-3.092c0-2.118-1.201-15.996-1.386-18.121c0.375-0.356,1.107-1.189,1.105-2.249  c-0.001-0.77-0.377-1.479-1.119-2.113c0.074-0.223,0.388-0.572,1.244-0.855c0.19-0.063,0.323-0.234,0.34-0.434  s-0.089-0.391-0.266-0.485c-0.05-0.026-1.23-0.67-1.23-2.306s1.18-2.28,1.228-2.305c0.179-0.092,0.287-0.282,0.271-0.483  s-0.15-0.374-0.342-0.437c-0.868-0.287-1.178-0.642-1.25-0.85c0.745-0.635,1.124-1.347,1.125-2.119  c0.002-1.06-0.73-1.893-1.105-2.249c0.185-2.125,1.386-16.002,1.386-18.121c0-1.874-1.656-2.786-2.813-3.092v-0.6  c0.431,0.131,0.879,0.223,1.353,0.223h5.147v0.377c-1.157,0.306-2.813,1.218-2.813,3.092c0,2.118,1.201,15.996,1.386,18.121  c-0.375,0.356-1.107,1.189-1.105,2.249c0.001,0.77,0.377,1.479,1.119,2.113c-0.074,0.223-0.388,0.572-1.244,0.855  c-0.19,0.063-0.323,0.234-0.34,0.434s0.089,0.391,0.266,0.485c0.05,0.026,1.23,0.67,1.23,2.306s-1.18,2.28-1.228,2.305  c-0.179,0.092-0.287,0.282-0.271,0.483s0.15,0.374,0.342,0.437c0.868,0.287,1.178,0.642,1.25,0.85  c-0.745,0.635-1.124,1.347-1.125,2.119c-0.002,1.06,0.73,1.893,1.105,2.249c-0.185,2.125-1.386,16.002-1.386,18.121  c0,1.874,1.656,2.786,2.813,3.092v0.377h-5.147c-0.473,0-0.922,0.092-1.353,0.223V79.654z M69.781,88.385H30.219  c-2.027,0-3.677-1.649-3.677-3.677c0-2.028,1.649-3.677,3.677-3.677h39.563c2.028,0,3.677,1.649,3.677,3.677  C73.458,86.736,71.809,88.385,69.781,88.385z"/></svg>
