<svg xmlns="http://www.w3.org/2000/svg" xmlns:xlink="http://www.w3.org/1999/xlink" version="1.1" x="0px" y="0px" viewBox="0 0 100 100" style="enable-background:new 0 0 100 100;" xml:space="preserve"><path d="M81.971,67.033c-0.193-3.228-1.354-6.194-3.188-8.629C79.576,55.682,80,52.863,80,50c0-16.542-13.458-30-30-30  S20,33.458,20,50c0,3.106,0.471,6.155,1.399,9.081C12.223,59.895,5,67.615,5,77c0,6.885,3.889,12.872,9.581,15.898  c0.023,0.012,0.045,0.024,0.069,0.033C17.148,94.246,19.986,95,23,95h58c7.72,0,14-6.28,14-14  C95,73.607,89.239,67.533,81.971,67.033z M50,22c15.439,0,28,12.561,28,28c0,2.242-0.266,4.458-0.787,6.613  C74.322,53.768,70.367,52,66,52c-1.83,0-3.624,0.311-5.32,0.908c-0.004,0.002-0.009,0.001-0.013,0.002  c-0.286,0.102-0.568,0.213-0.848,0.33c-0.023,0.011-0.049,0.019-0.072,0.029c-0.319,0.135-0.635,0.282-0.944,0.438  c-0.093,0.048-0.184,0.101-0.275,0.149c-0.212,0.112-0.423,0.225-0.63,0.346c-0.019,0.012-0.037,0.021-0.056,0.031  C53.842,49.625,48.118,47,42,47c-7.914,0-15.101,4.453-18.679,11.439C22.462,55.718,22,52.89,22,50C22,34.561,34.561,22,50,22z   M81.437,92.979l2.271-2.271c0.391-0.391,0.391-1.023,0-1.414s-1.023-0.391-1.414,0L78.586,93h-3.172l2.293-2.293  c0.391-0.391,0.391-1.023,0-1.414s-1.023-0.391-1.414,0L72.586,93h-3.172l2.293-2.293c0.391-0.391,0.391-1.023,0-1.414  s-1.023-0.391-1.414,0L66.586,93h-3.172l2.293-2.293c0.391-0.391,0.391-1.023,0-1.414s-1.023-0.391-1.414,0L60.586,93h-3.172  l2.293-2.293c0.391-0.391,0.391-1.023,0-1.414s-1.023-0.391-1.414,0L54.586,93h-3.172l2.293-2.293c0.391-0.391,0.391-1.023,0-1.414  s-1.023-0.391-1.414,0L48.586,93h-3.172l2.293-2.293c0.391-0.391,0.391-1.023,0-1.414s-1.023-0.391-1.414,0L42.586,93h-3.172  l2.293-2.293c0.391-0.391,0.391-1.023,0-1.414s-1.023-0.391-1.414,0L36.586,93h-3.172l2.293-2.293c0.391-0.391,0.391-1.023,0-1.414  s-1.023-0.391-1.414,0L30.586,93h-3.172l2.293-2.293c0.391-0.391,0.391-1.023,0-1.414s-1.023-0.391-1.414,0L24.586,93H23  c-0.51,0-1.012-0.029-1.51-0.076l3.217-3.217c0.391-0.391,0.391-1.023,0-1.414s-1.023-0.391-1.414,0l-4,4  c-0.064,0.064-0.102,0.143-0.146,0.219c-0.839-0.209-1.658-0.469-2.44-0.805l3-3c0.391-0.391,0.391-1.023,0-1.414  s-1.023-0.391-1.414,0l-3.448,3.447c-0.655-0.391-1.286-0.816-1.877-1.294l3.739-3.739c0.391-0.391,0.391-1.023,0-1.414  s-1.023-0.391-1.414,0l-3.799,3.799c-0.521-0.541-1-1.121-1.441-1.73l3.654-3.654c0.391-0.391,0.391-1.023,0-1.414  s-1.023-0.391-1.414,0l-3.347,3.348c-0.383-0.701-0.697-1.441-0.974-2.199l3.734-3.734c0.391-0.391,0.391-1.023,0-1.414  s-1.023-0.391-1.414,0l-2.959,2.959c-0.192-0.925-0.29-1.883-0.314-2.857l3.688-3.688c0.391-0.391,0.391-1.023,0-1.414  s-1.023-0.391-1.414,0l-2.055,2.055C8.509,66.785,15.083,61,23,61c0.122,0,0.242,0.016,0.364,0.018l0.258,0.016  c0.005,0,0.009-0.002,0.014-0.002c0.318,0.012,0.638,0.016,0.953,0.047c0.277,0.026,0.549,0.08,0.823,0.121  c0.244,0.036,0.49,0.061,0.731,0.107c0.309,0.062,0.608,0.148,0.912,0.229c0.2,0.052,0.405,0.09,0.603,0.15  c0.31,0.094,0.609,0.213,0.912,0.326c0.184,0.067,0.372,0.123,0.553,0.197c0.286,0.119,0.562,0.262,0.841,0.397  c0.188,0.091,0.382,0.17,0.566,0.269c0.252,0.135,0.491,0.292,0.735,0.44c0.201,0.122,0.409,0.233,0.605,0.364  c0.215,0.145,0.418,0.309,0.627,0.464c0.213,0.158,0.433,0.307,0.639,0.476c0.178,0.146,0.343,0.313,0.516,0.467  c0.229,0.205,0.464,0.402,0.683,0.621c0.195,0.197,0.451,0.295,0.708,0.295c0.255,0,0.511-0.098,0.706-0.291  c0.391-0.391,0.393-1.023,0.002-1.414c-0.011-0.012-0.022-0.02-0.033-0.031c-0.004-0.004-0.005-0.009-0.009-0.013  c-0.277-0.276-0.574-0.527-0.866-0.783c-0.146-0.129-0.284-0.271-0.435-0.394c-0.198-0.162-0.409-0.305-0.613-0.457l1.912-1.912  c0.391-0.391,0.391-1.023,0-1.414s-1.023-0.391-1.414,0l-2,2c-0.065,0.064-0.104,0.145-0.146,0.221  c-0.225-0.133-0.442-0.279-0.672-0.402c-0.258-0.138-0.527-0.25-0.791-0.375c-0.228-0.107-0.45-0.227-0.682-0.324l2.705-2.705  c0.391-0.391,0.391-1.023,0-1.414s-1.023-0.391-1.414,0l-3,3c-0.124,0.123-0.193,0.274-0.239,0.432  c-0.2-0.059-0.404-0.101-0.606-0.152c-0.303-0.076-0.602-0.166-0.909-0.227c-0.302-0.06-0.61-0.091-0.915-0.135  c-0.144-0.021-0.285-0.047-0.43-0.064C28.465,52.939,34.915,49,42,49c5.457,0,10.567,2.311,14.179,6.374  c-0.755,0.588-1.462,1.241-2.104,1.958c-0.368,0.412-0.333,1.045,0.078,1.412C54.344,58.916,54.582,59,54.82,59  c0.274,0,0.548-0.113,0.745-0.334c0.782-0.875,1.672-1.646,2.64-2.296c0.009-0.005,0.019-0.011,0.026-0.017  c0.432-0.288,0.883-0.545,1.343-0.783c0.082-0.043,0.162-0.088,0.244-0.128c0.45-0.222,0.913-0.419,1.385-0.591  C62.729,54.295,64.347,54,66,54c4.237,0,8.033,1.899,10.603,4.884c-0.054,0.463,0.203,0.917,0.664,1.067  c0.062,0.02,0.123,0.014,0.186,0.021c1.427,2.029,2.321,4.451,2.499,7.07c-2.766,0.201-5.364,1.198-7.568,2.922  c-0.435,0.34-0.512,0.968-0.172,1.402c0.197,0.253,0.491,0.385,0.789,0.385c0.215,0,0.432-0.069,0.615-0.213  C75.74,69.879,78.294,69,81,69c6.617,0,12,5.383,12,12C93,87.47,87.851,92.746,81.437,92.979z"/><path d="M42.234,17.918c5.053-1.218,10.472-1.22,15.53,0c0.078,0.019,0.157,0.028,0.234,0.028c0.007,0,0.017,0,0.02,0  c0.553,0,1-0.448,1-1c0-0.359-0.188-0.674-0.473-0.85C55.581,13.497,51,8.547,51,6c0-0.347-0.18-0.668-0.475-0.851  c-0.295-0.184-0.662-0.198-0.973-0.044C49.203,5.28,41,9.468,41,16.946c0,0.307,0.141,0.596,0.381,0.786  C41.622,17.921,41.938,17.988,42.234,17.918z M49.28,7.586c0.855,2.631,3.504,5.676,5.551,7.746  c-3.887-0.536-7.894-0.417-11.729,0.348C43.756,11.656,47.377,8.821,49.28,7.586z"/><path d="M20.971,33.284c0.039,0,0.078-0.002,0.118-0.007c0.304-0.036,0.575-0.21,0.735-0.471c1.356-2.219,2.985-4.285,4.841-6.14  c1.858-1.858,3.925-3.486,6.141-4.841c0.394-0.24,0.571-0.718,0.431-1.157c-0.141-0.44-0.569-0.728-1.022-0.693  c-0.012,0.001-1.246,0.086-2.948,0.086c-4.951,0-8.477-0.685-9.671-1.879c-0.245-0.245-0.598-0.347-0.937-0.266  c-0.338,0.08-0.609,0.328-0.719,0.657c-0.124,0.371-2.963,9.132,2.324,14.42C20.452,33.18,20.707,33.284,20.971,33.284z   M19.499,20.524c1.933,0.994,5.087,1.508,9.417,1.535c-1.289,0.975-2.515,2.042-3.665,3.192c-1.642,1.642-3.116,3.44-4.396,5.358  C18.474,27.305,19.026,22.745,19.499,20.524z"/><path d="M16.946,59c0.008,0,0.015,0,0.02,0c0.553,0,1-0.447,1-1c0-0.149-0.032-0.291-0.092-0.419  c-0.579-2.47-0.873-5.019-0.873-7.581c0-2.627,0.309-5.24,0.918-7.765c0.108-0.448-0.104-0.912-0.514-1.123  c-0.409-0.211-0.91-0.116-1.213,0.233C13.622,44.305,8.582,49,6.001,49c-0.347,0-0.668,0.18-0.851,0.474  c-0.183,0.295-0.199,0.663-0.044,0.973C5.281,50.796,9.469,59,16.946,59z M15.332,45.169c-0.22,1.595-0.331,3.211-0.331,4.832  c0,2.324,0.229,4.637,0.679,6.897c-4.023-0.653-6.858-4.274-8.093-6.178C10.218,49.864,13.263,47.215,15.332,45.169z"/><path d="M82.082,42.233c0.609,2.533,0.918,5.146,0.917,7.765c0,2.627-0.309,5.239-0.917,7.766c-0.108,0.447,0.104,0.912,0.514,1.123  c0.146,0.074,0.302,0.111,0.458,0.111c0.282,0,0.56-0.12,0.755-0.345C86.379,55.694,91.419,51,94,51c0.347,0,0.669-0.18,0.851-0.474  c0.183-0.295,0.199-0.663,0.044-0.973c-0.175-0.349-4.363-8.553-11.84-8.554c-0.307,0-0.596,0.141-0.785,0.381  C82.08,41.621,82.011,41.935,82.082,42.233z M92.414,49.28c-2.631,0.856-5.677,3.505-7.746,5.551  c0.22-1.597,0.331-3.212,0.331-4.833c0.001-2.319-0.227-4.633-0.679-6.897C88.344,43.755,91.179,47.377,92.414,49.28z"/><path d="M67.193,21.822c2.225,1.362,4.29,2.991,6.14,4.842c1.855,1.856,3.485,3.922,4.843,6.14c0.185,0.303,0.512,0.478,0.853,0.478  c0.007,0,0.017,0,0.02,0c0.553,0,1-0.448,1-1c0-0.092-0.012-0.181-0.035-0.265c-0.253-3.94,0.013-10.628,1.807-12.423  c0.245-0.245,0.346-0.6,0.267-0.937c-0.08-0.337-0.329-0.609-0.657-0.719c-0.105-0.035-2.622-0.862-5.762-0.862  c-3.58,0-6.574,1.102-8.658,3.186c-0.217,0.216-0.322,0.521-0.286,0.825S66.933,21.662,67.193,21.822z M75.667,19.077  c1.509,0,2.874,0.218,3.816,0.421c-1.256,2.466-1.536,6.494-1.553,9.405c-0.974-1.285-2.038-2.506-3.184-3.652  c-1.638-1.64-3.436-3.115-5.358-4.398C71.017,19.673,73.122,19.077,75.667,19.077z"/></svg>
