<svg xmlns="http://www.w3.org/2000/svg" xmlns:xlink="http://www.w3.org/1999/xlink" version="1.1" x="0px" y="0px" viewBox="0 0 100 100" style="enable-background:new 0 0 100 100;" xml:space="preserve"><path d="M94.303,59.047l-0.826-0.264L73.747,39.335l6.431-2.09l8.674,8.199c0.193,0.183,0.441,0.273,0.688,0.273  c0.266,0,0.53-0.105,0.727-0.313c0.379-0.401,0.361-1.034-0.039-1.414l-7.882-7.45l4.911-1.596c0.525-0.171,0.813-0.735,0.642-1.26  c-0.17-0.524-0.733-0.811-1.261-0.642l-4.91,1.596l1.996-10.66c0.102-0.543-0.256-1.065-0.799-1.167  c-0.543-0.103-1.065,0.256-1.166,0.799l-2.197,11.732l-6.432,2.09l4.601-27.761c0.155-0.169,0.236-0.382,0.251-0.608L78.389,8.5  c0.324-0.447,0.225-1.072-0.223-1.396c-0.448-0.324-1.072-0.223-1.396,0.224l-0.659,0.91c-0.047,0.053-0.094,0.103-0.128,0.165  L51,21.355v-6.761l10.479-5.716c0.485-0.265,0.664-0.872,0.399-1.357c-0.265-0.484-0.87-0.663-1.356-0.399L51,12.315V7  c0-0.552-0.448-1-1-1s-1,0.448-1,1v5.315l-9.521-5.193c-0.485-0.264-1.092-0.085-1.357,0.399c-0.265,0.485-0.086,1.092,0.399,1.357  L49,14.594v6.761L24.018,8.401c-0.112-0.2-0.29-0.343-0.5-0.427l-0.411-0.563c-0.325-0.446-0.95-0.545-1.397-0.219  c-0.446,0.325-0.544,0.951-0.219,1.397l0.66,0.906c0.036,0.062,0.07,0.123,0.119,0.176l4.6,27.762l-6.431-2.089l-2.198-11.732  c-0.101-0.542-0.625-0.902-1.167-0.799c-0.543,0.102-0.9,0.624-0.799,1.167l1.997,10.66l-4.911-1.596  c-0.525-0.17-1.09,0.118-1.26,0.642c-0.17,0.525,0.117,1.089,0.642,1.26l4.911,1.596l-7.881,7.45  c-0.401,0.379-0.419,1.012-0.04,1.414c0.197,0.208,0.461,0.313,0.727,0.313c0.247,0,0.494-0.091,0.687-0.273l8.674-8.199  l6.431,2.089L6.527,58.783l-0.83,0.264c-0.526,0.168-0.817,0.73-0.65,1.256c0.112,0.352,0.402,0.588,0.737,0.664  c0.192,0.182,0.436,0.278,0.684,0.278c0.143,0,0.282-0.038,0.414-0.099l27.824,4.203l-3.975,5.471l-11.837-1.535  c-0.545-0.072-1.049,0.315-1.12,0.863s0.315,1.05,0.863,1.121l10.755,1.395l-3.035,4.178c-0.325,0.446-0.226,1.072,0.221,1.396  c0.178,0.129,0.383,0.191,0.587,0.191c0.31,0,0.614-0.144,0.81-0.412l3.035-4.178l4.65,9.797c0.171,0.36,0.53,0.572,0.904,0.571  c0.144,0,0.29-0.03,0.428-0.097c0.499-0.236,0.711-0.833,0.475-1.332l-5.118-10.783l3.975-5.471L48.92,91.689  c-0.026,0.229,0.034,0.448,0.154,0.639l0.001,0.697c0.001,0.551,0.448,0.998,1,0.998c0,0,0.001,0,0.001,0  c0.552-0.001,1-0.449,0.999-1.002l-0.002-1.125c0.007-0.068,0.016-0.136,0.007-0.206l12.598-25.165l3.974,5.471l-5.117,10.783  c-0.237,0.498-0.024,1.095,0.475,1.332c0.138,0.065,0.284,0.096,0.429,0.096c0.373,0,0.732-0.211,0.903-0.57l4.649-9.799  l3.035,4.178c0.196,0.27,0.501,0.412,0.811,0.412c0.203,0,0.409-0.062,0.587-0.19c0.446-0.325,0.546-0.95,0.222-1.397l-3.036-4.178  l10.755-1.395c0.549-0.07,0.935-0.572,0.863-1.119c-0.07-0.549-0.576-0.937-1.119-0.863L69.27,70.82l-3.975-5.471l27.824-4.204  c0.133,0.061,0.271,0.099,0.414,0.099c0.246,0,0.49-0.097,0.682-0.277c0.336-0.076,0.626-0.313,0.738-0.664  C95.121,59.777,94.83,59.215,94.303,59.047z M89.27,57.445l-10.422-3.316c-0.016-0.02-0.021-0.043-0.039-0.062L67.025,41.519  l4.579-1.488L89.27,57.445z M58.28,44.361l4.626,4.696l-9.639-3.067L58.28,44.361z M52.61,44.1l6.065-8.376l-1.013,6.735L52.61,44.1  z M51,42.914v-5.296l6.011-3.005L51,42.914z M49,42.931l-6.094-8.359L49,37.618V42.931z M47.374,44.095l-5.036-1.636l-1.001-6.646  L47.374,44.095z M46.733,45.99l-9.638,3.066l4.625-4.695L46.733,45.99z M47.4,47.877l-3.136,4.316l-6.852-1.139L47.4,47.877z   M49.005,49.071l0.017,10.342l-3.139-6.044L49.005,49.071z M51.005,49.084l3.112,4.284l-3.096,5.964L51.005,49.084z M52.6,47.877  l9.985,3.177l-6.849,1.14L52.6,47.877z M66.994,50.357l-6.588-6.688l4.518-1.468l10.039,10.69L66.994,50.357z M59.789,41.768  l1.422-9.456c0.005-0.029-0.006-0.055-0.004-0.084l4.988-6.888L64.305,40.3L59.789,41.768z M59.549,31.107L51,35.382v-4.747  l13.487-6.347L59.549,31.107z M49,35.382l-8.553-4.276c-0.027-0.014-0.057-0.012-0.084-0.023l-5.007-6.869L49,30.635V35.382z   M38.787,32.315l1.424,9.453l-4.516-1.467l-1.869-14.79L38.787,32.315z M39.593,43.67l-6.586,6.687l-7.968,2.535l10.039-10.689  L39.593,43.67z M33.316,52.358c0.066,0.026,0.127,0.063,0.201,0.076l9.434,1.567l-2.791,3.841l-15.056-2.872L33.316,52.358z   M44.568,55.178l4.406,8.486c0.015,0.028,0.037,0.049,0.054,0.075l0.014,8.493l-7.264-13.214L44.568,55.178z M51.028,63.661  l4.403-8.484l2.791,3.842l-7.182,13.063L51.028,63.661z M57.05,54.002l9.433-1.568c0.073-0.013,0.133-0.05,0.199-0.076l8.215,2.613  l-15.056,2.872L57.05,54.002z M66.408,39.617l2.156-17.076c0.019-0.146,0-0.286-0.04-0.418l6.632-9.159l-4.17,25.166L66.408,39.617z   M73.384,12.001l-6.536,9.027c-0.092,0.014-0.185,0.025-0.273,0.067L51,28.424v-4.816L73.384,12.001z M49,28.424l-15.574-7.329  c-0.133-0.063-0.271-0.089-0.41-0.091l-6.661-9.138L49,23.608V28.424z M24.891,13.252l6.565,9.006  c-0.015,0.092-0.033,0.185-0.021,0.282l2.158,17.077l-4.581-1.488L24.891,13.252z M28.395,40.032l4.581,1.488L21.193,54.066  c-0.018,0.019-0.023,0.043-0.039,0.063l-10.421,3.315L28.395,40.032z M10.388,59.653l11.071-3.522  c0.135,0.131,0.295,0.237,0.494,0.275l16.908,3.225l-2.831,3.896L10.388,59.653z M40.479,60.807l8.292,15.084  c0.07,0.127,0.169,0.226,0.278,0.309l0.018,11.314L37.647,64.703L40.479,60.807z M51.066,87.252l-0.018-11.127  c0.069-0.067,0.132-0.145,0.182-0.234l8.292-15.084l2.831,3.896L51.066,87.252z M61.141,59.631l16.907-3.225  c0.198-0.038,0.358-0.145,0.493-0.275l11.07,3.522l-25.641,3.874L61.141,59.631z"/></svg>
