<svg xmlns="http://www.w3.org/2000/svg" xmlns:xlink="http://www.w3.org/1999/xlink" version="1.1" x="0px" y="0px" viewBox="0 0 100 100" style="enable-background:new 0 0 100 100;" xml:space="preserve"><path d="M81.971,67.033C81.47,58.66,74.498,52,66,52c-2.891,0-5.692,0.77-8.158,2.234C53.842,49.625,48.118,47,42,47  c-1.327,0-2.631,0.137-3.904,0.378c-0.013-0.017-0.017-0.037-0.031-0.053C31.896,40.514,28.5,31.697,28.5,22.5  c0-4.644,0.86-9.189,2.556-13.51c0.146-0.37,0.058-0.791-0.224-1.072c-0.281-0.281-0.703-0.37-1.072-0.224  C14.719,13.598,5,27.849,5,44c0,7.084,1.927,13.993,5.549,20.031C7.137,67.31,5,71.906,5,77c0,6.885,3.889,12.872,9.581,15.898  c0.023,0.012,0.045,0.024,0.069,0.033C17.148,94.246,19.986,95,23,95h58c7.72,0,14-6.28,14-14  C95,73.607,89.239,67.533,81.971,67.033z M7,44c0-14.564,8.331-27.5,21.41-33.555c-1.269,3.892-1.91,7.937-1.91,12.055  c0,9.356,3.344,18.334,9.422,25.404c-1.42,0.43-2.783,1.008-4.071,1.72C30.275,46.788,27.31,45,24,45c-4.963,0-9,4.038-9,9  c0,2.225,0.818,4.32,2.266,5.953c-1.883,0.635-3.622,1.575-5.17,2.759C8.771,57.053,7,50.609,7,44z M23,59  c-1.199,0-2.37,0.123-3.505,0.348C17.91,58.013,17,56.077,17,54c0-3.86,3.141-7,7-7c2.606,0,4.936,1.428,6.149,3.682  c-3.01,2.06-5.494,4.897-7.119,8.318C23.021,59,23.01,59,23,59z M81.437,92.979l2.271-2.271c0.391-0.391,0.391-1.023,0-1.414  s-1.023-0.391-1.414,0L78.586,93h-3.172l2.293-2.293c0.391-0.391,0.391-1.023,0-1.414s-1.023-0.391-1.414,0L72.586,93h-3.172  l2.293-2.293c0.391-0.391,0.391-1.023,0-1.414s-1.023-0.391-1.414,0L66.586,93h-3.172l2.293-2.293c0.391-0.391,0.391-1.023,0-1.414  s-1.023-0.391-1.414,0L60.586,93h-3.172l2.293-2.293c0.391-0.391,0.391-1.023,0-1.414s-1.023-0.391-1.414,0L54.586,93h-3.172  l2.293-2.293c0.391-0.391,0.391-1.023,0-1.414s-1.023-0.391-1.414,0L48.586,93h-3.172l2.293-2.293c0.391-0.391,0.391-1.023,0-1.414  s-1.023-0.391-1.414,0L42.586,93h-3.172l2.293-2.293c0.391-0.391,0.391-1.023,0-1.414s-1.023-0.391-1.414,0L36.586,93h-3.172  l2.293-2.293c0.391-0.391,0.391-1.023,0-1.414s-1.023-0.391-1.414,0L30.586,93h-3.172l2.293-2.293c0.391-0.391,0.391-1.023,0-1.414  s-1.023-0.391-1.414,0L24.586,93H23c-0.51,0-1.012-0.029-1.51-0.076l3.217-3.217c0.391-0.391,0.391-1.023,0-1.414  s-1.023-0.391-1.414,0l-4,4c-0.064,0.064-0.102,0.143-0.146,0.219c-0.839-0.209-1.658-0.469-2.44-0.805l3-3  c0.391-0.391,0.391-1.023,0-1.414s-1.023-0.391-1.414,0l-3.448,3.447c-0.655-0.391-1.286-0.816-1.877-1.294l3.739-3.739  c0.391-0.391,0.391-1.023,0-1.414s-1.023-0.391-1.414,0l-3.799,3.799c-0.521-0.541-1-1.121-1.441-1.73l3.654-3.654  c0.391-0.391,0.391-1.023,0-1.414s-1.023-0.391-1.414,0l-3.347,3.348c-0.383-0.701-0.697-1.441-0.974-2.199l3.734-3.734  c0.391-0.391,0.391-1.023,0-1.414s-1.023-0.391-1.414,0l-2.959,2.959c-0.192-0.925-0.29-1.883-0.314-2.857l3.688-3.688  c0.391-0.391,0.391-1.023,0-1.414s-1.023-0.391-1.414,0l-2.055,2.055C8.509,66.785,15.083,61,23,61c0.122,0,0.242,0.016,0.364,0.018  l0.258,0.016c0.005,0,0.009-0.002,0.014-0.002c0.318,0.012,0.638,0.016,0.953,0.047c0.277,0.026,0.549,0.08,0.823,0.121  c0.244,0.036,0.49,0.061,0.731,0.107c0.309,0.062,0.608,0.148,0.912,0.229c0.2,0.052,0.405,0.09,0.603,0.15  c0.31,0.094,0.609,0.213,0.912,0.326c0.184,0.067,0.372,0.123,0.553,0.197c0.286,0.119,0.562,0.262,0.841,0.397  c0.188,0.091,0.382,0.17,0.566,0.269c0.252,0.135,0.491,0.292,0.735,0.44c0.201,0.122,0.409,0.233,0.605,0.364  c0.215,0.145,0.418,0.309,0.627,0.464c0.213,0.158,0.433,0.307,0.639,0.476c0.178,0.146,0.343,0.313,0.516,0.467  c0.229,0.205,0.464,0.402,0.683,0.621c0.195,0.197,0.451,0.295,0.708,0.295c0.255,0,0.511-0.098,0.706-0.291  c0.391-0.391,0.393-1.023,0.002-1.414c-0.011-0.012-0.022-0.02-0.033-0.031c-0.004-0.004-0.005-0.009-0.009-0.013  c-0.277-0.276-0.574-0.527-0.866-0.783c-0.146-0.129-0.284-0.271-0.435-0.394c-0.198-0.162-0.409-0.305-0.613-0.457l1.912-1.912  c0.391-0.391,0.391-1.023,0-1.414s-1.023-0.391-1.414,0l-2,2c-0.065,0.064-0.104,0.145-0.146,0.221  c-0.225-0.133-0.442-0.279-0.672-0.402c-0.258-0.138-0.527-0.25-0.791-0.375c-0.228-0.107-0.45-0.227-0.682-0.324l2.705-2.705  c0.391-0.391,0.391-1.023,0-1.414s-1.023-0.391-1.414,0l-3,3c-0.124,0.123-0.193,0.274-0.239,0.432  c-0.2-0.059-0.404-0.101-0.606-0.152c-0.303-0.076-0.602-0.166-0.909-0.227c-0.302-0.06-0.61-0.091-0.915-0.135  c-0.144-0.021-0.285-0.047-0.43-0.064C28.465,52.939,34.915,49,42,49c5.805,0,11.219,2.613,14.853,7.172  c0.326,0.406,0.907,0.497,1.341,0.206C60.505,54.822,63.205,54,66,54c7.396,0,13.456,5.77,13.951,13.043  c-2.766,0.201-5.364,1.198-7.568,2.922c-0.435,0.34-0.512,0.968-0.172,1.402c0.197,0.253,0.491,0.385,0.789,0.385  c0.215,0,0.432-0.069,0.615-0.213C75.74,69.879,78.294,69,81,69c6.617,0,12,5.383,12,12C93,87.47,87.851,92.746,81.437,92.979z"/><path d="M19,40c0-3.309-2.243-6-5-6s-5,2.691-5,6s2.243,6,5,6S19,43.309,19,40z M14,44c-1.654,0-3-1.794-3-4s1.346-4,3-4  s3,1.794,3,4S15.654,44,14,44z"/><path d="M83,12h2.586l-2.293,2.293c-0.391,0.391-0.391,1.023,0,1.414C83.488,15.903,83.744,16,84,16s0.512-0.098,0.707-0.293  L87,13.415V16c0,0.552,0.447,1,1,1s1-0.448,1-1v-2.585l2.293,2.293C91.488,15.903,91.744,16,92,16s0.512-0.098,0.707-0.293  c0.391-0.391,0.391-1.023,0-1.414L90.414,12H93c0.553,0,1-0.448,1-1s-0.447-1-1-1h-2.586l2.293-2.293  c0.391-0.391,0.391-1.023,0-1.414s-1.023-0.391-1.414,0L89,8.586V6c0-0.552-0.447-1-1-1s-1,0.448-1,1v2.586l-2.293-2.293  c-0.391-0.391-1.023-0.391-1.414,0s-0.391,1.023,0,1.414L85.586,10H83c-0.553,0-1,0.448-1,1S82.447,12,83,12z"/><path d="M54,16h2.586l-1.293,1.293c-0.391,0.391-0.391,1.023,0,1.414C55.488,18.903,55.744,19,56,19s0.512-0.098,0.707-0.293  L58,17.415V20c0,0.552,0.447,1,1,1s1-0.448,1-1v-2.585l1.293,1.293C61.488,18.903,61.744,19,62,19s0.512-0.098,0.707-0.293  c0.391-0.391,0.391-1.023,0-1.414L61.414,16H64c0.553,0,1-0.448,1-1s-0.447-1-1-1h-2.586l1.293-1.293  c0.391-0.391,0.391-1.023,0-1.414s-1.023-0.391-1.414,0L60,12.586V10c0-0.552-0.447-1-1-1s-1,0.448-1,1v2.586l-1.293-1.293  c-0.391-0.391-1.023-0.391-1.414,0s-0.391,1.023,0,1.414L56.586,14H54c-0.553,0-1,0.448-1,1S53.447,16,54,16z"/><path d="M74,36h2.586l-1.293,1.293c-0.391,0.391-0.391,1.023,0,1.414C75.488,38.903,75.744,39,76,39s0.512-0.098,0.707-0.293  L78,37.415V40c0,0.552,0.447,1,1,1s1-0.448,1-1v-2.585l1.293,1.293C81.488,38.903,81.744,39,82,39s0.512-0.098,0.707-0.293  c0.391-0.391,0.391-1.023,0-1.414L81.414,36H84c0.553,0,1-0.448,1-1s-0.447-1-1-1h-2.586l1.293-1.293  c0.391-0.391,0.391-1.023,0-1.414s-1.023-0.391-1.414,0L80,32.586V30c0-0.552-0.447-1-1-1s-1,0.448-1,1v2.586l-1.293-1.293  c-0.391-0.391-1.023-0.391-1.414,0s-0.391,1.023,0,1.414L76.586,34H74c-0.553,0-1,0.448-1,1S73.447,36,74,36z"/></svg>
