<svg xmlns="http://www.w3.org/2000/svg" xmlns:xlink="http://www.w3.org/1999/xlink" version="1.1" x="0px" y="0px" viewBox="0 0 100 100" style="enable-background:new 0 0 100 100;" xml:space="preserve"><path d="M42.233,17.918c5.053-1.218,10.472-1.219,15.53,0c0.078,0.019,0.156,0.028,0.234,0.028c0.006,0,0.011-0.001,0.021,0  c0.552,0,1-0.448,1-1c0-0.359-0.189-0.674-0.475-0.85C55.58,13.497,50.999,8.547,50.999,6c0-0.347-0.18-0.668-0.474-0.851  c-0.295-0.182-0.664-0.199-0.973-0.044c-0.349,0.175-8.553,4.362-8.553,11.841c0,0.307,0.141,0.596,0.381,0.786  S41.936,17.99,42.233,17.918z M49.279,7.586c0.856,2.631,3.504,5.676,5.551,7.746c-3.886-0.536-7.893-0.417-11.729,0.348  C43.755,11.656,47.376,8.821,49.279,7.586z"/><path d="M20.97,33.284c0.039,0,0.079-0.002,0.118-0.007c0.305-0.036,0.576-0.21,0.735-0.471c1.357-2.219,2.986-4.285,4.841-6.14  c1.858-1.858,3.924-3.486,6.141-4.841c0.394-0.24,0.571-0.718,0.431-1.157c-0.141-0.439-0.557-0.721-1.023-0.693  c-0.012,0.001-1.246,0.086-2.948,0.086h0c-4.952,0-8.477-0.685-9.671-1.879c-0.245-0.246-0.601-0.345-0.937-0.266  c-0.337,0.08-0.609,0.328-0.719,0.657c-0.124,0.371-2.963,9.132,2.325,14.42C20.451,33.18,20.706,33.284,20.97,33.284z   M19.498,20.524c1.933,0.994,5.087,1.508,9.417,1.535c-1.289,0.975-2.515,2.042-3.665,3.192c-1.642,1.642-3.116,3.44-4.396,5.358  C18.473,27.305,19.026,22.745,19.498,20.524z"/><path d="M17.874,57.581C17.294,55.111,17,52.563,17,50c0-2.627,0.309-5.239,0.918-7.765c0.108-0.448-0.104-0.912-0.514-1.123  c-0.41-0.212-0.912-0.116-1.213,0.233C13.621,44.305,8.581,49,6,49c-0.347,0-0.668,0.18-0.851,0.474  c-0.182,0.295-0.199,0.663-0.044,0.973C5.28,50.797,9.468,59,16.945,59c0.007-0.001,0.013,0,0.02,0c0.552,0,1-0.447,1-1  C17.965,57.85,17.933,57.709,17.874,57.581z M7.586,50.72c2.631-0.856,5.675-3.504,7.745-5.551C15.111,46.764,15,48.38,15,50  c0,2.324,0.228,4.638,0.679,6.897C11.655,56.244,8.821,52.623,7.586,50.72z"/><path d="M32.805,78.177c-2.218-1.357-4.284-2.987-6.139-4.843c-1.858-1.857-3.487-3.924-4.841-6.14  c-0.241-0.394-0.721-0.571-1.158-0.431c-0.439,0.141-0.726,0.563-0.693,1.022c0.275,3.91,0.031,10.794-1.794,12.618  c-0.245,0.246-0.346,0.6-0.266,0.938c0.08,0.337,0.328,0.609,0.657,0.719c0.106,0.035,2.622,0.861,5.761,0.861  c3.581,0,6.575-1.102,8.659-3.186c0.217-0.217,0.322-0.52,0.286-0.824S33.066,78.337,32.805,78.177z M24.332,80.922  c-1.508,0-2.873-0.218-3.815-0.42c1.256-2.466,1.537-6.492,1.553-9.404c0.972,1.283,2.036,2.505,3.183,3.65  c1.642,1.643,3.44,3.118,5.358,4.398C28.982,80.326,26.877,80.922,24.332,80.922z"/><path d="M57.766,82.082c-5.055,1.216-10.482,1.217-15.53-0.002c-0.45-0.109-0.912,0.104-1.123,0.514  c-0.211,0.41-0.115,0.912,0.233,1.214c2.959,2.572,7.654,7.613,7.654,10.191c0,0.347,0.18,0.669,0.474,0.851  c0.161,0.1,0.343,0.149,0.526,0.149c0.153,0,0.306-0.035,0.447-0.105C50.795,94.719,59,90.531,59,83.055  c0-0.307-0.141-0.596-0.382-0.786C58.378,82.079,58.063,82.011,57.766,82.082z M50.719,92.413c-0.856-2.631-3.505-5.676-5.551-7.745  c3.876,0.533,7.889,0.418,11.729-0.348C56.244,88.344,52.622,91.178,50.719,92.413z"/><path d="M78.911,66.723c-0.304,0.035-0.574,0.209-0.734,0.471c-1.359,2.221-2.988,4.285-4.843,6.139  c-1.858,1.858-3.925,3.487-6.14,4.842c-0.394,0.24-0.571,0.719-0.432,1.158c0.141,0.439,0.568,0.723,1.023,0.693  c0.012-0.002,1.243-0.086,2.941-0.086c4.955,0,8.481,0.686,9.677,1.88c0.189,0.19,0.444,0.293,0.707,0.293  c0.077,0,0.153-0.009,0.229-0.026c0.338-0.08,0.609-0.328,0.719-0.658c0.124-0.369,2.963-9.133-2.323-14.42  C79.52,66.792,79.216,66.687,78.911,66.723z M80.5,79.476c-1.933-0.993-5.088-1.509-9.417-1.535  c1.289-0.976,2.514-2.044,3.665-3.193c1.642-1.641,3.116-3.438,4.397-5.356C81.525,72.693,80.972,77.254,80.5,79.476z"/><path d="M94.894,49.553c-0.175-0.349-4.363-8.553-11.84-8.554c-0.307,0-0.596,0.141-0.785,0.381  c-0.189,0.241-0.259,0.555-0.188,0.853c0.609,2.533,0.918,5.146,0.917,7.765c0,2.627-0.309,5.239-0.917,7.766  c-0.108,0.447,0.104,0.912,0.514,1.123c0.145,0.074,0.303,0.111,0.457,0.111c0.283,0,0.561-0.12,0.756-0.345  C86.38,55.695,91.421,51,93.999,51c0.347,0,0.668-0.18,0.851-0.475S95.048,49.863,94.894,49.553z M84.667,54.831  c0.221-1.597,0.331-3.212,0.331-4.833c0.001-2.319-0.228-4.633-0.679-6.897c4.023,0.654,6.859,4.276,8.094,6.179  C89.782,50.137,86.737,52.785,84.667,54.831z"/><path d="M67.192,21.822c2.225,1.362,4.29,2.991,6.14,4.842c1.856,1.856,3.485,3.922,4.843,6.14c0.186,0.303,0.512,0.478,0.853,0.478  c0.007,0,0.013,0.001,0.021,0c0.552,0,1-0.448,1-1c0-0.092-0.013-0.181-0.036-0.265c-0.253-3.94,0.013-10.628,1.808-12.423  c0.244-0.245,0.345-0.6,0.266-0.937c-0.08-0.337-0.328-0.609-0.657-0.719c-0.106-0.035-2.622-0.862-5.761-0.862  c-3.582,0-6.575,1.102-8.659,3.186c-0.217,0.216-0.322,0.521-0.286,0.825S66.931,21.662,67.192,21.822z M75.667,19.077  c1.508,0,2.873,0.218,3.815,0.421c-1.256,2.466-1.536,6.494-1.553,9.405c-0.974-1.285-2.038-2.506-3.183-3.652  c-1.639-1.64-3.437-3.115-5.359-4.398C71.016,19.673,73.121,19.077,75.667,19.077z"/><path d="M20.105,52.426c1.176,14.609,12.858,26.291,27.467,27.468C47.708,79.958,47.852,80,47.999,80  c0.093,0,0.184-0.027,0.273-0.053C48.844,79.979,49.419,80,49.999,80c16.542,0,30-13.458,30-30s-13.458-30-30-30s-30,13.458-30,30  c0,0.58,0.021,1.154,0.053,1.727C19.985,51.959,20,52.205,20.105,52.426z M49.999,22c15.439,0,28,12.561,28,28  c0,12.871-8.731,23.734-20.581,26.994l4.288-4.287c0.391-0.391,0.391-1.023,0-1.414s-1.023-0.391-1.414,0l-6,6  c-0.118,0.118-0.188,0.261-0.235,0.409c-1.188,0.174-2.401,0.269-3.633,0.287l4.282-4.282c0.391-0.391,0.391-1.023,0-1.414  s-1.023-0.391-1.414,0l-5.604,5.604c-0.947-0.077-1.881-0.202-2.799-0.372l3.817-3.817c0.391-0.391,0.391-1.023,0-1.414  s-1.023-0.391-1.414,0l-4.704,4.704c-0.814-0.224-1.615-0.48-2.397-0.774l3.516-3.516c0.391-0.391,0.391-1.023,0-1.414  s-1.023-0.391-1.414,0l-4,4c-0.03,0.03-0.042,0.069-0.068,0.102c-0.721-0.336-1.424-0.701-2.11-1.096l3.592-3.592  c0.391-0.391,0.391-1.023,0-1.414s-1.023-0.391-1.414,0l-3.926,3.926c-0.641-0.433-1.259-0.896-1.86-1.379  c0.068-0.041,0.141-0.074,0.2-0.133l4-4c0.391-0.391,0.391-1.023,0-1.414s-1.023-0.391-1.414,0l-4,4  c-0.096,0.096-0.167,0.207-0.215,0.324c-0.588-0.541-1.154-1.106-1.695-1.695c0.118-0.049,0.229-0.119,0.324-0.215l4-4  c0.391-0.391,0.391-1.023,0-1.414s-1.023-0.391-1.414,0l-4,4c-0.059,0.059-0.092,0.132-0.133,0.2  c-0.483-0.602-0.946-1.22-1.379-1.86l3.926-3.926c0.391-0.391,0.391-1.023,0-1.414s-1.023-0.391-1.414,0L25.7,63.885  c-0.394-0.686-0.76-1.389-1.096-2.109c0.033-0.026,0.072-0.038,0.102-0.068l4-4c0.391-0.391,0.391-1.023,0-1.414  s-1.023-0.391-1.414,0l-3.516,3.516c-0.294-0.783-0.55-1.584-0.774-2.397l4.704-4.704c0.391-0.391,0.391-1.023,0-1.414  s-1.023-0.391-1.414,0l-3.817,3.817c-0.17-0.919-0.295-1.853-0.373-2.8l5.604-5.604c0.391-0.391,0.391-1.023,0-1.414  s-1.023-0.391-1.414,0l-4.282,4.282c0.019-1.231,0.113-2.444,0.287-3.633c0.148-0.046,0.291-0.117,0.409-0.235l6-6  c0.391-0.391,0.391-1.023,0-1.414s-1.023-0.391-1.414,0l-4.288,4.288C26.265,30.731,37.128,22,49.999,22z"/></svg>
