<svg xmlns="http://www.w3.org/2000/svg" xmlns:xlink="http://www.w3.org/1999/xlink" version="1.1" x="0px" y="0px" viewBox="0 0 100 100" style="enable-background:new 0 0 100 100;" xml:space="preserve"><path d="M81.971,33.033C81.47,24.66,74.498,18,66,18c-1.142,0-2.296,0.129-3.443,0.385C59.43,10.341,51.684,5,43,5  c-11.253,0-20.467,8.897-20.978,20.026C12.55,25.535,5,33.402,5,43c0,6.884,3.889,12.872,9.581,15.898  c0.023,0.012,0.045,0.024,0.069,0.033C17.148,60.246,19.986,61,23,61h58c7.72,0,14-6.28,14-14  C95,39.607,89.239,33.534,81.971,33.033z M81.437,58.979l2.271-2.271c0.391-0.391,0.391-1.023,0-1.414s-1.023-0.391-1.414,0  L78.586,59h-3.172l2.293-2.293c0.391-0.391,0.391-1.023,0-1.414s-1.023-0.391-1.414,0L72.586,59h-3.172l2.293-2.293  c0.391-0.391,0.391-1.023,0-1.414s-1.023-0.391-1.414,0L66.586,59h-3.172l2.293-2.293c0.391-0.391,0.391-1.023,0-1.414  s-1.023-0.391-1.414,0L60.586,59h-3.172l2.293-2.293c0.391-0.391,0.391-1.023,0-1.414s-1.023-0.391-1.414,0L54.586,59h-3.172  l2.293-2.293c0.391-0.391,0.391-1.023,0-1.414s-1.023-0.391-1.414,0L48.586,59h-3.172l2.293-2.293c0.391-0.391,0.391-1.023,0-1.414  s-1.023-0.391-1.414,0L42.586,59h-3.172l2.293-2.293c0.391-0.391,0.391-1.023,0-1.414s-1.023-0.391-1.414,0L36.586,59h-3.172  l2.293-2.293c0.391-0.391,0.391-1.023,0-1.414s-1.023-0.391-1.414,0L30.586,59h-3.172l2.293-2.293c0.391-0.391,0.391-1.023,0-1.414  s-1.023-0.391-1.414,0L24.586,59H23c-0.51,0-1.012-0.029-1.51-0.076l3.217-3.217c0.391-0.391,0.391-1.023,0-1.414  s-1.023-0.391-1.414,0l-4,4c-0.064,0.064-0.102,0.143-0.146,0.219c-0.839-0.209-1.658-0.469-2.44-0.805l3-3  c0.391-0.391,0.391-1.023,0-1.414s-1.023-0.391-1.414,0l-3.448,3.447c-0.655-0.391-1.286-0.816-1.877-1.294l3.739-3.739  c0.391-0.391,0.391-1.023,0-1.414s-1.023-0.391-1.414,0l-3.799,3.799c-0.521-0.541-1-1.121-1.441-1.73l3.654-3.654  c0.391-0.391,0.391-1.023,0-1.414s-1.023-0.391-1.414,0L8.946,50.64c-0.383-0.701-0.697-1.44-0.974-2.199l3.734-3.734  c0.391-0.391,0.391-1.023,0-1.414s-1.023-0.391-1.414,0l-2.959,2.959c-0.192-0.925-0.29-1.882-0.314-2.858l3.688-3.687  c0.391-0.391,0.391-1.023,0-1.414s-1.023-0.391-1.414,0l-2.055,2.054C8.509,32.786,15.083,27,23,27  c4.265,0,8.276,1.658,11.297,4.669c0.195,0.195,0.45,0.292,0.706,0.292c0.257,0,0.513-0.098,0.708-0.294  c0.39-0.391,0.389-1.024-0.002-1.414c-0.601-0.599-1.248-1.132-1.914-1.634l1.912-1.912c0.391-0.391,0.391-1.023,0-1.414  s-1.023-0.391-1.414,0l-2,2c-0.065,0.065-0.104,0.144-0.146,0.221c-0.694-0.412-1.405-0.788-2.146-1.1l2.706-2.707  c0.391-0.391,0.391-1.023,0-1.414s-1.023-0.391-1.414,0l-3,3c-0.124,0.124-0.193,0.274-0.239,0.431  c-0.909-0.265-1.845-0.449-2.796-0.567l3.449-3.45c0.391-0.391,0.391-1.023,0-1.414s-1.023-0.391-1.414,0l-3.091,3.091  C25.483,14.144,33.413,7,43,7c7.79,0,14.734,4.758,17.608,11.934c-2.497,0.894-4.755,2.413-6.533,4.399  c-0.368,0.412-0.333,1.044,0.078,1.412C54.344,24.916,54.582,25,54.82,25c0.274,0,0.548-0.112,0.745-0.333  c1.568-1.753,3.563-3.091,5.768-3.87c0.153-0.054,0.276-0.148,0.382-0.259c0.155,0.035,0.317,0.045,0.482,0  C63.462,20.181,64.742,20,66,20c7.396,0,13.456,5.77,13.951,13.043c-2.766,0.202-5.364,1.198-7.568,2.921  c-0.435,0.34-0.512,0.968-0.172,1.403c0.197,0.252,0.491,0.384,0.789,0.384c0.215,0,0.432-0.069,0.615-0.212  C75.74,35.878,78.294,35,81,35c6.617,0,12,5.383,12,12C93,53.47,87.851,58.746,81.437,58.979z"/><path d="M25.831,76.366c0.157,0.091,0.329,0.134,0.499,0.134c0.346,0,0.682-0.18,0.867-0.5c0.276-0.479,0.112-1.09-0.366-1.366  L24.002,73l2.828-1.633c0.479-0.276,0.643-0.888,0.366-1.366c-0.276-0.479-0.89-0.642-1.366-0.366L23,71.269V68c0-0.553-0.447-1-1-1  s-1,0.447-1,1v3.268l-2.829-1.634c-0.478-0.276-1.09-0.112-1.366,0.366s-0.112,1.09,0.366,1.366L20.001,73l-2.831,1.635  c-0.479,0.276-0.643,0.888-0.366,1.366c0.186,0.321,0.521,0.5,0.867,0.5c0.17,0,0.342-0.043,0.499-0.134L21,74.733V78  c0,0.553,0.447,1,1,1s1-0.447,1-1v-3.269L25.831,76.366z"/><path d="M63.831,76.366c0.157,0.091,0.329,0.134,0.499,0.134c0.346,0,0.682-0.18,0.867-0.5c0.276-0.479,0.112-1.09-0.366-1.366  L62.002,73l2.828-1.633c0.479-0.276,0.643-0.888,0.366-1.366c-0.277-0.479-0.89-0.642-1.366-0.366L61,71.269V68c0-0.553-0.447-1-1-1  s-1,0.447-1,1v3.268l-2.829-1.634c-0.479-0.276-1.09-0.112-1.366,0.366s-0.112,1.09,0.366,1.366L58.001,73l-2.831,1.635  c-0.479,0.276-0.643,0.888-0.366,1.366c0.186,0.321,0.521,0.5,0.867,0.5c0.17,0,0.342-0.043,0.499-0.134L59,74.733V78  c0,0.553,0.447,1,1,1s1-0.447,1-1v-3.269L63.831,76.366z"/><path d="M33.831,90.634L31.002,89l2.828-1.633c0.479-0.276,0.643-0.888,0.366-1.366c-0.277-0.479-0.891-0.644-1.366-0.366L30,87.269  V84c0-0.553-0.447-1-1-1s-1,0.447-1,1v3.268l-2.829-1.634c-0.479-0.276-1.09-0.113-1.366,0.366c-0.276,0.479-0.112,1.09,0.366,1.366  L27.001,89l-2.831,1.635c-0.479,0.276-0.643,0.888-0.366,1.366c0.186,0.321,0.521,0.5,0.867,0.5c0.17,0,0.342-0.043,0.499-0.134  L28,90.733V94c0,0.553,0.447,1,1,1s1-0.447,1-1v-3.269l2.831,1.635c0.157,0.091,0.329,0.134,0.499,0.134  c0.346,0,0.682-0.18,0.867-0.5C34.474,91.521,34.31,90.91,33.831,90.634z"/><path d="M71.831,90.634L69.002,89l2.828-1.633c0.479-0.276,0.643-0.888,0.366-1.366c-0.277-0.479-0.89-0.644-1.366-0.366L68,87.269  V84c0-0.553-0.447-1-1-1s-1,0.447-1,1v3.268l-2.829-1.634c-0.478-0.276-1.09-0.113-1.366,0.366c-0.276,0.479-0.112,1.09,0.366,1.366  L65.001,89l-2.831,1.635c-0.479,0.276-0.643,0.888-0.366,1.366c0.186,0.321,0.521,0.5,0.867,0.5c0.17,0,0.342-0.043,0.499-0.134  L66,90.733V94c0,0.553,0.447,1,1,1s1-0.447,1-1v-3.269l2.831,1.635c0.157,0.091,0.329,0.134,0.499,0.134  c0.346,0,0.682-0.18,0.867-0.5C72.474,91.521,72.31,90.91,71.831,90.634z"/><path d="M14.484,80.125c-0.316-0.176-0.705-0.166-1.015,0.027C12.604,80.693,5,85.574,5,90c0,2.757,2.243,5,5,5s5-2.243,5-5v-9  C15,80.637,14.803,80.302,14.484,80.125z M13,90c0,1.654-1.346,3-3,3s-3-1.346-3-3c0-2.098,3.237-5.12,6-7.117V90z"/><path d="M45,75v-9c0-0.363-0.197-0.698-0.516-0.875c-0.316-0.177-0.705-0.166-1.015,0.027C42.604,65.693,35,70.574,35,75  c0,2.757,2.243,5,5,5S45,77.757,45,75z M43,75c0,1.654-1.346,3-3,3s-3-1.346-3-3c0-2.098,3.237-5.12,6-7.117V75z"/><path d="M50.484,80.125c-0.317-0.176-0.706-0.166-1.015,0.027C48.604,80.693,41,85.574,41,90c0,2.757,2.243,5,5,5s5-2.243,5-5v-9  C51,80.637,50.803,80.302,50.484,80.125z M49,90c0,1.654-1.346,3-3,3s-3-1.346-3-3c0-2.098,3.237-5.12,6-7.117V90z"/><path d="M81,75v-9c0-0.363-0.197-0.698-0.516-0.875c-0.317-0.177-0.706-0.166-1.015,0.027C78.604,65.693,71,70.574,71,75  c0,2.757,2.243,5,5,5S81,77.757,81,75z M79,75c0,1.654-1.346,3-3,3s-3-1.346-3-3c0-2.098,3.237-5.12,6-7.117V75z"/><path d="M86.484,80.125c-0.316-0.176-0.706-0.166-1.015,0.027C84.604,80.693,77,85.574,77,90c0,2.757,2.243,5,5,5s5-2.243,5-5v-9  C87,80.637,86.803,80.302,86.484,80.125z M85,90c0,1.654-1.346,3-3,3s-3-1.346-3-3c0-2.098,3.237-5.12,6-7.117V90z"/></svg>
