<svg xmlns="http://www.w3.org/2000/svg" xmlns:xlink="http://www.w3.org/1999/xlink" version="1.1" x="0px" y="0px" viewBox="0 0 100 100" style="enable-background:new 0 0 100 100;" xml:space="preserve"><path d="M6,44c0.256,0,0.512-0.098,0.707-0.293l37-37c0.391-0.391,0.391-1.023,0-1.414s-1.023-0.391-1.414,0l-37,37  c-0.391,0.391-0.391,1.023,0,1.414C5.488,43.902,5.744,44,6,44z"/><path d="M8,36c0.256,0,0.512-0.098,0.707-0.293l7-7c0.391-0.391,0.391-1.023,0-1.414s-1.023-0.391-1.414,0l-7,7  c-0.391,0.391-0.391,1.023,0,1.414C7.488,35.902,7.744,36,8,36z"/><path d="M25,19c0.256,0,0.512-0.098,0.707-0.293l10-10c0.391-0.391,0.391-1.023,0-1.414s-1.023-0.391-1.414,0l-10,10  c-0.391,0.391-0.391,1.023,0,1.414C24.488,18.902,24.744,19,25,19z"/><path d="M6.293,48.707C6.488,48.902,6.744,49,7,49s0.512-0.098,0.707-0.293l41-41c0.391-0.391,0.391-1.023,0-1.414  s-1.023-0.391-1.414,0l-41,41C5.902,47.684,5.902,48.316,6.293,48.707z"/><path d="M8.293,52.707C8.488,52.902,8.744,53,9,53s0.512-0.098,0.707-0.293l43-43c0.391-0.391,0.391-1.023,0-1.414  s-1.023-0.391-1.414,0l-43,43C7.902,51.684,7.902,52.316,8.293,52.707z"/><path d="M11.293,55.707C11.488,55.902,11.744,56,12,56s0.512-0.098,0.707-0.293l44-44c0.391-0.391,0.391-1.023,0-1.414  s-1.023-0.391-1.414,0l-44,44C10.902,54.684,10.902,55.316,11.293,55.707z"/><path d="M15.293,57.707C15.488,57.902,15.744,58,16,58s0.512-0.098,0.707-0.293l43-43c0.391-0.391,0.391-1.023,0-1.414  s-1.023-0.391-1.414,0l-43,43C14.902,56.684,14.902,57.316,15.293,57.707z"/><path d="M20.293,58.707C20.488,58.902,20.744,59,21,59s0.512-0.098,0.707-0.293l40-40c0.391-0.391,0.391-1.023,0-1.414  s-1.023-0.391-1.414,0l-40,40C19.902,57.684,19.902,58.316,20.293,58.707z"/><path d="M25.293,59.707C25.488,59.902,25.744,60,26,60s0.512-0.098,0.707-0.293l40-40c0.391-0.391,0.391-1.023,0-1.414  s-1.023-0.391-1.414,0l-40,40C24.902,58.684,24.902,59.316,25.293,59.707z"/><path d="M31.293,59.707C31.488,59.902,31.744,60,32,60s0.512-0.098,0.707-0.293l39-39c0.391-0.391,0.391-1.023,0-1.414  s-1.023-0.391-1.414,0l-39,39C30.902,58.684,30.902,59.316,31.293,59.707z"/><path d="M37.293,59.707C37.488,59.902,37.744,60,38,60s0.512-0.098,0.707-0.293l37-37c0.391-0.391,0.391-1.023,0-1.414  s-1.023-0.391-1.414,0l-37,37C36.902,58.684,36.902,59.316,37.293,59.707z"/><path d="M43.293,59.707C43.488,59.902,43.744,60,44,60s0.512-0.098,0.707-0.293l34-34c0.391-0.391,0.391-1.023,0-1.414  s-1.023-0.391-1.414,0l-34,34C42.902,58.684,42.902,59.316,43.293,59.707z"/><path d="M49.293,59.707C49.488,59.902,49.744,60,50,60s0.512-0.098,0.707-0.293l30-30c0.391-0.391,0.391-1.023,0-1.414  s-1.023-0.391-1.414,0l-30,30C48.902,58.684,48.902,59.316,49.293,59.707z"/><path d="M80.293,33.293l-25,25c-0.391,0.391-0.391,1.023,0,1.414C55.488,59.902,55.744,60,56,60s0.512-0.098,0.707-0.293l25-25  c0.391-0.391,0.391-1.023,0-1.414S80.684,32.902,80.293,33.293z"/><path d="M61.293,59.707C61.488,59.902,61.744,60,62,60s0.512-0.098,0.707-0.293l24-24c0.391-0.391,0.391-1.023,0-1.414  s-1.023-0.391-1.414,0l-24,24C60.902,58.684,60.902,59.316,61.293,59.707z"/><path d="M67.293,59.707C67.488,59.902,67.744,60,68,60s0.512-0.098,0.707-0.293l21-21c0.391-0.391,0.391-1.023,0-1.414  s-1.023-0.391-1.414,0l-21,21C66.902,58.684,66.902,59.316,67.293,59.707z"/><path d="M73.293,59.707C73.488,59.902,73.744,60,74,60s0.512-0.098,0.707-0.293l18-18c0.391-0.391,0.391-1.023,0-1.414  s-1.023-0.391-1.414,0l-18,18C72.902,58.684,72.902,59.316,73.293,59.707z"/><path d="M92.293,45.293l-13,13c-0.391,0.391-0.391,1.023,0,1.414C79.488,59.902,79.744,60,80,60s0.512-0.098,0.707-0.293l13-13  c0.391-0.391,0.391-1.023,0-1.414S92.684,44.902,92.293,45.293z"/><path d="M87,59c0.256,0,0.512-0.098,0.707-0.293l6-6c0.391-0.391,0.391-1.023,0-1.414s-1.023-0.391-1.414,0l-6,6  c-0.391,0.391-0.391,1.023,0,1.414C86.488,58.902,86.744,59,87,59z"/><path d="M6,75c0.256,0,0.512-0.098,0.707-0.293l1-1c0.391-0.391,0.391-1.023,0-1.414s-1.023-0.391-1.414,0l-1,1  c-0.391,0.391-0.391,1.023,0,1.414C5.488,74.902,5.744,75,6,75z"/><path d="M15.707,70.293c-0.391-0.391-1.023-0.391-1.414,0l-6,6c-0.391,0.391-0.391,1.023,0,1.414C8.488,77.902,8.744,78,9,78  s0.512-0.098,0.707-0.293l6-6C16.098,71.316,16.098,70.684,15.707,70.293z"/><path d="M15,78c0.256,0,0.512-0.098,0.707-0.293l6-6c0.391-0.391,0.391-1.023,0-1.414s-1.023-0.391-1.414,0l-6,6  c-0.391,0.391-0.391,1.023,0,1.414C14.488,77.902,14.744,78,15,78z"/><path d="M21,78c0.256,0,0.512-0.098,0.707-0.293l6-6c0.391-0.391,0.391-1.023,0-1.414s-1.023-0.391-1.414,0l-6,6  c-0.391,0.391-0.391,1.023,0,1.414C20.488,77.902,20.744,78,21,78z"/><path d="M27,78c0.256,0,0.512-0.098,0.707-0.293l6-6c0.391-0.391,0.391-1.023,0-1.414s-1.023-0.391-1.414,0l-6,6  c-0.391,0.391-0.391,1.023,0,1.414C26.488,77.902,26.744,78,27,78z"/><path d="M33,78c0.256,0,0.512-0.098,0.707-0.293l6-6c0.391-0.391,0.391-1.023,0-1.414s-1.023-0.391-1.414,0l-6,6  c-0.391,0.391-0.391,1.023,0,1.414C32.488,77.902,32.744,78,33,78z"/><path d="M39,78c0.256,0,0.512-0.098,0.707-0.293l6-6c0.391-0.391,0.391-1.023,0-1.414s-1.023-0.391-1.414,0l-6,6  c-0.391,0.391-0.391,1.023,0,1.414C38.488,77.902,38.744,78,39,78z"/><path d="M45,78c0.256,0,0.512-0.098,0.707-0.293l6-6c0.391-0.391,0.391-1.023,0-1.414s-1.023-0.391-1.414,0l-6,6  c-0.391,0.391-0.391,1.023,0,1.414C44.488,77.902,44.744,78,45,78z"/><path d="M51,78c0.256,0,0.512-0.098,0.707-0.293l6-6c0.391-0.391,0.391-1.023,0-1.414s-1.023-0.391-1.414,0l-6,6  c-0.391,0.391-0.391,1.023,0,1.414C50.488,77.902,50.744,78,51,78z"/><path d="M57,78c0.256,0,0.512-0.098,0.707-0.293l6-6c0.391-0.391,0.391-1.023,0-1.414s-1.023-0.391-1.414,0l-6,6  c-0.391,0.391-0.391,1.023,0,1.414C56.488,77.902,56.744,78,57,78z"/><path d="M63,78c0.256,0,0.512-0.098,0.707-0.293l6-6c0.391-0.391,0.391-1.023,0-1.414s-1.023-0.391-1.414,0l-6,6  c-0.391,0.391-0.391,1.023,0,1.414C62.488,77.902,62.744,78,63,78z"/><path d="M69,78c0.256,0,0.512-0.098,0.707-0.293l6-6c0.391-0.391,0.391-1.023,0-1.414s-1.023-0.391-1.414,0l-6,6  c-0.391,0.391-0.391,1.023,0,1.414C68.488,77.902,68.744,78,69,78z"/><path d="M75,78c0.256,0,0.512-0.098,0.707-0.293l6-6c0.391-0.391,0.391-1.023,0-1.414s-1.023-0.391-1.414,0l-6,6  c-0.391,0.391-0.391,1.023,0,1.414C74.488,77.902,74.744,78,75,78z"/><path d="M81,78c0.256,0,0.512-0.098,0.707-0.293l6-6c0.391-0.391,0.391-1.023,0-1.414s-1.023-0.391-1.414,0l-6,6  c-0.391,0.391-0.391,1.023,0,1.414C80.488,77.902,80.744,78,81,78z"/><path d="M87,78c0.256,0,0.512-0.098,0.707-0.293l6-6c0.391-0.391,0.391-1.023,0-1.414s-1.023-0.391-1.414,0l-6,6  c-0.391,0.391-0.391,1.023,0,1.414C86.488,77.902,86.744,78,87,78z"/><path d="M93.293,75.293l-1,1c-0.391,0.391-0.391,1.023,0,1.414C92.488,77.902,92.744,78,93,78s0.512-0.098,0.707-0.293l1-1  c0.391-0.391,0.391-1.023,0-1.414S93.684,74.902,93.293,75.293z"/><path d="M7.707,89.293c-0.391-0.391-1.023-0.391-1.414,0l-1,1c-0.391,0.391-0.391,1.023,0,1.414C5.488,91.902,5.744,92,6,92  s0.512-0.098,0.707-0.293l1-1C8.098,90.316,8.098,89.684,7.707,89.293z"/><path d="M15.707,87.293c-0.391-0.391-1.023-0.391-1.414,0l-6,6c-0.391,0.391-0.391,1.023,0,1.414C8.488,94.902,8.744,95,9,95  s0.512-0.098,0.707-0.293l6-6C16.098,88.316,16.098,87.684,15.707,87.293z"/><path d="M21.707,87.293c-0.391-0.391-1.023-0.391-1.414,0l-6,6c-0.391,0.391-0.391,1.023,0,1.414C14.488,94.902,14.744,95,15,95  s0.512-0.098,0.707-0.293l6-6C22.098,88.316,22.098,87.684,21.707,87.293z"/><path d="M27.707,87.293c-0.391-0.391-1.023-0.391-1.414,0l-6,6c-0.391,0.391-0.391,1.023,0,1.414C20.488,94.902,20.744,95,21,95  s0.512-0.098,0.707-0.293l6-6C28.098,88.316,28.098,87.684,27.707,87.293z"/><path d="M33.707,87.293c-0.391-0.391-1.023-0.391-1.414,0l-6,6c-0.391,0.391-0.391,1.023,0,1.414C26.488,94.902,26.744,95,27,95  s0.512-0.098,0.707-0.293l6-6C34.098,88.316,34.098,87.684,33.707,87.293z"/><path d="M39.707,87.293c-0.391-0.391-1.023-0.391-1.414,0l-6,6c-0.391,0.391-0.391,1.023,0,1.414C32.488,94.902,32.744,95,33,95  s0.512-0.098,0.707-0.293l6-6C40.098,88.316,40.098,87.684,39.707,87.293z"/><path d="M45.707,87.293c-0.391-0.391-1.023-0.391-1.414,0l-6,6c-0.391,0.391-0.391,1.023,0,1.414C38.488,94.902,38.744,95,39,95  s0.512-0.098,0.707-0.293l6-6C46.098,88.316,46.098,87.684,45.707,87.293z"/><path d="M51.707,87.293c-0.391-0.391-1.023-0.391-1.414,0l-6,6c-0.391,0.391-0.391,1.023,0,1.414C44.488,94.902,44.744,95,45,95  s0.512-0.098,0.707-0.293l6-6C52.098,88.316,52.098,87.684,51.707,87.293z"/><path d="M57.707,87.293c-0.391-0.391-1.023-0.391-1.414,0l-6,6c-0.391,0.391-0.391,1.023,0,1.414C50.488,94.902,50.744,95,51,95  s0.512-0.098,0.707-0.293l6-6C58.098,88.316,58.098,87.684,57.707,87.293z"/><path d="M63.707,87.293c-0.391-0.391-1.023-0.391-1.414,0l-6,6c-0.391,0.391-0.391,1.023,0,1.414C56.488,94.902,56.744,95,57,95  s0.512-0.098,0.707-0.293l6-6C64.098,88.316,64.098,87.684,63.707,87.293z"/><path d="M69.707,87.293c-0.391-0.391-1.023-0.391-1.414,0l-6,6c-0.391,0.391-0.391,1.023,0,1.414C62.488,94.902,62.744,95,63,95  s0.512-0.098,0.707-0.293l6-6C70.098,88.316,70.098,87.684,69.707,87.293z"/><path d="M75.707,87.293c-0.391-0.391-1.023-0.391-1.414,0l-6,6c-0.391,0.391-0.391,1.023,0,1.414C68.488,94.902,68.744,95,69,95  s0.512-0.098,0.707-0.293l6-6C76.098,88.316,76.098,87.684,75.707,87.293z"/><path d="M81.707,87.293c-0.391-0.391-1.023-0.391-1.414,0l-6,6c-0.391,0.391-0.391,1.023,0,1.414C74.488,94.902,74.744,95,75,95  s0.512-0.098,0.707-0.293l6-6C82.098,88.316,82.098,87.684,81.707,87.293z"/><path d="M87.707,87.293c-0.391-0.391-1.023-0.391-1.414,0l-6,6c-0.391,0.391-0.391,1.023,0,1.414C80.488,94.902,80.744,95,81,95  s0.512-0.098,0.707-0.293l6-6C88.098,88.316,88.098,87.684,87.707,87.293z"/><path d="M93.707,87.293c-0.391-0.391-1.023-0.391-1.414,0l-6,6c-0.391,0.391-0.391,1.023,0,1.414C86.488,94.902,86.744,95,87,95  s0.512-0.098,0.707-0.293l6-6C94.098,88.316,94.098,87.684,93.707,87.293z"/><path d="M93.293,92.293l-1,1c-0.391,0.391-0.391,1.023,0,1.414C92.488,94.902,92.744,95,93,95s0.512-0.098,0.707-0.293l1-1  c0.391-0.391,0.391-1.023,0-1.414S93.684,91.902,93.293,92.293z"/></svg>
