<svg xmlns="http://www.w3.org/2000/svg" xmlns:xlink="http://www.w3.org/1999/xlink" version="1.1" x="0px" y="0px" viewBox="0 0 100 100" style="enable-background:new 0 0 100 100;" xml:space="preserve"><path d="M6,45h69c11.028,0,20-8.972,20-20S86.028,5,75,5c-0.553,0-1,0.448-1,1s0.447,1,1,1c9.925,0,18,8.075,18,18s-8.075,18-18,18  H6c-0.553,0-1,0.448-1,1S5.447,45,6,45z"/><path d="M6,39h43.5C56.393,39,62,33.393,62,26.5S56.393,14,49.5,14S37,19.607,37,26.5c0,0.552,0.447,1,1,1s1-0.448,1-1  C39,20.71,43.71,16,49.5,16S60,20.71,60,26.5S55.29,37,49.5,37H6c-0.553,0-1,0.448-1,1S5.447,39,6,39z"/><path d="M94,49H6c-0.553,0-1,0.448-1,1s0.447,1,1,1h88c0.553,0,1-0.448,1-1S94.553,49,94,49z"/><path d="M75,55H6c-0.553,0-1,0.447-1,1s0.447,1,1,1h27c3.859,0,7,3.141,7,7s-3.141,7-7,7s-7-3.141-7-7c0-0.553-0.447-1-1-1  s-1,0.447-1,1c0,4.963,4.037,9,9,9s9-4.037,9-9c0-2.826-1.312-5.349-3.355-7H75c9.925,0,18,8.074,18,18s-8.075,18-18,18  s-18-8.074-18-18c0-0.553-0.447-1-1-1s-1,0.447-1,1c0,11.027,8.972,20,20,20s20-8.973,20-20S86.028,55,75,55z"/></svg>
