<svg xmlns="http://www.w3.org/2000/svg" xmlns:xlink="http://www.w3.org/1999/xlink" version="1.1" x="0px" y="0px" viewBox="0 0 100 100" style="enable-background:new 0 0 100 100;" xml:space="preserve"><path d="M95,52.798C94.891,28.413,75.284,8.56,51,8.025V6c0-0.552-0.448-1-1-1s-1,0.448-1,1v2.025C24.648,8.561,5,28.522,5,53  c0,0.553,0.448,1,1,1s1-0.447,1-1c0-4.411,3.589-8,8-8s8,3.589,8,8c0,0.553,0.448,1,1,1s1-0.447,1-1c0-4.411,3.589-8,8-8  s8,3.589,8,8c0,0.553,0.448,1,1,1s1-0.447,1-1c0-3.52,2.613-6.433,6-6.92V87c0,4.411,3.589,8,8,8s8-3.589,8-8c0-0.553-0.447-1-1-1  s-1,0.447-1,1c0,3.309-2.691,6-6,6s-6-2.691-6-6V46.08c3.387,0.487,6,3.4,6,6.92c0,0.553,0.447,1,1,1s1-0.447,1-1  c0-4.411,3.589-8,8-8s8,3.589,8,8c0,0.553,0.447,1,1,1s1-0.447,1-1c0-4.411,3.589-8,8-8s8,3.589,8,8c0,0.553,0.447,1,1,1  c0.007,0,0.014,0,0.02,0c0.553,0,1-0.447,1-1C95.02,52.931,95.014,52.863,95,52.798z M15,43c-2.979,0-5.658,1.31-7.492,3.383  c2.685-17.308,15.731-31.234,32.576-35.226c-8.982,5.934-15.611,19.671-16.863,36.172C21.416,44.719,18.408,43,15,43z M33,43  c-3.119,0-5.894,1.448-7.729,3.693C26.901,27.71,35.769,12.738,46.88,10.347c-3.721,6.053-5.43,22.75-5.8,36.805  C39.262,44.646,36.326,43,33,43z M50,44c-2.795,0-5.281,1.293-6.934,3.299C43.596,24.048,47.292,10,50,10  c0.918,0,1.949,1.615,2.933,4.653l-1.64,1.64c-0.391,0.391-0.391,1.023,0,1.414C51.488,17.902,51.744,18,52,18  s0.512-0.098,0.707-0.293l0.86-0.86c0.206,0.791,0.409,1.648,0.606,2.566l-1.881,1.88c-0.391,0.391-0.391,1.023,0,1.414  C52.488,22.902,52.744,23,53,23s0.512-0.098,0.707-0.293l0.936-0.936c0.158,0.862,0.313,1.763,0.46,2.712l-1.81,1.81  c-0.391,0.391-0.391,1.023,0,1.414C53.488,27.902,53.744,28,54,28s0.512-0.098,0.707-0.293l0.75-0.75  c0.133,0.986,0.259,2.011,0.377,3.075c-0.197,0.034-0.389,0.108-0.541,0.261l-2,2c-0.391,0.391-0.391,1.023,0,1.414  C53.488,33.902,53.744,34,54,34s0.512-0.098,0.707-0.293l1.367-1.368c0.092,0.95,0.18,1.922,0.26,2.926  c-0.013,0.011-0.029,0.015-0.041,0.027l-2,2c-0.391,0.391-0.391,1.023,0,1.414C54.488,38.902,54.744,39,55,39  s0.512-0.098,0.707-0.293l0.816-0.816c0.068,1.032,0.131,2.084,0.186,3.166c-0.151,0.046-0.297,0.117-0.416,0.236l-2,2  c-0.391,0.391-0.391,1.023,0,1.414C54.488,44.902,54.744,45,55,45s0.512-0.098,0.707-0.293l1.115-1.115  c0.047,1.206,0.082,2.446,0.111,3.707C55.281,45.293,52.795,44,50,44z M67,43c-3.326,0-6.262,1.646-8.08,4.152  c-0.37-14.055-2.08-30.752-5.801-36.805c3.04,0.654,5.91,2.246,8.512,4.608l-0.338,0.338c-0.391,0.391-0.391,1.023,0,1.414  C61.488,16.902,61.744,17,62,17s0.512-0.098,0.707-0.293l0.354-0.354c0.52,0.55,1.024,1.138,1.519,1.75  c-0.103,0.048-0.203,0.106-0.287,0.19l-1,1c-0.391,0.391-0.391,1.023,0,1.414C63.488,20.902,63.744,21,64,21  s0.512-0.098,0.707-0.293l1-1c0.02-0.02,0.027-0.046,0.045-0.067c0.438,0.614,0.863,1.255,1.276,1.918l-1.735,1.735  c-0.391,0.391-0.391,1.023,0,1.414C65.488,24.902,65.744,25,66,25s0.512-0.098,0.707-0.293l1.367-1.368  c0.375,0.676,0.74,1.368,1.089,2.083l-1.87,1.87c-0.391,0.391-0.391,1.023,0,1.414C67.488,28.902,67.744,29,68,29  s0.512-0.098,0.707-0.293l1.349-1.349c0.318,0.734,0.618,1.493,0.909,2.262l-1.672,1.672c-0.391,0.391-0.391,1.023,0,1.414  C69.488,32.902,69.744,33,70,33s0.512-0.098,0.707-0.293l0.999-0.999c0.269,0.808,0.526,1.627,0.766,2.466  c-0.061,0.039-0.126,0.066-0.179,0.119l-2,2c-0.391,0.391-0.391,1.023,0,1.414C70.488,37.902,70.744,38,71,38  s0.512-0.098,0.707-0.293l1.345-1.345c0.217,0.886,0.411,1.792,0.595,2.707c-0.129,0.049-0.25,0.121-0.354,0.224l-2,2  c-0.391,0.391-0.391,1.023,0,1.414C71.488,42.902,71.744,43,72,43s0.512-0.098,0.707-0.293l1.354-1.354  c0.285,1.739,0.512,3.52,0.668,5.339C72.894,44.448,70.119,43,67,43z M76.778,47.329c-1.251-16.5-7.88-30.238-16.862-36.172  c3.708,0.879,7.233,2.237,10.504,4.009l-0.127,0.127c-0.391,0.391-0.391,1.023,0,1.414C70.488,16.902,70.744,17,71,17  s0.512-0.098,0.707-0.293l0.508-0.507c0.654,0.397,1.295,0.814,1.927,1.245l-0.849,0.849c-0.391,0.391-0.391,1.023,0,1.414  C73.488,19.902,73.744,20,74,20s0.512-0.098,0.707-0.293l1-1c0.028-0.028,0.039-0.065,0.063-0.096  c0.608,0.457,1.204,0.929,1.787,1.417l-1.265,1.265c-0.391,0.391-0.391,1.023,0,1.414C76.488,22.902,76.744,23,77,23  s0.512-0.098,0.707-0.293l1.357-1.357c0.551,0.506,1.092,1.022,1.615,1.557l-1.387,1.387c-0.391,0.391-0.391,1.023,0,1.414  C79.488,25.902,79.744,26,80,26s0.512-0.098,0.707-0.293l1.342-1.342c0.514,0.574,1.008,1.165,1.49,1.765  c-0.086,0.045-0.174,0.091-0.246,0.163l-2,2c-0.391,0.391-0.391,1.023,0,1.414C81.488,29.902,81.744,30,82,30  s0.512-0.098,0.707-0.293l2-2c0.008-0.008,0.01-0.019,0.018-0.027c0.45,0.615,0.882,1.244,1.299,1.883l-2.73,2.73  c-0.391,0.391-0.391,1.023,0,1.414C83.488,33.902,83.744,34,84,34s0.512-0.098,0.707-0.293l2.398-2.398  c0.393,0.67,0.771,1.35,1.129,2.042l-2.941,2.942c-0.391,0.391-0.391,1.023,0,1.414C85.488,37.902,85.744,38,86,38  s0.512-0.098,0.707-0.293l2.454-2.454c0.334,0.733,0.644,1.48,0.937,2.235l-2.805,2.805c-0.391,0.391-0.391,1.023,0,1.414  C87.488,41.902,87.744,42,88,42s0.512-0.098,0.707-0.293l2.136-2.136c0.273,0.831,0.524,1.672,0.747,2.524  c-0.106,0.048-0.209,0.11-0.297,0.198L89.5,44.085C88.146,43.398,86.62,43,85,43C81.592,43,78.584,44.719,76.778,47.329z   M91.223,45.192l0.89-0.89c0.142,0.688,0.271,1.382,0.38,2.082C92.106,45.948,91.677,45.555,91.223,45.192z"/></svg>
