<?xml version="1.0" standalone="no"?><!DOCTYPE svg PUBLIC "-//W3C//DTD SVG 1.1//EN" "http://www.w3.org/Graphics/SVG/1.1/DTD/svg11.dtd"><svg width="100%" height="100%" viewBox="0 0 204 201" version="1.1" xmlns="http://www.w3.org/2000/svg" xmlns:xlink="http://www.w3.org/1999/xlink" xml:space="preserve" style="fill-rule:evenodd;clip-rule:evenodd;stroke-linejoin:round;stroke-miterlimit:1.41421;"><path id="path3964" d="M91.65,200.106c-13.224,-2.745 -18.628,-4.291 -24.038,-6.877c-1.557,-0.744 -3.181,-1.364 -3.609,-1.379c-0.427,-0.014 -2.276,-0.861 -4.107,-1.882c-1.832,-1.021 -5.08,-2.775 -7.217,-3.898c-8.279,-4.351 -18.678,-11.658 -23.466,-16.488c-6.13,-6.184 -12.333,-13.685 -13.427,-16.236c-0.538,-1.256 -1.633,-2.905 -2.433,-3.665c-0.8,-0.759 -1.459,-1.707 -1.464,-2.106c-0.006,-0.399 -0.605,-1.793 -1.333,-3.097c-2.302,-4.123 -2.451,-4.418 -4.378,-8.667c-4.797,-10.578 -7.163,-29.795 -5.447,-44.245c0.769,-6.478 3.606,-18.548 5.126,-21.812c0.64,-1.374 1.725,-4.246 2.412,-6.383c4.164,-12.96 13.846,-29.43 20.093,-34.179c0.975,-0.741 2.099,-1.948 2.498,-2.682c0.399,-0.733 2.099,-2.328 3.779,-3.543c1.679,-1.216 3.306,-2.52 3.617,-2.897c1.021,-1.244 4.845,-3.605 5.837,-3.605c0.536,0 1.105,-0.343 1.266,-0.762c0.161,-0.419 1.436,-1.315 2.835,-1.992c1.398,-0.677 2.542,-1.427 2.542,-1.666c0,-0.239 4.309,-2.109 9.576,-4.157c5.266,-2.047 10.196,-3.974 10.955,-4.282c0.759,-0.308 3.008,-0.771 4.996,-1.029c1.989,-0.259 5.739,-0.755 8.335,-1.103c10.786,-1.448 33.797,-0.445 37.697,1.642c0.567,0.303 2.87,0.835 5.119,1.181c2.249,0.347 4.589,0.897 5.2,1.223c0.61,0.326 1.984,0.769 3.053,0.986c3.242,0.657 12.798,4.378 15.321,5.966c0.336,0.212 1.585,1.032 2.775,1.822c1.191,0.791 2.894,1.618 3.786,1.839c0.892,0.22 2.237,0.885 2.989,1.476c0.753,0.592 1.695,1.076 2.094,1.076c0.4,0 1.075,0.498 1.502,1.107c0.426,0.608 1.789,1.795 3.028,2.636c3.054,2.074 8.464,6.951 8.471,7.637c0.004,0.305 1.378,1.615 3.056,2.911c1.678,1.296 3.051,2.678 3.051,3.071c0,0.393 1.249,1.798 2.775,3.122c1.527,1.324 2.776,2.747 2.776,3.163c0,0.415 0.988,2.06 2.195,3.655c3.209,4.24 7.392,12.985 7.363,15.393c-0.009,0.79 0.334,1.989 0.763,2.665c0.43,0.676 0.797,1.8 0.818,2.498c0.064,2.215 1.869,6.931 2.563,6.696c0.429,-0.145 0.656,0.509 0.655,1.894c-0.002,3.494 0.103,4.287 0.612,4.602c0.267,0.165 0.667,1.021 0.888,1.903c0.287,1.144 0.22,1.492 -0.233,1.211c-0.433,-0.267 -0.636,0.239 -0.636,1.583c0,1.386 0.248,1.975 0.832,1.975c0.989,0 1.118,0.923 0.172,1.238c-0.507,0.169 -0.488,1.327 0.079,4.974c0.973,6.251 0.523,17.588 -0.734,18.507c-0.775,0.566 -0.776,0.751 -0.009,1.845c1.288,1.84 -0.156,9.717 -3.73,20.342c-0.616,1.832 -1.45,4.455 -1.853,5.829c-0.403,1.374 -1.135,3.247 -1.627,4.163c-0.492,0.916 -0.896,1.997 -0.897,2.403c-0.006,1.064 -4.109,8.578 -7.278,13.325c-1.495,2.239 -2.718,4.24 -2.718,4.446c0,0.206 -0.464,0.665 -1.032,1.02c-0.567,0.354 -1.185,1.413 -1.374,2.354c-0.193,0.967 -0.691,1.709 -1.148,1.709c-1.046,0 -3.107,2.627 -3.107,3.961c0,0.569 -0.372,1.035 -0.826,1.035c-0.455,0 -2.353,1.186 -4.218,2.637c-1.865,1.45 -4.303,3.235 -5.418,3.967c-1.115,0.732 -2.785,1.981 -3.711,2.776c-0.926,0.794 -5.423,3.318 -9.992,5.608c-4.57,2.289 -8.391,4.35 -8.493,4.579c-0.102,0.229 -0.637,0.416 -1.19,0.416c-0.552,0 -1.148,0.375 -1.324,0.833c-0.187,0.488 -1.019,0.833 -2.01,0.833c-0.929,0 -2.124,0.222 -2.654,0.495c-2.082,1.068 -7.804,2.441 -11.233,2.694c-1.985,0.146 -4.111,0.58 -4.727,0.964c-2,1.247 -4.796,1.541 -15.409,1.616c-7.92,0.056 -11.546,-0.154 -14.999,-0.87l-0.001,0ZM106.496,197.49c-0.29,-0.271 -1.15,-0.682 -1.911,-0.913c-1.238,-0.376 -1.303,-0.324 -0.625,0.493c0.416,0.502 1.276,0.912 1.91,0.912c0.698,0 0.945,-0.194 0.626,-0.492l0,0ZM89.871,196.872c-1.528,-0.656 -2.071,-0.656 -1.665,0c0.188,0.305 0.89,0.538 1.559,0.516c1.173,-0.038 1.176,-0.056 0.106,-0.516l0,0ZM115.683,196.961c0,-0.455 -2.442,-1.772 -3.218,-1.736c-0.56,0.027 2.132,2.202 2.724,2.202c0.272,0 0.494,-0.209 0.494,-0.466ZM108.189,196.317c0.189,-0.305 -0.061,-0.555 -0.555,-0.555c-0.494,0 -0.744,0.25 -0.555,0.555c0.189,0.305 0.439,0.555 0.555,0.555c0.117,0 0.367,-0.25 0.555,-0.555ZM120.679,196.609c0,-0.537 -3.429,-2.015 -4.062,-1.751c-0.363,0.152 -0.098,0.444 0.593,0.654c0.687,0.209 1.249,0.6 1.249,0.87c0,0.269 0.499,0.49 1.11,0.49c0.61,0 1.11,-0.118 1.11,-0.263l0,0ZM97.384,192.464c0.013,-0.585 0.247,-0.456 0.723,0.401c0.843,1.517 1.478,1.066 1.478,-1.048c0,-0.848 0.25,-1.695 0.555,-1.884c0.331,-0.204 0.555,0.457 0.555,1.633c0,3.546 1.527,1.852 1.723,-1.91c0.049,-0.948 0.152,-1.08 0.325,-0.416c0.413,1.579 1.283,1.108 1.283,-0.694c0,-1.78 0.772,-2.237 1.328,-0.788c0.186,0.483 0.337,1.593 0.337,2.466c0,0.873 0.288,1.765 0.64,1.982c0.474,0.293 0.537,-0.729 0.246,-3.947c-0.353,-3.894 -0.305,-4.269 0.47,-3.625c0.476,0.394 0.865,1.399 0.865,2.232c0,2.103 1.108,5.077 1.746,4.683c0.598,-0.37 0.196,-3.964 -0.967,-8.634c-0.977,-3.929 -0.97,-4.443 0.038,-2.696c1.712,2.968 2.113,4.278 2.272,7.428c0.171,3.409 1.022,5.178 1.674,3.48c0.301,-0.784 0.185,-2.337 -0.586,-7.855c-0.091,-0.649 -0.621,-2.068 -1.711,-4.579c-0.431,-0.993 -0.568,-1.804 -0.305,-1.804c0.802,0 1.575,1.287 2.002,3.33c0.223,1.069 0.663,2.262 0.977,2.652c0.314,0.389 0.849,2.259 1.188,4.156c0.453,2.531 0.874,3.497 1.585,3.634c1.251,0.241 1.267,-1.404 0.068,-6.724c-0.846,-3.752 -2.672,-7.747 -4.553,-9.963c-1.67,-1.967 0.393,-0.9 2.264,1.172c1.798,1.99 2.387,3.415 5.749,13.909c0.151,0.47 0.448,0.582 0.738,0.277c0.576,-0.602 -0.333,-6.923 -1.106,-7.697c-0.29,-0.29 -0.526,-1.119 -0.526,-1.841c0,-1.613 -0.546,-2.704 -3.748,-7.501c-2.601,-3.894 -2.885,-4.857 -0.966,-3.267c3.266,2.707 7.616,10.518 8.321,14.942c0.404,2.536 1.394,2.71 1.38,0.243c-0.009,-1.607 -1.737,-7.588 -2.378,-8.229c-0.214,-0.214 -0.389,-0.79 -0.389,-1.28c0,-0.491 -0.882,-2.231 -1.96,-3.868c-2.289,-3.476 -2.138,-4.321 0.304,-1.706c2.122,2.271 5.83,9.839 6.726,13.728c0.99,4.295 1.496,3.543 0.748,-1.11c-0.752,-4.673 -3.514,-10.217 -7.344,-14.737c-3.088,-3.646 -2.556,-4.672 0.609,-1.172c2.009,2.221 5.851,8.957 6.679,11.709c0.155,0.514 0.795,1.21 1.423,1.546c0.924,0.495 1.141,0.447 1.141,-0.251c0,-0.998 -2.657,-6.255 -3.391,-6.708c-0.272,-0.168 -0.494,-0.883 -0.494,-1.588c0,-0.706 -1.03,-2.576 -2.288,-4.156c-2.935,-3.687 -2.509,-4.252 0.509,-0.673c2.283,2.708 8.44,14.176 8.44,15.721c0,1.01 0.561,1.619 1.154,1.253c0.245,-0.151 0.183,-1.081 -0.138,-2.067c-0.968,-2.977 -3.115,-8.369 -4.032,-10.128c-0.475,-0.911 -0.864,-1.918 -0.866,-2.238c-0.006,-1.093 -5.115,-7.737 -7.975,-10.373c-1.751,-1.614 -2.509,-2.632 -1.962,-2.637c1.411,-0.011 8.823,7.77 8.823,9.263c0,0.702 0.258,1.277 0.573,1.277c0.314,0 0.726,0.437 0.915,0.971c0.188,0.534 0.764,1.471 1.279,2.082c0.515,0.61 1.757,3.358 2.76,6.106c2.13,5.834 3.658,8.039 3.078,4.441c-0.197,-1.222 -0.556,-2.72 -0.797,-3.331c-1.798,-4.552 -3.944,-8.761 -5.719,-11.217c-1.149,-1.59 -2.089,-3.113 -2.089,-3.384c0,-0.272 -0.874,-1.394 -1.943,-2.494c-1.068,-1.101 -1.943,-2.135 -1.943,-2.299c0,-0.163 -0.936,-1.168 -2.081,-2.232c-1.145,-1.065 -1.797,-1.943 -1.45,-1.951c0.623,-0.015 5.171,4.511 8.353,8.312c2.163,2.583 7.752,12.611 8.199,14.71c0.416,1.953 1.79,3.97 2.335,3.425c0.209,-0.209 -0.138,-1.44 -0.771,-2.735c-0.634,-1.296 -2.32,-4.853 -3.748,-7.906c-1.428,-3.054 -2.874,-6.051 -3.213,-6.662c-0.34,-0.61 -1.07,-2.034 -1.622,-3.164c-0.553,-1.129 -1.323,-2.253 -1.712,-2.498c-0.39,-0.244 -1.111,-1.079 -1.603,-1.854c-0.492,-0.776 -2.064,-2.613 -3.492,-4.083c-1.428,-1.47 -2.394,-2.577 -2.145,-2.462c2.18,1.015 4.137,2.727 5.751,5.032c1.055,1.505 2.452,3.279 3.104,3.94c1.533,1.555 6.863,10.231 6.863,11.171c0,0.397 0.372,1.03 0.828,1.409c0.455,0.378 1.349,2.437 1.986,4.576c0.789,2.647 1.34,3.707 1.726,3.321c0.773,-0.773 -0.864,-6.331 -2.816,-9.559c-0.83,-1.374 -2.37,-4.247 -3.421,-6.384c-1.051,-2.137 -2.185,-4.135 -2.519,-4.441c-0.335,-0.305 -1.18,-1.429 -1.879,-2.498c-0.699,-1.068 -3.155,-3.751 -5.458,-5.961c-2.303,-2.21 -4.03,-4.175 -3.839,-4.366c1.115,-1.115 12.372,11.53 15.123,16.989c0.539,1.068 1.66,2.942 2.491,4.163c0.831,1.221 1.7,2.845 1.93,3.608c0.231,0.763 0.734,1.763 1.118,2.22c0.385,0.458 1.03,1.77 1.434,2.915c0.804,2.277 1.945,2.89 1.41,0.757c-0.314,-1.253 -5.72,-12.466 -8.326,-17.271c-0.662,-1.222 -2.294,-3.664 -3.627,-5.427c-2.227,-2.947 -2.782,-4.247 -1.404,-3.286c0.942,0.656 7.634,10.163 10.111,14.363c1.293,2.191 2.667,5.189 3.054,6.661c0.832,3.166 1.829,5.044 2.385,4.489c1.106,-1.106 -8.281,-21.234 -11.502,-24.662c-0.63,-0.67 -1.036,-1.545 -0.903,-1.944c0.267,-0.8 5.428,5.877 5.428,7.023c0,0.387 0.375,1.015 0.833,1.395c0.458,0.38 0.833,1.139 0.833,1.687c0,0.548 0.222,1.079 0.495,1.181c0.68,0.254 6.166,10.722 6.166,11.767c0,1.063 0.692,1.509 1.534,0.989c0.481,-0.298 0.427,-0.826 -0.211,-2.045c-0.472,-0.905 -1.987,-4.327 -3.365,-7.605c-1.379,-3.279 -2.982,-6.565 -3.563,-7.304c-0.581,-0.739 -1.056,-1.59 -1.056,-1.891c0,-0.302 -1.374,-2.463 -3.054,-4.804c-1.679,-2.34 -3.053,-4.352 -3.053,-4.47c0,-0.119 -0.624,-0.889 -1.387,-1.713c-0.764,-0.823 -1.386,-1.773 -1.383,-2.11c0.007,-1.008 5.439,5.108 8.296,9.341c2.804,4.156 7.242,12.481 7.242,13.586c0,0.358 0.499,1.631 1.11,2.827c0.611,1.197 1.11,2.686 1.11,3.309c0,0.636 0.365,1.132 0.833,1.132c1.03,0 1.019,-0.763 -0.052,-3.608c-0.992,-2.636 -2.581,-7.655 -2.548,-8.049c0.013,-0.152 -0.311,-0.652 -0.718,-1.11c-0.408,-0.458 -1.595,-2.581 -2.639,-4.718c-2.788,-5.71 -7.782,-12.725 -11.913,-16.737c-1.997,-1.938 -3.313,-3.525 -2.925,-3.525c0.388,0 2.308,1.562 4.266,3.47c6.162,6.003 13.684,18.144 16.93,27.323c1.518,4.291 2.346,5.78 2.903,5.223c0.612,-0.612 -5.178,-16.821 -6.905,-19.333c-0.536,-0.779 -2.379,-3.665 -4.095,-6.413c-1.716,-2.748 -4.749,-6.72 -6.741,-8.827c-3.589,-3.798 -4.713,-5.968 -1.348,-2.602c0.964,0.963 2.578,2.381 3.588,3.152c1.885,1.437 6.274,7.526 7.567,10.497c0.399,0.916 1.508,2.79 2.465,4.163c1.573,2.259 3.902,7.491 4.942,11.102c0.689,2.394 2.045,4.996 2.604,4.996c0.309,0 0.381,-0.762 0.17,-1.804c-0.583,-2.876 -3.708,-10.963 -4.237,-10.963c-0.265,0 -0.481,-0.367 -0.481,-0.817c0,-2.653 -5.465,-11.934 -10.344,-17.567c-6.839,-7.897 -6.697,-8.224 0.574,-1.327c1.257,1.193 4.738,5.86 7.04,9.442c2.514,3.91 6.462,12.8 8.104,18.248c0.533,1.768 1.004,2.517 1.36,2.162c0.705,-0.705 -3.467,-13.184 -5.803,-17.357c-0.94,-1.679 -2.346,-4.214 -3.124,-5.632c-2.363,-4.306 -5.495,-8.758 -8.179,-11.628c-1.445,-1.544 -2.204,-2.724 -1.754,-2.724c0.831,0 4.726,3.894 7.217,7.216c1.757,2.342 8.556,14.463 9.105,16.23c0.214,0.691 0.831,1.883 1.37,2.649c0.539,0.766 1.262,2.442 1.608,3.723c0.731,2.718 1.955,3.918 1.494,1.466c-1.045,-5.562 -3.052,-10.752 -6.41,-16.574c-1.585,-2.747 -3.33,-5.495 -3.878,-6.106c-0.549,-0.61 -2.047,-2.68 -3.33,-4.598c-1.284,-1.918 -3.076,-4.334 -3.984,-5.368c-2.262,-2.577 -0.999,-3.21 1.56,-0.782c2.061,1.957 9.11,12.321 11.25,16.542c0.686,1.355 1.594,2.809 2.016,3.231c0.423,0.423 0.769,1.206 0.769,1.741c0,0.535 0.749,2.519 1.665,4.41c0.916,1.891 1.665,3.808 1.665,4.262c0,0.453 0.25,0.823 0.555,0.823c0.306,0 0.556,0.625 0.556,1.388c0,0.763 0.277,1.388 0.615,1.388c1.826,0 -3.454,-14.362 -7.078,-19.253c-0.72,-0.972 -1.309,-1.927 -1.309,-2.123c0,-0.42 -4.473,-8.194 -4.948,-8.599c-1.423,-1.216 -6.778,-7.888 -6.53,-8.136c0.385,-0.385 5.246,3.532 5.902,4.757c0.259,0.484 1.759,2.491 3.332,4.46c2.737,3.422 12.791,22.624 12.791,24.427c0,0.524 0.189,0.614 0.543,0.26c0.557,-0.557 -0.164,-3.538 -2.341,-9.671c-1.533,-4.321 -3.134,-7.541 -5.66,-11.379c-2.231,-3.39 -11.163,-14.193 -13.196,-15.959l-1.118,-0.972l1.152,0c0.634,0 1.411,0.483 1.727,1.073c0.315,0.59 1.025,1.216 1.576,1.391c1.7,0.539 10.591,11.63 12.71,15.855c0.536,1.068 1.542,2.649 2.236,3.512c0.693,0.863 1.261,1.917 1.261,2.342c0,0.426 0.585,2.093 1.301,3.705c0.716,1.612 1.624,3.75 2.018,4.752c0.394,1.002 0.819,1.72 0.944,1.594c0.41,-0.41 -1.073,-5.576 -2.405,-8.377c-0.717,-1.507 -1.303,-3.007 -1.303,-3.333c0,-1.101 -4.449,-9.773 -6.255,-12.191c-0.987,-1.322 -3.631,-4.575 -5.876,-7.231c-4.174,-4.937 -4.912,-6.716 -1.6,-3.858c1.812,1.564 3.71,3.826 7.625,9.088c1.068,1.436 2.344,3.006 2.835,3.489c0.49,0.482 1.598,2.581 2.461,4.664c0.863,2.082 1.868,4.161 2.234,4.619c0.366,0.458 0.853,1.457 1.083,2.22c0.23,0.764 0.759,1.881 1.176,2.483c0.721,1.042 0.758,1.044 0.758,0.056c0,-2.496 -3.86,-11.055 -7.654,-16.971c-2.251,-3.511 -4.395,-6.633 -4.765,-6.939c-0.369,-0.305 -1.398,-1.554 -2.285,-2.775c-0.888,-1.222 -2.123,-2.641 -2.745,-3.154c-0.622,-0.514 -0.942,-1.122 -0.712,-1.352c0.849,-0.849 5.213,4.051 10.118,11.36c1.096,1.632 2.585,3.608 3.31,4.389c1.705,1.839 6.951,12.491 6.962,14.137c0.011,1.548 0.835,2.977 1.292,2.238c0.325,-0.526 -0.268,-2.713 -1.619,-5.969c-0.38,-0.916 -1.32,-3.225 -2.089,-5.132c-0.769,-1.906 -1.916,-4.192 -2.548,-5.081c-0.633,-0.889 -1.151,-1.752 -1.151,-1.919c0,-0.166 -0.749,-1.413 -1.665,-2.77c-0.916,-1.357 -1.666,-2.751 -1.666,-3.098c0,-0.347 -0.874,-1.398 -1.942,-2.336c-1.796,-1.577 -2.564,-3.256 -1.488,-3.256c1.128,0 11.757,15.768 11.757,17.442c0,0.525 0.369,1.324 0.819,1.775c0.451,0.45 1.259,2.056 1.796,3.568c0.537,1.512 1.167,2.749 1.401,2.749c0.598,0 0.53,-1.89 -0.09,-2.525c-0.283,-0.29 -1.123,-2.151 -1.866,-4.136c-0.743,-1.984 -1.885,-4.482 -2.536,-5.551c-0.652,-1.068 -1.186,-2.255 -1.187,-2.636c-0.001,-0.382 -0.377,-1.131 -0.836,-1.666c-2.951,-3.439 -4.825,-5.879 -7.136,-9.298l-2.627,-3.885l3.494,3.642c3.844,4.006 6.548,7.382 6.548,8.175c0,0.282 0.874,1.658 1.942,3.057c1.069,1.4 1.943,2.676 1.943,2.836c0,0.161 0.765,1.487 1.7,2.948c1.359,2.124 1.622,2.34 1.314,1.078c-0.59,-2.421 -6.267,-12.54 -8.656,-15.43c-1.171,-1.416 -2.137,-2.79 -2.146,-3.053c-0.009,-0.263 -2.009,-2.579 -4.444,-5.147c-2.435,-2.568 -4.282,-4.814 -4.105,-4.99c0.828,-0.829 15.109,15.738 16.221,18.818c0.165,0.458 0.975,1.707 1.8,2.776c0.825,1.068 2.029,3.067 2.676,4.441c0.648,1.373 1.035,1.873 0.862,1.11c-1.1,-4.831 -10.679,-19.717 -16.951,-26.343c-2.486,-2.627 -4.404,-4.893 -4.261,-5.035c0.424,-0.424 10.169,9.616 12.335,12.707c3.668,5.235 7.541,11.328 7.541,11.863c0,0.291 0.5,0.982 1.11,1.534c1.078,0.976 1.11,0.97 1.11,-0.199c0,-1.243 -0.869,-3.079 -2.081,-4.398c-0.382,-0.416 -0.694,-1.001 -0.694,-1.301c0,-0.781 -4.252,-6.985 -6.758,-9.861c-1.168,-1.341 -2.124,-2.756 -2.124,-3.146c0,-0.39 -0.3,-0.808 -0.666,-0.93c-0.457,-0.152 -0.479,-0.339 -0.072,-0.59c0.328,-0.203 1.814,1.058 3.304,2.802c1.489,1.744 3.248,3.683 3.909,4.31c0.66,0.627 1.795,2.255 2.52,3.618c1.883,3.536 4.328,7.027 4.328,6.179c0,-0.397 -0.625,-1.54 -1.388,-2.54c-0.763,-1.001 -1.388,-2.1 -1.388,-2.442c0,-0.648 -4.923,-9.057 -5.587,-9.542c-0.208,-0.153 -0.867,-1.085 -1.464,-2.072c-1.132,-1.872 -11.694,-12.846 -14.416,-14.978c-1.031,-0.807 -1.278,-1.236 -0.719,-1.249c0.467,-0.011 2.84,1.859 5.273,4.156c6.313,5.959 7.32,6.968 9.135,9.147c3.544,4.252 4.491,5.511 5.696,7.57c1.87,3.195 4.522,6.817 5.008,6.841c0.534,0.026 -1.559,-4.132 -3.203,-6.362c-0.675,-0.916 -1.94,-3.102 -2.811,-4.857c-0.871,-1.755 -2.031,-3.333 -2.578,-3.507c-0.547,-0.173 -0.995,-0.623 -0.995,-0.999c0,-1.012 -4.805,-7.434 -7.009,-9.37c-1.051,-0.922 -1.783,-1.803 -1.628,-1.958c1.019,-1.02 11.42,10.978 15.412,17.78c1.792,3.053 3.057,4.68 3.385,4.352c0.328,-0.328 0.126,-1.11 -0.54,-2.093c-0.584,-0.863 -1.552,-2.519 -2.149,-3.681c-1.606,-3.122 -9.528,-13.52 -12.768,-16.76c-1.549,-1.55 -5.362,-4.662 -8.472,-6.916c-3.111,-2.254 -5.544,-4.21 -5.409,-4.345c0.395,-0.395 4.875,1.953 6.636,3.479c0.887,0.768 1.798,1.397 2.025,1.397c0.994,0 15.278,14.981 16.068,16.852c0.622,1.473 3.976,5.907 4.467,5.907c0.291,0 0.529,-0.082 0.529,-0.183c0,-0.495 -2.775,-5.583 -3.202,-5.871c-0.269,-0.181 -1.514,-1.828 -2.765,-3.66c-4.216,-6.171 -14.83,-16.137 -20.77,-19.503c-2.827,-1.602 -2.029,-1.822 0.949,-0.263c5.616,2.942 17.492,13.139 20.157,17.307c0.502,0.785 1.873,2.533 3.047,3.886l2.134,2.459l-0.911,-2.221c-1.221,-2.975 -3.294,-5.928 -6.937,-9.875c-3.412,-3.698 -9.991,-9.222 -12.559,-10.544c-1.814,-0.935 -3.501,-2.617 -2.623,-2.617c0.289,0 1.755,0.874 3.258,1.942c1.503,1.069 2.999,1.943 3.324,1.943c0.326,0 1.31,0.75 2.188,1.666c0.877,0.916 1.885,1.665 2.24,1.665c0.524,0 4.839,4.323 11.248,11.271c1.752,1.898 1.259,-0.02 -0.558,-2.174c-5.106,-6.053 -13.443,-13.598 -20.146,-18.231c-0.61,-0.422 -0.938,-0.938 -0.729,-1.147c0.531,-0.531 12.653,8.207 16.157,11.647c1.59,1.56 3.368,3.202 3.952,3.649c2.32,1.776 -0.352,-1.838 -4.733,-6.402c-4.401,-4.584 -11.453,-9.833 -17.145,-12.763c-1.68,-0.864 -3.428,-1.778 -3.886,-2.032c-3.989,-2.209 -6.201,-3.247 -6.92,-3.247c-0.469,0 -0.852,-0.232 -0.852,-0.516c0,-0.301 0.636,-0.331 1.527,-0.071c1.369,0.4 2.842,1.036 9.575,4.134c4.722,2.173 13.754,8.369 18.971,13.014c1.829,1.629 3.489,2.797 3.69,2.597c0.504,-0.505 -9.732,-9.903 -12.703,-11.664c-0.515,-0.305 -2.291,-1.456 -3.948,-2.558c-1.656,-1.102 -4.036,-2.601 -5.288,-3.331c-1.252,-0.73 -3.467,-2.02 -4.922,-2.866c-1.455,-0.847 -3.291,-1.688 -4.08,-1.87c-3.179,-0.731 -6.895,-2.079 -6.29,-2.281c2.366,-0.789 11.639,3.277 22.064,9.673c7.866,4.825 9.399,5.857 11.52,7.754c1.146,1.025 2.325,1.863 2.619,1.863c1.161,0 -0.229,-1.718 -3.223,-3.982c-1.729,-1.307 -4.453,-3.548 -6.052,-4.979c-3.43,-3.069 -9.835,-7.389 -11.802,-7.959c-0.764,-0.221 -2.219,-0.879 -3.234,-1.461c-2.407,-1.381 -12.763,-4.933 -14.383,-4.933c-0.691,0 -1.257,-0.282 -1.257,-0.626c0,-0.755 3.795,-0.249 6.349,0.846c0.935,0.401 2.949,1.117 4.476,1.591c6.655,2.068 11.117,4.484 23.453,12.702c2.213,1.474 4.024,2.46 4.024,2.19c0,-0.895 -3.89,-3.924 -8.418,-6.555c-2.458,-1.428 -4.593,-2.921 -4.746,-3.319c-0.152,-0.398 -0.566,-0.723 -0.919,-0.723c-0.353,0 -1.981,-0.902 -3.617,-2.004c-4.825,-3.249 -12.625,-6.346 -20.186,-8.015c-3.689,-0.815 -4.337,-1.824 -0.832,-1.296c5.321,0.801 16.715,5.185 22.196,8.538c2.995,1.832 5.627,3.332 5.849,3.333c0.222,0.001 2.277,1.249 4.567,2.773c2.438,1.623 4.251,2.509 4.375,2.138c0.209,-0.623 -1.989,-2.655 -2.897,-2.679c-0.255,-0.007 -2.378,-1.301 -4.718,-2.875c-2.34,-1.574 -5.253,-3.533 -6.474,-4.355c-2.398,-1.612 -8.632,-4.895 -12.213,-6.43c-1.442,-0.619 -1.904,-1.03 -1.319,-1.174c0.496,-0.121 2.795,0.666 5.109,1.749c2.315,1.084 4.362,1.97 4.55,1.97c0.188,0 1.386,0.713 2.662,1.584c1.277,0.871 3.258,2.024 4.402,2.561c1.145,0.538 2.082,1.199 2.082,1.47c0,0.27 0.255,0.491 0.567,0.491c0.312,0 1.566,0.661 2.787,1.469c3.358,2.223 3.261,1.157 -0.119,-1.299c-6.387,-4.642 -19.469,-11.83 -24.521,-13.474c-1.175,-0.382 -2.798,-1.04 -3.608,-1.463c-0.81,-0.423 -2.256,-0.77 -3.214,-0.772c-0.957,-0.002 -2.456,-0.377 -3.33,-0.833l-1.59,-0.829l2.456,-0.004c2.116,-0.004 8.842,1.907 11.633,3.304c0.494,0.247 3.396,1.638 6.449,3.09c3.053,1.453 6.176,3.065 6.939,3.583c0.763,0.517 1.86,1.112 2.438,1.322c0.907,0.328 0.95,0.261 0.32,-0.5c-2.091,-2.518 -16.911,-10.259 -23.565,-12.308c-1.684,-0.519 -3.062,-1.104 -3.062,-1.301c0,-0.626 5.171,0.446 7.956,1.648c1.476,0.637 2.919,1.159 3.207,1.159c0.768,0 11.975,5.425 14.501,7.02c2.003,1.265 2.117,1.282 1.554,0.229c-0.334,-0.624 -3.16,-2.409 -6.28,-3.966c-3.12,-1.558 -5.923,-3.031 -6.228,-3.274c-0.815,-0.649 -9.63,-4.16 -12.212,-4.863c-1.221,-0.333 -3.532,-0.774 -5.134,-0.981c-2.762,-0.356 -4.001,-0.99 -3.063,-1.567c1.549,-0.953 19.353,4.651 24.711,7.779c0.229,0.134 0.416,0.032 0.416,-0.225c0,-1.247 -15.506,-7.924 -18.4,-7.924c-1.587,0 -4.914,-1.203 -4.914,-1.777c0,-0.637 1.087,-0.55 4.201,0.335c1.506,0.428 3.728,0.949 4.939,1.158c1.211,0.208 2.834,0.701 3.608,1.094c2.106,1.07 4.094,1.61 3.724,1.012c-0.961,-1.556 -14.793,-6.818 -17.922,-6.818c-0.424,0 -0.77,-0.266 -0.77,-0.592c0,-0.326 0.437,-0.473 0.971,-0.326c0.534,0.146 1.971,0.425 3.192,0.619c2.613,0.415 8.809,2.366 10.91,3.435c1.884,0.959 2.439,0.953 1.633,-0.018c-0.35,-0.423 -2.691,-1.58 -5.202,-2.572c-2.511,-0.992 -4.815,-1.988 -5.121,-2.213c-0.305,-0.225 -1.483,-0.576 -2.617,-0.78c-1.134,-0.204 -2.21,-0.612 -2.392,-0.905c-0.559,-0.904 2.106,-0.567 4.654,0.589c2.798,1.269 2.853,1.28 2.853,0.543c0,-0.306 -0.36,-0.555 -0.801,-0.555c-0.44,0 -1.127,-0.438 -1.526,-0.972c-1.947,-2.606 -20.426,-9.258 -29.036,-10.451c-0.61,-0.084 -3.878,-0.55 -7.262,-1.035c-10.118,-1.451 -22.918,-1.364 -30.207,0.204c-1.374,0.295 -3.872,0.813 -5.551,1.15c-1.679,0.338 -3.84,0.976 -4.802,1.418c-0.962,0.442 -2.009,0.804 -2.327,0.804c-0.317,0 -0.702,0.202 -0.855,0.449c-0.152,0.248 1.269,0.342 3.159,0.211c4.64,-0.321 3.761,0.301 -2.195,1.554c-5.541,1.165 -6.858,1.595 -6.858,2.236c0,0.245 1.312,0.096 2.915,-0.33c1.603,-0.427 3.663,-0.756 4.579,-0.731c0.983,0.027 -0.388,0.559 -3.347,1.298c-2.757,0.688 -5.879,1.63 -6.939,2.092c-5.351,2.338 -6.605,2.747 -7.555,2.464c-0.71,-0.211 -1.871,0.464 -3.722,2.164c-1.48,1.359 -2.549,2.47 -2.375,2.47c0.173,0 1.718,-0.62 3.433,-1.378c2.986,-1.321 8.971,-3.216 11.901,-3.768c0.764,-0.144 1.825,-0.446 2.359,-0.67c0.535,-0.225 0.972,-0.169 0.972,0.124c0,0.292 -1.686,0.957 -3.747,1.478c-2.061,0.52 -4.496,1.29 -5.412,1.711c-7.388,3.399 -8.246,3.869 -7.373,4.048c0.524,0.107 3.647,-0.553 6.938,-1.467c7.245,-2.011 10.704,-2.605 10.704,-1.836c0,0.621 -1.32,0.958 -6.661,1.701c-2.397,0.333 -5.564,1.427 -9.437,3.258c-3.206,1.516 -6.265,2.907 -6.8,3.091c-0.534,0.184 -0.971,0.592 -0.971,0.907c0,0.767 0.313,0.726 2.299,-0.301c2.248,-1.162 9.084,-3.31 11.856,-3.726c2.145,-0.321 2.127,-0.301 -0.555,0.614c-1.527,0.521 -4.463,1.756 -6.524,2.744c-2.062,0.988 -4.149,1.797 -4.639,1.797c-0.489,0 -1.383,0.628 -1.987,1.395c-1.183,1.504 -5.878,3.91 -6.471,3.316c-0.199,-0.199 0.473,-1.109 1.495,-2.021c1.92,-1.716 2.026,-2.477 0.266,-1.91c-0.908,0.292 -4.969,5.972 -7.534,10.539c-1.163,2.069 -0.463,2.499 1.655,1.016c3.27,-2.289 14.025,-6.926 14.025,-6.046c0,0.112 -2.366,1.393 -5.257,2.847c-2.891,1.454 -5.545,2.991 -5.897,3.415c-0.352,0.424 -0.945,0.771 -1.318,0.771c-0.373,0 -1.141,0.511 -1.707,1.136c-0.623,0.689 -1.561,1.071 -2.382,0.971c-0.779,-0.094 -1.539,0.19 -1.788,0.669c-3.375,6.476 -3.863,8.291 -1.777,6.608c2.338,-1.888 15.407,-7.4 16.274,-6.864c0.287,0.177 0.521,0.081 0.521,-0.212c0,-0.514 2.882,-1.753 4.079,-1.753c1.253,0 -0.698,1.063 -7.132,3.883c-3.664,1.606 -7.286,3.355 -8.049,3.887c-0.763,0.532 -2.512,1.527 -3.886,2.211c-2.459,1.225 -5.551,3.729 -5.551,4.498c0,0.216 2.061,-0.648 4.58,-1.92c2.519,-1.272 5.703,-2.779 7.077,-3.348c1.374,-0.569 3.56,-1.507 4.857,-2.084c3.041,-1.351 5.998,-1.967 5.489,-1.144c-0.206,0.333 -1.764,1.01 -3.462,1.503c-1.698,0.494 -5.128,2.021 -7.622,3.394c-2.494,1.372 -6.107,3.27 -8.029,4.216c-1.921,0.946 -3.741,2.184 -4.044,2.749c-0.724,1.353 0.224,1.36 2.179,0.015c0.81,-0.557 2.347,-1.348 3.416,-1.758c1.069,-0.41 2.195,-0.934 2.503,-1.164c0.673,-0.504 8.803,-3.495 10.958,-4.032c2.307,-0.575 1.837,0.564 -0.555,1.344c-3.388,1.105 -11.873,4.937 -13.507,6.101c-0.832,0.592 -1.804,1.077 -2.158,1.077c-1.009,0 -4.457,2.823 -4.457,3.649c0,0.576 0.402,0.53 1.803,-0.205c0.992,-0.52 1.929,-1.088 2.082,-1.261c0.442,-0.503 4.895,-2.188 9.715,-3.677c2.442,-0.755 5.127,-1.584 5.967,-1.843c0.84,-0.259 1.527,-0.258 1.527,0.002c0,0.26 -0.812,0.645 -1.805,0.857c-1.859,0.396 -4.149,1.384 -13.137,5.665c-2.875,1.37 -5.623,2.547 -6.106,2.617c-0.742,0.106 -1.695,2.523 -0.994,2.523c0.131,0 1.96,-0.78 4.063,-1.735c3.47,-1.574 13.972,-5.38 15.587,-5.649c0.364,-0.06 0.629,0.14 0.589,0.446c-0.039,0.305 -1.96,1.202 -4.269,1.994c-7.887,2.704 -17.607,7.791 -16.942,8.867c0.171,0.278 1.735,-0.206 3.475,-1.076c4.817,-2.407 15.566,-5.718 14.86,-4.577c-0.181,0.294 -1.107,0.705 -2.056,0.914c-1.579,0.346 -9.018,3.648 -14.742,6.542c-1.28,0.647 -2.463,1.684 -2.629,2.305c-0.388,1.442 -0.409,4.737 -0.03,4.737c0.158,0 1.844,-0.642 3.746,-1.426c5.671,-2.339 15.561,-5.808 15.819,-5.55c0.414,0.413 -0.455,1.425 -1.224,1.425c-0.755,0 -5.146,1.812 -10.026,4.139c-1.526,0.727 -3.626,1.639 -4.666,2.025c-1.882,0.7 -5.391,3.67 -4.907,4.154c0.14,0.14 1.882,-0.477 3.872,-1.369c3.332,-1.495 14.835,-5.619 15.673,-5.619c1.002,0 -0.525,1.112 -2.347,1.708c-6.113,2.001 -18.126,8.793 -17.196,9.722c0.194,0.195 1.18,-0.157 2.19,-0.781c3.896,-2.408 16.524,-7.002 17.25,-6.275c0.297,0.296 -0.705,0.89 -2.464,1.46c-2.793,0.904 -10.03,4.315 -14.344,6.76c-1.068,0.605 -2.023,1.518 -2.122,2.027c-0.217,1.117 0.673,0.831 7.396,-2.379c7.563,-3.612 8.648,-4.019 9.614,-3.607c0.693,0.296 0.345,0.557 -1.355,1.016c-1.258,0.34 -2.632,0.882 -3.053,1.204c-0.421,0.322 -2.889,1.667 -5.484,2.989c-6.126,3.122 -7.771,4.312 -7.771,5.622c0,1.378 0.123,1.36 2.925,-0.412c3.597,-2.275 11.536,-5.81 12.548,-5.588c0.54,0.119 -0.659,1.036 -2.983,2.283c-2.138,1.146 -4.885,2.687 -6.107,3.425c-1.221,0.737 -3.282,1.895 -4.579,2.573c-1.446,0.756 -2.359,1.621 -2.359,2.233c0,1.339 0.677,1.26 3.061,-0.358c1.1,-0.747 3.672,-2.147 5.715,-3.112c2.042,-0.965 5.009,-2.386 6.592,-3.156c1.828,-0.89 3.247,-1.253 3.886,-0.994c0.804,0.326 0.56,0.547 -1.214,1.1c-2.184,0.681 -5.046,2.129 -8.326,4.212c-0.916,0.582 -2.789,1.68 -4.163,2.44c-3.043,1.685 -5.505,3.614 -4.634,3.631c0.351,0.007 2.752,-0.987 5.333,-2.208c2.582,-1.221 5.074,-2.221 5.538,-2.221c0.464,0 1.168,-0.391 1.564,-0.869c0.694,-0.835 3.432,-2.461 4.145,-2.461c0.629,0 -1.233,1.59 -3.135,2.678c-1.03,0.59 -3.496,1.993 -5.481,3.119c-5.248,2.978 -7.208,4.382 -7.212,5.166c-0.006,1.041 1.567,0.837 3.353,-0.435c1.721,-1.226 7.424,-3.867 8.349,-3.867c1.182,0 -0.217,1.149 -3.82,3.137c-5.983,3.301 -9.399,6.3 -7.177,6.3c0.804,0 6.905,-3.07 8.173,-4.113c1.3,-1.069 8.934,-4.901 9.211,-4.624c0.293,0.293 -3.965,3.186 -4.691,3.186c-0.274,0 -0.819,0.386 -1.211,0.858c-0.791,0.952 -6.969,4.693 -7.751,4.693c-0.849,0 -3.527,2.763 -3.096,3.194c0.463,0.463 9.439,-4.076 14.277,-7.219c3.209,-2.084 4.363,-2.506 4.363,-1.595c0,0.439 -6.516,4.493 -12.623,7.853c-1.294,0.712 -2.497,1.75 -2.674,2.306c-0.177,0.557 -0.804,1.012 -1.394,1.012c-0.59,0 -1.073,0.374 -1.073,0.832c0,1.28 0.599,1.064 6.156,-2.22c5.249,-3.101 7.451,-3.901 6.03,-2.188c-0.395,0.475 -1.862,1.512 -3.26,2.303c-3.99,2.259 -8.371,5.297 -8.371,5.806c0,0.697 0.725,0.56 2.089,-0.396c0.674,-0.472 3.54,-1.996 6.369,-3.386c2.828,-1.391 5.892,-3.074 6.808,-3.74c1.82,-1.325 4.747,-2.719 5.057,-2.409c0.31,0.31 -9.692,6.677 -13.661,8.697c-4.383,2.23 -5.775,3.36 -5.042,4.093c0.49,0.491 2.218,-0.131 5.042,-1.813c0.458,-0.273 2.499,-1.263 4.536,-2.201c2.037,-0.938 4.16,-2.276 4.718,-2.974c0.558,-0.698 1.452,-1.181 1.986,-1.074c0.535,0.108 0.972,-0.032 0.972,-0.311c0,-0.433 2.335,-1.795 3.079,-1.795c0.906,0 -0.045,1.235 -1.549,2.013c-0.991,0.512 -3.052,1.872 -4.58,3.021c-1.528,1.15 -4.777,3.042 -7.219,4.205c-5.201,2.476 -6.263,3.316 -5.35,4.229c0.469,0.47 2.431,-0.275 7.708,-2.928c3.893,-1.956 8.265,-4.247 9.715,-5.091c1.45,-0.844 2.637,-1.307 2.637,-1.029c0,0.605 -10.428,6.94 -15.629,9.495c-2.414,1.186 -3.595,2.07 -3.41,2.554c0.33,0.86 1.979,0.967 3.365,0.219c3.097,-1.673 9.098,-4.476 9.582,-4.476c0.312,0 1.838,-0.874 3.392,-1.942c2.463,-1.695 4.365,-2.442 4.365,-1.715c0,0.297 -8.184,5.878 -8.619,5.878c-0.182,0 -2.453,0.999 -5.048,2.22c-2.594,1.221 -4.952,2.221 -5.239,2.221c-0.814,0 -0.614,1.109 0.26,1.445c1.611,0.618 10.548,-2.75 15.045,-5.669c3.853,-2.502 6.376,-3.697 6.376,-3.02c0,0.443 -2.756,2.393 -8.076,5.714c-2.058,1.285 -4.779,2.514 -9.548,4.314c-1.779,0.671 -2.344,1.812 -1.237,2.496c0.312,0.193 3.126,-0.791 6.253,-2.187c3.128,-1.396 5.936,-2.538 6.241,-2.538c0.304,0 1.852,-0.875 3.439,-1.943c2.958,-1.992 4.039,-2.364 4.039,-1.388c0,0.306 -1.277,1.242 -2.838,2.082c-1.561,0.839 -3.497,2.058 -4.302,2.708c-1.204,0.972 -6.241,3.069 -10.724,4.465c-1.265,0.395 -0.625,1.847 0.815,1.847c1.327,0 6.882,-1.7 11.925,-3.65c4.102,-1.586 4.381,-1.624 3.422,-0.47c-0.805,0.97 -5.019,3.205 -7.18,3.809c-3.712,1.036 -7.216,2.731 -7.216,3.492c0,1.08 1.7,0.772 7.494,-1.362c4.401,-1.62 8.004,-3.384 10.98,-5.377c2.138,-1.431 2.67,-0.579 0.655,1.05c-1.902,1.537 -9.319,5.523 -11.358,6.103c-2.396,0.683 -5.551,2.152 -5.551,2.585c0,0.981 1.355,1.096 3.512,0.297c1.274,-0.472 3.441,-1.144 4.815,-1.494c1.374,-0.35 4.224,-1.625 6.334,-2.833c4.477,-2.564 6.987,-2.728 3.102,-0.202c-4.257,2.767 -8.264,4.646 -14.016,6.573c-0.534,0.179 -0.971,0.583 -0.971,0.898c0,1.628 7.682,-0.375 14.016,-3.654c4.042,-2.093 4.98,-1.907 1.721,0.341c-4.343,2.996 -5.005,3.353 -7.688,4.136c-2.969,0.868 -5.216,2.213 -4.646,2.783c0.564,0.564 8.767,-1.794 11.246,-3.233c2.741,-1.591 4.779,-2.275 4.779,-1.606c0,0.27 -0.812,0.915 -1.804,1.435c-0.992,0.52 -3.178,1.814 -4.857,2.876c-1.679,1.062 -3.553,1.936 -4.163,1.942c-0.611,0.006 -1.485,0.257 -1.943,0.557c-0.702,0.461 -0.712,0.625 -0.062,1.043c0.862,0.556 7.315,-1.59 12.135,-4.033c3.127,-1.586 3.884,-1.274 1.388,0.571c-2.47,1.826 -5.19,3.108 -8.743,4.119c-2.535,0.721 -3.084,1.048 -2.3,1.367c1.532,0.624 6.216,-0.623 10.795,-2.874c3.882,-1.907 6.048,-2.135 3.717,-0.39c-1.861,1.392 -8.981,4.63 -10.183,4.63c-1.409,0 -2.145,1.078 -1.155,1.691c1.285,0.793 9.798,-1.531 11.713,-3.199c0.512,-0.446 1.386,-0.707 1.943,-0.581c0.777,0.175 0.528,0.469 -1.069,1.261c-1.144,0.568 -2.081,1.216 -2.081,1.44c0,0.224 -1.624,0.948 -3.608,1.608c-1.985,0.66 -3.609,1.459 -3.609,1.775c0,0.337 0.517,0.42 1.249,0.199c0.687,-0.206 2.698,-0.735 4.469,-1.175c1.77,-0.439 3.979,-1.192 4.908,-1.673c0.93,-0.48 1.821,-0.742 1.982,-0.581c0.478,0.478 -1.092,1.727 -3.171,2.523c-4.485,1.718 -6.106,2.504 -6.106,2.962c0,0.267 0.437,0.368 0.972,0.224c0.534,-0.144 2.719,-0.701 4.857,-1.238c2.137,-0.537 4.324,-1.35 4.86,-1.808c0.536,-0.457 1.109,-0.697 1.273,-0.534c0.588,0.589 -3.18,3.195 -5.465,3.78c-3.718,0.951 -3.965,1.075 -3.35,1.69c0.771,0.772 9.146,-1.925 10.449,-3.364c0.555,-0.613 1.388,-1.115 1.852,-1.115c1.419,0 -1.473,2.647 -5.028,4.601c-3.168,1.742 -3.967,2.616 -2.392,2.616c1.379,0 6.772,-2.199 8.845,-3.605c1.083,-0.735 2.11,-1.108 2.283,-0.829c0.363,0.588 -3.192,2.945 -6.729,4.461c-1.339,0.574 -2.435,1.21 -2.435,1.414c0,0.809 4.503,-0.304 8.021,-1.983c2.048,-0.977 3.891,-1.609 4.096,-1.403c0.578,0.581 -1.865,2.312 -4.771,3.382c-3.529,1.298 -3.893,1.72 -2.162,2.508c1.219,0.556 1.866,0.495 3.831,-0.359c1.3,-0.566 3.066,-1.506 3.923,-2.09c0.857,-0.585 1.728,-0.893 1.934,-0.686c0.477,0.476 -1.76,2.186 -4.464,3.411c-1.145,0.519 -2.082,1.128 -2.082,1.354c0,1.677 5.2,-0.069 7.905,-2.653c0.836,-0.8 1.691,-1.284 1.899,-1.076c0.531,0.532 -1.73,2.812 -4.005,4.037c-2.115,1.139 -2.345,1.603 -1.039,2.104c0.965,0.371 5.403,-2.428 6.305,-3.976c0.307,-0.527 0.566,-0.699 0.576,-0.382c0.009,0.316 -0.723,1.441 -1.626,2.498c-0.904,1.057 -1.653,2.109 -1.666,2.338c-0.057,1.061 1.917,0.229 3.622,-1.527c2.327,-2.395 3.653,-2.581 1.679,-0.235c-1.735,2.061 -1.881,3.3 -0.343,2.898c1.279,-0.334 3.618,-2.389 4.023,-3.534c0.155,-0.437 0.468,-0.621 0.696,-0.41c0.227,0.212 -0.149,1.174 -0.836,2.139c-1.026,1.442 -1.111,1.842 -0.477,2.244c1.281,0.811 1.529,0.62 3.021,-2.324c1.773,-3.499 2.434,-3.221 0.851,0.357c-1.404,3.174 -1.4,3.029 -0.074,3.029c0.596,0 1.338,-0.438 1.649,-0.972c0.502,-0.862 0.568,-0.868 0.583,-0.059c0.009,0.501 0.384,1.053 0.834,1.225c0.586,0.226 0.983,-0.3 1.403,-1.86c0.698,-2.591 2.04,-3.831 1.442,-1.332c-0.212,0.886 -0.521,2.067 -0.688,2.627c-0.241,0.809 -0.041,0.979 0.983,0.832c1.02,-0.146 1.381,-0.669 1.749,-2.543c0.256,-1.298 0.7,-2.359 0.987,-2.359c0.675,0 0.66,0.675 -0.053,2.552c-0.761,2.001 0.206,3.062 1.162,1.275l0.69,-1.288l0.454,1.228c0.646,1.745 1.389,1.521 1.91,-0.575l0.449,-1.805l0.219,2.221c0.204,2.072 0.271,2.148 1.008,1.143c0.434,-0.593 0.799,-1.467 0.809,-1.943l0,0.001ZM84.305,190.351c0.432,-1.721 0.71,-2.128 1.152,-1.686c0.476,0.476 -0.359,3.211 -0.98,3.211c-0.328,0 -0.399,-0.623 -0.172,-1.525l0,0ZM94.034,186.157c-1.884,-0.604 -1.817,-0.632 2.221,-0.947c2.289,-0.179 4.287,-0.231 4.44,-0.115c0.152,0.116 -0.208,0.565 -0.8,0.998c-1.255,0.917 -3.136,0.938 -5.861,0.065l0,-0.001ZM92.508,183.737c-1.281,-0.516 -0.71,-1.146 0.832,-0.918c1.385,0.205 1.334,0.119 -0.555,-0.923c-2.771,-1.529 -2.627,-2.157 0.417,-1.814c1.516,0.171 2.497,0.058 2.497,-0.286c0,-0.901 1.553,-1.258 3.03,-0.696c1.152,0.438 1.341,0.85 1.265,2.76l-0.09,2.245l-3.351,-0.044c-1.843,-0.024 -3.664,-0.17 -4.045,-0.324l0,0ZM86.263,168.106c-3.803,-0.349 -3.069,-1.209 1.032,-1.209c2.713,0 3.91,-0.194 3.663,-0.592c-0.201,-0.326 -1.153,-0.54 -2.114,-0.475c-3.291,0.222 -5.145,-0.044 -6.222,-0.891c-0.995,-0.783 -0.876,-0.821 1.559,-0.492c1.78,0.24 2.637,0.155 2.637,-0.263c0,-0.357 0.997,-0.618 2.363,-0.618c1.299,0 3.235,-0.255 4.302,-0.567c2.945,-0.861 14.017,-0.947 14.295,-0.111c0.13,0.389 -0.266,0.678 -0.93,0.678c-0.636,0 -1.157,0.25 -1.157,0.555c0,0.306 0.485,0.555 1.078,0.555c1.29,0 1.967,0.879 1.092,1.419c-0.443,0.274 -0.41,0.517 0.114,0.841c0.405,0.251 0.599,0.593 0.431,0.762c-0.463,0.462 -5.262,0.535 -9.931,0.15c-2.29,-0.189 -5.537,-0.168 -7.216,0.046c-1.68,0.215 -3.928,0.31 -4.996,0.212l0,0ZM105.106,167.073c1.258,-0.336 1.279,-0.394 0.278,-0.786c-0.594,-0.232 -1.83,-0.432 -2.746,-0.444c-1.582,-0.02 -1.611,0.019 -0.588,0.794c1.227,0.927 1.223,0.927 3.056,0.436ZM113.146,165.549c-0.588,-0.43 -0.876,-0.975 -0.641,-1.211c0.236,-0.235 0.845,-0.013 1.354,0.497c1.2,1.2 0.673,1.727 -0.714,0.714l0.001,0ZM114.573,162.178c-0.386,-0.464 -0.446,-0.832 -0.136,-0.832c0.305,0 0.866,0.374 1.246,0.832c0.386,0.465 0.446,0.833 0.136,0.833c-0.305,0 -0.866,-0.375 -1.246,-0.833l0,0ZM117.755,161.048c-1.799,-1.222 -2.698,-2.478 -1.775,-2.478c0.699,0 3.124,1.907 3.631,2.854c0.709,1.325 0.62,1.307 -1.856,-0.376ZM101.112,160.701c-1.717,-0.628 -1.956,-1.292 -0.644,-1.796c0.903,-0.346 4.113,1.219 4.113,2.005c0,0.577 -1.577,0.482 -3.469,-0.209ZM68.187,157.183c-2.866,-3.038 -2.562,-4.17 0.441,-1.643c2.059,1.733 2.63,1.392 1.045,-0.623c-1.723,-2.191 -1.521,-3.545 0.245,-1.639c1.763,1.902 2.223,1.533 1.357,-1.091c-0.851,-2.58 -0.345,-3.086 1.166,-1.166c1.52,1.933 1.954,1.499 0.777,-0.777c-1.131,-2.188 -0.809,-2.594 1.076,-1.359l1.45,0.95l-0.569,-1.497c-0.958,-2.52 -0.736,-3.747 0.642,-3.545c0.807,0.118 1.36,0.734 1.655,1.842c0.692,2.603 1.795,3.054 7.47,3.054c4.141,0 5.315,0.186 6.103,0.971c0.931,0.927 0.919,0.98 -0.26,1.152l-1.236,0.18l1.359,1.069c1.414,1.112 4.173,1.306 7.289,0.513c1.347,-0.342 1.427,-0.436 0.417,-0.489c-0.687,-0.036 -1.249,-0.324 -1.249,-0.639c0,-0.315 0.562,-0.819 1.249,-1.12c0.983,-0.431 0.784,-0.477 -0.938,-0.215c-1.871,0.285 -2.09,0.216 -1.517,-0.474c0.368,-0.444 2.156,-0.975 3.974,-1.181c3.32,-0.376 5.192,-1.433 2.538,-1.433c-2.901,0 -1.288,-0.948 2.604,-1.531c2.213,-0.331 4.711,-0.776 5.551,-0.988c1.362,-0.344 1.527,-0.236 1.527,1.007c0,0.767 0.374,1.537 0.832,1.713c1.013,0.389 1.083,2.033 0.139,3.277c-0.635,0.838 -4.899,1.986 -11.543,3.11c-1.388,0.235 -3.306,1.006 -4.262,1.713l-1.74,1.286l-3.716,-1.488c-3.085,-1.235 -4.695,-1.507 -9.477,-1.601c-3.169,-0.063 -5.761,0.056 -5.76,0.265c0,0.208 -0.499,0.537 -1.11,0.731c-0.611,0.194 -1.11,0.71 -1.11,1.148c0,0.437 -0.375,0.795 -0.833,0.795c-0.458,0 -0.77,0.312 -0.694,0.694c0.079,0.393 -0.537,0.771 -1.423,0.873c-1.205,0.138 -1.997,-0.283 -3.469,-1.844l0,0ZM108.744,148.023c0.201,-0.324 -0.375,-0.555 -1.387,-0.555c-1.013,0 -1.589,0.231 -1.388,0.555c0.189,0.306 0.813,0.555 1.388,0.555c0.574,0 1.199,-0.249 1.387,-0.555ZM92.248,147.893c0.937,-0.451 1.436,-0.442 1.915,0.038c0.494,0.493 0.193,0.639 -1.267,0.61c-1.798,-0.035 -1.838,-0.075 -0.648,-0.648l0,0ZM34.639,147.014c0,-0.678 1.897,-2.321 2.68,-2.321c1.218,0 0.654,1.079 -1.015,1.943c-0.916,0.473 -1.665,0.643 -1.665,0.378ZM91.553,146.385c-0.343,-0.555 -0.088,-0.725 1.912,-1.273c0.45,-0.124 -0.362,-0.522 -1.804,-0.885c-1.443,-0.363 -2.623,-0.907 -2.623,-1.207c0,-0.732 0.952,-0.699 1.414,0.05c0.203,0.328 1.404,0.515 2.67,0.416c2.226,-0.175 2.3,-0.127 2.3,1.484c0,1.463 -0.213,1.686 -1.752,1.836c-0.964,0.093 -1.916,-0.096 -2.117,-0.42l0,-0.001ZM125.675,144.415c-1.036,-1.068 -1.64,-1.943 -1.343,-1.943c0.584,0 4.118,3.07 4.118,3.577c0,0.768 -1.042,0.155 -2.775,-1.634l0,0ZM131.527,145.841c-0.175,-0.284 -0.092,-0.657 0.187,-0.829c0.278,-0.172 0.649,0.06 0.824,0.517c0.345,0.899 -0.489,1.157 -1.011,0.312ZM100.851,144.439c0.088,-1.449 0.908,-1.999 2.416,-1.621c0.656,0.165 1.36,0.029 1.564,-0.301c0.243,-0.393 -0.418,-0.6 -1.915,-0.6c-1.354,0 -2.149,-0.222 -1.949,-0.545c0.185,-0.299 2.326,-0.502 4.758,-0.45c4.126,0.087 5.067,0.529 2.464,1.155c-1.003,0.241 -0.99,0.273 0.139,0.331c2.501,0.129 1.172,1.175 -1.494,1.175c-1.508,0 -2.917,0.283 -3.131,0.628c-0.282,0.457 0.468,0.522 2.743,0.238c2.101,-0.262 3.131,-0.195 3.131,0.204c0,0.652 -0.336,0.704 -5.369,0.832c-3.129,0.08 -3.42,-0.011 -3.357,-1.046l0,0ZM129.422,143.538c-0.534,-0.311 -0.972,-0.856 -0.972,-1.211c0,-0.355 -0.687,-1.208 -1.526,-1.895c-0.84,-0.688 -1.213,-1.259 -0.829,-1.27c0.384,-0.011 1.258,0.647 1.943,1.463c0.685,0.815 1.682,1.939 2.216,2.498c1.065,1.112 0.688,1.3 -0.832,0.415l0,0ZM90.149,141.64c-0.802,-0.459 -1.037,-0.794 -0.556,-0.794c0.458,0 1.458,0.357 2.221,0.794c0.802,0.458 1.036,0.793 0.555,0.793c-0.458,0 -1.457,-0.357 -2.221,-0.793ZM94.589,141.917c0,-0.305 0.25,-0.555 0.555,-0.555c0.306,0 0.556,0.25 0.556,0.555c0,0.306 -0.25,0.555 -0.556,0.555c-0.305,0 -0.555,-0.249 -0.555,-0.555ZM93.187,140.228c-0.181,-0.292 0.186,-0.531 0.814,-0.531c1.341,0 1.476,0.309 0.329,0.749c-0.449,0.172 -0.963,0.074 -1.143,-0.218ZM100.14,139.72c0,-0.58 3.942,-0.919 7.71,-0.663c4.688,0.317 3.202,0.955 -2.436,1.045c-2.901,0.047 -5.274,-0.125 -5.274,-0.382ZM90.287,138.219c-0.381,-0.154 -0.694,-0.741 -0.694,-1.304c0,-0.563 -0.635,-1.523 -1.412,-2.134c-1.302,-1.024 -1.528,-1.045 -2.914,-0.265c-3.104,1.748 -6.22,-1.331 -6.22,-6.145c0,-2.561 0.887,-4.772 1.915,-4.772c0.664,0 0.723,0.288 0.291,1.424c-0.686,1.804 -0.692,4.214 -0.015,5.995c0.476,1.252 0.662,1.322 1.939,0.73c0.776,-0.36 1.414,-0.998 1.416,-1.417c0.004,-0.614 0.166,-0.628 0.837,-0.071c0.686,0.569 0.833,0.521 0.833,-0.271c0,-0.801 0.193,-0.742 1.152,0.348c0.634,0.721 1.022,1.044 0.862,0.717c-0.547,-1.118 -0.831,-3.569 -0.413,-3.569c0.23,0 0.847,0.811 1.371,1.804c0.524,0.992 0.818,1.343 0.654,0.781c-0.853,-2.907 -0.931,-3.696 -0.366,-3.696c0.332,0 0.761,0.623 0.952,1.384c0.191,0.762 0.594,1.232 0.896,1.045c0.496,-0.306 1.633,0.082 4.467,1.527c0.715,0.364 0.972,0.273 0.972,-0.343c0,-1.009 1.458,-1.122 1.852,-0.143c0.168,0.414 0.298,0.303 0.324,-0.278c0.06,-1.33 0.838,-1.218 1.935,0.278l0.915,1.249l-0.33,-1.249c-0.182,-0.687 -0.094,-1.249 0.194,-1.249c0.289,0 0.944,0.562 1.457,1.249c0.817,1.095 0.885,1.112 0.551,0.139c-0.209,-0.611 -0.489,-1.735 -0.623,-2.498l-0.244,-1.388l1.13,1.289c0.621,0.708 1.29,2.145 1.487,3.191c0.242,1.293 0.664,1.904 1.313,1.904c1.547,0 1.729,-0.614 0.642,-2.158c-1.741,-2.472 -3.439,-6.169 -2.834,-6.169c0.317,0 1.259,1.417 2.093,3.149c0.835,1.732 1.799,3.241 2.143,3.354c0.764,0.251 1.463,-1.377 0.949,-2.208c-0.204,-0.331 -0.393,-1.245 -0.419,-2.032c-0.049,-1.504 -3.486,-7.259 -4.335,-7.259c-0.562,0 -0.379,0.345 2.172,4.087c1.012,1.484 1.84,2.942 1.84,3.238c0,0.941 -1.308,0.146 -2.197,-1.336c-0.471,-0.786 -1.668,-2.592 -2.66,-4.014c-1.832,-2.625 -2.285,-4.195 -1.212,-4.195c0.326,0 0.463,-0.437 0.304,-0.972c-1.544,-5.198 -0.519,-5.455 1.626,-0.407c1.542,3.627 4.109,6.93 5.387,6.93c0.376,0 -0.027,-0.659 -0.895,-1.463c-3.397,-3.15 -8.813,-17.409 -7.031,-18.51c0.582,-0.36 0.609,-0.952 0.128,-2.847c-0.492,-1.937 -0.445,-2.736 0.246,-4.191c0.469,-0.989 0.677,-2.083 0.462,-2.431c-0.215,-0.348 -0.714,-1.859 -1.11,-3.359c-0.625,-2.369 -0.608,-2.789 0.128,-3.201c0.725,-0.406 0.746,-0.756 0.141,-2.427c-0.85,-2.351 -0.424,-3.895 0.93,-3.375c0.766,0.294 0.865,0.158 0.513,-0.704c-0.963,-2.352 -0.953,-2.908 0.054,-3.228c0.563,-0.178 1.057,-0.889 1.099,-1.58c0.247,-4.078 0.689,-5.693 1.536,-5.619c0.556,0.048 0.889,-0.364 0.894,-1.11c0.013,-1.693 0.849,-2.791 1.838,-2.412c0.466,0.179 1.168,-0.06 1.559,-0.532c0.392,-0.471 1.325,-1.09 2.074,-1.375c1.176,-0.447 7.606,-1.219 9.231,-1.109c0.305,0.021 2.553,0.144 4.996,0.273c5.167,0.274 6.903,0.63 10.124,2.077c1.294,0.582 2.584,1.058 2.865,1.058c0.281,0 1.142,0.749 1.913,1.665c0.771,0.916 1.762,1.665 2.202,1.665c0.441,0 1.047,0.687 1.347,1.527c1.108,3.103 1.77,5.463 2.065,7.355c0.315,2.024 -0.006,1.851 -1.717,-0.923c-0.346,-0.561 -0.823,-0.834 -1.06,-0.607c-0.238,0.227 0.006,0.896 0.54,1.487c0.54,0.597 0.836,1.522 0.667,2.085c-0.341,1.127 0.566,2.568 1.937,3.082c0.495,0.186 1.065,0.994 1.266,1.796c0.29,1.155 0.026,1.798 -1.273,3.097c-0.902,0.902 -1.973,1.64 -2.38,1.64c-0.408,0 -2.935,-0.861 -5.616,-1.914c-4.566,-1.792 -5.29,-1.915 -11.376,-1.923c-3.575,-0.006 -7.723,0.044 -9.217,0.11c-2.413,0.106 -2.737,-0.017 -2.906,-1.099c-0.293,-1.886 1.088,-2.782 5.413,-3.512c4.91,-0.828 11.305,-0.123 16.725,1.845c3.763,1.366 4.526,1.106 1.439,-0.491c-2.129,-1.1 -1.656,-1.671 0.703,-0.849c2.688,0.937 2.555,0.341 -0.295,-1.33c-1.398,-0.819 -2.542,-1.58 -2.542,-1.69c0,-0.262 4.029,1.164 5.662,2.005c0.702,0.362 0.183,-0.31 -1.153,-1.492c-1.337,-1.182 -3.71,-2.7 -5.274,-3.373c-1.564,-0.673 -2.531,-1.235 -2.149,-1.249c1.091,-0.041 0.818,-1.516 -0.734,-3.975c-1.638,-2.594 -2.191,-2.593 -1.286,0.002c0.342,0.981 0.496,1.909 0.343,2.062c-0.34,0.34 -2.625,-3.27 -2.625,-4.147c0,-0.346 -0.23,-0.629 -0.511,-0.629c-0.303,0 -0.289,0.8 0.036,1.976c0.95,3.442 0.126,3.424 -1.457,-0.033c-1.524,-3.328 -2.593,-3.463 -1.449,-0.183c1.305,3.745 0.104,3.385 -1.606,-0.481c-1.333,-3.013 -1.813,-2.966 -1.119,0.109c0.704,3.122 0.22,3.096 -1.154,-0.06c-1.15,-2.64 -1.198,-2.677 -1.734,-1.328l-0.552,1.388l-0.483,-1.249c-0.74,-1.914 -0.936,-1.522 -0.901,1.804c0.022,2.138 0.251,3.053 0.762,3.053c0.414,0 0.731,-0.616 0.731,-1.42c0,-0.806 0.24,-1.272 0.555,-1.078c0.305,0.189 0.555,1.056 0.555,1.927c0,1.415 -0.236,1.624 -2.22,1.959c-1.221,0.206 -2.221,0.603 -2.221,0.882c0,0.278 0.25,0.506 0.555,0.506c0.306,0 0.556,0.25 0.556,0.555c0,0.928 -1.592,0.62 -2.146,-0.416c-0.286,-0.535 -0.701,-2.221 -0.922,-3.747c-0.736,-5.092 -1.459,-4.728 -1.089,0.548c0.193,2.744 0.454,5.093 0.58,5.22c0.127,0.126 0.983,0.208 1.903,0.182c2.184,-0.062 2.212,1.247 0.042,2.004c-1.275,0.444 -1.778,0.39 -2.307,-0.247c-0.47,-0.566 -0.854,-0.638 -1.256,-0.237c-0.826,0.826 -1.467,0.715 -1.467,-0.254c0,-0.477 0.5,-0.833 1.17,-0.833c0.888,0 1.078,-0.233 0.79,-0.971c-0.209,-0.534 -0.492,-2.442 -0.629,-4.239c-0.315,-4.118 -1.008,-5.586 -1.574,-3.333c-0.346,1.378 -0.47,1.461 -0.938,0.625c-0.844,-1.508 -1.426,-1.134 -1.307,0.841c0.06,0.992 -0.251,2.353 -0.69,3.024c-0.653,0.999 -0.684,1.757 -0.171,4.164c0.752,3.534 1.912,5.863 2.471,4.96c0.596,-0.965 1.272,-0.752 1.6,0.503c0.241,0.919 0.095,1.069 -0.772,0.794c-1.031,-0.327 -1.028,-0.272 0.075,1.599c1.047,1.774 1.066,1.981 0.224,2.452c-0.852,0.477 -0.849,0.651 0.051,2.392c0.534,1.032 2.163,3.025 3.619,4.429c1.761,1.697 2.5,2.793 2.205,3.27c-0.344,0.558 -0.56,0.508 -0.969,-0.223c-0.289,-0.517 -1.13,-1.241 -1.868,-1.609c-0.738,-0.368 -1.902,-1.848 -2.587,-3.29c-0.684,-1.441 -1.496,-2.62 -1.804,-2.62c-0.309,0 -0.561,-0.345 -0.561,-0.765c0,-0.421 -0.375,-1.076 -0.833,-1.456c-0.465,-0.386 -0.832,-0.446 -0.832,-0.135c0,0.668 3.04,5.761 5.053,8.464c2.278,3.06 2.481,3.741 0.589,1.981c-0.959,-0.894 -1.879,-1.49 -2.044,-1.326c-0.402,0.402 0.625,3.028 1.363,3.485c0.325,0.2 0.59,0.818 0.59,1.373c0,0.556 0.372,1.319 0.826,1.696c0.455,0.377 0.683,0.919 0.506,1.205c-0.564,0.912 -1.77,-0.601 -3.877,-4.867c-1.122,-2.27 -2.267,-4.268 -2.545,-4.44c-1.634,-1.01 2.583,8.789 5.232,12.157c0.911,1.159 1.487,2.277 1.279,2.485c-0.63,0.63 -4.153,-3.818 -5.946,-7.506c-0.927,-1.909 -1.814,-3.47 -1.971,-3.47c-0.441,0 0.353,2.757 1.554,5.391c0.595,1.307 1.298,2.94 1.562,3.628c0.265,0.688 1.389,2.597 2.5,4.242c1.111,1.646 1.892,3.12 1.736,3.276c-0.72,0.721 -3.564,-3.279 -6.547,-9.207c-2.598,-5.164 -3.196,-6.042 -2.912,-4.277c0.196,1.221 0.933,3.47 1.638,4.996c0.705,1.527 1.719,3.775 2.255,4.996c0.535,1.221 1.7,3.311 2.589,4.644c0.888,1.333 1.535,2.666 1.436,2.962c-0.316,0.947 -3.137,-2.37 -4.655,-5.472c-0.808,-1.652 -1.579,-2.895 -1.712,-2.761c-0.453,0.453 2.28,6.109 4.113,8.511c2.099,2.749 2.194,3.034 0.857,2.564c-0.746,-0.263 -0.681,-0.06 0.278,0.871c1.542,1.499 1.581,1.942 0.139,1.565c-1.266,-0.331 -1.431,0.155 -0.417,1.229c0.555,0.589 0.555,0.787 0,0.99c-0.393,0.145 -0.694,1.195 -0.694,2.429c0,1.196 -0.249,2.174 -0.555,2.174c-0.771,0 -0.687,1.121 0.212,2.845l0.761,1.457l-5.899,-0.034c-3.244,-0.018 -6.041,-0.243 -6.216,-0.498c-0.175,-0.256 -1.229,-0.084 -2.342,0.381c-1.935,0.808 -6.005,1.068 -7.471,0.477l0,0ZM95.376,135.613c-0.357,-0.93 -1.342,-1.273 -1.342,-0.468c0,0.54 1.239,1.833 1.503,1.569c0.104,-0.104 0.031,-0.599 -0.161,-1.101ZM104.986,136.586c-0.185,-0.184 -0.663,-0.204 -1.064,-0.044c-0.443,0.177 -0.311,0.309 0.335,0.336c0.585,0.024 0.913,-0.108 0.729,-0.292l0,0ZM97.665,135.293c-0.201,-0.326 -0.631,-0.592 -0.956,-0.592c-0.368,0 -0.326,0.319 0.112,0.846c0.761,0.917 1.442,0.713 0.844,-0.254l0,0ZM99.585,133.901c0,-0.135 -0.25,-0.399 -0.555,-0.588c-0.305,-0.188 -0.555,-0.078 -0.555,0.245c0,0.323 0.25,0.588 0.555,0.588c0.305,0 0.555,-0.11 0.555,-0.245ZM100.695,132.549c0,-0.268 -0.355,-0.782 -0.789,-1.142c-0.647,-0.538 -0.735,-0.45 -0.49,0.487c0.292,1.116 1.279,1.621 1.279,0.655l0,0ZM106.615,110.219c-0.436,-1.16 -0.707,-1.421 -0.832,-0.8c-0.236,1.175 0.273,2.523 0.953,2.523c0.303,0 0.252,-0.727 -0.122,-1.723l0.001,0ZM121.512,84.187c0.699,-0.301 0.802,-0.477 0.277,-0.477c-0.458,0 -1.332,0.215 -1.943,0.477c-0.699,0.301 -0.802,0.477 -0.277,0.477c0.458,0 1.332,-0.215 1.943,-0.477ZM140.906,75.167c-0.765,-2.474 -2.641,-5.684 -2.891,-4.948c-0.139,0.409 0.025,1.021 0.365,1.36c0.339,0.34 0.617,0.926 0.617,1.303c0,0.377 0.244,1.327 0.542,2.11c0.676,1.779 1.912,1.937 1.367,0.175l0,0ZM137.263,72.478c-0.923,-1.86 -1.81,-3.25 -1.972,-3.088c-0.416,0.416 2.521,6.47 3.139,6.47c0.281,0 -0.244,-1.521 -1.167,-3.382l0,0ZM142.328,73.363c-0.323,-0.848 -0.714,-1.415 -0.869,-1.259c-0.156,0.155 0.017,0.94 0.383,1.744c0.865,1.899 1.247,1.517 0.486,-0.485ZM118.403,72.391c-0.03,-0.992 -0.255,-2.428 -0.5,-3.192c-0.339,-1.059 -0.457,-0.632 -0.499,1.804c-0.031,1.795 0.187,3.192 0.499,3.192c0.306,0 0.531,-0.812 0.5,-1.804ZM128.832,137.03c-1.734,-1.809 -1.935,-2.605 -0.46,-1.816c1.161,0.622 3.132,3.373 2.415,3.373c-0.255,0 -1.135,-0.701 -1.955,-1.557l0,0ZM19.113,123.229c0.02,-0.521 4.763,-3.516 5.568,-3.516c1.684,0 -0.361,1.495 -5.169,3.781c-0.229,0.109 -0.408,-0.011 -0.399,-0.265l0,0ZM16.32,112.523c0,-0.307 1.06,-1.099 2.355,-1.76c1.909,-0.974 2.205,-1.021 1.567,-0.252c-1.037,1.25 -3.922,2.729 -3.922,2.012l0,0ZM154.743,108.38c-0.875,-0.769 -1.306,-1.407 -0.958,-1.416c0.896,-0.025 3.325,2.035 2.901,2.461c-0.194,0.194 -1.068,-0.276 -1.943,-1.045ZM155.091,105.277c-0.706,-0.612 -1.121,-1.277 -0.921,-1.477c0.2,-0.199 0.864,0.215 1.477,0.922c1.744,2.011 1.456,2.3 -0.556,0.555l0,0ZM129.144,101.603c-1.297,-0.42 -3.421,-1.075 -4.718,-1.457c-2.593,-0.763 -2.918,-1.704 -0.684,-1.982c1.61,-0.201 8.594,2.853 8.594,3.757c0,0.688 -0.115,0.676 -3.192,-0.318ZM162.535,99.666c-0.886,-0.93 -3.305,-3.078 -5.374,-4.775c-4.152,-3.403 -4.53,-4.395 -0.842,-2.209c2.902,1.72 9.083,7.898 8.353,8.349c-0.289,0.178 -1.251,-0.436 -2.137,-1.365l0,0ZM134.589,99.839c-0.746,-0.518 -2.742,-1.067 -4.436,-1.219c-2.359,-0.213 -3.123,-0.506 -3.265,-1.251c-0.108,-0.567 0.237,-1.105 0.827,-1.29c0.557,-0.173 1.447,-0.547 1.977,-0.83c0.53,-0.283 1.577,-0.515 2.326,-0.515c0.75,0 1.532,-0.274 1.739,-0.609c0.207,-0.334 1.06,-0.508 1.896,-0.385c1.103,0.162 1.503,-0.007 1.461,-0.619c-0.033,-0.463 0.434,-0.944 1.037,-1.067c0.603,-0.124 1.382,-0.616 1.732,-1.095c0.575,-0.786 0.994,-0.773 4.375,0.143c2.057,0.556 4.4,1.593 5.207,2.304c1.816,1.6 1.02,1.682 -2.03,0.208c-1.275,-0.616 -3.508,-1.244 -4.962,-1.397l-2.643,-0.277l2.22,1.078c1.222,0.593 2.643,1.097 3.159,1.12c0.96,0.042 1.881,1.015 1.409,1.487c-0.145,0.144 -1.356,-0.118 -2.693,-0.584c-3.469,-1.208 -3.751,-1.074 -1.576,0.749c1.057,0.886 1.721,1.816 1.475,2.066c-0.245,0.249 -0.62,0.19 -0.832,-0.133c-0.555,-0.843 -3.868,-1.884 -5.882,-1.848c-1.664,0.03 -1.639,0.064 0.752,1.034c1.359,0.551 2.567,1.286 2.682,1.634c0.261,0.781 0.314,0.785 -2.379,-0.185c-3.466,-1.249 -4.008,-1.049 -2.221,0.817c1.759,1.836 0.921,2.247 -1.355,0.664l0,0ZM43.783,97.485c-0.471,-0.762 1.059,-3.056 2.798,-4.195c1.498,-0.982 1.927,-2.617 0.547,-2.087c-0.888,0.341 -1.171,-0.635 -0.333,-1.153c0.578,-0.357 6.152,0.711 12.545,2.403c5.84,1.545 7.494,2.251 7.494,3.198c0,1.376 -1.594,1.455 -3.742,0.186c-2.295,-1.357 -6.138,-2.465 -10.413,-3.003c-2.668,-0.336 -2.866,-0.264 -5.134,1.863c-1.298,1.217 -2.36,2.473 -2.36,2.79c0,0.748 -0.94,0.747 -1.402,-0.002l0,0ZM67.667,94.942c-0.916,-0.492 -2.911,-1.533 -4.433,-2.312c-3.032,-1.552 -2.626,-2.266 0.681,-1.196c3.468,1.122 6.25,2.719 6.25,3.589c0,1.043 -0.434,1.029 -2.498,-0.081l0,0ZM43.054,93.372c0.355,-0.777 0.979,-1.414 1.388,-1.414c1.125,0 0.865,0.719 -0.662,1.83l-1.37,0.998l0.644,-1.414ZM68.05,91.566c-1.315,-0.766 -2.273,-1.511 -2.127,-1.657c0.4,-0.4 7.017,2.126 7.017,2.679c0,0.896 -2.486,0.376 -4.89,-1.022ZM72.95,91.064c-5.52,-1.238 -5.251,-1.84 0.665,-1.487c6.934,0.414 9.239,-0.597 2.874,-1.26l-4.381,-0.456l4.645,-0.418c2.555,-0.23 5.394,-0.679 6.309,-0.998c1.982,-0.691 2.975,-0.271 2.035,0.862c-0.529,0.638 -0.459,0.951 0.347,1.54c0.953,0.697 0.921,0.799 -0.555,1.766c-2.022,1.324 -7.176,1.52 -11.939,0.451l0,0ZM42.41,90.379c0,-0.867 2.019,-2.306 3.235,-2.306c1.738,0 1.483,0.891 -0.545,1.902c-1.969,0.982 -2.69,1.091 -2.69,0.404ZM44.445,86.592c-0.666,-0.665 -0.388,-2.96 0.359,-2.96c0.401,0 2.087,-0.687 3.747,-1.527c2.942,-1.488 3.23,-1.523 11.494,-1.401c4.969,0.073 8.959,0.383 9.643,0.749c0.642,0.344 2.323,0.79 3.736,0.993c1.734,0.247 2.572,0.636 2.578,1.193c0.007,0.656 0.663,0.787 3.192,0.639c1.913,-0.112 3.183,0.039 3.183,0.379c0,0.962 -1.841,1.219 -6.702,0.934c-4.384,-0.256 -11.673,-1.801 -9.012,-1.909c1.59,-0.065 2.119,-0.957 0.775,-1.308c-1.737,-0.455 -4.034,0.197 -3.706,1.051c0.296,0.772 -2.436,1.002 -9.177,0.774c-1.667,-0.056 -3.749,0.412 -5.95,1.338c-3.795,1.597 -3.654,1.562 -4.16,1.055l0,0ZM68.361,86.594c0.381,-0.153 1.006,-0.153 1.388,0c0.381,0.154 0.069,0.28 -0.694,0.28c-0.764,0 -1.076,-0.126 -0.694,-0.28ZM4.663,85.12c0,-0.662 7.267,-4.266 8.604,-4.267c0.305,0 2.392,-0.749 4.637,-1.664c2.245,-0.915 4.618,-1.646 5.274,-1.626c1.107,0.035 1.093,0.079 -0.197,0.626c-0.763,0.324 -2.886,1.279 -4.718,2.124c-1.832,0.845 -3.955,1.718 -4.718,1.941c-0.764,0.223 -2.762,1.123 -4.441,2.001c-3.367,1.759 -4.441,1.968 -4.441,0.865l0,0ZM155.65,82.522c-0.763,-0.597 -1.103,-1.092 -0.755,-1.098c0.348,-0.007 1.222,0.479 1.943,1.079c1.705,1.421 0.626,1.438 -1.188,0.019l0,0ZM110.508,80.717c-1.091,-2.628 -1.575,-4.857 -1.053,-4.857c0.491,0 1.707,3.039 2.113,5.278c0.35,1.931 -0.169,1.725 -1.06,-0.421l0,0ZM74.467,79.934c0.382,-0.154 1.006,-0.154 1.388,0c0.381,0.153 0.069,0.279 -0.694,0.279c-0.763,0 -1.076,-0.126 -0.694,-0.279ZM36.304,78.913c-0.577,-0.695 -0.499,-0.832 0.47,-0.832c0.803,0 1.062,-0.256 0.841,-0.833c-0.176,-0.458 -0.043,-0.833 0.295,-0.833c0.338,0 0.614,-0.374 0.614,-0.832c0,-1.194 0.56,-1.037 2.323,0.653c2.166,2.075 2.352,1.434 0.419,-1.443c-1.636,-2.436 -2.311,-4.626 -0.783,-2.541c1.352,1.846 3.14,3.624 4.229,4.207c1.416,0.758 1.337,0.57 -1.189,-2.815c-1.219,-1.634 -2.064,-3.115 -1.877,-3.292c0.186,-0.176 0.622,0.128 0.968,0.675c1.326,2.101 4.568,5.272 5.763,5.637c1.699,0.519 1.569,-0.051 -0.385,-1.696c-1.956,-1.645 -4.199,-5.117 -3.657,-5.658c0.212,-0.213 0.74,0.112 1.173,0.723c1.323,1.865 5.286,5.827 5.828,5.827c0.944,0 0.524,-0.731 -2.265,-3.937c-2.495,-2.869 -3.537,-4.795 -2.325,-4.297c0.896,0.369 4.407,4.655 4.771,5.824c0.359,1.156 1.995,2.283 1.995,1.375c0,-0.245 -0.947,-1.799 -2.104,-3.452c-3.03,-4.331 -3.061,-4.394 -2.14,-4.394c0.45,0 2.119,1.635 3.709,3.633c1.59,1.998 3.003,3.52 3.141,3.382c0.493,-0.492 -1.441,-3.443 -3.671,-5.601c-2.39,-2.315 -2.761,-3.08 -1.496,-3.08c0.424,0 2.183,1.749 3.91,3.886c3.11,3.849 4.253,4.471 6.579,3.578c1.162,-0.446 -0.588,-3.702 -3.766,-7.007c-1.373,-1.429 -2.497,-2.74 -2.497,-2.915c0,-0.174 0.571,-0.317 1.269,-0.317c1.488,0 4.129,3.179 6.059,7.292c1.069,2.28 1.473,2.674 2.491,2.431c0.668,-0.16 1.37,-0.04 1.56,0.267c0.524,0.849 1.389,0.664 1.389,-0.298c0,-1.135 -1.859,-4.567 -3.595,-6.639c-1.798,-2.146 -1.807,-1.37 -0.013,1.269c0.763,1.123 1.379,2.546 1.368,3.162c-0.019,1.038 -0.102,1.018 -1.134,-0.268c-4.064,-5.063 -4.952,-6.267 -4.952,-6.713c0,-0.699 1.52,-0.632 1.963,0.085c0.231,0.374 0.617,0.242 1.061,-0.365c0.627,-0.857 0.928,-0.661 2.987,1.944c1.26,1.594 2.558,3.944 2.886,5.223c0.902,3.528 0.913,3.545 2.298,3.845c0.712,0.153 1.731,0.463 2.266,0.688c0.796,0.334 0.971,0.116 0.971,-1.211c0,-0.89 -0.37,-2.103 -0.823,-2.696c-0.807,-1.055 -0.831,-1.051 -1.175,0.172c-0.473,1.679 -0.918,1.573 -1.805,-0.432c-0.409,-0.924 -1.594,-2.916 -2.634,-4.427c-2.873,-4.177 -2.484,-5.174 0.813,-2.08l1.922,1.804l-1.202,-1.751c-0.661,-0.963 -1.202,-1.9 -1.202,-2.082c0,-0.7 1.906,-0.285 2.944,0.641c1.049,0.936 1.076,0.928 0.715,-0.231c-0.393,-1.265 0.449,-2.284 1.064,-1.287c0.211,0.34 1.143,0.434 2.253,0.226c1.474,-0.277 1.973,-0.15 2.249,0.57c0.195,0.508 0.698,0.793 1.116,0.633c0.929,-0.357 2.426,0.163 2.426,0.842c0,0.273 0.467,0.963 1.038,1.534c2.178,2.178 2.929,10.619 0.944,10.619c-0.487,0 -0.879,-1.082 -1.136,-3.142c-0.4,-3.197 -1.374,-3.255 -1.392,-0.082c-0.011,2.068 -1.012,2.496 -1.429,0.61c-0.591,-2.673 -0.644,-2.705 -1.209,-0.716l-0.553,1.942l-0.412,-1.526c-0.662,-2.454 -1.402,-1.761 -1.402,1.314c0,2.674 -0.073,2.82 -1.249,2.506c-3.256,-0.869 -11.036,-1.568 -14.285,-1.282c-3.564,0.312 -7.364,1.341 -11.046,2.989c-1.254,0.561 -2.968,0.762 -5.155,0.603c-2.551,-0.184 -3.214,-0.075 -2.996,0.494c0.403,1.05 -3.244,0.96 -4.126,-0.102l0,0ZM70.771,78.331c-5.43,-1.178 -5.272,-1.383 0.782,-1.021c5.831,0.349 6.602,0.522 6.082,1.364c-0.429,0.694 -2.579,0.587 -6.864,-0.343l0,0ZM135.948,78.642c-0.194,-0.314 0.028,-0.408 0.522,-0.218c0.962,0.369 1.138,0.767 0.34,0.767c-0.288,0 -0.675,-0.247 -0.862,-0.549ZM111.784,76.657c-0.682,-1.794 -0.718,-3.985 -0.054,-3.267c0.579,0.626 1.369,4.691 0.911,4.691c-0.174,0 -0.56,-0.641 -0.857,-1.424l0,0ZM58.231,70.311c-0.194,-0.609 -1.59,-2.152 -3.104,-3.428c-1.873,-1.58 -2.57,-2.502 -2.184,-2.888c0.64,-0.64 4.455,2.705 4.455,3.906c0,0.387 0.499,0.971 1.11,1.298c0.61,0.327 1.11,0.96 1.11,1.407c0,1.198 -0.979,0.99 -1.387,-0.295l0,0ZM153.43,69.772c0,-0.296 0.375,-0.394 0.833,-0.219c0.457,0.176 0.832,0.418 0.832,0.538c0,0.12 -0.375,0.218 -0.832,0.218c-0.458,0 -0.833,-0.242 -0.833,-0.537ZM154.818,67.415c-0.916,-0.322 -1.915,-0.779 -2.221,-1.016c-0.305,-0.237 -1.494,-0.607 -2.643,-0.821c-1.925,-0.36 -3.474,-1.375 -2.097,-1.375c1.01,0 8.551,2.757 9.133,3.338c0.684,0.685 0.021,0.646 -2.172,-0.126l0,0ZM14.655,54.185c0,-1.078 2.792,-3.181 6.821,-5.135c5.089,-2.469 7.6,-3.56 8.999,-3.91c0.611,-0.152 1.735,-0.43 2.498,-0.617c0.764,-0.188 -1.229,0.927 -4.428,2.475c-3.199,1.549 -6.321,3.264 -6.939,3.812c-1.157,1.027 -6.069,3.956 -6.634,3.956c-0.174,0 -0.317,-0.261 -0.317,-0.581l0,0ZM19.651,44.301c0,-0.936 2.535,-3.18 4.441,-3.932c2.671,-1.053 7.843,-3.324 9.012,-3.955c0.531,-0.287 1.417,-0.521 1.971,-0.521c0.554,0 1.244,-0.218 1.534,-0.483c0.29,-0.266 1.277,-0.636 2.193,-0.823c1.098,-0.223 0.625,0.153 -1.388,1.104c-9.575,4.523 -12.24,5.885 -14.465,7.393c-2.574,1.744 -3.298,2.011 -3.298,1.217l0,0ZM35.09,43.84c0.4,-0.16 0.879,-0.14 1.063,0.044c0.185,0.185 -0.143,0.316 -0.728,0.292c-0.647,-0.027 -0.778,-0.158 -0.335,-0.336l0,0ZM141.495,42.554c-0.437,-0.707 0.849,-0.707 1.943,0c0.677,0.438 0.605,0.54 -0.383,0.547c-0.669,0.006 -1.371,-0.242 -1.56,-0.547ZM138.165,42.176c-0.611,-0.125 -1.735,-0.707 -2.498,-1.295c-1.382,-1.064 -1.376,-1.064 1.526,-0.147c1.603,0.507 2.914,1.124 2.914,1.371c0,0.247 -0.187,0.415 -0.416,0.374c-0.229,-0.042 -0.916,-0.178 -1.526,-0.303l0,0ZM42.41,33.675c0,-0.673 1.557,-1.406 2.014,-0.949c0.166,0.166 -0.22,0.58 -0.856,0.921c-0.803,0.43 -1.158,0.438 -1.158,0.028l0,0ZM131.276,33.16c-0.43,-0.272 -1.117,-0.366 -1.526,-0.209c-0.77,0.295 -1.066,-0.702 -0.328,-1.107c0.675,-0.371 4.024,0.702 4.024,1.289c0,0.671 -1.13,0.685 -2.17,0.027l0,0ZM62.949,12.502c0,-0.263 0.624,-0.478 1.387,-0.478c0.764,0 1.388,0.096 1.388,0.213c0,0.117 -0.624,0.332 -1.388,0.478c-0.763,0.145 -1.387,0.05 -1.387,-0.213ZM121.311,194.078c-1.446,-1.205 -2.297,-1.397 -2.297,-0.519c0,0.315 0.562,0.799 1.249,1.075c2.041,0.821 2.444,0.607 1.048,-0.556ZM127.895,194.754c0,-0.563 -4.052,-2.878 -5.037,-2.878c-0.438,0 -0.253,0.438 0.469,1.11c0.655,0.611 1.562,1.11 2.014,1.11c0.453,0 0.978,0.25 1.167,0.555c0.412,0.668 1.387,0.739 1.387,0.103l0,0ZM131.781,193.627c0,-0.954 -4.079,-3.593 -4.659,-3.014c-0.7,0.7 -0.275,1.269 1.745,2.335c2.326,1.229 2.914,1.365 2.914,0.679l0,0ZM135.964,191.909c-0.599,-0.971 -5.119,-2.924 -6.181,-2.672c-0.776,0.184 -0.247,0.631 1.998,1.69c3.193,1.506 4.73,1.867 4.183,0.982l0,0ZM138.442,190.488c-0.38,-0.458 -0.973,-0.824 -1.317,-0.815c-0.344,0.009 -0.141,0.385 0.452,0.833c1.384,1.047 1.743,1.04 0.865,-0.019l0,0.001ZM142.219,189.607c-0.301,-0.903 -5.992,-3.906 -6.642,-3.504c-0.759,0.469 -0.024,1.147 2.946,2.715c2.691,1.42 4,1.699 3.696,0.789l0,0ZM135.422,188.805c-1.403,-1.06 -2.306,-1.049 -1.421,0.019c0.38,0.458 1.098,0.825 1.595,0.815c0.759,-0.015 0.731,-0.148 -0.174,-0.833l0,-0.001ZM146.21,188.684c-0.006,-0.531 -7.408,-4.579 -8.374,-4.579c-1.132,0 0.085,0.999 3.756,3.085c3.222,1.831 4.625,2.285 4.618,1.494ZM148.422,187.019c-0.013,-0.438 -5.873,-4.317 -7.416,-4.909c-1.401,-0.538 -1.059,0.847 0.35,1.419c0.687,0.278 2.374,1.27 3.747,2.204c2.537,1.724 3.34,2.035 3.319,1.286ZM151.765,184.937c-0.381,-0.458 -1.039,-0.832 -1.465,-0.832c-0.425,0 -2.128,-0.9 -3.785,-2c-1.657,-1.1 -3.306,-1.902 -3.665,-1.783c-0.614,0.205 3.401,3.213 4.323,3.24c0.236,0.007 1.053,0.501 1.816,1.098c1.723,1.347 3.839,1.559 2.776,0.277l0,0ZM155.04,184.15c0.589,-0.372 0.219,-0.778 -1.519,-1.664c-1.263,-0.645 -3.473,-1.918 -4.912,-2.831c-1.747,-1.107 -2.8,-1.474 -3.172,-1.102c-0.731,0.731 -0.146,1.263 3.275,2.981c1.526,0.767 3.275,1.776 3.885,2.242c1.308,1 1.427,1.018 2.443,0.374l0,0ZM129.862,181.502c-0.228,-0.906 -0.558,-1.249 -0.887,-0.919c-0.33,0.329 -0.267,1.075 0.169,2.005c0.802,1.711 1.25,1.034 0.718,-1.086l0,0ZM158.079,181.996c0.34,-0.55 -9.582,-5.911 -10.058,-5.434c-0.553,0.553 0.534,1.355 4.911,3.621c4.585,2.375 4.761,2.437 5.147,1.813l0,0ZM161.088,180.476c-0.86,-0.86 -7.116,-4.367 -8.994,-5.041c-3.803,-1.366 -2.741,-0.448 2.846,2.462c4.873,2.538 6.999,3.429 6.148,2.579ZM161.987,177.079c-0.89,-0.713 -1.922,-1.297 -2.293,-1.298c-0.37,-0.002 -1.828,-0.648 -3.239,-1.435c-2.448,-1.367 -3.915,-1.456 -2.619,-0.16c1.083,1.083 8.736,4.787 9.262,4.483c0.279,-0.162 -0.22,-0.878 -1.111,-1.59l0,0ZM166.752,176.421c0,-0.257 -1.998,-1.406 -4.441,-2.552c-2.443,-1.146 -4.581,-2.31 -4.751,-2.586c-0.395,-0.639 -2.465,-0.658 -2.465,-0.022c0,0.263 1.686,1.273 3.747,2.242c2.061,0.97 4.372,2.106 5.135,2.524c1.625,0.89 2.775,1.053 2.775,0.394l0,0ZM169.524,174.252c-0.004,-0.484 -3.155,-2.36 -3.962,-2.36c-0.301,0 -1.935,-0.635 -3.632,-1.411c-1.698,-0.777 -3.222,-1.276 -3.388,-1.11c-0.444,0.444 -0.26,0.559 4.85,3.03c4.591,2.219 6.139,2.687 6.132,1.851l0,0ZM171.424,171.818c-0.448,-0.727 -10.147,-5.477 -11.181,-5.477c-2.17,0 1.706,3.192 4.011,3.303c0.611,0.03 2.36,0.754 3.886,1.61c2.67,1.497 4.003,1.726 3.284,0.564l0,0ZM173.969,169.735c0,-0.452 -3.313,-2.283 -4.132,-2.283c-0.196,0 -1.994,-0.766 -3.996,-1.703c-2.003,-0.936 -3.782,-1.56 -3.955,-1.387c-0.452,0.451 -0.379,0.496 5.421,3.285c5.333,2.565 6.662,2.981 6.662,2.088ZM177.161,167.034c0.12,-0.362 -1.499,-1.133 -3.851,-1.832c-2.233,-0.664 -5.238,-1.803 -6.678,-2.532c-3.022,-1.529 -3.21,-1.566 -3.21,-0.63c0,0.776 5.189,3.346 8.604,4.261c1.221,0.327 2.595,0.841 3.053,1.141c0.971,0.637 1.787,0.477 2.082,-0.408ZM178.964,164.109c0,-0.312 -0.562,-0.782 -1.249,-1.045c-3.904,-1.495 -10.822,-4.058 -11.657,-4.319c-1.942,-0.609 -0.959,1.327 1.111,2.184c1.144,0.474 3.58,1.494 5.412,2.268c3.476,1.467 6.383,1.883 6.383,0.912ZM180.63,161.872c0,-0.321 -0.937,-0.951 -2.082,-1.402c-1.145,-0.45 -2.571,-1.096 -3.169,-1.436c-0.598,-0.34 -2.346,-0.938 -3.885,-1.329c-1.54,-0.39 -3.361,-0.884 -4.048,-1.098c-0.768,-0.238 -1.249,-0.154 -1.249,0.217c0,0.333 1.436,0.997 3.192,1.477c1.756,0.48 3.626,1.111 4.156,1.403c0.53,0.292 1.454,0.531 2.054,0.531c0.599,0 1.29,0.351 1.534,0.779c0.244,0.429 1.068,0.895 1.831,1.035c0.764,0.141 1.451,0.289 1.527,0.331c0.076,0.042 0.139,-0.187 0.139,-0.508l0,0ZM183.151,159.088c0.529,-0.857 0.221,-1.014 -3.249,-1.656c-1.721,-0.318 -3.823,-0.94 -4.67,-1.382c-0.848,-0.442 -1.93,-0.805 -2.406,-0.807c-0.476,-0.002 -1.351,-0.37 -1.943,-0.819c-1.391,-1.052 -2.818,-1.068 -3.214,-0.036c-0.221,0.575 0.289,0.98 1.745,1.384c1.131,0.314 2.306,0.574 2.612,0.578c0.305,0.004 1.268,0.378 2.139,0.833c0.871,0.454 1.793,0.697 2.048,0.539c0.256,-0.157 1.291,0.218 2.302,0.834c2.009,1.225 4.062,1.461 4.636,0.532l0,0ZM183.145,156.043c-0.602,-0.455 -2.1,-1.095 -3.331,-1.423c-1.231,-0.328 -3.961,-1.327 -6.067,-2.219c-2.106,-0.893 -3.979,-1.472 -4.163,-1.287c-0.72,0.723 2.393,2.432 7.022,3.854c2.671,0.82 5.106,1.572 5.411,1.67c0.305,0.099 0.93,0.191 1.388,0.205c0.615,0.019 0.546,-0.19 -0.26,-0.8ZM185.791,153.518c-0.336,-0.336 -2.197,-1.058 -4.135,-1.603c-1.939,-0.546 -5.07,-1.578 -6.959,-2.293c-3.269,-1.237 -4.587,-1.236 -3.821,0.002c0.192,0.311 2.153,1.118 4.357,1.793c2.205,0.675 5.008,1.549 6.229,1.943c2.857,0.921 5.177,1.006 4.329,0.158l0,0ZM188.026,151.13c0.403,-1.05 -0.088,-1.442 -1.799,-1.44c-1.66,0.002 -8.889,-1.941 -11.634,-3.126c-1.03,-0.445 -2.028,-0.653 -2.219,-0.462c-0.54,0.54 1.618,1.891 4.082,2.555c1.227,0.331 3.48,1.061 5.006,1.623c1.527,0.561 3.4,1.123 4.163,1.249c0.764,0.126 1.549,0.263 1.745,0.304c0.196,0.042 0.491,-0.275 0.656,-0.703l0,0ZM189.511,148.373c0,-0.482 -1.171,-0.995 -3.192,-1.4c-1.755,-0.352 -5.262,-1.34 -7.793,-2.197c-3.467,-1.172 -4.562,-1.364 -4.441,-0.778c0.205,0.991 10.21,4.373 15.01,5.074c0.229,0.034 0.416,-0.281 0.416,-0.699ZM190.621,145.878c0,-0.649 -4.414,-2.296 -6.152,-2.296c-0.768,0 -1.634,-0.216 -1.924,-0.481c-0.66,-0.602 -5.707,-2.294 -6.844,-2.294c-0.61,0 -0.676,0.168 -0.239,0.606c0.862,0.862 9.557,3.833 11.247,3.843c0.778,0.004 1.789,0.251 2.247,0.547c1.039,0.671 1.665,0.7 1.665,0.075l0,0ZM192.157,142.916c-0.191,-0.572 -8.752,-2.865 -8.752,-2.344c0,0.104 -1.249,-0.438 -2.776,-1.205c-2.631,-1.322 -3.884,-2.908 -1.804,-2.284c0.535,0.161 2.97,0.902 5.413,1.648c6.311,1.927 9.159,2.316 9.159,1.25c0,-0.462 -0.437,-0.841 -0.972,-0.844c-0.534,-0.002 -3.969,-0.753 -7.632,-1.667l-6.662,-1.663l-0.971,1.174c-0.534,0.645 -0.971,1.366 -0.971,1.601c0,0.467 3.274,1.715 8.822,3.364c1.952,0.58 3.679,1.186 3.839,1.346c0.614,0.613 3.526,0.282 3.307,-0.376l0,0ZM194.035,137.185c-0.001,-0.298 -1.955,-0.986 -4.344,-1.53c-3.668,-0.835 -7.479,-1.931 -10.588,-3.045c-0.382,-0.137 -0.694,0.133 -0.694,0.598c0,0.797 5.657,3.035 7.771,3.076c0.458,0.009 2.207,0.376 3.886,0.817c3.353,0.879 3.969,0.892 3.969,0.084l0,0ZM194.748,134.159c2.042,-0.776 1.759,-1.663 -0.417,-1.31c-1.138,0.185 -3.945,-0.28 -7.355,-1.217c-6.931,-1.904 -8.567,-2.192 -8.567,-1.51c0,0.716 5.33,2.537 10.547,3.605c2.29,0.468 4.209,0.879 4.266,0.913c0.056,0.033 0.743,-0.183 1.526,-0.481l0,0ZM196.352,131.147c0.39,-1.015 -0.08,-1.442 -1.588,-1.442c-0.672,0 -2.692,-0.463 -4.487,-1.03c-3.484,-1.098 -10.758,-1.975 -10.758,-1.296c0,0.693 3.455,2.171 6.661,2.85c8.64,1.829 9.783,1.932 10.172,0.918l0,0ZM197.282,127.484c0,-0.61 -0.069,-1.11 -0.153,-1.11c-1.695,0 -10.271,-1.374 -12.298,-1.97c-3.388,-0.996 -3.647,-0.998 -3.647,-0.017c0,0.762 0.628,0.976 5.178,1.76c1.169,0.202 3.292,0.811 4.719,1.354c1.426,0.543 3.405,1.012 4.397,1.041c1.452,0.042 1.804,-0.164 1.804,-1.058l0,0ZM196.311,124.353c3.044,-0.504 2.541,-1.306 -0.833,-1.329c-1.602,-0.011 -4.912,-0.38 -7.355,-0.822c-5.24,-0.946 -6.817,-1.028 -6.078,-0.314c0.493,0.476 9.511,2.674 11.352,2.767c0.458,0.023 1.769,-0.113 2.914,-0.302l0,0ZM198.948,120.903c0,-0.872 -0.621,-1.094 -4.025,-1.439c-2.213,-0.225 -4.92,-0.5 -6.014,-0.611c-1.094,-0.112 -3.032,-0.438 -4.305,-0.724c-2.132,-0.478 -3.546,-0.023 -2.664,0.859c0.434,0.434 4.235,1.249 9.791,2.099c6.749,1.032 7.217,1.02 7.217,-0.184l0,0ZM199.405,117.308c0.133,-0.685 -0.228,-0.93 -1.388,-0.941c-2.303,-0.022 -11.232,-0.926 -13.641,-1.38c-1.642,-0.311 -2.081,-0.221 -2.081,0.425c0,0.539 0.808,0.94 2.359,1.171c1.297,0.193 3.233,0.503 4.302,0.688c2.998,0.519 9.095,1.191 9.714,1.07c0.305,-0.059 0.636,-0.524 0.735,-1.033l0,0ZM199.18,114.935c1.617,-0.62 0.984,-1.808 -0.926,-1.739c-2.242,0.081 -7.973,-0.524 -12.27,-1.296c-1.787,-0.321 -3.335,-0.498 -3.439,-0.394c-0.713,0.714 1.225,1.683 4.241,2.122c1.957,0.284 4.682,0.743 6.056,1.02c3.121,0.628 5.204,0.722 6.338,0.287l0,0ZM200.058,110.891c0,-0.913 -0.453,-1.057 -3.468,-1.099c-1.907,-0.027 -4.718,-0.285 -6.245,-0.573c-6.178,-1.167 -7.495,-1.226 -7.495,-0.337c0,0.462 0.206,0.839 0.457,0.839c0.252,0 2.687,0.369 5.412,0.821c2.726,0.451 5.954,0.909 7.176,1.017c1.221,0.108 2.657,0.238 3.192,0.289c0.615,0.059 0.971,-0.291 0.971,-0.957l0,0ZM200.335,107.501c0,-0.657 -1.114,-0.908 -5.273,-1.19c-2.9,-0.197 -6.743,-0.548 -8.54,-0.78c-2.686,-0.346 -3.22,-0.283 -3.008,0.358c0.165,0.495 1.825,1.02 4.549,1.438c2.36,0.362 4.588,0.785 4.951,0.939c0.363,0.155 2.159,0.233 3.991,0.174c2.543,-0.081 3.33,-0.303 3.33,-0.939l0,0ZM200.471,104.031c-0.149,-0.44 -1.131,-0.651 -2.683,-0.578c-1.347,0.064 -4.286,-0.248 -6.532,-0.693c-4.706,-0.934 -7.851,-1.045 -7.851,-0.277c0,1.157 5.074,2.064 12.12,2.167c3.925,0.057 5.124,-0.093 4.946,-0.619ZM200.613,101.117c0,-0.458 -0.187,-0.843 -0.416,-0.857c-1.787,-0.104 -12.122,-1.1 -14.572,-1.404c-2.571,-0.32 -2.94,-0.26 -2.337,0.38c0.842,0.894 9.557,2.517 14.133,2.633c2.503,0.063 3.192,-0.099 3.192,-0.752ZM200.613,98.123c0,-0.272 -0.395,-0.647 -0.878,-0.832c-1.936,-0.743 -5.514,-0.138 -4.915,0.831c0.401,0.648 5.793,0.649 5.793,0.001l0,0ZM192.842,97.548c-1.071,-0.62 -9.848,-1.425 -9.304,-0.853c0.584,0.615 4.117,1.233 7.361,1.288c1.821,0.031 2.489,-0.119 1.943,-0.435ZM200.318,95.316c0.2,-0.323 -0.087,-0.591 -0.644,-0.601c-2.075,-0.039 -12.495,-1.062 -14.344,-1.409c-2.11,-0.396 -2.735,0.54 -0.777,1.162c3.222,1.023 15.257,1.67 15.765,0.848l0,0ZM199.947,92.402c1.124,-1.124 0.79,-1.277 -2.803,-1.277c-1.908,0 -5.968,-0.19 -9.021,-0.424c-5.014,-0.383 -5.446,-0.342 -4.473,0.417c0.615,0.48 2.281,0.858 3.886,0.881c1.544,0.023 3.932,0.241 5.306,0.486c3.828,0.681 6.371,0.651 7.105,-0.083l0,0ZM200.058,88.905c0,-0.672 -0.886,-0.836 -4.58,-0.848c-2.518,-0.009 -6.423,-0.169 -8.676,-0.356c-3.357,-0.279 -4.051,-0.201 -3.842,0.432c0.268,0.812 4.519,1.312 12.796,1.505c3.498,0.081 4.302,-0.056 4.302,-0.733l0,0ZM196.866,86.051c1.224,-0.203 2.082,-0.657 2.082,-1.104c0,-0.591 -1.327,-0.779 -5.968,-0.842c-3.282,-0.045 -6.837,-0.107 -7.901,-0.139c-1.404,-0.041 -1.985,0.2 -2.116,0.881c-0.143,0.739 0.325,0.983 2.212,1.152c4.257,0.381 9.558,0.404 11.691,0.052l0,0ZM198.948,81.66c0,-1.137 -2.167,-1.504 -5.014,-0.847c-1.364,0.314 -4.681,0.577 -7.37,0.585c-3.152,0.009 -4.767,0.213 -4.543,0.575c0.211,0.341 3.596,0.543 8.637,0.516c6.745,-0.037 8.29,-0.191 8.29,-0.829ZM192.101,79.561c0.626,-0.626 0.023,-0.724 -3.006,-0.489c-1.603,0.124 -2.915,0.443 -2.915,0.709c0,0.548 5.352,0.349 5.921,-0.22ZM184.92,79.411c-0.185,-0.185 -0.663,-0.205 -1.064,-0.044c-0.443,0.177 -0.311,0.308 0.335,0.335c0.585,0.024 0.913,-0.107 0.729,-0.292l0,0.001ZM194.091,77.226c2.817,-0.259 3.747,-0.552 3.747,-1.181c0,-0.678 -0.45,-0.761 -2.36,-0.437c-3.509,0.595 -5.261,0.733 -9.825,0.772c-2.567,0.022 -3.935,0.232 -3.608,0.553c0.609,0.598 4.203,1.03 6.633,0.797c0.916,-0.087 3.352,-0.314 5.413,-0.504l0,0ZM196.482,73.902c0.993,-0.78 0.859,-0.818 -1.698,-0.47c-1.526,0.207 -4.773,0.553 -7.216,0.768l-4.441,0.39l6.139,0.08c4.756,0.062 6.382,-0.111 7.216,-0.768l0,0ZM194.95,72.018c0.825,-0.22 1.5,-0.758 1.5,-1.194c0,-0.436 -0.375,-0.698 -0.833,-0.582c-0.458,0.116 -2.081,0.321 -3.608,0.456c-2.053,0.182 -2.559,0.094 -1.943,-0.34c0.458,-0.323 1.411,-0.591 2.118,-0.595c1.738,-0.012 3.433,-0.98 3.433,-1.961c0,-0.635 -0.548,-0.731 -2.637,-0.458c-1.45,0.189 -3.011,0.527 -3.469,0.752c-0.458,0.225 -2.331,0.58 -4.163,0.789c-4.205,0.48 -5.274,0.792 -5.274,1.543c0,0.407 1.33,0.487 4.137,0.25c2.34,-0.198 4.273,-0.128 4.452,0.161c0.173,0.281 -1.438,0.684 -3.581,0.895c-2.144,0.211 -3.897,0.571 -3.897,0.801c0,0.495 11.608,0.06 13.765,-0.517l0,0ZM182.711,67.739c2.011,-0.539 1.437,-1.316 -0.971,-1.316c-1.604,0 -2.221,0.232 -2.221,0.833c0,0.876 1.104,1.043 3.192,0.483l0,0ZM192.425,66.346c1.301,-0.325 2.082,-0.847 2.082,-1.392c0,-0.681 -0.334,-0.781 -1.527,-0.458c-0.839,0.227 -2.881,0.698 -4.538,1.046c-3.943,0.828 -4.55,2.116 -0.78,1.653c1.475,-0.181 3.618,-0.563 4.763,-0.849ZM189.511,63.828c3.509,-0.911 4.401,-1.552 3.465,-2.488c-0.48,-0.48 -0.834,-0.483 -1.403,-0.011c-0.418,0.347 -3.363,1.027 -6.546,1.51c-6.904,1.05 -7.354,1.179 -6.867,1.966c0.458,0.741 6.856,0.191 11.351,-0.976l0,-0.001ZM188.355,61.112c1.612,-0.478 2.783,-1.018 2.603,-1.198c-0.18,-0.18 -0.09,-0.613 0.2,-0.962c0.562,-0.677 0.161,-3.075 -0.513,-3.075c-0.221,0 -1.618,0.365 -3.104,0.813c-1.486,0.447 -4.782,0.982 -7.325,1.188c-3.011,0.244 -4.547,0.59 -4.406,0.991c0.304,0.864 8.434,0.534 11.798,-0.479c1.476,-0.444 2.804,-0.687 2.95,-0.541c0.668,0.668 -1.188,1.412 -5.782,2.318c-5.219,1.03 -5.218,1.037 0.055,1.737c0.326,0.043 1.912,-0.313 3.524,-0.792l0,0ZM185.462,55.79c3.517,-0.586 4.848,-1.397 4.149,-2.528c-0.285,-0.46 -1.228,-0.349 -3.438,0.405c-1.675,0.572 -4.419,1.191 -6.099,1.376c-4.448,0.491 -5.551,0.782 -5.551,1.464c0,0.651 4.505,0.355 10.939,-0.717ZM183.983,52.78c3.609,-0.82 4.952,-1.55 4.213,-2.289c-0.174,-0.174 -2.024,0.234 -4.113,0.905c-2.089,0.672 -5.531,1.422 -7.65,1.668l-3.853,0.446l3.777,0.073c2.076,0.04 5.508,-0.321 7.626,-0.803l0,0ZM179.469,50.818c3.796,-0.593 6.711,-1.803 6.711,-2.786c0,-0.331 -0.324,-0.476 -0.72,-0.324c-1.938,0.743 -9.295,2.594 -11.625,2.924c-1.447,0.205 -2.504,0.578 -2.349,0.829c0.286,0.462 1.558,0.36 7.983,-0.643l0,0ZM167.862,50.663c0,-0.12 -0.388,-0.367 -0.861,-0.549c-0.494,-0.19 -0.717,-0.097 -0.523,0.218c0.326,0.527 1.384,0.78 1.384,0.331ZM178.328,48.006c5.512,-1.171 7.05,-2.036 5.815,-3.271c-0.324,-0.323 -1.366,-0.111 -2.754,0.559c-1.229,0.594 -4.4,1.526 -7.048,2.071c-4.738,0.975 -6.279,1.845 -3.287,1.856c0.84,0.002 4.113,-0.544 7.274,-1.215ZM178.131,44.963c3.386,-1.086 4.421,-1.818 3.654,-2.586c-0.504,-0.504 -9.665,1.998 -13.09,3.575c-1.865,0.858 6.364,-0.004 9.436,-0.989ZM175.807,42.188c2.674,-0.844 4.249,-1.622 4.109,-2.028c-0.125,-0.362 -0.828,-0.62 -1.561,-0.573c-1.995,0.129 -12.158,3.693 -12.158,4.264c0,0.716 4.587,-0.077 9.61,-1.663l0,0ZM170.663,40.296c2.843,-0.937 5.667,-2.052 6.276,-2.479c1.985,-1.39 -0.455,-1.63 -3.244,-0.319c-1.37,0.644 -2.642,1.171 -2.827,1.171c-1.606,0 -6.336,1.894 -6.336,2.537c0,1.072 0.21,1.041 6.131,-0.91l0,0ZM170.473,37.059c4.839,-1.519 5.823,-2.395 3.989,-3.552c-0.677,-0.427 -1.352,-0.218 -2.776,0.858c-1.034,0.782 -3.494,1.912 -5.465,2.512c-1.971,0.6 -3.687,1.4 -3.813,1.777c-0.281,0.844 1.274,0.537 8.065,-1.595l0,0ZM166.197,35.31c4.607,-1.716 6.661,-2.742 6.661,-3.329c0,-0.664 -1.819,-0.694 -2.526,-0.042c-0.57,0.527 -6.405,2.767 -8.437,3.238c-0.687,0.16 -1.249,0.511 -1.249,0.781c0,0.822 2.336,0.55 5.551,-0.648l0,0ZM164.923,32.723c2.838,-1.133 5.146,-2.32 5.129,-2.637c-0.017,-0.317 -0.791,-1.178 -1.72,-1.913c-1.673,-1.324 -1.706,-1.327 -3.439,-0.318c-2.618,1.523 -3.169,1.778 -6.19,2.861c-1.793,0.644 -2.41,1.067 -1.744,1.196c1.087,0.211 7.349,-1.858 8.557,-2.826c0.389,-0.312 0.889,-0.386 1.111,-0.163c0.77,0.772 -2.471,2.864 -5.604,3.616c-3.043,0.73 -3.571,1.085 -2.783,1.874c0.624,0.624 1.341,0.442 6.683,-1.69l0,0ZM152.042,32.007c-0.189,-0.305 -0.641,-0.551 -1.004,-0.546c-0.398,0.006 -0.329,0.223 0.171,0.546c1.067,0.69 1.259,0.69 0.833,0l0,0ZM30.112,30.579c0.963,-0.48 1.751,-0.945 1.751,-1.033c0,-0.473 -2.838,0.479 -3.382,1.135c-0.822,0.99 -0.52,0.971 1.631,-0.102l0,0ZM158.425,28.965c3.509,-0.979 6.718,-2.616 6.49,-3.31c-0.243,-0.739 -2.604,-1.123 -2.604,-0.423c0,0.447 -4.396,2.618 -7.355,3.632c-0.534,0.183 -0.971,0.617 -0.971,0.965c0,0.384 0.381,0.475 0.971,0.233c0.534,-0.22 2.096,-0.713 3.469,-1.097l0,0ZM157.472,26.38c2.509,-0.958 4.686,-1.853 4.838,-1.988c0.152,-0.136 -0.208,-0.601 -0.801,-1.035c-0.963,-0.704 -1.229,-0.645 -2.497,0.558c-0.781,0.741 -2.793,1.97 -4.472,2.731c-4.341,1.968 -2.476,1.799 2.932,-0.266l0,0ZM157.735,23.219c0.881,-0.67 1.073,-1.155 0.697,-1.756c-0.438,-0.701 -1.254,-0.446 -5.233,1.638c-3.447,1.806 -4.567,2.648 -4.165,3.132c0.418,0.505 1.381,0.334 4.018,-0.712c1.907,-0.757 4.014,-1.793 4.683,-2.302l0,0ZM151.594,22.259c2.231,-1.088 4.056,-2.185 4.056,-2.439c0,-1.015 -1.673,-1.011 -2.966,0.006c-0.755,0.594 -1.489,1.079 -1.631,1.079c-1.016,0 -5.356,2.39 -5.098,2.808c0.524,0.847 1.361,0.632 5.639,-1.454l0,0ZM147.195,20.904c3.684,-1.401 5.124,-2.296 5.124,-3.185c0,-0.961 -0.795,-0.877 -2.916,0.306c-7.066,3.943 -7.913,5.047 -2.208,2.879ZM145.333,18.531c3.331,-1.815 4.053,-2.754 2.368,-3.078c-1.183,-0.228 -7.713,3.701 -7.289,4.386c0.513,0.831 1.453,0.581 4.921,-1.308ZM44.48,18.35c-0.184,-0.185 -0.663,-0.205 -1.064,-0.044c-0.443,0.177 -0.311,0.309 0.336,0.335c0.585,0.024 0.913,-0.107 0.728,-0.291l0,0ZM46.851,17.575c0,-0.305 -0.235,-0.555 -0.522,-0.555c-0.288,0 -0.677,0.25 -0.866,0.555c-0.189,0.305 0.046,0.555 0.522,0.555c0.476,0 0.866,-0.25 0.866,-0.555ZM143.381,15.939c1.48,-0.755 2.211,-1.428 1.895,-1.744c-0.5,-0.501 -6.465,2.335 -7.111,3.38c-0.427,0.691 2.382,-0.19 5.216,-1.636ZM139.59,15.324c2.523,-1.272 3.62,-2.501 2.589,-2.897c-0.878,-0.336 -7.779,3.696 -7.243,4.232c0.45,0.45 1.991,0.007 4.654,-1.335l0,0ZM136.063,13.898c3.469,-1.902 3.88,-2.314 2.74,-2.752c-1.563,-0.599 -7.022,2.272 -7.022,3.694c0,0.899 1.544,0.559 4.282,-0.942l0,0ZM132.32,11.988c1.841,-0.935 3.347,-1.934 3.347,-2.22c0,-0.935 -1.344,-0.529 -3.831,1.156c-1.343,0.91 -2.655,1.655 -2.914,1.655c-0.259,0 -0.472,0.25 -0.472,0.555c0,0.789 0.149,0.745 3.87,-1.146l0,0ZM130.192,10.32c2.255,-1.151 2.629,-2.032 0.587,-1.383c-1.131,0.358 -3.898,2.532 -3.224,2.532c0.212,0 1.398,-0.517 2.637,-1.149l0,0ZM126.72,9.707c2.683,-1.612 2.641,-1.561 1.747,-2.114c-0.925,-0.572 -3.138,0.446 -4.683,2.154c-0.993,1.096 -0.997,1.167 -0.065,1.167c0.546,0 1.896,-0.543 3.001,-1.207l0,0ZM122.977,8.604c2.693,-1.217 3.071,-2.145 0.861,-2.114c-1.094,0.017 -4.269,2.254 -4.269,3.009c0,0.52 0.664,0.346 3.408,-0.895ZM119.621,7.487c1.67,-0.938 2.01,-1.369 1.534,-1.943c-0.886,-1.066 -1.489,-0.923 -3.301,0.788c-2.742,2.588 -1.837,3.18 1.767,1.155l0,0ZM115.736,6.631c1.97,-1.164 2.032,-1.697 0.248,-2.145c-1.72,-0.431 -5.3,1.846 -4.099,2.608c1.115,0.706 2.065,0.592 3.851,-0.463l0,0ZM110.925,5.394l1.625,-1.071l-1.348,-0.281c-3.849,-0.802 -6.565,-1.004 -15.744,-1.168c-10.791,-0.194 -18.831,0.809 -17.462,2.178c0.645,0.645 21.464,0.407 21.87,-0.25c0.516,-0.834 1.385,-0.657 1.385,0.283c0,1.179 1.818,1.032 4.131,-0.332c1.086,-0.641 1.975,-0.906 1.975,-0.588c0,0.317 -0.25,0.731 -0.555,0.92c-1.061,0.655 -0.547,1.388 0.971,1.384c0.84,-0.002 2.258,-0.486 3.152,-1.075l0,0ZM75.716,5.363c1.272,-0.408 1.225,-0.449 -0.555,-0.492c-1.069,-0.025 -2.318,0.196 -2.776,0.492c-0.654,0.423 -0.536,0.528 0.556,0.491c0.763,-0.026 2.012,-0.247 2.775,-0.491Z" style="fill:#000;fill-rule:nonzero;"/></svg>