<?xml version="1.0" standalone="no"?><!DOCTYPE svg PUBLIC "-//W3C//DTD SVG 1.1//EN" "http://www.w3.org/Graphics/SVG/1.1/DTD/svg11.dtd"><svg width="100%" height="100%" viewBox="0 0 254 247" version="1.1" xmlns="http://www.w3.org/2000/svg" xmlns:xlink="http://www.w3.org/1999/xlink" xml:space="preserve" style="fill-rule:evenodd;clip-rule:evenodd;stroke-linejoin:round;stroke-miterlimit:1.41421;"><path id="path3449" d="M129.071,244.019c0,-1.243 -0.825,-3.353 -1.835,-4.687c-1.009,-1.335 -1.853,-3.628 -1.875,-5.096c-0.022,-1.468 -0.84,-4.561 -1.819,-6.875l-1.779,-4.206l-0.55,5c-0.435,3.948 -0.493,3.742 -0.276,-0.975c0.286,-6.221 -1.283,-9.285 -2.231,-4.356c-0.39,2.031 -0.592,1.663 -0.714,-1.305c-0.101,-2.444 0.335,-3.824 1.065,-3.372c0.708,0.437 0.919,-0.063 0.494,-1.17c-0.909,-2.369 -2.947,-1.329 -3.067,1.565c-0.072,1.723 -0.287,1.651 -1.163,-0.387c-0.881,-2.05 -1.092,-1.713 -1.176,1.875c-0.147,6.364 -1.511,13.75 -2.539,13.75c-0.489,0 -0.448,-2.672 0.089,-5.937c0.538,-3.266 0.946,-8.188 0.908,-10.938c-0.044,-3.145 -0.613,-1.196 -1.533,5.253c-0.804,5.639 -1.944,10.701 -2.532,11.25c-0.591,0.551 -0.684,-1.243 -0.208,-4.003c0.474,-2.75 1.104,-8.375 1.401,-12.5c0.433,-6.029 0.322,-6.665 -0.567,-3.244c-0.608,2.34 -1.47,7.666 -1.914,11.836c-0.445,4.169 -1.061,7.832 -1.369,8.14c-1.364,1.365 -1.582,-0.938 -0.52,-5.517c0.633,-2.73 1.108,-6.652 1.056,-8.715c-0.092,-3.627 -0.125,-3.648 -1.006,-0.625c-0.835,2.862 -0.962,2.73 -1.5,-1.563c-0.323,-2.579 0.002,-5.319 0.724,-6.091c0.967,-1.033 0.627,-1.051 -1.291,-0.067c-4.165,2.136 -6.05,5.111 -7.57,11.947c-0.944,4.247 -1.513,5.348 -1.693,3.274c-0.233,-2.682 -0.521,-2.416 -2.028,1.875l-1.757,5l0.559,-4.687c0.308,-2.578 0.34,-4.688 0.071,-4.688c-1.071,0 -5.605,11.757 -5.605,14.534c0,3.785 -1.278,3.707 -4.163,-0.254c-1.812,-2.488 -2.202,-4.927 -1.875,-11.734c0.331,-6.886 0.095,-8.328 -1.191,-7.257c-0.882,0.735 -1.381,1.955 -1.109,2.711c0.669,1.859 -2.649,8.25 -4.283,8.25c-0.719,0 -0.423,-0.884 0.657,-1.964c2.709,-2.709 2.534,-5.022 -0.223,-2.936c-1.861,1.408 -1.954,1.393 -0.625,-0.097c0.859,-0.964 1.562,-2.109 1.562,-2.544c0,-1.073 -4.03,-0.705 -6.068,0.554c-0.967,0.597 -2.251,0.368 -3.103,-0.555c-1.117,-1.21 -1.084,-1.365 0.144,-0.671c0.956,0.541 2.57,-0.263 4.021,-2.004c3.035,-3.642 3.225,-5.653 0.319,-3.373c-1.942,1.523 -2.011,1.489 -0.614,-0.301c1.364,-1.749 3.063,-2.008 8.308,-1.268c0.622,0.087 0.2,1.188 -0.938,2.445c-1.138,1.258 -2.069,2.723 -2.069,3.257c0,1.531 7.476,-6.87 9.365,-10.523c1.036,-2.004 1.282,-3.974 0.627,-5.034c-0.592,-0.958 -0.762,-2.25 -0.378,-2.872c0.384,-0.622 1.113,-0.461 1.619,0.358c0.658,1.064 1.143,0.906 1.704,-0.557c0.508,-1.324 0.292,-1.74 -0.613,-1.181c-0.849,0.525 -1.15,0.183 -0.767,-0.872c0.347,-0.955 1.308,-1.581 2.135,-1.392c1.022,0.235 1.389,-1.25 1.145,-4.634c-0.198,-2.738 0.039,-5.378 0.527,-5.866c1.359,-1.359 1.054,-2.97 -0.563,-2.97c-1.672,0 -14.684,9.545 -16.948,12.433c-0.838,1.068 -1.541,1.454 -1.563,0.856c-0.047,-1.289 -8.966,5.215 -10.429,7.606c-0.558,0.912 -1.584,1.306 -2.28,0.876c-2.124,-1.313 -7.431,4.619 -6.729,7.521c0.344,1.421 0.302,1.88 -0.092,1.021c-0.985,-2.145 -4.869,-1.965 -6.76,0.312c-1.779,2.145 -5,2.515 -5,0.576c0,-0.715 1.137,-3.528 2.526,-6.25c1.389,-2.723 2.211,-4.951 1.826,-4.951c-0.384,0 0.448,-1.231 1.85,-2.735c4.663,-5.006 2.629,-5.35 -2.429,-0.412c-2.737,2.673 -5.333,4.503 -5.769,4.068c-0.436,-0.436 0.82,-2.261 2.79,-4.057c3.39,-3.09 3.414,-3.183 0.456,-1.734c-2.864,1.402 -2.979,1.354 -1.386,-0.578c1.002,-1.215 2.68,-1.81 3.958,-1.404c1.22,0.387 2.585,0.109 3.035,-0.617c0.449,-0.727 1.281,-1.034 1.849,-0.683c0.568,0.351 1.355,-0.203 1.749,-1.23c0.921,-2.399 -0.429,-2.372 -3.926,0.078c-1.558,1.091 -2.779,1.366 -2.779,0.625c0,-0.726 0.704,-1.329 1.563,-1.34c1.192,-0.014 1.174,-0.265 -0.075,-1.057c-1.23,-0.78 -0.814,-1.577 1.671,-3.206c1.82,-1.192 2.994,-2.482 2.609,-2.867c-0.385,-0.385 -2.721,0.842 -5.191,2.726c-2.47,1.884 -4.753,3.164 -5.073,2.844c-0.32,-0.32 0.891,-1.547 2.691,-2.726c1.8,-1.18 2.986,-2.43 2.637,-2.78c-0.349,-0.349 -2.36,0.64 -4.468,2.199c-2.108,1.559 -4.149,2.517 -4.536,2.131c-0.386,-0.387 2.138,-2.451 5.61,-4.587c3.472,-2.137 6.312,-4.171 6.312,-4.521c0,-1.624 -2.821,-0.198 -9.866,4.988c-4.202,3.094 -7.92,5.625 -8.262,5.625c-1.846,0 -0.137,-2.247 3.215,-4.227c2.11,-1.246 3.52,-2.583 3.133,-2.97c-0.388,-0.387 -1.736,0.23 -2.998,1.372c-2.488,2.252 -5.852,2.856 -4.597,0.825c0.425,-0.687 0.297,-1.25 -0.285,-1.25c-0.582,0 -1.126,-1.265 -1.209,-2.812l-0.152,-2.813l1.35,2.864c1.637,3.474 1.501,3.522 15.171,-5.389c7.93,-5.169 10.531,-7.47 9.314,-8.241c-1.31,-0.83 -1.198,-1.075 0.499,-1.09c1.203,-0.01 2.187,-0.581 2.187,-1.269c0,-1.587 -0.808,-1.574 -3.867,0.063c-1.349,0.722 -2.144,1.812 -1.767,2.422c0.688,1.114 -5.666,5.845 -14.991,11.162c-4.486,2.557 -4.678,2.583 -1.875,0.255c3.311,-2.75 2.652,-3.49 -1.248,-1.402c-1.864,0.997 -2.493,0.746 -3.127,-1.25c-0.839,-2.646 -2.507,-3.26 -3.684,-1.356c-0.388,0.628 -0.028,1.369 0.801,1.645c0.935,0.312 0.676,0.822 -0.682,1.343c-1.204,0.462 -1.876,0.332 -1.492,-0.289c0.384,-0.621 0.04,-1.348 -0.765,-1.617c-2.141,-0.713 7.681,-6.267 12.072,-6.826c2.063,-0.262 4.875,-0.61 6.25,-0.773c1.375,-0.162 3.625,-1 5,-1.862c2.174,-1.361 1.848,-1.468 -2.5,-0.818c-2.75,0.412 -5.843,1.069 -6.875,1.462c-1.031,0.392 -3.116,0.592 -4.633,0.445c-3.414,-0.332 -14.117,4.275 -14.117,6.076c0,0.726 -0.843,1.32 -1.875,1.32c-2.347,0 -2.372,-1.662 -0.091,-6.073c1.152,-2.227 1.38,-4.088 0.644,-5.251c-0.627,-0.99 -1.131,-2.363 -1.121,-3.051c0.011,-0.687 0.599,-0.253 1.308,0.964c0.709,1.218 1.877,1.851 2.596,1.406c0.85,-0.525 0.714,-1.182 -0.39,-1.882c-1.366,-0.866 -1.317,-1.078 0.253,-1.093c1.072,-0.01 3.04,-0.892 4.375,-1.959c2.335,-1.867 2.309,-1.912 -0.699,-1.198l-3.125,0.742l3.125,-1.946c3.093,-1.926 3.073,-1.939 -1.875,-1.28c-4.396,0.587 -4.622,0.503 -1.875,-0.692c1.719,-0.747 4.643,-1.141 6.497,-0.874c1.854,0.267 3.057,-0.024 2.672,-0.647c-0.385,-0.622 0.643,-0.955 2.283,-0.74c1.86,0.243 4.1,-0.727 5.951,-2.578l2.969,-2.969l-6.726,0.892c-8.413,1.116 -7.738,0.102 0.985,-1.479c5.557,-1.008 6.584,-0.887 7.043,0.827c0.441,1.652 0.562,1.611 0.681,-0.232c0.117,-1.804 1.107,-2.181 5.111,-1.945c5.154,0.304 7.424,-0.59 5.117,-2.015c-0.733,-0.453 -1.333,-0.306 -1.333,0.326c0,0.633 -1.547,0.844 -3.437,0.468l-3.438,-0.682l3.125,-0.998c2.859,-0.913 -12.449,-0.41 -26.25,0.864l-5.625,0.519l5,-1.102c2.75,-0.606 9.782,-1.505 15.625,-1.996c5.844,-0.492 11.469,-1.06 12.5,-1.264c1.032,-0.204 3.844,-0.451 6.25,-0.551c4.09,-0.168 4.191,-0.269 1.551,-1.541c-2.044,-0.986 -4.116,-0.978 -7.5,0.027c-5.508,1.636 -28.787,3.136 -24.051,1.549c1.719,-0.575 6.078,-1.102 9.688,-1.171c9.314,-0.177 8.994,-3.192 -0.479,-4.518c-2.659,-0.372 -7.084,-1.052 -9.834,-1.511c-2.75,-0.459 -7.25,-0.899 -10,-0.977c-10.298,-0.292 -16.263,-5.853 -7.812,-7.282c6.232,-1.054 21.84,-5.683 19.436,-5.765c-3.83,-0.129 -14.936,-2.801 -14.298,-3.439c0.343,-0.343 4.671,0.298 9.619,1.423c4.947,1.125 9.197,1.844 9.444,1.598c0.246,-0.247 -4.062,-1.751 -9.573,-3.344c-5.512,-1.593 -9.777,-3.14 -9.479,-3.438c0.298,-0.298 3.512,0.34 7.142,1.418c3.63,1.078 7.764,1.935 9.186,1.905c3.003,-0.065 -15.082,-6.153 -18.352,-6.178c-1.203,-0.009 -2.188,-0.579 -2.188,-1.267c0,-1.603 -0.291,-1.643 7.617,1.064c3.717,1.272 9.008,2.66 11.758,3.084l5,0.771l-5.39,-1.965c-8.48,-3.09 -5.607,-2.997 6.015,0.193c9.668,2.654 11.737,3.759 5.938,3.169c-1.203,-0.123 -2.188,0.322 -2.188,0.989c0,0.666 -1.265,0.906 -2.812,0.533c-2.157,-0.52 -2.485,-0.325 -1.409,0.833c1.069,1.151 2.633,1.18 6.562,0.122c2.838,-0.764 5.159,-1.912 5.159,-2.552c0,-0.639 0.985,-0.845 2.188,-0.458c1.783,0.573 1.852,0.466 0.372,-0.582c-0.998,-0.707 -2.225,-1.032 -2.726,-0.723c-0.501,0.31 -1.249,0.016 -1.662,-0.653c-0.414,-0.668 -1.67,-0.863 -2.792,-0.433c-1.248,0.48 -1.727,0.278 -1.235,-0.52c0.755,-1.221 -12.098,-7.872 -15.213,-7.872c-1.984,0 -11.629,-3.969 -11.05,-4.548c0.616,-0.616 19.1,5.524 23.718,7.879c1.91,0.974 4.02,1.434 4.687,1.022c0.667,-0.413 1.213,-0.245 1.213,0.373c0,1.252 6.271,4.421 7.103,3.589c0.291,-0.291 -1.401,-1.722 -3.76,-3.18c-2.359,-1.458 -9.059,-7.71 -14.888,-13.893c-9.671,-10.258 -13.455,-13.11 -13.455,-10.143c0,0.604 1.7,1.802 3.777,2.663c2.077,0.86 4.108,2.1 4.513,2.754c0.404,0.655 -0.986,0.301 -3.09,-0.787c-2.104,-1.088 -4.757,-1.979 -5.896,-1.979c-1.358,0 -1.815,-0.667 -1.327,-1.939c0.427,-1.113 0.218,-1.615 -0.491,-1.177c-1.807,1.117 -1.512,-2.599 0.327,-4.117c2.241,-1.849 10.956,-2.102 15.081,-0.437c1.936,0.781 4.064,1.42 4.729,1.42c0.666,0 4.145,1.431 7.731,3.179c3.587,1.748 5.396,2.339 4.021,1.315c-15.332,-11.428 -21.745,-16.528 -21.804,-17.341c-0.039,-0.535 3.51,1.715 7.887,5c16.698,12.532 20.996,15.347 23.429,15.347c1.381,0 2.178,-0.537 1.772,-1.195c-0.406,-0.657 -1.494,-0.905 -2.418,-0.551c-0.924,0.354 -3.296,-0.777 -5.272,-2.515c-1.977,-1.738 -2.978,-3.177 -2.225,-3.199c0.753,-0.022 2.387,1.085 3.631,2.46c2.604,2.878 5.47,3.451 3.125,0.625c-2.522,-3.038 0.564,-2.141 3.544,1.031c1.501,1.598 2.349,3.285 1.884,3.75c-0.464,0.464 -0.15,0.844 0.698,0.844c1.029,0 1.247,-0.932 0.653,-2.802c-0.788,-2.485 -0.657,-2.61 1.152,-1.109c1.123,0.932 1.734,2.193 1.357,2.803c-0.377,0.61 -0.089,1.108 0.639,1.108c2.466,0 1.34,-1.962 -4.302,-7.5c-3.093,-3.036 -5.625,-4.858 -5.625,-4.049c0,0.88 -0.879,1.142 -2.187,0.651c-1.916,-0.718 -1.974,-0.558 -0.472,1.289c0.943,1.16 1.322,2.109 0.841,2.109c-1.345,0 -21.805,-16.737 -21.872,-17.892c-0.033,-0.56 4.191,2.455 9.386,6.7c10.819,8.841 14,9.4 4.073,0.716c-3.631,-3.175 -5.976,-5.774 -5.213,-5.774c0.764,0 2.114,0.875 3.001,1.944c0.887,1.068 2.784,2.504 4.216,3.191c1.431,0.686 -0.64,-1.735 -4.602,-5.381c-3.963,-3.646 -7.197,-7.086 -7.188,-7.645c0.009,-0.559 2.127,0.983 4.705,3.427c4.831,4.579 8.56,6.243 4.881,2.179c-3.245,-3.586 -2.419,-4.73 1.056,-1.465c1.724,1.62 3.125,2.245 3.125,1.395c0,-0.848 0.563,-1.194 1.25,-0.77c2.387,1.475 1.233,-1.528 -1.875,-4.881c-1.718,-1.855 -3.11,-4.047 -3.091,-4.87c0.018,-0.824 1.68,0.47 3.691,2.876c3.899,4.663 4.697,10.161 1.327,9.136c-1.06,-0.322 -0.258,0.843 1.781,2.589c2.325,1.991 4.013,2.68 4.527,1.848c0.857,-1.386 4.906,3.409 4.871,5.768c-0.01,0.706 -0.564,0.441 -1.231,-0.591c-1.038,-1.606 -1.214,-1.614 -1.231,-0.052c-0.011,1.062 -2.356,-0.471 -5.617,-3.672c-3.08,-3.022 -5.992,-5.102 -6.472,-4.622c-0.48,0.48 0.211,1.664 1.535,2.632c1.323,0.968 1.984,2.182 1.468,2.698c-0.516,0.516 -0.006,1.969 1.133,3.228c2.339,2.583 4.829,3.117 3.393,0.726c-1.199,-1.996 2.302,0.586 8.807,6.495l4.89,4.442l-2.703,-3.942c-1.486,-2.169 -2.698,-4.7 -2.692,-5.625c0.006,-0.926 2.077,1.271 4.602,4.88c2.524,3.609 5.191,6.547 5.926,6.529c0.735,-0.019 2.743,-2.321 4.461,-5.116c4.028,-6.552 5.352,-7.111 14.375,-6.077l7.5,0.859l-6.46,0.184c-10.263,0.292 -12.904,2.242 -8.227,6.076c2.017,1.654 1.956,1.743 -0.789,1.15c-3.304,-0.715 -7.568,2.275 -4.825,3.383c0.853,0.345 0.145,0.711 -1.574,0.814c-2.882,0.172 -2.93,0.27 -0.625,1.26c1.684,0.724 1.888,1.11 0.625,1.182c-1.666,0.095 -1.666,0.241 0,1.318c1.449,0.936 1.022,1.237 -1.875,1.319c-3.231,0.092 -3.404,0.256 -1.25,1.181c2.309,0.993 2.262,1.091 -0.625,1.287l-3.125,0.213l3.125,1c2.084,0.668 2.396,1.043 0.938,1.126c-2.524,0.144 -2.929,2.117 -0.625,3.047c0.86,0.347 0.439,0.714 -0.938,0.817c-2.5,0.186 -2.5,0.186 0,1.26c2.179,0.937 2.018,1.105 -1.25,1.311l-3.75,0.235l3.75,0.954c3.681,0.937 3.689,0.957 0.459,1.103c-3.576,0.16 -6.258,5.147 -2.768,5.147c1.008,0 1.508,-0.523 1.113,-1.163c-0.396,-0.64 -0.148,-1.517 0.551,-1.949c0.699,-0.432 1.27,0.125 1.27,1.237c0,1.113 0.563,1.675 1.25,1.25c0.688,-0.424 1.25,-0.176 1.25,0.552c0,0.728 -2.109,1.412 -4.687,1.52c-4.302,0.18 -4.174,0.267 1.562,1.053l6.25,0.858l-5.625,0.373l-5.625,0.374l5,0.895c4.681,0.839 4.748,0.907 1.04,1.073c-2.178,0.098 -4.835,0.513 -5.905,0.924c-1.745,0.669 -1.748,0.943 -0.037,2.655c1.364,1.364 3.489,1.731 7.445,1.285c3.046,-0.344 5.233,-0.132 4.861,0.47c-0.372,0.601 -3.877,1.188 -7.79,1.304l-7.114,0.21l7.5,0.829l7.5,0.83l-7.5,0.381c-4.125,0.209 -6.093,0.608 -4.375,0.887c1.719,0.278 4.334,1.11 5.811,1.848c1.477,0.738 4.993,1.121 7.813,0.852c2.819,-0.269 5.126,-0.052 5.126,0.482c0,0.534 -2.7,0.97 -6,0.97c-3.3,0 -6.715,0.704 -7.589,1.563c-0.874,0.859 -1.482,1 -1.352,0.312c0.483,-2.543 -0.096,-4.375 -1.382,-4.375c-0.729,0 -0.938,0.626 -0.465,1.39c0.472,0.765 0.083,1.881 -0.864,2.481c-1.352,0.857 -1.371,1.095 -0.086,1.11c0.9,0.01 1.288,0.582 0.863,1.269c-0.438,0.709 0.612,1.25 2.427,1.25c2.003,0 3.198,-0.697 3.198,-1.866c0,-1.379 1.317,-1.814 5.052,-1.668c2.778,0.109 4.384,0.611 3.568,1.115c-1.007,0.623 -0.723,1.111 0.886,1.523c1.958,0.501 1.866,0.632 -0.525,0.751c-1.592,0.08 -4.033,-0.464 -5.425,-1.208c-2.146,-1.149 -2.461,-1.007 -2.078,0.937c0.353,1.79 1.61,2.291 5.739,2.291c2.907,0 5.286,0.422 5.285,0.938c-0.001,0.516 -3.236,0.929 -7.189,0.918c-5.102,-0.013 -6.644,-0.37 -5.313,-1.231c1.4,-0.904 0.766,-1.194 -2.5,-1.143c-3.463,0.055 -3.854,0.276 -1.875,1.063c2.5,0.994 2.5,0.994 0,1.642c-1.375,0.357 0.313,0.798 3.75,0.981l6.25,0.333l-5.625,0.874l-5.625,0.875l5.864,0.188c3.225,0.103 6.211,-0.375 6.636,-1.063c0.425,-0.687 1.724,-1.241 2.887,-1.23c1.707,0.015 1.778,0.231 0.369,1.123c-1.401,0.887 -1.278,1.223 0.625,1.711c1.303,0.334 -1.287,0.769 -5.756,0.967l-8.125,0.361l16.25,1.637l-8.75,0.426l-8.75,0.426l7.5,0.829c4.125,0.457 5.719,0.925 3.542,1.04c-2.177,0.116 -4.242,0.914 -4.589,1.773c-0.504,1.25 -0.65,1.25 -0.729,0c-0.054,-0.859 -0.73,-1.563 -1.502,-1.563c-0.969,0 -0.922,0.58 0.153,1.875c1.079,1.3 4.291,1.945 10.466,2.101c7.455,0.188 7.889,0.303 2.659,0.7c-9.557,0.726 -9.276,2.38 0.316,1.861c8.246,-0.446 8.354,-0.412 4.854,1.504c-1.969,1.078 -4.641,1.959 -5.938,1.959c-1.296,0 -2.357,0.459 -2.357,1.019c0,0.561 4.078,0.888 9.063,0.728c6.373,-0.204 7.949,0.006 5.312,0.709c-2.062,0.549 -3.013,1.065 -2.113,1.147c0.9,0.081 1.269,0.741 0.821,1.465c-0.541,0.877 -1.808,0.667 -3.779,-0.625c-3.899,-2.554 -5.67,-2.461 -4.655,0.245c0.685,1.829 0.508,1.935 -1.081,0.645c-1.54,-1.25 -1.901,-1.191 -1.901,0.312c0,2.229 3.488,2.451 5.583,0.355c0.834,-0.833 1.5,-0.944 1.5,-0.25c0,0.688 -0.675,1.925 -1.5,2.75c-1.166,1.167 -1.166,1.5 0,1.5c0.825,0 1.5,-0.513 1.5,-1.14c0,-1.577 7.912,-0.198 9.044,1.576c0.669,1.049 0.923,1.016 0.937,-0.123c0.011,-0.859 1.285,-1.523 2.832,-1.475c2.669,0.084 2.685,0.139 0.312,1.095c-2.339,0.941 -2.299,1.05 0.625,1.687c1.719,0.375 -1.093,0.523 -6.25,0.331c-5.156,-0.193 -8.101,-0.107 -6.544,0.189c1.557,0.297 2.507,1.064 2.111,1.705c-0.424,0.685 1.115,0.874 3.731,0.459c4.116,-0.654 6.438,1.076 2.988,2.226c-0.806,0.269 1.143,0.465 4.331,0.435c5.958,-0.054 6.422,-1.29 0.883,-2.352c-1.718,-0.33 0.368,-0.567 4.636,-0.528c4.298,0.04 7.448,0.577 7.061,1.204c-0.385,0.622 -1.627,0.779 -2.761,0.348c-1.505,-0.573 -1.69,-0.411 -0.685,0.603c2.145,2.162 14.249,0.989 14.249,-1.381c0,-0.61 0.657,-1.109 1.459,-1.109c0.802,0 1.091,0.367 0.644,0.815c-1.146,1.146 5.093,4.185 8.591,4.185c1.6,0 3.293,-0.622 3.764,-1.383c0.612,-0.99 1.12,-0.955 1.787,0.125c0.711,1.15 1.786,1.052 4.531,-0.411c3.201,-1.707 3.288,-1.899 0.787,-1.734c-1.547,0.102 -2.813,0.741 -2.813,1.419c0,0.679 -0.675,0.559 -1.5,-0.266c-0.825,-0.825 -3.497,-1.433 -5.937,-1.352l-4.438,0.148l7.5,1.909l-3.928,0.148c-2.446,0.092 -4.201,-0.561 -4.649,-1.728c-0.585,-1.523 0.619,-1.898 6.429,-1.999c5.353,-0.093 6.363,-0.367 4.023,-1.09c-2.363,-0.73 -1.504,-0.975 3.525,-1.005c8.125,-0.048 10.307,-1.464 2.621,-1.701c-3.036,-0.093 -4.247,-0.415 -2.69,-0.714c1.557,-0.299 2.509,-1.067 2.114,-1.705c-0.405,-0.655 2.447,-1.255 6.544,-1.376l7.261,-0.216l-8.125,-0.819l-8.125,-0.818l10,-0.437l10,-0.436l-8.75,-0.809l-8.75,-0.808l10.899,-0.221c9.117,-0.184 10.78,-0.527 10.178,-2.096c-0.395,-1.031 -1.255,-1.875 -1.909,-1.875c-0.655,0 -0.843,0.563 -0.418,1.25c0.495,0.801 -2.741,1.162 -8.988,1.006l-9.762,-0.245l8.721,-0.444c6.021,-0.306 8.15,-0.805 6.875,-1.611c-1.245,-0.787 -1.337,-1.173 -0.283,-1.186c0.859,-0.01 1.562,-0.615 1.562,-1.343c0,-0.728 -0.649,-0.923 -1.443,-0.432c-0.895,0.553 -1.104,0.343 -0.549,-0.555c0.625,-1.012 1.598,-1.07 3.236,-0.193c3.138,1.68 4.1,1.579 2.965,-0.309c-0.547,-0.911 0.044,-0.78 1.416,0.312c1.295,1.032 1.959,1.215 1.475,0.408c-0.51,-0.851 0.046,-1.746 1.322,-2.13c1.212,-0.363 0.094,-0.519 -2.483,-0.345c-6.189,0.416 -4.247,-1.373 2.186,-2.014l5,-0.498l-5.312,-0.21c-2.922,-0.116 -5.313,-0.717 -5.313,-1.336c0,-0.619 -1.687,-1.009 -3.75,-0.866c-2.062,0.143 -3.75,-0.171 -3.75,-0.697c0,-0.526 4.36,-1.148 9.688,-1.382l9.687,-0.426l-10.312,-0.252l-10.313,-0.252l-0.038,3.438c-0.031,2.825 -0.254,3.067 -1.252,1.357c-2.662,-4.561 -0.251,-6.043 9.862,-6.064c5.254,-0.01 10.397,-0.564 11.428,-1.231c1.667,-1.077 1.667,-1.215 0,-1.25c-1.666,-0.034 -1.666,-0.177 0,-1.293c1.283,-0.858 -1.68,-1 -9.375,-0.448c-6.187,0.444 -10.936,0.469 -10.552,0.056c0.384,-0.414 5.447,-1.121 11.25,-1.571c5.804,-0.45 10.787,-1.027 11.073,-1.281c0.287,-0.254 -4.213,-0.528 -10,-0.608c-5.786,-0.079 -9.455,-0.418 -8.152,-0.751c1.904,-0.488 2.026,-0.824 0.625,-1.711c-1.303,-0.825 -1.014,-1.109 1.143,-1.123c1.609,-0.012 2.544,0.533 2.113,1.23c-0.486,0.788 2.379,1.243 7.739,1.231c5.267,-0.011 7.862,-0.43 6.807,-1.098c-1.438,-0.912 -1.438,-1.185 0,-1.758c0.938,-0.372 -2.514,-0.819 -7.671,-0.992l-9.375,-0.314l8.125,-0.819l8.125,-0.818l-8.125,-0.42l-8.125,-0.419l6.875,-0.781c4.68,-0.532 7.773,-0.258 9.688,0.857c1.547,0.902 2.812,1.154 2.812,0.561c0,-2.209 -6.454,-3.977 -11.63,-3.185c-2.884,0.442 -4.867,0.394 -4.405,-0.106c0.462,-0.501 4.119,-1.21 8.125,-1.577c10.6,-0.97 10.145,-2.045 -0.555,-1.313c-5.53,0.378 -9.4,0.121 -9.881,-0.657c-0.434,-0.703 -0.186,-0.904 0.552,-0.448c0.739,0.456 2.155,0.017 3.149,-0.977c1.397,-1.397 2.159,-1.47 3.366,-0.324c1.232,1.171 1.382,0.891 0.711,-1.33c-0.795,-2.628 -0.456,-2.826 5.172,-3.016l6.021,-0.204l-6.875,-0.843l-6.875,-0.842l5.625,-0.381l5.625,-0.381l-5,-0.896l-5,-0.895l5.625,-0.355l5.625,-0.354l-5,-0.896c-3.126,-0.559 -3.867,-0.961 -1.979,-1.072c1.662,-0.098 2.651,-0.548 2.198,-1c-0.452,-0.452 -0.196,-1.577 0.57,-2.5c0.766,-0.923 0.964,-1.678 0.44,-1.678c-0.524,0 -1.592,0.875 -2.374,1.943c-1.577,2.158 -6.254,1.167 -4.892,-1.036c0.521,-0.843 0.036,-1.029 -1.323,-0.508c-1.179,0.452 -1.84,0.33 -1.468,-0.271c0.371,-0.602 -0.302,-1.861 -1.498,-2.798c-1.967,-1.543 -2.011,-1.497 -0.458,0.483c2.376,3.03 -0.185,2.761 -2.966,-0.313c-1.521,-1.681 -1.739,-2.5 -0.665,-2.5c1.283,0 1.289,-0.37 0.027,-1.891c-0.864,-1.04 -2.198,-1.817 -2.966,-1.727c-4.104,0.484 -8.327,-0.279 -7.646,-1.382c0.435,-0.703 -0.489,-1.206 -2.113,-1.151c-1.588,0.054 -2.184,0.383 -1.324,0.729c0.859,0.347 1.562,1.35 1.562,2.228c0,1.005 1.095,1.388 2.952,1.034c2.159,-0.413 4.651,0.892 9.283,4.86c5.696,4.882 8.754,8.831 5.076,6.558c-0.792,-0.489 -2.193,0.14 -3.112,1.398c-0.92,1.258 -2.035,1.925 -2.477,1.483c-0.442,-0.442 -1.922,0.618 -3.288,2.355c-1.367,1.737 -3.243,2.868 -4.169,2.512c-0.927,-0.355 -2.07,-0.023 -2.54,0.738c-0.577,0.933 -1.358,0.699 -2.393,-0.716c-1.386,-1.896 -1.61,-1.907 -2.3,-0.11c-0.42,1.095 -1.369,1.617 -2.108,1.16c-0.739,-0.457 -1.012,-1.697 -0.605,-2.756c0.594,-1.55 0.389,-1.635 -1.054,-0.438c-1.231,1.022 -2.048,1.075 -2.608,0.168c-0.448,-0.725 0.029,-1.643 1.06,-2.039c2.398,-0.92 1.175,-4.275 -1.538,-4.223c-3.102,0.06 -5.792,2.747 -5.903,5.898c-0.055,1.547 0.367,2.812 0.938,2.812c0.57,0 0.992,0.985 0.938,2.188c-0.059,1.307 -0.353,1.558 -0.73,0.625c-1.415,-3.508 -2.525,-1.227 -1.672,3.437c0.62,3.389 0.465,5.007 -0.48,5.02c-0.767,0.01 -0.587,0.53 0.4,1.154c1.487,0.941 1.515,1.473 0.159,3.106c-1.665,2.007 -0.472,2.68 1.796,1.014c1.482,-1.089 1.577,-4.042 0.199,-6.242c-0.645,-1.031 0.012,-1.949 1.908,-2.666c1.592,-0.602 3.175,-0.801 3.518,-0.444c0.344,0.358 -0.081,0.903 -0.945,1.211c-0.864,0.309 -1.268,1.05 -0.899,1.647c0.369,0.597 0.316,2.497 -0.117,4.223c-0.798,3.181 -3.69,4.767 -9.202,5.049c-1.67,0.086 -3.264,0.836 -3.541,1.667c-0.625,1.876 -8.592,2.007 -9.733,0.16c-0.46,-0.743 -2.192,-1.011 -3.85,-0.594c-2.19,0.549 -3.842,-0.07 -6.033,-2.261c-3.576,-3.576 -3.038,-7.968 1.103,-9.007c2.506,-0.629 2.75,-1.523 2.932,-10.74c0.177,-9.013 -0.055,-10.12 -2.244,-10.692c-1.344,-0.351 -2.134,-1.137 -1.758,-1.747c0.377,-0.609 0.089,-1.108 -0.639,-1.108c-2.184,0 -1.498,2.236 1.284,4.185c2.169,1.52 2.372,2.267 1.206,4.446c-1.765,3.298 -3.333,3.343 -4.176,0.119c-0.359,-1.375 -1.302,-2.5 -2.094,-2.5c-0.793,0 -1.133,0.499 -0.756,1.109c0.377,0.609 -0.153,1.803 -1.176,2.653c-1.024,0.849 -1.862,2.319 -1.862,3.267c0,0.947 -0.6,1.721 -1.334,1.721c-0.765,0 -0.996,-1.065 -0.541,-2.5c0.455,-1.434 0.225,-2.5 -0.54,-2.5c-0.734,0 -1.335,1.125 -1.335,2.5c0,1.375 -0.703,2.498 -1.562,2.496c-2.303,-0.007 -9.688,-4.754 -9.688,-6.227c0,-0.698 -1.406,-1.269 -3.125,-1.269c-1.718,0 -3.125,0.61 -3.125,1.355c0,2.238 -2.814,0.587 -3.871,-2.271c-0.816,-2.205 -0.568,-2.582 1.443,-2.195c1.336,0.257 2.428,-0.062 2.428,-0.71c0,-0.648 -0.703,-1.196 -1.562,-1.217c-0.86,-0.02 -0.438,-0.68 0.937,-1.466c1.375,-0.785 3.235,-2.456 4.134,-3.712c0.898,-1.256 2.376,-2.284 3.284,-2.284c2.96,0 4.719,-3.226 2.681,-4.917c-1.422,-1.181 -2.556,-1.074 -5.328,0.504c-2.766,1.575 -2.918,1.843 -0.708,1.25c1.547,-0.415 2.812,-0.204 2.812,0.469c0,0.673 -1.426,1.068 -3.169,0.876c-1.742,-0.191 -4.696,0.801 -6.562,2.205c-2.86,2.151 -2.743,1.857 0.744,-1.867c2.276,-2.431 6.429,-5.175 9.228,-6.099c2.8,-0.924 5.859,-2.449 6.8,-3.389c1.053,-1.053 1.709,-1.179 1.709,-0.327c0,0.996 0.7,1.009 2.5,0.045c1.695,-0.907 2.5,-0.921 2.5,-0.044c0,0.712 0.866,1.294 1.925,1.294c2.474,0 10.977,4.33 13.544,6.898c1.522,1.522 1.808,3.484 1.238,8.479c-1.001,8.765 -1.342,13.029 -1.54,19.224c-0.14,4.398 -0.61,5.289 -2.966,5.625c-3.492,0.498 -4.153,3.423 -1.51,6.674c1.732,2.129 1.915,2.164 1.31,0.248c-0.503,-1.595 0.222,-2.579 2.55,-3.464c3.898,-1.482 6.956,0.428 5.757,3.595c-0.713,1.885 -0.57,1.875 1.415,-0.092c1.394,-1.382 3.246,-1.928 5.023,-1.482c1.773,0.445 3.437,-0.043 4.496,-1.32c2.024,-2.438 2.976,-9.385 1.287,-9.385c-0.66,0 -0.876,0.844 -0.481,1.875c0.515,1.343 -0.117,1.87 -2.226,1.856c-1.621,-0.01 -2.384,-0.432 -1.697,-0.937c0.688,-0.505 1.329,-3.251 1.426,-6.101c0.14,-4.126 -0.37,-5.472 -2.5,-6.601c-1.472,-0.781 -1.709,-1.145 -0.528,-0.81c2.87,0.814 3.453,-0.505 1.892,-4.282c-1.919,-4.642 -1.802,-6.525 0.632,-10.193c2.462,-3.707 2.835,-5.345 0.953,-4.182c-2.447,1.513 -1.189,-0.212 2.793,-3.828c2.224,-2.019 2.98,-2.406 1.682,-0.859c-2.459,2.928 -1.14,3.978 1.58,1.258c0.854,-0.855 4.764,-2.428 8.687,-3.497c6.059,-1.65 7.754,-1.693 11.251,-0.281c2.264,0.914 4.655,1.33 5.312,0.923c0.658,-0.406 1.195,-0.142 1.195,0.586c0,0.757 2.275,1.233 5.313,1.113l5.312,-0.21l-4.928,-0.505c-3.573,-0.365 -4.432,-0.818 -3.125,-1.645c1.385,-0.877 1.078,-1.187 -1.322,-1.338c-2.123,-0.133 -1.521,-0.483 1.875,-1.092c4.842,-0.866 4.762,-0.907 -2.5,-1.276l-7.5,-0.381l6.875,-0.843c6.755,-0.827 6.701,-0.846 -3.125,-1.064c-9.035,-0.201 -9.698,-0.379 -6.875,-1.843c2.16,-1.121 3.403,-1.212 4.025,-0.295c0.622,0.918 1.682,0.842 3.437,-0.246c1.5,-0.929 2.538,-1.057 2.538,-0.312c0,0.693 0.985,1.243 2.188,1.222c1.916,-0.033 1.878,-0.222 -0.313,-1.529c-1.375,-0.821 -3.484,-1.577 -4.687,-1.681c-6.127,-0.529 -6.562,-0.751 -3.438,-1.752c2.429,-0.777 1.732,-0.99 -3.125,-0.955c-3.437,0.025 -4.984,0.29 -3.437,0.588c1.547,0.298 2.812,1.346 2.812,2.329c0,1.327 -1.534,1.74 -5.937,1.601l-5.938,-0.188l5.625,-0.875l5.625,-0.874l-6.636,-0.188c-4.136,-0.117 -6.34,-0.666 -5.851,-1.458c0.432,-0.699 1.27,-0.971 1.862,-0.605c0.593,0.367 1.431,0.095 1.863,-0.604c0.432,-0.699 2.58,-1.31 4.774,-1.358c3.362,-0.075 3.596,-0.257 1.488,-1.163c-1.375,-0.59 -1.797,-1.113 -0.937,-1.162c0.859,-0.048 1.562,-0.737 1.562,-1.531c0,-0.864 -0.918,-0.613 -2.286,0.625c-1.257,1.138 -3.085,2.06 -4.062,2.049c-1.476,-0.016 -1.46,-0.247 0.098,-1.368c1.613,-1.16 1.586,-1.257 -0.191,-0.691c-1.136,0.361 -3.051,-0.064 -4.255,-0.944c-1.91,-1.397 -1.647,-1.54 2.066,-1.122l4.255,0.48l-5,-1.899c-5.788,-2.198 -7.011,-2.39 -4.375,-0.687c1.603,1.036 1.557,1.215 -0.312,1.231c-1.203,0.011 -2.188,-0.543 -2.188,-1.231c0,-0.726 -3.795,-1.213 -9.062,-1.162c-6.224,0.061 -8.279,0.425 -6.563,1.162c2.199,0.945 2.078,1.085 -1.011,1.163c-2.04,0.051 -3.188,-0.436 -2.739,-1.163c0.425,-0.687 -0.086,-1.25 -1.137,-1.25c-2.974,0 -0.887,3.721 2.209,3.938c1.473,0.103 0.147,0.581 -2.947,1.062l-5.625,0.875l5.417,0.188c5.205,0.18 6.829,2.356 2.769,3.709c-0.989,0.33 -1.306,-0.018 -0.786,-0.859c0.593,-0.96 -0.722,-1.413 -4.099,-1.413c-6.008,0 -9.182,-1.074 -8.143,-2.755c0.423,-0.684 -0.564,-0.519 -2.194,0.367l-2.964,1.61l3.125,0.89c1.913,0.544 2.292,0.938 0.977,1.014c-1.453,0.084 -1.926,0.832 -1.46,2.312c0.655,2.083 0.602,2.083 -1.115,0c-0.991,-1.203 -3.147,-2.131 -4.789,-2.063l-2.988,0.125l6.25,2.001l-3.125,0.273c-2.962,0.258 -2.929,0.322 0.625,1.226c2.985,0.76 2.156,0.985 -4.062,1.103c-4.297,0.081 -7.813,-0.382 -7.813,-1.029c0,-1.736 2.653,-3.068 3.578,-1.796c1.162,1.6 3.922,1.932 3.922,0.472c0,-0.687 -0.562,-1.25 -1.25,-1.25c-0.687,0 -1.25,-0.433 -1.25,-0.963c0,-1.137 9.786,-6.594 12.5,-6.971c1.032,-0.144 2.438,-0.604 3.125,-1.024c0.688,-0.419 5.469,-1.664 10.625,-2.766c9.194,-1.965 14.433,-2.046 17.307,-0.27c2.004,1.239 1.862,-4.214 -0.318,-12.188c-2.022,-7.395 -6.919,-28.206 -7.707,-32.753c-0.293,-1.685 -0.792,-4.563 -1.111,-6.394c-0.844,-4.851 -2.901,-6.426 -3.641,-2.789c-0.335,1.646 -1.749,8.337 -3.142,14.868c-3.623,16.985 -5.341,25.983 -6.325,33.125c-0.677,4.917 -1.081,5.717 -1.893,3.75c-1.404,-3.403 -8.31,-10.625 -10.16,-10.625c-2.464,0 -8.954,-8.26 -9.909,-12.612c-1.693,-7.706 -10.209,-21.138 -13.403,-21.138c-0.614,0 -0.802,1.266 -0.418,2.813c0.383,1.547 0.385,2.141 0.004,1.32c-0.382,-0.821 -1.502,-1.182 -2.489,-0.804c-0.987,0.379 -1.794,0.033 -1.794,-0.769c0,-0.801 0.703,-1.1 1.562,-0.663c0.86,0.437 0.331,-0.296 -1.174,-1.628c-2.046,-1.811 -2.377,-2.78 -1.312,-3.845c1.944,-1.943 4.067,-1.786 5.912,0.438c0.85,1.023 2.005,1.577 2.567,1.229c0.562,-0.347 1.429,0.027 1.927,0.832c0.564,0.914 0.362,1.129 -0.539,0.572c-0.794,-0.491 -1.443,-0.344 -1.443,0.327c0,0.67 1.647,1.948 3.66,2.839c2.013,0.891 3.408,2.027 3.101,2.524c-0.308,0.497 0.653,3.05 2.134,5.672c1.481,2.623 3.8,6.881 5.153,9.462c1.353,2.582 2.906,4.969 3.451,5.306c1.938,1.198 3.628,-15.555 2.123,-21.042c-0.647,-2.356 -0.537,-3.273 0.328,-2.739c0.715,0.442 1.356,2.318 1.424,4.168l0.125,3.363l1.098,-3.125c0.846,-2.406 0.946,-1.974 0.434,1.875c-0.365,2.75 -0.976,6.055 -1.357,7.344c-0.418,1.418 -0.187,2.033 0.585,1.555c0.703,-0.434 1.555,-0.083 1.895,0.781c0.339,0.864 0.395,-0.68 0.124,-3.43c-0.42,-4.258 -0.315,-4.536 0.709,-1.875c0.919,2.387 1.034,1.649 0.491,-3.125c-0.392,-3.437 -0.379,-5.922 0.028,-5.522c1.395,1.37 2.943,12.436 1.837,13.119c-0.601,0.372 -1.049,1.346 -0.994,2.165c0.06,0.909 0.367,0.811 0.788,-0.251c0.95,-2.399 4.156,5.446 3.963,9.695c-0.116,2.536 -0.44,2.094 -1.408,-1.922c-0.941,-3.907 -2,-5.403 -4.219,-5.96c-4.371,-1.097 -4.744,-1.042 -5.225,0.77c-0.29,1.097 0.009,1.023 0.888,-0.219c1.119,-1.582 1.332,-1.484 1.364,0.625c0.025,1.629 0.37,1.979 0.989,1.004c1.556,-2.446 3.653,-0.121 5.249,5.818c1.039,3.864 1.792,5.013 2.46,3.75c1.493,-2.826 2.516,-11.197 1.369,-11.197c-1.384,0 -2.49,-6.15 -1.244,-6.92c0.543,-0.335 1.246,0.381 1.562,1.593c0.515,1.974 0.59,1.958 0.72,-0.16c0.08,-1.299 -0.636,-2.986 -1.59,-3.75c-0.954,-0.763 -2.019,-4.135 -2.365,-7.494c-0.347,-3.358 -0.186,-5.386 0.358,-4.506c0.729,1.18 1.14,0.979 1.565,-0.769c0.317,-1.303 0.322,0.725 0.011,4.506c-0.491,5.98 -0.224,7.08 2.051,8.449c2.69,1.618 3.211,0.808 1.816,-2.826c-0.637,-1.661 -1.013,-1.745 -1.856,-0.415c-0.702,1.108 -1.063,0.305 -1.076,-2.395c-0.01,-2.234 0.577,-4.063 1.305,-4.063c0.728,0 0.922,-0.649 0.432,-1.443c-0.553,-0.894 -0.343,-1.104 0.551,-0.551c0.793,0.491 1.499,2.968 1.568,5.506c0.107,3.905 0.401,3.367 1.92,-3.512c0.987,-4.468 1.545,-9.109 1.242,-10.312c-0.304,-1.203 -0.084,-2.188 0.488,-2.188c0.573,0 1.223,-0.703 1.446,-1.562c0.273,-1.057 1.998,-1.36 5.326,-0.938c4.334,0.551 4.707,0.849 3.125,2.5c-2.064,2.153 -2.456,11.252 -0.485,11.251c0.722,0 2.367,4.233 3.655,9.408c1.289,5.175 2.667,8.972 3.063,8.438c0.396,-0.534 1.423,-1.112 2.282,-1.284c1.898,-0.38 2.002,2.119 0.278,6.654c-0.707,1.859 -1.028,3.637 -0.714,3.952c0.315,0.314 1.77,-3.561 3.236,-8.611c4.394,-15.146 6.486,-21.251 7.08,-20.657c0.31,0.309 -0.832,4.987 -2.537,10.394c-4.11,13.031 -5.049,17.955 -3.423,17.955c1.571,0 3.896,-4.103 4.635,-8.181c0.714,-3.934 7.845,-22.838 7.936,-21.038c0.04,0.773 -0.686,3.585 -1.613,6.25c-0.926,2.664 -2.091,6.532 -2.588,8.594c-1.484,6.155 1.229,1.902 3.01,-4.719c0.883,-3.284 2.07,-6.257 2.638,-6.608c0.568,-0.351 0.276,1.877 -0.65,4.951c-1.603,5.326 -1.573,5.522 0.622,4.151c1.267,-0.791 1.827,-1.739 1.246,-2.107c-0.582,-0.367 0.021,-3.199 1.339,-6.293c2.125,-4.987 2.346,-2.285 0.259,3.155c-0.709,1.848 -0.457,1.942 1.869,0.697c1.48,-0.792 2.69,-2.015 2.69,-2.719c0,-0.704 -0.556,-0.936 -1.236,-0.516c-0.736,0.454 -0.911,-0.148 -0.432,-1.489c1.4,-3.924 1.954,-4.437 2.988,-2.764c0.711,1.15 1.261,0.625 1.864,-1.781c0.665,-2.649 0.228,-3.957 -1.953,-5.849c-2.525,-2.19 -2.593,-2.519 -0.666,-3.259c1.359,-0.521 3.134,0.169 4.851,1.886c2.289,2.289 2.709,4.139 2.709,11.93c0,5.071 0.422,8.96 0.937,8.641c0.516,-0.318 0.938,-1.355 0.938,-2.303c0,-0.953 1.118,-1.639 2.5,-1.535c1.915,0.144 2.311,0.782 1.694,2.725c-0.71,2.237 -0.562,2.335 1.251,0.831c3.058,-2.538 2.489,-0.552 -1.244,4.343c-1.815,2.379 -3.019,4.607 -2.675,4.95c0.519,0.52 2.029,-1.232 7.97,-9.245c0.174,-0.235 1.275,0.109 2.446,0.765c1.443,0.808 1.675,1.472 0.718,2.063c-0.775,0.48 -1.41,1.47 -1.41,2.201c0,0.787 0.861,0.629 2.108,-0.386c1.761,-1.434 1.71,-1.032 -0.313,2.443c-2.925,5.026 -5.545,7.491 -5.545,5.216c0,-1.241 -0.379,-1.241 -1.875,0c-1.397,1.16 -1.875,1.18 -1.875,0.08c0,-0.813 -0.563,-1.129 -1.25,-0.705c-0.688,0.425 -1.268,0.037 -1.29,-0.863c-0.024,-0.999 -0.766,-0.676 -1.902,0.828c-1.025,1.355 -1.568,3.233 -1.207,4.173c0.36,0.94 -0.471,3.142 -1.848,4.892l-2.503,3.183l0,-3.363c0,-1.862 2.231,-6.647 5,-10.725c5.54,-8.158 6.617,-11.458 1.836,-5.625c-1.69,2.063 -3.077,3.116 -3.08,2.341c-0.003,-0.775 0.838,-2.11 1.869,-2.966c2.66,-2.207 2.332,-4.056 -0.415,-2.341c-1.26,0.787 -2.914,3.083 -3.676,5.103c-1.189,3.149 -1.13,3.459 0.415,2.177c1.33,-1.104 1.801,-1.118 1.801,-0.052c0,0.793 -0.841,1.764 -1.868,2.159c-1.027,0.394 -1.581,1.181 -1.23,1.749c0.351,0.568 0.067,1.386 -0.632,1.818c-1.403,0.867 -1.751,8.49 -0.448,9.793c0.453,0.453 1.578,0.196 2.5,-0.569c2.117,-1.757 2.21,0.34 0.115,2.597c-1.25,1.347 -1.25,1.507 0,0.801c1.992,-1.124 2.036,0.793 0.063,2.765c-0.825,0.825 -1.188,1.5 -0.807,1.5c0.658,0 19.459,-22.415 21.301,-25.395c0.479,-0.774 1.178,-1.099 1.555,-0.722c0.377,0.377 -1.28,2.981 -3.682,5.788c-6.076,7.098 -5.427,8.47 0.748,1.579c2.772,-3.093 4.44,-4.39 3.706,-2.882c-0.734,1.509 -1.894,3.089 -2.578,3.512c-0.684,0.422 -1.227,1.438 -1.206,2.257c0.02,0.819 1.707,-0.349 3.75,-2.594c5.53,-6.079 4.389,-3.059 -1.287,3.406c-5.432,6.188 -5.672,7.994 -0.522,3.944c1.847,-1.453 2.897,-2.643 2.332,-2.643c-0.566,0 0.58,-1.677 2.544,-3.728c3.334,-3.48 3.436,-3.879 1.533,-5.982c-1.9,-2.1 -1.87,-2.254 0.442,-2.254c1.51,0 2.241,0.63 1.866,1.607c-0.339,0.884 0.033,1.607 0.828,1.607c0.795,0 -0.172,1.688 -2.148,3.75c-1.976,2.063 -3.117,3.75 -2.535,3.75c1.596,0 14.41,-9.921 14.41,-11.156c0,-2.125 4.218,-2.661 6.103,-0.776c1.713,1.713 1.518,2.329 -1.887,5.983c-5.991,6.429 -9.241,11.149 -8.5,12.346c0.375,0.607 0.086,1.103 -0.642,1.103c-0.728,0 -1.324,0.601 -1.324,1.336c0,0.734 1.687,0.133 3.75,-1.336c2.062,-1.468 3.75,-2.069 3.75,-1.335c0,1.952 2.025,1.631 4.345,-0.688c1.113,-1.113 2.419,-1.599 2.902,-1.079c0.483,0.52 0.175,1.196 -0.685,1.503c-0.859,0.307 -1.562,1.142 -1.562,1.857c0,0.795 0.714,0.706 1.84,-0.229c1.471,-1.221 2.241,-1.126 3.839,0.472c1.1,1.1 1.537,2.008 0.973,2.019c-0.565,0.01 -0.25,0.511 0.7,1.113c1.355,0.858 1.001,1.57 -1.637,3.298c-2.582,1.692 -2.983,2.473 -1.727,3.357c0.96,0.676 1.12,1.373 0.387,1.686c-1.643,0.701 -20.95,13.075 -22.281,14.28c-1.947,1.763 6.03,1.013 8.944,-0.841c1.603,-1.019 3.74,-1.535 4.75,-1.148c1.01,0.387 5.769,-1.276 10.576,-3.697c8.423,-4.242 11.157,-4.594 11.117,-1.431c-0.013,0.966 -0.406,0.878 -1.122,-0.253c-0.893,-1.41 -2.694,-0.852 -9.45,2.926c-4.592,2.568 -8.12,4.896 -7.842,5.175c0.279,0.278 3.73,-1.24 7.669,-3.373c3.939,-2.134 7.42,-3.622 7.736,-3.306c0.315,0.315 -1.968,1.921 -5.074,3.569c-3.107,1.648 -5.648,3.419 -5.648,3.936c0,0.517 -3.797,0.946 -8.438,0.953c-8.517,0.014 -18.623,2.36 -23.362,5.425c-1.416,0.916 -4.107,2.043 -5.98,2.504l-3.406,0.839l4.219,7.797c5.11,9.443 8.529,20.908 8.401,28.167c-0.151,8.512 -2.613,20.399 -5.463,26.375c-2.449,5.134 -2.482,5.598 -0.496,7.05c1.846,1.349 14.856,3.855 17.257,3.323c1.212,-0.269 10.724,3.161 16.643,6.001c2.75,1.319 7.531,2.747 10.625,3.174l5.625,0.775l-5.625,-5.229c-10.115,-9.404 -18.016,-15.288 -24.375,-18.152c-3.438,-1.549 -8.036,-4.431 -10.219,-6.405l-3.97,-3.589l2.613,-2.12c1.436,-1.166 6.879,-3.023 12.094,-4.126c5.215,-1.104 10.888,-2.513 12.607,-3.13c1.719,-0.618 7.344,-2.055 12.5,-3.194c15.246,-3.369 15.687,-4.629 2.735,-7.806c-14.008,-3.435 -32.465,-7.467 -38.606,-8.433c-2.615,-0.411 -4.924,-0.911 -5.132,-1.111c-0.208,-0.2 1.504,-1.527 3.804,-2.949c2.301,-1.422 5.716,-4.305 7.589,-6.407c1.873,-2.102 8.767,-6.431 15.32,-9.619c7.506,-3.652 11.692,-6.376 11.313,-7.362c-0.33,-0.861 0.627,-1.902 2.126,-2.313c1.577,-0.433 2.199,-1.144 1.476,-1.686c-2.277,-1.708 -1.915,-4.063 0.625,-4.063c1.389,0 2.5,-0.833 2.5,-1.875c0,-1.944 1.956,-2.581 2.878,-0.937c0.29,0.516 0.863,2.625 1.274,4.687c0.412,2.063 0.442,3.044 0.067,2.18c-0.376,-0.863 -1.197,-1.252 -1.826,-0.864c-1.978,1.223 -1.243,3.059 1.223,3.059c3.465,0 4.315,3.445 1.103,4.465c-1.774,0.563 -3.154,0.157 -4.164,-1.223c-1.343,-1.838 -1.591,-1.851 -2.255,-0.123c-0.409,1.068 -2.023,2.499 -3.585,3.18c-2.526,1.102 -2.391,1.192 1.222,0.812c2.235,-0.235 4.063,0.038 4.063,0.606c0,0.568 -1.547,1.105 -3.438,1.193c-6.405,0.297 -8.632,0.725 -11.037,2.122c-3.196,1.854 -1.811,1.802 10.725,-0.407c5.844,-1.029 10.7,-1.872 10.792,-1.873c0.659,-0.007 1.298,5.033 0.653,5.158c-7.311,1.422 -24.575,2.35 -22.07,1.187c1.897,-0.881 1.208,-1.072 -2.859,-0.791c-2.947,0.204 -5.638,0.65 -5.979,0.991c-1.275,1.275 12.395,2.279 19.727,1.449c5.678,-0.642 7.379,-0.489 6.703,0.605c-0.498,0.806 -1.566,1.384 -2.374,1.285c-5.032,-0.622 -14.593,0.321 -14.593,1.438c0,0.728 0.523,1 1.163,0.605c0.64,-0.396 1.517,-0.148 1.949,0.551c0.502,0.811 -2.178,1.27 -7.413,1.27c-4.51,0 -8.199,0.437 -8.199,0.971c0,0.534 2.109,0.828 4.687,0.654c13.786,-0.931 22.813,-0.972 22.813,-0.103c0,0.538 -4.078,1.082 -9.063,1.208l-9.062,0.229l10,0.708l10,0.708l-12.5,0.98c-6.875,0.538 -14.188,0.999 -16.25,1.023c-3.638,0.042 -3.657,0.072 -0.625,1.004c1.719,0.528 7.062,0.519 11.875,-0.021c4.812,-0.54 11.562,-0.941 15,-0.89l6.25,0.092l-5.625,1.001c-3.094,0.551 -8.953,1.043 -13.021,1.094c-4.068,0.051 -7.04,0.448 -6.605,0.883c0.435,0.435 6.294,0.803 13.021,0.819c9.758,0.023 10.967,0.203 5.98,0.888c-4.754,0.654 -5.277,0.907 -2.188,1.056c2.235,0.108 4.063,0.664 4.063,1.236c0,1.735 10.621,3.623 13.789,2.452c2.052,-0.76 3.448,-0.54 4.732,0.744c2.828,2.827 0.902,5.762 -3.794,5.782c-6.373,0.026 -10.289,1.332 -8.27,2.757c1.094,0.772 -0.16,0.922 -3.645,0.437c-3.237,-0.452 -5.312,-0.247 -5.312,0.524c0,0.695 1.935,1.264 4.301,1.264c2.366,0 4.657,0.576 5.092,1.28c0.526,0.851 -1.017,0.958 -4.614,0.32c-8.962,-1.591 -18.622,-0.683 -23.445,2.205c-1.282,0.767 0.527,0.901 5.228,0.387c4.78,-0.522 7.188,-0.336 7.188,0.558c0,0.809 -1.866,1.143 -4.688,0.839c-4.468,-0.48 -4.512,-0.45 -0.937,0.635c2.993,0.909 2.362,1.03 -3.125,0.597c-5.733,-0.453 -4.644,0.01 6.562,2.787c7.391,1.831 13.438,3.701 13.438,4.157c0,0.455 -4.005,-0.167 -8.899,-1.384c-4.895,-1.216 -11.223,-2.51 -14.063,-2.875c-5.639,-0.725 -5.583,-0.701 8.587,3.549c7.835,2.351 1.329,1.591 -8.75,-1.022c-4.125,-1.069 -8.625,-1.923 -10,-1.898c-1.375,0.026 5.531,2.177 15.347,4.782c9.815,2.604 18.164,5.053 18.552,5.441c0.388,0.388 0.049,1.732 -0.754,2.986c-1.251,1.957 -1.364,1.975 -0.793,0.131c0.54,-1.743 -0.938,-2.628 -7.809,-4.674c-14.069,-4.19 -17.876,-4.044 -5.244,0.201c6.49,2.181 11.192,4.168 10.449,4.416c-0.743,0.247 -4.396,-0.62 -8.118,-1.928c-3.721,-1.308 -8.293,-2.216 -10.158,-2.017c-1.866,0.199 -3.068,-0.163 -2.671,-0.805c0.397,-0.642 -0.437,-1.168 -1.852,-1.168c-1.416,0 -3.644,-1.069 -4.951,-2.376c-3.519,-3.52 -7.499,-4.532 -7.098,-1.805c0.175,1.194 1.113,2.385 2.084,2.646c1.38,0.372 1.357,0.186 -0.109,-0.85c-1.173,-0.829 -1.313,-1.333 -0.375,-1.345c1.687,-0.022 13.028,7.282 14.369,9.255c0.479,0.703 1.306,0.842 1.839,0.309c0.533,-0.533 0.142,-1.538 -0.869,-2.233c-1.366,-0.939 -1.034,-1.052 1.286,-0.44c8.258,2.18 22.5,7.354 22.5,8.176c0,0.508 -2.882,-0.172 -6.403,-1.51c-3.522,-1.338 -7.038,-2.22 -7.813,-1.959c-0.775,0.261 0.841,1.196 3.591,2.079c6.102,1.959 7.053,2.743 5.794,4.78c-0.776,1.255 -1.923,1.186 -5.573,-0.34c-2.528,-1.056 -4.596,-1.591 -4.596,-1.189c0,1.059 3.367,4.267 3.914,3.728c0.253,-0.25 3.273,0.261 6.711,1.136c8.396,2.136 8.678,5.541 0.625,7.56c-7.074,1.774 -10.618,1.55 -16.715,-1.054c-2.662,-1.137 -5.334,-2.068 -5.938,-2.068c-0.603,0 -1.097,-0.468 -1.097,-1.041c0,-0.573 -0.863,-1.042 -1.917,-1.042c-2.113,0 -2.063,0.052 4.943,5.192c2.696,1.977 4.491,2.93 3.989,2.118c-1.881,-3.042 1.403,-1.326 4.938,2.581c2.951,3.261 3.042,3.507 0.466,1.25c-4.767,-4.176 -5.933,-3.396 -1.716,1.148c2.145,2.311 0.396,1.271 -4.206,-2.5c-8.975,-7.355 -11.148,-8.282 -5.794,-2.471l3.672,3.984l-5.291,-4.072c-2.91,-2.24 -6.426,-5.515 -7.813,-7.278c-1.776,-2.258 -2.521,-2.622 -2.521,-1.233c0,1.085 1.141,2.772 2.536,3.749c1.395,0.977 5.107,4.186 8.249,7.131c3.832,3.592 6.011,4.873 6.619,3.89c0.627,-1.016 1.643,-0.6 3.313,1.356c1.985,2.325 2.019,2.519 0.19,1.101c-3.929,-3.045 -3.51,-0.675 0.549,3.104c2.478,2.307 3.651,2.874 3.175,1.535c-0.535,-1.508 -0.228,-1.923 1.058,-1.429c1.214,0.466 1.811,-0.139 1.811,-1.837c0,-3.851 1.324,-6.486 3.259,-6.486c0.957,0 1.741,0.563 1.741,1.25c0,0.688 -0.956,1.25 -2.125,1.25c-1.578,0 -1.762,0.364 -0.715,1.411c1.966,1.966 -1.735,8.498 -4.856,8.57c-1.548,0.036 -27.322,-23.941 -26.743,-24.878c0.319,-0.515 -0.234,-0.936 -1.228,-0.936c-1.207,0 -1.632,0.962 -1.281,2.896c0.678,3.743 1.758,5.437 3.465,5.437c0.754,0 0.299,-1.246 -1.011,-2.771c-3.966,-4.614 9.749,7.157 15.119,12.977l5,5.419l-5,-4.392c-2.75,-2.417 -6.915,-6.073 -9.255,-8.125c-2.568,-2.252 -3.97,-2.925 -3.536,-1.697c0.396,1.119 0.201,2.554 -0.433,3.189c-1.322,1.321 5.077,10.662 10.411,15.199c1.891,1.608 3.438,3.674 3.438,4.591c0,0.918 1.694,3.362 3.765,5.433l3.765,3.765l-2.793,1.956c-3.504,2.454 -6.127,2.526 -5.213,0.144c0.465,-1.213 -0.737,-2.411 -3.637,-3.622c-2.383,-0.996 -4.715,-2.43 -5.183,-3.188c-0.469,-0.758 -1.468,-1.378 -2.222,-1.378c-0.753,0 -0.352,1.125 0.893,2.5c1.283,1.418 1.637,2.5 0.819,2.5c-0.794,0 -1.444,-0.562 -1.444,-1.25c0,-0.687 -0.582,-1.25 -1.294,-1.25c-0.841,0 -0.888,0.766 -0.133,2.188c0.795,1.498 0.633,2.676 -0.515,3.737c-1.366,1.264 -2.554,0.234 -6.429,-5.573c-5.034,-7.542 -12.272,-15.352 -14.229,-15.352c-0.644,0 -0.491,1.089 0.339,2.42c0.831,1.33 1.847,2.211 2.258,1.957c0.411,-0.254 1.296,-0.077 1.966,0.393c1.994,1.398 5.792,7.892 5.051,8.633c-0.377,0.377 -1.688,-1.074 -2.913,-3.225c-2.273,-3.994 -4.604,-5.442 -3.303,-2.053c1.491,3.885 -0.727,1.643 -4.637,-4.687c-2.498,-4.044 -4.282,-5.891 -4.649,-4.813c-0.442,1.299 -1.217,0.977 -3.012,-1.25l-2.418,-3l1.435,2.92c0.79,1.606 1.116,3.239 0.726,3.629c-0.391,0.391 -1.553,-1.306 -2.583,-3.771c-1.03,-2.465 -2.485,-4.86 -3.233,-5.323c-0.749,-0.462 -0.156,1.522 1.318,4.411c1.474,2.888 2.403,5.528 2.065,5.866c-0.338,0.338 -1.415,-0.913 -2.393,-2.779c-1.482,-2.829 -1.912,-3.045 -2.583,-1.296c-0.443,1.154 -0.315,1.795 0.285,1.424c0.6,-0.37 1.787,1.007 2.637,3.06c0.851,2.054 2.102,3.734 2.779,3.734c0.678,0 0.876,0.93 0.44,2.066c-0.937,2.441 1.435,10.273 3.839,12.677c2.225,2.225 2.131,0.994 -0.281,-3.671c-1.082,-2.092 -1.684,-4.087 -1.338,-4.434c0.347,-0.346 1.806,1.675 3.243,4.491c1.525,2.99 2.039,5.121 1.233,5.121c-0.759,0 -1.134,0.704 -0.833,1.563c0.3,0.859 1.332,1.432 2.292,1.273c0.959,-0.159 3.027,1.951 4.595,4.688c1.567,2.737 2.374,4.976 1.794,4.976c-0.581,0 -2.028,-2.038 -3.216,-4.529c-1.188,-2.492 -2.459,-4.231 -2.824,-3.866c-0.365,0.365 0.263,2.455 1.396,4.645c1.132,2.191 1.775,4.267 1.428,4.614c-0.347,0.347 -2.05,-2.096 -3.784,-5.429c-1.734,-3.333 -3.175,-5.216 -3.203,-4.185c-0.027,1.032 1.068,3.563 2.434,5.625c2.678,4.045 3.236,6.228 1.283,5.021c-1.985,-1.227 -5.361,-9.238 -4.661,-11.061c0.355,-0.928 0.145,-2.479 -0.469,-3.448c-2.128,-3.362 -1.222,7.608 0.97,11.738c1.167,2.2 1.975,4.989 1.795,6.196c-0.181,1.208 0.552,2.474 1.627,2.813c1.075,0.339 2.893,0.916 4.039,1.282c1.537,0.492 1.717,1.033 0.685,2.065c-1.032,1.032 -3.3,0.809 -8.647,-0.851c-7.711,-2.394 -15.369,-9.158 -15.371,-13.576c-0.001,-1.626 -0.608,-2.088 -2.027,-1.544c-1.557,0.598 -1.873,0.196 -1.367,-1.741c0.362,-1.385 0.089,-2.519 -0.608,-2.519c-0.697,0 -0.943,-0.843 -0.547,-1.875c0.396,-1.031 0.114,-1.875 -0.627,-1.875c-0.828,0 -1.03,1.26 -0.525,3.271c0.451,1.799 1.182,5.034 1.623,7.188c0.784,3.83 0.819,3.847 1.584,0.791l0.782,-3.125l0.675,3.4c0.371,1.87 0.193,3.102 -0.395,2.739c-1.507,-0.931 -1.166,2.984 0.771,8.861c0.906,2.75 1.707,3.983 1.779,2.739c0.148,-2.557 2.631,-1.638 2.631,0.975c0,3.775 -4.432,0.891 -5.867,-3.818c-5.502,-18.058 -5.358,-17.667 -4.653,-12.619c0.366,2.627 0.997,5.72 1.402,6.875c0.487,1.389 0.318,1.676 -0.5,0.848c-0.68,-0.687 -1.928,-4.484 -2.774,-8.437c-0.846,-3.953 -2.03,-7.188 -2.633,-7.188c-0.602,0 -0.516,1.663 0.192,3.694c0.709,2.031 1.078,4.703 0.821,5.937c-0.257,1.235 -1.259,-1.253 -2.226,-5.528c-0.968,-4.274 -2.009,-7.522 -2.313,-7.218c-0.68,0.68 2.078,15.182 3.624,19.053c0.669,1.676 0.665,2.812 -0.011,2.812c-0.624,0 -1.79,-3.234 -2.59,-7.187c-3.774,-18.636 -3.993,-19.396 -5.091,-17.662c-0.601,0.948 -1.022,3.974 -0.934,6.724l0.158,5l0.895,-5c0.612,-3.418 0.96,-4.011 1.099,-1.875c0.112,1.719 0.94,6.641 1.84,10.938c1.899,9.063 0.659,10.712 -1.41,1.875c-1.341,-5.729 -1.374,-5.762 -0.931,-0.938c0.252,2.75 0.798,6.969 1.214,9.375c0.615,3.563 0.525,3.856 -0.484,1.575c-0.681,-1.541 -1.652,-5.76 -2.158,-9.375l-0.918,-6.575l-1.633,8.748c-1.066,5.708 -1.196,8.893 -0.376,9.167c1.827,0.609 1.586,7.779 -0.249,7.398c-0.828,-0.172 -1.601,0.391 -1.718,1.25c-0.118,0.859 -0.284,2.125 -0.37,2.812c-0.281,2.249 -3.906,1.31 -3.906,-1.011l-0.001,0ZM132.105,231.593c0.454,-4.641 1.104,-11.531 1.445,-15.313c0.696,-7.727 1.64,-15.056 2.655,-20.625c0.376,-2.062 0.645,-4.764 0.598,-6.004c-0.237,-6.197 8.778,-1.869 14.289,6.86c1.722,2.728 4.823,9.277 6.889,14.553c3.938,10.052 9.269,16.466 13.684,16.466c1.506,0 2.213,-0.552 1.722,-1.346c-1.597,-2.583 -4.328,-16.372 -3.507,-17.7c0.517,-0.838 0.231,-0.971 -0.762,-0.357c-1.215,0.751 -1.474,-0.236 -1.098,-4.182c0.271,-2.841 0.023,-5.165 -0.552,-5.165c-0.574,0 -0.711,-0.539 -0.303,-1.199c0.408,-0.659 0.16,-2.206 -0.551,-3.437c-1.848,-3.203 -4.232,-9.573 -3.994,-10.676c0.111,-0.516 -0.43,-0.938 -1.202,-0.938c-0.988,0 -0.956,-0.538 0.108,-1.82c0.831,-1.001 1.145,-2.411 0.699,-3.134c-2.301,-3.723 4.053,-1.946 14.493,4.054c21.589,12.406 33.598,18.611 35.071,18.119c0.86,-0.286 -0.346,-2.514 -2.932,-5.415c-2.417,-2.711 -8.215,-9.991 -12.885,-16.179c-4.67,-6.187 -10.351,-13.396 -12.625,-16.019c-2.498,-2.883 -3.874,-5.603 -3.478,-6.875c0.713,-2.287 0.652,-2.215 -7.76,9.144c-7.019,9.478 -25.794,20.581 -32.04,18.947c-1.238,-0.324 -1.964,-0.124 -1.613,0.443c0.99,1.603 -6.461,2.805 -16.648,2.687l-9.26,-0.108l0.815,3.391c0.448,1.864 1.349,5.64 2.001,8.39c0.653,2.75 3.185,10.625 5.628,17.5c2.442,6.875 5.281,15.172 6.308,18.438c1.028,3.265 2.343,5.937 2.924,5.937c0.581,0 1.427,-3.797 1.881,-8.437l0,0ZM85.992,227.267c1.854,-4.86 2.803,-6.143 11.632,-15.722c4.795,-5.203 10.133,-13.544 10.968,-17.14c2.177,-9.37 2.274,-8.994 -2.557,-9.9c-2.846,-0.534 -4.216,-1.365 -3.68,-2.231c0.503,-0.814 0.282,-1.027 -0.539,-0.52c-0.765,0.473 -5.211,-1.067 -9.88,-3.422c-8.257,-4.165 -13.552,-8.873 -18.339,-16.309l-2.338,-3.631l-1.577,3.749c-0.867,2.063 -6.083,11.622 -11.591,21.244c-12.391,21.646 -15.63,27.952 -14.788,28.794c0.361,0.361 4.442,-2.366 9.069,-6.059c14.238,-11.364 37.198,-27.07 38.72,-26.486c3.18,1.22 0.023,18.947 -5.216,29.285c-4.889,9.649 -6.18,16.679 -4.177,22.748c1.202,3.641 1.84,4.461 2.121,2.723c0.221,-1.366 1.198,-4.572 2.172,-7.123l0,0ZM94.748,221.197c1.345,-2.177 -0.187,-2.638 -1.902,-0.572c-0.985,1.188 -1.08,1.905 -0.251,1.905c0.731,0 1.7,-0.6 2.153,-1.333ZM75.321,216.013c0,-1.76 -2.331,0.111 -3.925,3.149c-1.428,2.724 -1.42,2.727 1.244,0.362c1.475,-1.31 2.681,-2.89 2.681,-3.511l0,0ZM107.399,210.968c-0.347,-0.86 -0.63,-0.156 -0.63,1.562c0,1.719 0.283,2.422 0.63,1.563c0.347,-0.86 0.347,-2.266 0,-3.125ZM116.269,207.218c-1.557,-4.489 -3.028,-4.365 -3.714,0.312c-0.634,4.321 1.069,5.168 1.884,0.938c0.33,-1.712 0.643,-0.855 0.8,2.187c0.199,3.862 0.482,4.431 1.24,2.5c0.54,-1.375 0.445,-4.047 -0.21,-5.937ZM151.665,206.28c0.648,0 0.484,-1.11 -0.364,-2.468c-1.799,-2.881 -3.629,-0.87 -2.876,3.161c0.251,1.338 0.582,3.276 0.738,4.307c0.156,1.032 0.517,0.328 0.804,-1.562c0.286,-1.891 1.05,-3.438 1.698,-3.438ZM109.033,203.78c0,-1.666 -0.135,-1.666 -1.212,0c-0.666,1.032 -1.211,2.719 -1.211,3.75c0,1.667 0.134,1.667 1.211,0c0.667,-1.031 1.212,-2.718 1.212,-3.75ZM111.175,206.046c-0.399,-0.997 -0.695,-0.701 -0.755,0.755c-0.054,1.318 0.241,2.056 0.657,1.641c0.415,-0.416 0.459,-1.494 0.098,-2.396l0,0ZM141.828,197.564c-1.096,-2.965 -1.102,-2.966 -1.812,-0.252c-0.391,1.497 -0.201,2.407 0.422,2.021c0.623,-0.385 1.21,0.88 1.304,2.811c0.122,2.532 0.312,2.798 0.678,0.953c0.28,-1.407 0.014,-3.897 -0.592,-5.533l0,0ZM145.543,200.972c-0.561,-3.82 -0.459,-3.948 1.73,-2.187c1.843,1.482 1.74,1.034 -0.496,-2.154c-3.208,-4.576 -5.007,-5.966 -6.19,-4.783c-0.45,0.45 -0.176,1.215 0.609,1.7c0.785,0.485 1.8,2.564 2.256,4.62c1.746,7.876 3.102,9.695 2.091,2.804l0,0ZM199.951,200.633c0.09,-3.18 -0.558,-4.762 -2.341,-5.716c-2.415,-1.292 -2.42,-1.247 -0.239,2.209l2.227,3.529l-2.763,-2.381c-1.52,-1.31 -2.764,-3.077 -2.764,-3.929c0,-0.851 -0.873,-1.882 -1.94,-2.292c-1.309,-0.502 -1.646,-0.241 -1.037,0.804c1.708,2.929 8.098,12.173 8.415,12.173c0.174,0 0.373,-1.978 0.442,-4.397l0,0ZM48.529,192.397c0.598,-0.967 1.219,-0.873 2.067,0.312c0.922,1.292 1.044,1.175 0.508,-0.491c-0.387,-1.203 -0.171,-2.188 0.481,-2.188c0.652,0 2.333,-2.25 3.736,-5c1.403,-2.75 2.285,-5 1.96,-5c-0.324,0 0.809,-1.51 2.52,-3.356c1.711,-1.846 2.827,-4.096 2.48,-5c-0.347,-0.904 -0.086,-1.644 0.58,-1.644c0.666,0 1.21,-0.519 1.21,-1.154c0,-0.635 -1.722,-0.295 -3.828,0.756c-2.105,1.05 -4.19,1.547 -4.632,1.104c-0.443,-0.443 0.429,-1.128 1.938,-1.522c1.51,-0.395 2.436,-1.216 2.06,-1.826c-0.377,-0.609 0.192,-1.108 1.264,-1.108c1.071,0 1.948,-0.594 1.948,-1.32c0,-0.729 -1.68,-0.328 -3.75,0.894c-3.394,2.005 -4.248,3.219 -3.943,5.602c0.056,0.44 -4.431,3.715 -9.97,7.278c-5.54,3.562 -9.793,6.756 -9.451,7.098c0.341,0.342 5.451,-2.526 11.354,-6.374c5.903,-3.847 11.723,-7.314 12.934,-7.704c1.845,-0.595 1.898,-0.495 0.326,0.613c-1.031,0.727 -1.875,1.823 -1.875,2.436c0,1.352 -7.431,7.745 -8.93,7.682c-0.588,-0.024 0.618,-1.428 2.68,-3.118c2.063,-1.691 3.188,-3.074 2.5,-3.074c-2.157,0 -8.943,6.14 -6.875,6.22c1.277,0.05 0.878,0.853 -1.25,2.517c-1.718,1.345 -2.455,2.457 -1.636,2.473c0.819,0.015 1.836,-0.535 2.261,-1.223c0.425,-0.687 1.335,-1.25 2.023,-1.25c0.687,0 0.902,0.563 0.477,1.25c-0.425,0.688 -0.21,1.25 0.478,1.25c0.687,0 1.597,-0.562 2.022,-1.25c0.425,-0.687 0.108,-1.25 -0.704,-1.25c-1.1,0 -1.08,-0.477 0.079,-1.875c0.856,-1.031 2.119,-1.875 2.807,-1.875c0.697,0 0.561,0.829 -0.307,1.875c-0.855,1.032 -1.065,1.896 -0.465,1.922c0.6,0.026 -1.16,1.986 -3.91,4.357c-2.75,2.37 -4.33,4.318 -3.511,4.328c0.819,0.01 1.874,-0.604 2.344,-1.365l0,0ZM118.785,183.546c-0.272,-0.816 -1.177,-1.618 -2.01,-1.781c-0.834,-0.164 -0.936,-0.01 -0.227,0.341c0.709,0.351 0.971,1.152 0.582,1.781c-0.388,0.629 -0.064,1.143 0.722,1.143c0.785,0 1.205,-0.668 0.933,-1.484l0,0ZM131.166,184.208c-0.453,-0.452 -0.196,-1.577 0.569,-2.5c1.12,-1.349 0.567,-1.66 -2.823,-1.59c-3.492,0.073 -3.786,0.273 -1.716,1.162c2.168,0.932 2.002,1.098 -1.25,1.25c-3.251,0.153 -3.417,0.319 -1.25,1.25c2.991,1.285 7.634,1.592 6.47,0.428l0,0ZM111.884,181.648c-1.547,-0.298 -4.078,-0.298 -5.625,0c-1.547,0.298 -0.281,0.542 2.812,0.542c3.094,0 4.36,-0.244 2.813,-0.542ZM34.997,176.795c3.036,-1.779 5.225,-3.531 4.863,-3.892c-0.361,-0.362 -2.581,0.531 -4.933,1.985c-4.875,3.013 -7.555,3.566 -3.907,0.807c1.335,-1.009 1.864,-1.835 1.176,-1.835c-0.687,0 -2.341,0.826 -3.676,1.835c-1.335,1.01 -1.723,1.835 -0.864,1.835c0.86,0 1.215,0.563 0.79,1.25c-1.26,2.04 0.693,1.448 6.551,-1.985l0,0ZM41.488,176.094c3.484,-2.166 6.333,-4.144 6.333,-4.397c0,-0.855 -12.317,5.777 -13.11,7.06c-1.258,2.036 0.036,1.527 6.777,-2.663l0,0ZM199.071,172.764c0,-0.559 -1.702,-2.646 -3.782,-4.639c-2.08,-1.993 -3.54,-4.255 -3.244,-5.026c0.296,-0.771 -0.268,-1.402 -1.252,-1.402c-2.13,0 -2.124,0.015 2.653,6.723c3.558,4.995 5.625,6.592 5.625,4.344ZM21.68,170.828c3.546,-1.851 18.425,-4.948 21.247,-4.423c1.934,0.36 17.357,-4.298 20.847,-6.297c5.579,-3.195 5.582,-3.203 2.938,-8.325c-1.385,-2.683 -2.818,-6.284 -3.184,-8.003c-0.366,-1.718 -1.539,-6.218 -2.607,-10c-1.741,-6.166 -1.709,-11.358 0.11,-17.604c0.517,-1.775 -0.224,-1.814 -7.174,-0.382c-4.262,0.878 -8.208,1.314 -8.768,0.968c-0.56,-0.346 -1.018,-0.097 -1.018,0.553c0,0.65 -2.671,1.558 -5.937,2.019c-7.685,1.083 -29.373,6.849 -30.751,8.175c-1.48,1.424 2.082,2.294 17.938,4.383c1.719,0.226 5.938,0.835 9.375,1.353c3.438,0.517 7.657,1.098 9.375,1.291c9.034,1.012 14.501,2.108 15.568,3.122c0.74,0.703 -0.899,3.264 -4.32,6.75c-5.721,5.829 -6.3,6.136 -14.06,7.445c-2.578,0.435 -4.688,1.513 -4.688,2.395c0,0.883 -2.857,2.943 -6.348,4.579c-5.974,2.798 -13.652,9.826 -13.652,12.497c0,1.631 1.268,1.508 5.109,-0.496l0,0ZM37.821,154.539c0,-0.27 0.873,-0.826 1.94,-1.236c1.113,-0.426 1.614,-0.217 1.177,0.492c-0.735,1.187 -3.117,1.756 -3.117,0.744ZM160.009,170.419c-1.203,-0.315 -3.172,-0.315 -4.375,0c-1.203,0.314 -0.219,0.571 2.187,0.571c2.407,0 3.391,-0.257 2.188,-0.571ZM76.727,162.197c-1.235,-1.225 -1.379,-1.082 -0.7,0.7c0.469,1.233 1.168,1.926 1.553,1.541c0.385,-0.384 0.001,-1.393 -0.853,-2.241l0,0ZM235.321,163.78c-2.448,-1.582 -4.102,-1.582 -3.125,0c0.425,0.688 1.724,1.242 2.887,1.231c1.821,-0.016 1.854,-0.186 0.238,-1.231ZM87.483,160.525c-0.416,-0.415 -1.494,-0.46 -2.396,-0.098c-0.997,0.399 -0.701,0.695 0.755,0.755c1.318,0.054 2.056,-0.241 1.641,-0.657l0,0ZM232.62,156.912c-0.34,-0.339 -3.864,-1.688 -7.831,-2.997c-3.967,-1.309 -6.572,-1.739 -5.788,-0.955c0.783,0.783 3.51,2.073 6.06,2.866c5.032,1.566 8.543,2.07 7.559,1.086l0,0ZM221.571,150.03c-1.031,-0.666 -2.437,-1.211 -3.125,-1.211c-0.687,0 -0.406,0.545 0.625,1.211c1.032,0.667 2.438,1.212 3.125,1.212c0.688,0 0.407,-0.545 -0.625,-1.212ZM178.134,149.148c-1.547,-0.298 -4.078,-0.298 -5.625,0c-1.547,0.298 -0.281,0.542 2.812,0.542c3.094,0 4.36,-0.244 2.813,-0.542ZM210.321,141.28c0,-0.687 -0.984,-1.241 -2.187,-1.23c-1.87,0.016 -1.915,0.195 -0.313,1.23c2.359,1.525 2.5,1.525 2.5,0ZM44.983,138.025c-0.416,-0.415 -1.494,-0.46 -2.396,-0.098c-0.997,0.399 -0.701,0.695 0.755,0.755c1.318,0.054 2.056,-0.241 1.641,-0.657l0,0ZM125.321,135.03c0,-0.687 -0.248,-1.25 -0.551,-1.25c-0.303,0 -0.899,0.563 -1.324,1.25c-0.425,0.688 -0.176,1.25 0.552,1.25c0.728,0 1.323,-0.562 1.323,-1.25ZM208.759,132.843c0.287,-0.86 -0.122,-1.563 -0.907,-1.563c-0.786,0 -1.043,0.623 -0.573,1.384c0.592,0.958 -0.442,1.151 -3.364,0.628c-3.172,-0.568 -3.598,-0.464 -1.719,0.418c3.182,1.494 5.897,1.135 6.563,-0.867ZM185.023,121.672c-1.195,-0.313 -3.445,-0.325 -5,-0.026c-1.554,0.299 -0.577,0.555 2.173,0.569c2.75,0.014 4.023,-0.231 2.827,-0.544l0,0.001ZM33.733,114.275c-0.416,-0.415 -1.494,-0.46 -2.396,-0.099c-0.997,0.4 -0.701,0.696 0.755,0.756c1.318,0.054 2.056,-0.241 1.641,-0.657l0,0ZM62.01,108.774c0.413,-2.065 0.757,-4.038 0.765,-4.383c0.007,-0.345 1.464,-3.492 3.239,-6.993c1.774,-3.502 2.906,-6.685 2.516,-7.075c-0.39,-0.39 -0.708,-0.194 -0.708,0.437c0.001,0.671 -4.788,0.804 -11.562,0.321c-10.199,-0.728 -12.743,-1.427 -21.564,-5.928c-9.635,-4.917 -19.375,-6.864 -19.375,-3.873c0,0.688 1.181,1.25 2.624,1.25c2.546,0 10.473,7.407 17.016,15.901c2.848,3.697 21.172,14.099 24.836,14.099c0.804,0 1.8,-1.69 2.213,-3.756l0,0ZM102.147,110.327c0.433,-1.123 -0.283,-1.354 -2.484,-0.802c-4.833,1.213 -9.342,-0.4 -9.342,-3.342c0,-1.403 -0.512,-2.233 -1.138,-1.846c-2.012,1.243 -0.605,5.022 2.442,6.561c3.684,1.859 9.711,1.533 10.522,-0.571ZM158.185,108.775c0.409,-1.565 1.341,-2.242 2.484,-1.803c1.027,0.394 2.168,-0.18 2.602,-1.31c0.448,-1.169 0.254,-1.692 -0.464,-1.248c-0.68,0.42 -1.244,-0.254 -1.254,-1.497c-0.015,-1.792 -0.339,-1.638 -1.563,0.741c-2.406,4.679 -5.232,5.93 -9.637,4.267c-4.295,-1.621 -4.598,-1.39 -1.817,1.391c2.891,2.891 8.839,2.558 9.649,-0.541l0,0ZM163.479,109.022c-0.384,-0.385 -1.393,-0.001 -2.241,0.853c-1.225,1.235 -1.082,1.378 0.7,0.7c1.233,-0.469 1.926,-1.168 1.541,-1.553ZM138.806,106.109c-0.312,-0.936 -0.879,-0.369 -1.321,1.321c-0.543,2.079 -0.381,2.567 0.547,1.64c0.726,-0.727 1.075,-2.059 0.774,-2.961l0,0ZM166.571,107.53c0,-0.687 -0.595,-1.25 -1.323,-1.25c-0.728,0 -0.977,0.563 -0.552,1.25c0.425,0.688 1.021,1.25 1.324,1.25c0.303,0 0.551,-0.562 0.551,-1.25ZM177.244,106.357c-0.399,-0.645 0.271,-1.753 1.489,-2.462c1.844,-1.074 1.484,-1.322 -2.162,-1.491l-4.375,-0.203l4.375,-0.921l4.375,-0.921l-5,-0.312c-4.902,-0.306 -4.926,-0.331 -1.25,-1.267l3.75,-0.954l-3.366,-0.148c-3.704,-0.162 -8.497,-5.36 -5.778,-6.266c0.836,-0.279 1.735,0.14 1.999,0.931c0.743,2.229 4.905,1.694 5.836,-0.75c0.667,-1.754 0.521,-1.878 -0.742,-0.625c-1.876,1.862 -4.049,2.092 -2.949,0.312c0.437,-0.706 -0.591,-1.25 -2.364,-1.25c-1.725,0 -3.673,0.959 -4.329,2.131c-1.006,1.799 -1.696,1.9 -4.437,0.651c-2.696,-1.228 -3.245,-1.166 -3.245,0.37c0,1.183 1.238,1.848 3.438,1.848c2.43,0 4.46,1.282 6.928,4.375c1.92,2.407 4.293,4.375 5.273,4.375c1.071,0 1.496,0.749 1.063,1.875c-0.395,1.032 -0.063,1.875 0.738,1.875c0.802,0 1.132,-0.528 0.733,-1.173l0,0ZM99.696,103.693c0,-0.964 -0.94,-1.934 -2.089,-2.156c-1.574,-0.303 -1.92,0.245 -1.403,2.222c0.744,2.845 3.492,2.794 3.492,-0.066l0,0ZM104.801,102.53c0.974,0 1.77,-0.843 1.77,-1.875c0,-1.031 -0.595,-1.875 -1.323,-1.875c-0.728,0 -0.923,0.65 -0.432,1.444c0.552,0.894 0.343,1.103 -0.551,0.551c-0.794,-0.491 -1.444,-0.624 -1.444,-0.296c0,0.328 -0.189,1.346 -0.42,2.262c-0.231,0.915 -0.184,1.242 0.104,0.727c0.289,-0.516 1.322,-0.938 2.296,-0.938l0,0ZM114.696,101.155c0,-3.101 -0.998,-4.577 -5,-7.392c-2.75,-1.934 -6.406,-3.841 -8.125,-4.237c-2.777,-0.641 -2.726,-0.535 0.459,0.952c2.97,1.385 3.218,1.813 1.45,2.491c-1.174,0.451 -2.733,0.45 -3.465,-0.003c-0.817,-0.505 -0.96,-0.223 -0.371,0.73c0.528,0.854 2.022,1.275 3.32,0.935c1.299,-0.34 2.084,-0.169 1.745,0.379c-0.339,0.549 0.765,1.902 2.454,3.009c4.584,3.003 5.226,2.431 1.327,-1.183c-1.896,-1.757 -3.166,-3.475 -2.822,-3.819c0.951,-0.951 7.832,5.88 7.404,7.351c-0.365,1.25 0.567,4.662 1.273,4.662c0.193,0 0.351,-1.743 0.351,-3.875l0,0ZM148.355,102.407c1.005,-1.074 0.678,-1.092 -1.307,-0.074c-1.456,0.748 -2.947,1.061 -3.312,0.695c-0.365,-0.365 -1.017,-0.093 -1.448,0.604c-1.058,1.713 4.335,0.624 6.067,-1.225l0,0ZM156.571,102.53c0,-0.687 -0.562,-1.25 -1.25,-1.25c-0.687,0 -1.25,0.563 -1.25,1.25c0,0.688 0.563,1.25 1.25,1.25c0.688,0 1.25,-0.562 1.25,-1.25ZM199.696,102.53c-0.424,-0.687 0.386,-1.25 1.802,-1.25c1.415,0 2.573,-0.595 2.573,-1.323c0,-0.728 -0.703,-0.927 -1.562,-0.442c-1.077,0.608 -1.174,0.459 -0.313,-0.48c0.688,-0.749 4.344,-1.571 8.125,-1.827l6.875,-0.465l-7.668,-0.231c-6.9,-0.208 -7.872,0.077 -9.688,2.849c-2.366,3.612 -2.493,4.419 -0.695,4.419c0.728,0 0.976,-0.562 0.551,-1.25l0,0ZM205.634,102.953c-0.859,-0.347 -2.266,-0.347 -3.125,0c-0.859,0.346 -0.156,0.63 1.562,0.63c1.719,0 2.422,-0.284 1.563,-0.63ZM212.821,102.647c0,-0.623 -1.125,-0.838 -2.5,-0.479c-1.375,0.36 -2.5,0.87 -2.5,1.133c0,0.264 1.125,0.479 2.5,0.479c1.375,0 2.5,-0.509 2.5,-1.133ZM140.804,100.576c0.42,-1.094 1.389,-1.559 2.202,-1.057c0.88,0.544 1.115,0.353 0.596,-0.486c-0.486,-0.788 0.643,-2.196 2.62,-3.268c1.911,-1.037 2.847,-1.907 2.08,-1.935c-0.766,-0.027 -2.905,1.14 -4.753,2.593c-3.772,2.967 -5.696,2.504 -2.573,-0.619c1.815,-1.814 1.821,-2.024 0.06,-2.024c-1.081,0 -1.965,0.632 -1.965,1.403c0,0.919 -0.755,0.811 -2.187,-0.312c-1.936,-1.518 -2.009,-1.486 -0.636,0.274c0.853,1.095 1.182,2.361 0.729,2.813c-0.452,0.452 -0.106,0.822 0.77,0.822c0.901,0 1.28,0.814 0.872,1.875c-0.395,1.032 -0.235,1.875 0.358,1.875c0.592,0 1.414,-0.879 1.827,-1.954l0,0ZM97.436,99c2.618,0.223 4.901,-0.157 5.073,-0.845c0.172,-0.687 -0.25,-1.32 -0.938,-1.406c-0.687,-0.086 -1.531,-0.297 -1.875,-0.469c-1.66,-0.83 -3.9,-0.666 -5.312,0.389c-0.859,0.642 -1.563,0.798 -1.563,0.345c0,-0.452 -1.14,-0.211 -2.535,0.535c-1.394,0.746 -2.188,1.918 -1.763,2.605c0.501,0.811 1.363,0.757 2.462,-0.155c0.93,-0.772 3.833,-1.221 6.451,-0.999l0,0ZM149.696,97.53c1.649,-0.708 1.862,-1.097 0.625,-1.143c-1.031,-0.037 -2.718,0.477 -3.75,1.143c-2.285,1.477 -0.311,1.477 3.125,0ZM177.509,95.419c-1.203,-0.315 -3.172,-0.315 -4.375,0c-1.203,0.314 -0.219,0.571 2.187,0.571c2.407,0 3.391,-0.257 2.188,-0.571ZM211.884,94.148c-1.547,-0.298 -4.078,-0.298 -5.625,0c-1.547,0.298 -0.281,0.542 2.812,0.542c3.094,0 4.36,-0.244 2.813,-0.542ZM96.928,91.656c-0.467,-1.217 -1.019,-1.514 -1.292,-0.695c-0.262,0.786 -1.424,1.126 -2.583,0.756c-1.8,-0.575 -1.834,-0.476 -0.232,0.676c2.885,2.075 5.038,1.689 4.107,-0.737ZM148.864,91.435c1.334,-0.846 1.259,-1.213 -0.378,-1.841c-1.124,-0.432 -1.726,-0.269 -1.336,0.361c0.39,0.631 -0.565,1.391 -2.123,1.691c-2.42,0.465 -2.468,0.566 -0.331,0.695c1.375,0.083 3.251,-0.325 4.168,-0.906l0,0ZM160.916,91.039c4.053,1.847 4.405,1.85 4.405,0.033c0,-0.802 -0.37,-1.088 -0.822,-0.636c-0.452,0.453 -1.465,0.29 -2.25,-0.362c-0.784,-0.651 -3.649,-1.415 -6.365,-1.698c-2.716,-0.283 -3.703,-0.273 -2.194,0.021c1.906,0.373 2.538,1.181 2.07,2.647c-0.554,1.734 -0.446,1.789 0.604,0.307c1.041,-1.469 1.886,-1.527 4.552,-0.312l0,0ZM234.696,88.685c2.593,-0.754 1.242,-0.869 -4.375,-0.371c-4.468,0.396 -8.615,1.181 -9.213,1.744c-1.255,1.181 8.032,0.242 13.588,-1.373ZM180.321,74.385c0,-0.775 1.672,-3.619 3.716,-6.319c2.043,-2.701 3.73,-5.338 3.75,-5.861c0.019,-0.523 2.019,-3.774 4.445,-7.226c5.89,-8.379 12.085,-19.949 10.682,-19.949c-0.619,0 -5.766,3.441 -11.438,7.646c-5.672,4.205 -13.455,9.629 -17.296,12.053c-3.841,2.423 -9.416,6.367 -12.388,8.763l-5.405,4.356l5.21,3.449c2.865,1.897 6.906,5.507 8.98,8.023l3.769,4.573l2.988,-4.049c1.643,-2.227 2.987,-4.684 2.987,-5.459l0,0ZM195.495,71.322c2.518,-2.098 2.625,-2.465 0.725,-2.5c-1.225,-0.023 -2.551,0.802 -2.947,1.833c-0.395,1.032 -1.204,1.875 -1.796,1.875c-0.592,0 -0.751,-0.85 -0.352,-1.889c0.522,-1.36 0.152,-1.669 -1.321,-1.104c-1.586,0.609 -1.724,1.174 -0.611,2.514c1.902,2.292 2.8,2.189 6.302,-0.729l0,0ZM156.233,70.525c-0.416,-0.415 -1.494,-0.46 -2.396,-0.099c-0.997,0.4 -0.701,0.696 0.755,0.756c1.318,0.054 2.056,-0.241 1.641,-0.657l0,0ZM215.217,59.165c0.287,-0.211 0.16,-0.746 -0.282,-1.188c-0.442,-0.441 -1.674,-0.08 -2.739,0.803c-1.064,0.884 -2.232,1.309 -2.596,0.946c-0.363,-0.363 1.338,-1.895 3.781,-3.405c4.873,-3.012 6.443,-8.345 2.046,-6.949c-1.318,0.418 -2.753,0.18 -3.191,-0.528c-0.491,-0.794 -1.822,-0.333 -3.466,1.199c-3.479,3.241 -5.758,3.23 -2.824,-0.013c3.309,-3.656 0.339,-3.062 -3.125,0.625c-1.614,1.719 -3.621,3.125 -4.459,3.125c-0.838,0 -1.877,0.924 -2.31,2.052c-0.664,1.728 -0.483,1.799 1.146,0.447c1.064,-0.883 2.231,-1.308 2.594,-0.944c0.364,0.363 -0.851,1.85 -2.698,3.303c-1.848,1.453 -2.834,2.642 -2.191,2.642c0.643,0 1.834,-0.665 2.648,-1.479c0.813,-0.813 1.813,-1.145 2.222,-0.736c0.408,0.409 -1.294,2.127 -3.784,3.819c-4.303,2.924 -4.387,3.113 -1.706,3.814c1.664,0.435 3.65,-0.012 4.841,-1.09c3.087,-2.793 4.398,-2.174 1.704,0.805c-1.629,1.799 0.188,1.13 5.743,-2.116c4.469,-2.611 8.36,-4.92 8.646,-5.132l0,0ZM195.33,65.434c0.009,-1.114 7.674,-6.654 9.205,-6.654c0.514,0 0.549,0.623 0.079,1.384c-0.581,0.94 0.098,1.12 2.113,0.561c2.868,-0.796 2.886,-0.758 0.543,1.116c-2.73,2.182 -4.999,2.591 -3.824,0.689c1.314,-2.126 -1.371,-1.38 -4.831,1.341c-1.812,1.425 -3.29,2.128 -3.285,1.563l0,0ZM201.571,56.905c1.16,-1.397 1.18,-1.875 0.08,-1.875c-0.813,0 -1.129,-0.562 -0.705,-1.25c0.425,-0.687 1.335,-1.25 2.023,-1.25c0.687,0 0.902,0.563 0.477,1.25c-0.424,0.688 -0.108,1.25 0.705,1.25c1.1,0 1.08,0.478 -0.08,1.875c-0.855,1.032 -2.118,1.875 -2.806,1.875c-0.697,0 -0.562,-0.829 0.306,-1.875ZM205.321,57.731c0,-0.577 1.479,-1.723 3.287,-2.547c1.808,-0.823 2.923,-1.861 2.479,-2.305c-0.444,-0.444 -1.473,-0.141 -2.286,0.672c-0.814,0.814 -2.07,1.461 -2.792,1.438c-1.605,-0.051 4.11,-4.959 5.775,-4.959c0.652,0 0.837,0.563 0.412,1.25c-0.425,0.688 -0.036,1.271 0.864,1.295c0.9,0.025 -0.051,1.429 -2.114,3.119c-3.903,3.2 -5.625,3.823 -5.625,2.037l0,0ZM111.571,65.729c0,-0.303 -0.562,-0.899 -1.25,-1.324c-0.687,-0.425 -1.25,-0.176 -1.25,0.552c0,0.728 0.563,1.323 1.25,1.323c0.688,0 1.25,-0.248 1.25,-0.551ZM157.338,62.218c0.531,-2.235 1.026,-8 1.1,-12.813c0.08,-5.221 0.96,-10.514 2.181,-13.125c4.221,-9.025 5.489,-13.298 5.746,-19.375c0.25,-5.913 0.157,-6.115 -1.728,-3.75c-1.096,1.375 -2.495,2.366 -3.109,2.203c-0.614,-0.164 -0.848,0.401 -0.521,1.255c0.328,0.854 -2.927,5.573 -7.232,10.486c-4.306,4.913 -8.738,10.817 -9.85,13.12c-1.112,2.302 -3.724,7.843 -5.805,12.311l-3.782,8.125l7.054,1.308c3.88,0.719 8.179,1.967 9.554,2.774c4,2.348 5.363,1.81 6.392,-2.519l0,0ZM171.571,53.784c0,-0.686 2.048,-3.513 4.551,-6.283c2.502,-2.77 4.284,-5.303 3.959,-5.628c-0.497,-0.497 -3.606,3.064 -10.122,11.595c-0.788,1.031 -0.716,1.562 0.209,1.562c0.772,0 1.403,-0.561 1.403,-1.246ZM180.321,47.313c0,-0.649 0.704,-0.776 1.563,-0.281c0.859,0.495 1.139,0.432 0.621,-0.139c-0.519,-0.571 -0.084,-2.349 0.966,-3.95c3.191,-4.871 1.135,-3.273 -4.595,3.57c-4.438,5.301 -4.801,6.072 -1.991,4.231c1.89,-1.238 3.436,-2.782 3.436,-3.431ZM104.138,44.343c-1.082,-3.621 -1.104,-3.629 -1.209,-0.458c-0.059,1.776 0.267,3.604 0.726,4.062c1.451,1.451 1.619,0.2 0.483,-3.604l0,0ZM134.548,35.59c0.427,-1.112 0.218,-1.614 -0.491,-1.176c-0.68,0.42 -1.236,1.293 -1.236,1.94c0,1.798 0.896,1.402 1.727,-0.764l0,0ZM177.821,33.78c0,1.242 0.379,1.242 1.875,0c1.032,-0.855 1.875,-2.118 1.875,-2.806c0,-0.697 -0.829,-0.562 -1.875,0.306c-1.046,0.868 -1.875,1.004 -1.875,0.306c0,-0.687 0.844,-1.95 1.875,-2.806c1.032,-0.855 1.86,-2.19 1.842,-2.965c-0.019,-0.775 -1.691,0.559 -3.717,2.965c-3.904,4.638 -5.018,7.609 -1.875,5c1.496,-1.241 1.875,-1.241 1.875,0ZM107.405,241.697c-1.714,-1.714 -0.74,-2.884 1.979,-2.377c1.547,0.289 3.516,0.566 4.375,0.617c0.859,0.052 1.562,0.656 1.562,1.343c0,1.386 -6.599,1.734 -7.916,0.417ZM118.134,240.968c0.286,-0.86 1.318,-1.563 2.292,-1.563c1.043,0 2.088,-1.797 2.543,-4.375l0.773,-4.375l0.165,4.438c0.09,2.441 -0.511,5.112 -1.336,5.937c-1.974,1.974 -5.101,1.93 -4.437,-0.062ZM139.17,240.551c0.06,-1.456 0.356,-1.752 0.755,-0.755c0.361,0.902 0.317,1.98 -0.098,2.396c-0.416,0.415 -0.711,-0.323 -0.657,-1.641l0,0ZM141.571,239.957c0,-0.728 0.523,-1.001 1.161,-0.607c0.638,0.395 1.383,-0.557 1.655,-2.114c0.452,-2.587 0.583,-2.632 1.522,-0.517c0.684,1.543 0.445,2.682 -0.718,3.418c-2.344,1.485 -3.62,1.421 -3.62,-0.18l0,0ZM93.301,235.728c-0.38,-0.991 -0.427,-2.819 -0.105,-4.062c0.423,-1.633 0.631,-1.393 0.75,0.864c0.111,2.124 0.49,2.611 1.182,1.521c1.438,-2.266 5.224,-0.556 4.271,1.929c-0.656,1.709 -0.899,1.65 -1.708,-0.416c-0.826,-2.107 -0.955,-2.134 -1.032,-0.221c-0.106,2.639 -2.392,2.902 -3.358,0.385l0,0ZM101.305,233.78c0.302,-2.062 0.951,-3.75 1.442,-3.75c0.49,0 0.644,1.688 0.341,3.75c-0.303,2.063 -0.952,3.75 -1.442,3.75c-0.49,0 -0.644,-1.687 -0.341,-3.75ZM114.208,231.122c0.557,-3.524 1.4,-6.758 1.873,-7.187c0.473,-0.429 0.503,0.627 0.067,2.345c-0.436,1.719 -0.8,4.953 -0.81,7.188c-0.01,2.234 -0.495,4.062 -1.08,4.062c-0.585,0 -0.607,-2.883 -0.05,-6.408l0,0ZM116.571,233.78c0,-2.062 0.465,-3.75 1.034,-3.75c0.568,0 0.786,1.688 0.483,3.75c-0.303,2.063 -0.768,3.75 -1.033,3.75c-0.266,0 -0.484,-1.687 -0.484,-3.75l0,0ZM119.071,236.28c0,-0.687 0.563,-1.25 1.25,-1.25c0.688,0 1.25,0.563 1.25,1.25c0,0.688 -0.562,1.25 -1.25,1.25c-0.687,0 -1.25,-0.562 -1.25,-1.25ZM137.253,231.849c-0.478,-3.189 -0.588,-6.079 -0.244,-6.423c0.344,-0.343 1.016,1.984 1.494,5.173c0.478,3.188 0.588,6.078 0.245,6.422c-0.344,0.344 -1.017,-1.984 -1.495,-5.172ZM147.3,236.448c-0.538,-0.871 -0.641,-1.922 -0.229,-2.334c1.119,-1.119 2.339,0.527 1.734,2.339c-0.423,1.27 -0.717,1.269 -1.505,-0.005l0,0ZM153.709,235.03c-0.359,-1.375 -0.144,-2.5 0.479,-2.5c0.624,0 1.133,1.125 1.133,2.5c0,1.375 -0.215,2.5 -0.479,2.5c-0.263,0 -0.773,-1.125 -1.133,-2.5ZM149.249,230.269c-0.933,-3.65 -1.408,-6.925 -1.056,-7.277c0.352,-0.352 1.013,1.055 1.468,3.128c0.566,2.578 1.393,3.551 2.619,3.08c0.985,-0.378 1.791,-0.031 1.791,0.77c0,0.802 -0.524,1.134 -1.165,0.738c-0.64,-0.396 -1.343,0.836 -1.562,2.739c-0.325,2.825 -0.708,2.243 -2.095,-3.178ZM70.009,232.844c-1.203,-0.273 -2.188,-1.018 -2.188,-1.655c0,-1.343 0.936,-1.351 4.292,-0.036c2.799,1.095 1.141,2.428 -2.104,1.691l0,0ZM99.882,227.51c0.35,-3.105 1.096,-7.605 1.66,-10c1.004,-4.273 1.024,-4.285 1.031,-0.605c0.004,2.063 -0.742,6.563 -1.659,10l-1.667,6.25l0.635,-5.645l0,0ZM142.92,230.265c0.055,-1.184 0.365,-1.455 0.706,-0.617c0.334,0.82 1.414,1.182 2.401,0.803c0.987,-0.378 1.794,-0.185 1.794,0.43c0,0.614 -1.125,1.202 -2.5,1.306c-1.619,0.122 -2.465,-0.555 -2.401,-1.922ZM96.9,224.093c0.659,-3.953 1.776,-7.75 2.48,-8.438c0.871,-0.849 1.021,-0.249 0.47,1.875c-0.447,1.719 -1.163,5.516 -1.59,8.438c-0.428,2.922 -1.179,5.312 -1.669,5.312c-0.489,0 -0.351,-3.234 0.309,-7.187ZM103.065,225.655c0.026,-2.062 0.306,-2.755 0.623,-1.538c0.317,1.216 0.296,2.903 -0.047,3.75c-0.342,0.846 -0.601,-0.149 -0.576,-2.212l0,0ZM157.436,226.193c-0.347,-1.327 -0.121,-2.413 0.502,-2.413c0.624,0 1.142,0.985 1.153,2.188c0.014,1.675 0.266,1.797 1.076,0.52c0.874,-1.38 1.171,-1.37 1.718,0.057c0.401,1.044 -0.222,1.791 -1.578,1.893c-1.254,0.094 -2.517,-0.894 -2.871,-2.245l0,0ZM58.536,224.316c-2.463,-2.463 -2.463,-2.466 0.451,-2.686c1.672,-0.126 2.36,0.563 2.234,2.234c-0.219,2.914 -0.222,2.915 -2.685,0.452l0,0ZM54.071,220.183c0,-0.603 0.936,-1.869 2.08,-2.812c1.886,-1.556 1.94,-1.453 0.581,1.097c-1.55,2.909 -2.661,3.625 -2.661,1.715ZM182.085,211.107c-3.145,-4.908 -6.638,-10.849 -7.76,-13.203c-1.756,-3.682 -2.181,-3.963 -3.042,-2.014c-0.696,1.577 -0.803,1.244 -0.351,-1.096c0.357,-1.848 0.084,-3.709 -0.606,-4.136c-0.69,-0.426 -1.237,-1.445 -1.215,-2.264c0.022,-0.819 0.924,-0.364 2.004,1.011c1.919,2.442 1.944,2.432 1.077,-0.469c-0.569,-1.902 -0.43,-2.685 0.389,-2.179c0.702,0.434 1.518,0.082 1.813,-0.781c0.294,-0.864 2.389,1.43 4.654,5.098c2.698,4.368 4.444,6.145 5.059,5.148c0.655,-1.058 1.612,-0.497 3.145,1.843c1.364,2.081 2.528,2.841 3.053,1.992c0.493,-0.799 2.756,1.5 5.407,5.492c2.567,3.867 4.023,7.196 3.334,7.622c-0.674,0.416 -1.225,0.051 -1.225,-0.812c0,-2.016 -6.42,-11.325 -7.243,-10.502c-0.342,0.343 0.874,2.884 2.703,5.648c1.829,2.764 2.717,5.025 1.974,5.025c-0.783,0 -1.018,1.052 -0.559,2.5c0.437,1.375 0.259,2.5 -0.395,2.5c-1.693,0 -2.73,-4.791 -1.15,-5.318c0.722,-0.241 -0.776,-3.704 -3.33,-7.696c-2.554,-3.992 -4.933,-6.969 -5.287,-6.615c-0.354,0.354 0.703,2.806 2.348,5.449c5.01,8.051 5.173,8.377 3.739,7.491c-0.735,-0.454 -4.545,-5.912 -8.467,-12.128c-3.922,-6.215 -7.417,-11.015 -7.768,-10.664c-0.701,0.701 7.187,13.606 8.725,14.273c0.528,0.229 0.96,0.986 0.96,1.682c0,0.696 1.164,2.899 2.586,4.896c1.421,1.997 2.027,3.63 1.346,3.63c-0.681,0 -4.177,-4.792 -7.769,-10.649c-3.592,-5.857 -6.743,-10.437 -7.003,-10.177c-0.479,0.479 5.28,11.044 11.012,20.201c4.748,7.587 5.031,8.125 4.269,8.125c-0.389,0 -3.281,-4.015 -6.427,-8.923l0,0ZM61.747,217.639c-1.18,-0.729 -1.273,-1.305 -0.309,-1.901c0.761,-0.47 1.383,-0.161 1.383,0.686c0,0.851 1.402,0.226 3.125,-1.394c3.846,-3.613 4.186,-6.307 0.38,-3.006c-3.222,2.795 8.086,-12.033 11.607,-15.219c3.941,-3.567 2.691,-0.032 -1.362,3.85c-2.062,1.976 -3.75,4.144 -3.75,4.817c0,0.674 1.946,-0.978 4.323,-3.671c2.378,-2.693 4.347,-4.303 4.375,-3.578c0.067,1.698 -8.02,9.568 -8.914,8.674c-0.373,-0.372 -1.461,0.321 -2.418,1.541c-1.583,2.016 -1.542,2.062 0.447,0.502c4.031,-3.162 2.241,0.531 -2.504,5.164c-3.192,3.117 -5.232,4.246 -6.383,3.535l0,0ZM52.821,217.058c0,-0.259 0.985,-1.244 2.188,-2.187c1.982,-1.555 2.027,-1.511 0.472,0.472c-1.633,2.082 -2.66,2.744 -2.66,1.715ZM59.08,214.664c-0.005,-0.545 2.608,-3.788 5.805,-7.206c3.198,-3.419 5.519,-6.511 5.159,-6.872c-0.361,-0.361 -3.055,2.21 -5.987,5.712c-2.932,3.502 -6.029,6.1 -6.881,5.772c-0.853,-0.327 -2.25,0.065 -3.105,0.871c-1.236,1.163 -1.266,0.9 -0.146,-1.279c1.883,-3.662 4.646,-5.401 3.417,-2.149c-0.498,1.316 2.219,-0.682 6.037,-4.44c3.818,-3.758 6.942,-6.319 6.942,-5.692c0,0.627 1.961,-0.76 4.357,-3.082c2.396,-2.323 4.708,-3.871 5.139,-3.44c0.43,0.431 2.176,-0.874 3.88,-2.898c2.992,-3.557 6.98,-5.426 4.517,-2.118c-0.639,0.859 -1.06,2.947 -0.936,4.639c0.125,1.692 -0.93,4.642 -2.344,6.555c-1.414,1.913 -2.651,5.183 -2.748,7.267c-0.098,2.084 -0.833,4.445 -1.633,5.245c-1.908,1.908 -5.232,2.364 -5.232,0.718c0,-0.773 -0.754,-0.667 -1.875,0.263c-3.961,3.288 -1.594,-0.67 4.777,-7.986c8.91,-10.234 8.995,-10.433 4.366,-10.246c-3.212,0.129 -5.65,2.043 -13.703,10.757c-5.388,5.83 -9.801,10.154 -9.806,9.609l0,0ZM80.874,207l0.367,-3.345l-2.96,2.78c-3.768,3.541 -3.895,6.014 -0.147,2.885c1.547,-1.292 2.109,-1.548 1.25,-0.569c-1.937,2.206 -2.135,4.852 -0.22,2.937c0.739,-0.739 1.508,-2.849 1.71,-4.688l0,0ZM204.326,208.462c-1.13,-1.362 -0.551,-1.713 2.985,-1.813c2.796,-0.08 4.216,0.398 3.914,1.316c-0.698,2.12 -5.278,2.45 -6.899,0.497l0,0ZM30.805,196.071c0.078,-1.49 0.985,-2.987 2.016,-3.328c1.608,-0.531 1.631,-0.323 0.16,1.459c-1.659,2.01 -0.269,3.021 1.593,1.159c1.323,-1.323 8.345,-1.5 7.536,-0.19c-0.373,0.603 -1.759,1.674 -3.08,2.382c-2.007,1.074 -2.268,0.935 -1.585,-0.844c0.767,-1.998 0.633,-2 -2.182,-0.029c-3.922,2.748 -4.629,2.651 -4.458,-0.609l0,0ZM208.779,185.25c-3.799,-3.902 -6.881,-8.079 -6.849,-9.282c0.083,-3.131 1.104,-2.752 5.891,2.187c2.333,2.407 3.525,4.375 2.651,4.375c-0.989,0 -0.491,1.393 1.317,3.681c3.388,4.289 3.963,4.461 6.488,1.935c1.169,-1.169 2.181,-1.406 2.663,-0.625c0.429,0.693 0.223,1.259 -0.456,1.259c-0.679,0 -2.036,0.802 -3.017,1.783c-1.543,1.543 -2.709,0.83 -8.688,-5.313ZM209.032,181.593c-0.021,-0.516 -1.568,-2.017 -3.437,-3.337l-3.399,-2.4l3.031,3.337c3.184,3.507 3.87,3.939 3.805,2.4l0,0ZM119.705,176.295c-0.438,-0.709 0.064,-0.918 1.176,-0.492c2.166,0.831 2.562,1.727 0.764,1.727c-0.647,0 -1.52,-0.556 -1.94,-1.235ZM22.488,174.875c0.848,-0.854 1.857,-1.238 2.241,-0.853c0.385,0.385 -0.308,1.084 -1.541,1.553c-1.782,0.678 -1.925,0.535 -0.7,-0.7ZM225.298,173.127c-1.321,-1.592 -1.244,-1.775 0.472,-1.116c1.128,0.433 2.051,1.289 2.051,1.903c0,1.608 -0.723,1.382 -2.523,-0.787ZM230.946,172.53c-0.424,-0.687 -0.21,-1.25 0.478,-1.25c0.687,0 1.598,0.563 2.022,1.25c0.425,0.688 0.21,1.25 -0.477,1.25c-0.688,0 -1.598,-0.562 -2.023,-1.25ZM140.634,171.703c-2.078,-0.839 -1.984,-2.494 0.189,-3.327c1.042,-0.4 2.008,0.306 2.383,1.741c0.642,2.452 0.22,2.712 -2.572,1.586ZM97.405,169.197c-1.38,-1.38 -0.941,-2.917 0.833,-2.917c0.917,0 1.667,0.844 1.667,1.875c0,1.978 -1.104,2.438 -2.5,1.042ZM11.429,168.468c-0.079,-0.172 -0.326,-1.86 -0.55,-3.75c-0.555,-4.682 1.519,-4.388 2.209,0.312c0.303,2.063 0.085,3.75 -0.483,3.75c-0.569,0 -1.098,-0.14 -1.176,-0.312ZM106.571,166.28c0,-0.687 0.53,-1.25 1.177,-1.25c0.647,0 1.524,0.563 1.948,1.25c0.425,0.688 -0.104,1.25 -1.176,1.25c-1.072,0 -1.949,-0.562 -1.949,-1.25ZM132.821,164.547c0,-2.449 -6.676,-3.137 -11.355,-1.17c-6.104,2.567 -7.96,2.156 -4.935,-1.091l2.557,-2.745l-4.004,-4.13c-2.836,-2.927 -5.134,-4.131 -7.883,-4.131c-3.677,0 -6.88,-1.847 -6.88,-3.969c0,-0.533 1.443,-0.42 3.207,0.25c4.342,1.651 4.735,1.589 8.043,-1.281c3.1,-2.688 7.572,-3.218 11.12,-1.319c1.508,0.806 3.308,0.608 5.686,-0.625c4.508,-2.339 6.315,-2.276 10.338,0.36c1.817,1.191 4.673,1.986 6.346,1.767c2.099,-0.275 2.864,0.119 2.471,1.272c-0.332,0.975 -2.424,1.67 -5.022,1.67c-2.449,0 -4.286,0.282 -4.082,0.625c0.204,0.344 -2.075,2.572 -5.064,4.951c-5.562,4.428 -5.863,5.04 -2.708,5.503c3.972,0.583 6.856,5.796 3.207,5.796c-0.573,0 -1.042,-0.78 -1.042,-1.733ZM120.979,161.522c-0.384,-0.385 -1.393,-0.001 -2.241,0.853c-1.225,1.235 -1.082,1.378 0.7,0.7c1.233,-0.469 1.926,-1.168 1.541,-1.553ZM128.838,154.718c0.309,-1.625 -0.411,-2.188 -2.8,-2.188c-2.419,0 -3.217,0.642 -3.217,2.587c0,1.965 0.674,2.491 2.8,2.188c1.54,-0.22 2.987,-1.384 3.217,-2.587l0,0ZM119.071,152.53c0,-1.414 -0.833,-2.5 -1.919,-2.5c-1.531,0 -1.648,0.505 -0.581,2.5c0.736,1.375 1.6,2.5 1.919,2.5c0.32,0 0.581,-1.125 0.581,-2.5ZM121.175,152.296c-0.399,-0.997 -0.695,-0.701 -0.755,0.755c-0.054,1.318 0.241,2.056 0.657,1.641c0.415,-0.416 0.459,-1.494 0.098,-2.396l0,0ZM131.057,150.349c-1.344,-1.344 -2.058,0.539 -1.114,2.94c0.885,2.253 0.952,2.256 1.389,0.081c0.253,-1.257 0.129,-2.616 -0.275,-3.021l0,0ZM134.643,151.367c0.396,-0.64 0.148,-1.517 -0.551,-1.949c-0.699,-0.432 -1.271,0.092 -1.271,1.164c0,2.195 0.75,2.519 1.822,0.785ZM128.295,149.026c0.341,-0.553 -1.401,-1.062 -3.872,-1.132c-3.072,-0.087 -3.936,0.224 -2.734,0.985c2.202,1.395 5.785,1.474 6.606,0.147ZM134.071,146.979c0,-0.303 -0.562,-0.899 -1.25,-1.324c-0.687,-0.425 -1.25,-0.176 -1.25,0.552c0,0.728 0.563,1.323 1.25,1.323c0.688,0 1.25,-0.248 1.25,-0.551ZM141.571,165.239c0,-0.573 0.819,-1.042 1.82,-1.042c1.001,0 1.531,0.469 1.177,1.042c-0.354,0.573 -1.173,1.041 -1.82,1.041c-0.647,0 -1.177,-0.468 -1.177,-1.041ZM102.587,164.176c0.902,-0.361 1.98,-0.316 2.396,0.099c0.415,0.415 -0.323,0.711 -1.641,0.657c-1.456,-0.06 -1.752,-0.357 -0.755,-0.756l0,0ZM235.608,159.796c0.272,-0.816 1.177,-1.618 2.01,-1.781c0.834,-0.164 0.936,-0.01 0.227,0.341c-0.709,0.351 -0.971,1.152 -0.583,1.781c0.389,0.629 0.064,1.143 -0.721,1.143c-0.785,0 -1.205,-0.668 -0.933,-1.484l0,0ZM9.709,158.76c0.432,-0.699 1.309,-0.947 1.949,-0.551c1.734,1.071 1.41,1.821 -0.785,1.821c-1.072,0 -1.596,-0.571 -1.164,-1.27ZM158,158.643c1.408,-0.892 1.396,-1.078 -0.074,-1.094c-0.974,-0.01 -1.433,-0.357 -1.019,-0.771c0.414,-0.414 1.939,0.078 3.389,1.094c2.608,1.827 2.601,1.846 -0.678,1.846c-2.33,0 -2.81,-0.319 -1.618,-1.075l0,0ZM14.071,155.173c0,-0.574 2.954,-1.399 6.563,-1.833c8.706,-1.045 12.187,-1.009 12.187,0.128c0,0.515 -2.39,0.937 -5.312,0.937c-2.922,0 -7.141,0.408 -9.375,0.907c-2.234,0.498 -4.063,0.436 -4.063,-0.139ZM78.134,154.169c1.203,-0.315 3.172,-0.315 4.375,0c1.203,0.314 0.219,0.571 -2.188,0.571c-2.406,0 -3.39,-0.257 -2.187,-0.571ZM8.446,152.53c0.425,-0.687 1.021,-1.25 1.324,-1.25c0.303,0 0.551,0.563 0.551,1.25c0,0.688 -0.595,1.25 -1.323,1.25c-0.728,0 -0.976,-0.562 -0.552,-1.25ZM164.696,152.53c0.425,-0.687 1.335,-1.25 2.023,-1.25c0.687,0 0.902,0.563 0.477,1.25c-0.424,0.688 -1.335,1.25 -2.022,1.25c-0.688,0 -0.902,-0.562 -0.478,-1.25ZM83.759,151.703c0.859,-0.347 2.266,-0.347 3.125,0c0.859,0.346 0.156,0.63 -1.563,0.63c-1.718,0 -2.421,-0.284 -1.562,-0.63ZM92.587,151.677c0.902,-0.362 1.98,-0.317 2.396,0.098c0.415,0.416 -0.323,0.711 -1.641,0.657c-1.456,-0.06 -1.752,-0.357 -0.755,-0.756l0,0.001ZM238.908,150.853c0.765,-0.923 1.022,-2.048 0.569,-2.5c-0.452,-0.452 0.12,-0.823 1.272,-0.823c1.781,0 1.86,0.374 0.532,2.5c-0.858,1.375 -2.057,2.5 -2.663,2.5c-0.607,0 -0.476,-0.754 0.29,-1.677ZM5.843,149.863c-0.368,-0.596 1.052,-1.083 3.155,-1.083c2.103,0 3.823,0.216 3.823,0.48c0,1.06 -6.356,1.61 -6.978,0.603l0,0ZM16.571,148.663c0,-0.623 1.125,-1.133 2.5,-1.133c1.375,0 2.5,0.216 2.5,0.48c0,0.263 -1.125,0.773 -2.5,1.133c-1.375,0.359 -2.5,0.143 -2.5,-0.48l0,0ZM24.071,147.579c1.683,-1.131 13.656,-1.945 12.396,-0.843c-0.286,0.251 -3.614,0.826 -7.396,1.279c-4.791,0.574 -6.306,0.442 -5,-0.436l0,0ZM9.696,146.28c0.425,-0.687 1.021,-1.25 1.324,-1.25c0.303,0 0.551,0.563 0.551,1.25c0,0.688 -0.595,1.25 -1.323,1.25c-0.728,0 -0.976,-0.562 -0.552,-1.25ZM38.837,145.426c0.902,-0.361 1.98,-0.316 2.396,0.099c0.415,0.415 -0.323,0.711 -1.641,0.657c-1.456,-0.06 -1.752,-0.357 -0.755,-0.756l0,0ZM235.321,143.78c-3.781,-1.24 -6.421,-2.31 -5.866,-2.377c1.915,-0.233 12.744,2.72 13.929,3.797c1.668,1.517 -0.009,1.222 -8.063,-1.42l0,0ZM10.321,142.53c0,-0.687 0.563,-1.25 1.25,-1.25c0.688,0 1.25,0.563 1.25,1.25c0,0.688 -0.562,1.25 -1.25,1.25c-0.687,0 -1.25,-0.562 -1.25,-1.25ZM14.663,142.476c-0.407,-0.658 0.419,-1.196 1.835,-1.196c3.018,0 3.322,0.696 0.738,1.687c-1.009,0.387 -2.167,0.166 -2.573,-0.491l0,0ZM152.999,142.218c-0.121,-1.492 -1.237,-2.188 -3.511,-2.188c-2.967,0 -3.219,-1.635 -0.312,-2.031c0.63,-0.086 1.728,-0.226 2.439,-0.312c0.88,-0.107 0.866,-0.957 -0.044,-2.657c-1.057,-1.975 -0.95,-2.5 0.508,-2.5c2.548,0 2.855,1.105 1.913,6.875c-0.449,2.75 -0.896,4.016 -0.993,2.813l0,0ZM163.134,142.87c2.578,-0.27 6.797,-0.27 9.375,0c2.578,0.269 0.469,0.49 -4.688,0.49c-5.156,0 -7.265,-0.221 -4.687,-0.49ZM240.946,141.841l-3.75,-1.708l3.75,0.75c4.022,0.803 5.099,1.347 4.271,2.157c-0.286,0.28 -2.208,-0.259 -4.271,-1.199ZM15.946,138.804c3.722,-0.971 22.769,-1.689 21.771,-0.821c-0.286,0.249 -6.146,0.756 -13.021,1.126c-6.941,0.373 -10.832,0.238 -8.75,-0.305l0,0ZM242.821,138.78c-1.615,-1.044 -1.582,-1.214 0.239,-1.23c1.163,-0.01 2.462,0.543 2.886,1.23c0.978,1.582 -0.677,1.582 -3.125,0ZM85.738,136.905c0,-1.031 0.469,-1.875 1.042,-1.875c0.573,0 1.041,0.844 1.041,1.875c0,1.032 -0.468,1.875 -1.041,1.875c-0.573,0 -1.042,-0.843 -1.042,-1.875ZM230.946,136.156c-4.125,-1.197 -6.375,-2.21 -5,-2.251c3.701,-0.113 15.114,3.038 13.709,3.785c-0.665,0.353 -4.584,-0.338 -8.709,-1.534l0,0ZM10.321,136.029c0,-0.549 2.672,-0.954 5.938,-0.9c6.535,0.109 6.007,0.716 -1.25,1.435c-2.578,0.255 -4.688,0.015 -4.688,-0.535ZM242.821,134.957c0,-0.728 0.563,-0.977 1.25,-0.552c0.688,0.425 1.25,0.224 1.25,-0.447c0,-0.67 -0.703,-1.503 -1.562,-1.85c-0.934,-0.376 -0.682,-0.67 0.625,-0.729c1.387,-0.063 2.187,0.816 2.187,2.401c0,1.389 -0.833,2.5 -1.875,2.5c-1.031,0 -1.875,-0.595 -1.875,-1.323ZM95.087,134.176c0.902,-0.361 1.98,-0.316 2.396,0.099c0.415,0.415 -0.323,0.711 -1.641,0.657c-1.456,-0.06 -1.752,-0.357 -0.755,-0.756l0,0ZM172.509,134.202c0.859,-0.346 2.266,-0.346 3.125,0c0.859,0.347 0.156,0.631 -1.563,0.631c-1.718,0 -2.421,-0.284 -1.562,-0.631ZM231.571,133.05l-5.625,-1.734l5.505,0.653c5.387,0.638 11.828,3.091 7.62,2.901c-1.031,-0.047 -4.406,-0.866 -7.5,-1.82l0,0ZM94.071,131.206c-2.946,-0.873 -2.896,-0.934 0.864,-1.051c2.194,-0.069 4.336,-0.687 4.761,-1.375c0.425,-0.687 1.606,-1.25 2.623,-1.25c1.521,0 1.563,0.312 0.239,1.749c-0.886,0.962 -1.841,1.53 -2.122,1.261c-0.28,-0.268 -1.124,-0.02 -1.875,0.553c-0.75,0.572 -2.771,0.623 -4.49,0.113l0,0ZM129.408,130.125c0.203,-2.691 1.511,-3.411 2.701,-1.486c0.377,0.609 -0.121,1.777 -1.106,2.594c-1.461,1.213 -1.755,1.009 -1.595,-1.108ZM237.184,131.285c-1.382,-0.524 -4.921,-1.23 -7.863,-1.57c-2.942,-0.34 -5.749,-1.034 -6.237,-1.543c-0.94,-0.979 10.092,0.251 15.696,1.749c1.824,0.488 2.776,1.209 2.116,1.602c-0.66,0.392 -2.33,0.285 -3.712,-0.238l0,0ZM75.009,130.453c0.859,-0.347 2.266,-0.347 3.125,0c0.859,0.346 0.156,0.63 -1.563,0.63c-1.718,0 -2.421,-0.284 -1.562,-0.63ZM81.259,129.203c0.859,-0.347 2.266,-0.347 3.125,0c0.859,0.346 0.156,0.63 -1.563,0.63c-1.718,0 -2.421,-0.284 -1.562,-0.63ZM160.42,128.051c0.06,-1.456 0.356,-1.752 0.755,-0.755c0.361,0.902 0.317,1.98 -0.098,2.396c-0.416,0.415 -0.711,-0.323 -0.657,-1.641l0,0ZM104.071,125.164c0,-0.614 0.873,-1.451 1.94,-1.861c1.067,-0.409 1.626,-0.236 1.243,0.385c-0.384,0.621 0.009,1.414 0.872,1.762c0.864,0.348 0.305,0.677 -1.242,0.732c-1.547,0.054 -2.813,-0.404 -2.813,-1.018ZM65.774,122.911c1.351,-1.351 4.547,-1.541 4.547,-0.27c0,0.627 -1.218,1.139 -2.708,1.139c-1.49,0 -2.317,-0.391 -1.839,-0.869ZM71.571,122.53c0,-0.687 0.596,-1.25 1.324,-1.25c0.728,0 0.976,0.563 0.551,1.25c-0.424,0.688 -1.02,1.25 -1.323,1.25c-0.304,0 -0.552,-0.562 -0.552,-1.25ZM10.321,120.013c-1.319,-0.865 -0.578,-0.991 2.5,-0.426c5.391,0.989 6.408,1.7 2.396,1.674c-1.661,-0.01 -3.864,-0.572 -4.896,-1.248l0,0ZM5.321,118.707c0,-0.728 0.563,-0.977 1.25,-0.552c0.688,0.425 1.25,1.021 1.25,1.324c0,0.303 -0.562,0.551 -1.25,0.551c-0.687,0 -1.25,-0.595 -1.25,-1.323ZM76.337,119.176c0.902,-0.361 1.98,-0.316 2.396,0.099c0.415,0.416 -0.323,0.711 -1.641,0.657c-1.456,-0.06 -1.752,-0.356 -0.755,-0.756l0,0ZM141.571,118.78c0,-0.687 0.563,-1.25 1.25,-1.25c0.688,0 1.25,0.563 1.25,1.25c0,0.688 -0.562,1.25 -1.25,1.25c-0.687,0 -1.25,-0.562 -1.25,-1.25ZM125.321,116.832c0,-1.072 0.563,-1.602 1.25,-1.177c0.688,0.425 1.25,1.302 1.25,1.949c0,0.647 -0.562,1.176 -1.25,1.176c-0.687,0 -1.25,-0.877 -1.25,-1.948ZM5.665,113.78c0.104,-1.375 0.596,-2.5 1.095,-2.5c0.498,0 0.821,1.125 0.718,2.5c-0.104,1.375 -0.596,2.5 -1.095,2.5c-0.498,0 -0.821,-1.125 -0.718,-2.5ZM237.509,111.703c0.859,-0.347 2.266,-0.347 3.125,0c0.859,0.346 0.156,0.63 -1.563,0.63c-1.718,0 -2.421,-0.284 -1.562,-0.63ZM20.009,107.122c-6.703,-2.162 -12.188,-4.324 -12.188,-4.804c0,-0.857 24.763,7.059 26.023,8.318c1.141,1.142 -1.408,0.494 -13.835,-3.514ZM15.087,107.926c0.902,-0.361 1.98,-0.316 2.396,0.099c0.415,0.416 -0.323,0.711 -1.641,0.657c-1.456,-0.06 -1.752,-0.356 -0.755,-0.756l0,0ZM7.196,106.28c-2.5,-1.074 -2.5,-1.074 0,-1.143c1.375,-0.037 3.344,0.477 4.375,1.143c1.667,1.077 1.667,1.204 0,1.143c-1.031,-0.037 -3,-0.552 -4.375,-1.143ZM240.229,107.179c-1.096,-3.224 -0.833,-5.899 0.579,-5.899c2.369,0 3.429,4.669 1.25,5.505c-0.955,0.367 -1.778,0.544 -1.829,0.394l0,0ZM32.134,105.17c-0.653,-0.61 -5.688,-2.63 -11.188,-4.489c-5.5,-1.859 -10.534,-3.89 -11.187,-4.515c-1.875,-1.793 -0.303,-1.394 10.79,2.736c5.718,2.13 11.211,4.007 12.205,4.172c0.994,0.165 2.025,0.954 2.291,1.753c0.572,1.716 -1.217,1.927 -2.911,0.343ZM77.25,101.367c-0.358,-0.579 0.294,-1.82 1.45,-2.758c1.156,-0.937 1.709,-1.049 1.229,-0.248c-0.48,0.801 -0.195,1.682 0.634,1.958c0.961,0.321 0.753,0.792 -0.577,1.302c-1.147,0.44 -2.378,0.326 -2.736,-0.254l0,0ZM21.725,97.775c-4.385,-1.795 -7.431,-3.444 -6.77,-3.664c0.661,-0.22 4.81,1.261 9.221,3.292c9.9,4.558 8.348,4.793 -2.451,0.372ZM162.196,98.78c-0.424,-0.687 -0.176,-1.25 0.552,-1.25c0.728,0 1.323,0.563 1.323,1.25c0,0.688 -0.248,1.25 -0.551,1.25c-0.303,0 -0.899,-0.562 -1.324,-1.25ZM235.658,99.164c1.216,-0.317 2.903,-0.296 3.75,0.046c0.846,0.343 -0.149,0.602 -2.212,0.577c-2.062,-0.026 -2.755,-0.306 -1.538,-0.623l0,0ZM125.321,97.678c0,-0.688 0.563,-1.598 1.25,-2.023c0.688,-0.425 1.25,-0.21 1.25,0.478c0,0.687 -0.562,1.597 -1.25,2.022c-0.687,0.425 -1.25,0.21 -1.25,-0.477ZM224.071,97.279c0,-0.549 1.969,-0.999 4.375,-0.999c2.407,0 4.375,0.22 4.375,0.489c0,0.268 -1.968,0.718 -4.375,0.999c-2.406,0.281 -4.375,0.061 -4.375,-0.489ZM20.321,93.78c-2.406,-1.317 -5.326,-2.418 -6.488,-2.447c-1.163,-0.029 -2.516,-0.704 -3.008,-1.5c-0.961,-1.554 0.262,-1.301 8.599,1.78c4.611,1.705 8.832,4.72 6.46,4.615c-0.653,-0.029 -3.156,-1.13 -5.563,-2.448ZM237.243,92.455c0.878,-1.421 4.328,-1.573 4.328,-0.191c0,0.542 -1.137,1.07 -2.527,1.175c-1.389,0.104 -2.2,-0.338 -1.801,-0.984l0,0ZM77.821,90.12c0,-1.469 0.812,-2.59 1.875,-2.59c1.032,0 1.875,0.322 1.875,0.715c0,0.393 -0.843,1.558 -1.875,2.589c-1.666,1.667 -1.875,1.587 -1.875,-0.714ZM53.446,82.53c-1.244,-1.375 -1.7,-2.5 -1.012,-2.5c0.687,0 2.268,1.125 3.512,2.5c1.245,1.375 1.7,2.5 1.013,2.5c-0.688,0 -2.268,-1.125 -3.513,-2.5ZM81.637,82.597c-1.416,-0.896 -1.064,-1.332 1.62,-2.006c1.887,-0.473 3.78,-0.512 4.206,-0.086c0.426,0.427 -0.477,0.775 -2.007,0.775c-1.536,0 -2.436,0.56 -2.01,1.25c0.949,1.535 0.535,1.55 -1.809,0.067l0,0ZM86.337,82.926c0.902,-0.361 1.98,-0.316 2.396,0.099c0.415,0.415 -0.323,0.711 -1.641,0.657c-1.456,-0.06 -1.752,-0.357 -0.755,-0.756l0,0ZM232.821,83.301c0,-0.263 1.125,-0.773 2.5,-1.133c1.375,-0.359 2.5,-0.144 2.5,0.479c0,0.623 -1.125,1.133 -2.5,1.133c-1.375,0 -2.5,-0.215 -2.5,-0.479ZM35.688,75.959c-3.58,-2.862 -6.266,-5.446 -5.969,-5.743c0.296,-0.296 3.225,1.605 6.508,4.226c8.281,6.611 8.531,6.848 7.157,6.779c-0.653,-0.032 -4.116,-2.4 -7.696,-5.262ZM25.509,76.272c-5.001,-3.622 -6.229,-5.049 -4.25,-4.94c1.064,0.059 11.079,8.698 10.083,8.698c-0.355,0 -2.98,-1.691 -5.833,-3.758l0,0ZM220.88,77.637c0.389,-0.629 0.12,-1.339 -0.597,-1.578c-0.718,-0.239 0.31,-1.389 2.284,-2.554c3.007,-1.777 3.588,-1.825 3.588,-0.297c0,1.002 -0.81,1.822 -1.801,1.822c-1.086,0 -1.515,0.743 -1.081,1.875c0.446,1.163 -0.006,1.875 -1.19,1.875c-1.05,0 -1.591,-0.514 -1.203,-1.143l0,0ZM13.047,74.816c0.413,-2.806 3.524,-4.851 3.524,-2.316c0,0.785 -0.562,1.08 -1.25,0.655c-1.75,-1.081 -1.563,1.061 0.25,2.875c1.167,1.167 1.009,1.5 -0.712,1.5c-1.559,0 -2.094,-0.8 -1.812,-2.714l0,0ZM20.321,76.207c0,-0.729 0.563,-0.977 1.25,-0.552c0.688,0.425 1.25,1.021 1.25,1.324c0,0.303 -0.562,0.551 -1.25,0.551c-0.687,0 -1.25,-0.595 -1.25,-1.323ZM47.821,73.78c0,-0.687 0.563,-1.25 1.25,-1.25c0.688,0 1.25,0.563 1.25,1.25c0,0.688 -0.562,1.25 -1.25,1.25c-0.687,0 -1.25,-0.562 -1.25,-1.25ZM107.821,74.539c0,-1.186 3.742,-1.783 4.409,-0.704c0.406,0.657 -0.419,1.195 -1.835,1.195c-1.415,0 -2.574,-0.221 -2.574,-0.491ZM134.696,73.78c0.454,-0.734 -0.889,-1.25 -3.259,-1.25c-2.218,0 -3.695,-0.337 -3.282,-0.75c0.412,-0.412 2.867,-0.75 5.454,-0.75c3.626,0 4.219,-0.272 2.584,-1.187c-1.167,-0.653 -2.122,-1.721 -2.122,-2.375c0,-1.944 3.537,-1.348 4.738,0.799c0.612,1.093 1.61,1.895 2.219,1.782c0.608,-0.114 1.313,0.416 1.567,1.177c0.253,0.76 -0.014,1.298 -0.594,1.195c-2.843,-0.504 -5.493,0.246 -4.805,1.359c0.425,0.688 -0.137,1.25 -1.25,1.25c-1.112,0 -1.675,-0.562 -1.25,-1.25l0,0ZM197.821,73.36c0,-0.231 5.046,-3.407 11.212,-7.057c6.166,-3.65 10.892,-7.152 10.502,-7.783c-0.764,-1.236 2.99,-5.99 4.73,-5.99c0.581,0 1.056,1.641 1.056,3.646c0,2.005 0.702,3.88 1.56,4.166c0.942,0.314 0.389,1.146 -1.401,2.104c-1.879,1.005 -2.647,1.077 -2.104,0.198c1.158,-1.873 -0.434,-6.586 -1.915,-5.67c-0.649,0.401 -0.834,1.29 -0.41,1.976c0.424,0.686 -0.27,2.099 -1.542,3.141c-2.078,1.701 -2.091,1.824 -0.125,1.206c1.203,-0.379 2.187,-0.28 2.187,0.219c0,1.161 -11.367,8.063 -12.089,7.341c-0.298,-0.298 1.456,-1.777 3.899,-3.286c2.442,-1.51 4.44,-2.98 4.44,-3.268c0,-1.363 -2.74,-0.117 -9.848,4.477c-6.84,4.421 -10.152,5.915 -10.152,4.58ZM16.596,69.436c-0.985,-1.188 -1.08,-1.906 -0.251,-1.906c1.51,0 3.272,2.372 2.405,3.239c-0.315,0.314 -1.284,-0.286 -2.154,-1.333l0,0ZM75.277,65.467c-5.132,-3.097 -10.174,-6.365 -11.206,-7.263c-1.031,-0.898 -4.125,-2.829 -6.875,-4.291c-2.75,-1.462 -6.103,-3.356 -7.452,-4.208c-6.063,-3.83 -11.934,-7.175 -12.594,-7.175c-0.396,0 0.155,1.25 1.226,2.778c2.153,3.075 2.574,5.258 0.802,4.163c-0.629,-0.388 -1.334,-0.135 -1.566,0.564c-0.233,0.698 -1.215,-0.001 -2.183,-1.555c-1.611,-2.587 -1.584,-2.68 0.317,-1.109c2.775,2.294 2.635,0.64 -0.259,-3.039c-1.283,-1.632 -2.69,-2.611 -3.125,-2.176c-0.435,0.435 -0.791,0.176 -0.791,-0.577c0,-0.752 1.486,-2.535 3.301,-3.963l3.3,-2.596l2.972,4.028c2.822,3.826 13.59,12.094 15.872,12.188c0.588,0.024 -0.818,-1.758 -3.125,-3.961c-2.307,-2.203 -4.868,-3.872 -5.692,-3.71c-0.823,0.162 -2.171,-0.989 -2.994,-2.557c-1.427,-2.719 -1.387,-2.758 0.872,-0.828c2.857,2.441 5.614,1.753 4.681,-1.168c-0.54,-1.692 -0.426,-1.76 0.58,-0.345c0.689,0.969 0.999,2.422 0.689,3.229c-0.31,0.807 0.281,1.468 1.312,1.468c1.031,0 2.187,-0.814 2.568,-1.808c0.589,-1.533 1.012,-1.548 2.788,-0.104c1.835,1.492 1.99,1.424 1.25,-0.549c-0.576,-1.534 -0.383,-1.967 0.603,-1.358c0.955,0.59 1.187,0.216 0.683,-1.099c-0.575,-1.498 -0.132,-1.872 1.777,-1.505c1.877,0.362 2.349,-0.015 1.803,-1.438c-0.407,-1.06 -0.748,-2.303 -0.759,-2.762c-0.01,-0.46 -0.516,-0.051 -1.124,0.909c-1.555,2.457 -4.799,-4.286 -4.446,-9.245c0.426,-5.988 0.566,-6.347 1.743,-4.488c0.613,0.969 0.837,2.487 0.497,3.373c-0.341,0.887 0.831,4.031 2.603,6.989c1.773,2.957 3.228,4.548 3.235,3.536c0.008,-1.225 0.663,-0.911 1.959,0.939c1.071,1.53 1.585,3.367 1.142,4.083c-0.443,0.717 0.087,2.665 1.178,4.329c2.269,3.464 2.543,4.858 0.732,3.739c-0.687,-0.425 -1.25,-0.21 -1.25,0.478c0,0.687 0.524,1.573 1.163,1.968c1.281,0.792 1.071,5.576 -0.344,7.866c-0.55,0.891 0.56,2.212 2.857,3.4c3.469,1.794 3.695,1.782 2.953,-0.152c-0.541,-1.411 -0.326,-1.8 0.659,-1.191c0.804,0.497 1.462,1.681 1.462,2.631c0,0.95 0.623,2.113 1.384,2.583c0.932,0.576 1.108,-0.014 0.541,-1.801c-0.519,-1.636 -0.302,-2.657 0.565,-2.657c0.774,0 1.023,-0.622 0.553,-1.383c-0.611,-0.989 -1.123,-0.951 -1.793,0.133c-0.67,1.084 -1.181,1.122 -1.792,0.134c-0.47,-0.761 -0.496,-1.965 -0.057,-2.675c0.439,-0.71 -0.378,-3.284 -1.816,-5.721c-1.437,-2.436 -2.316,-4.912 -1.952,-5.501c0.364,-0.589 -2.528,-6.759 -6.427,-13.712c-5.497,-9.802 -6.753,-12.977 -5.595,-14.135c1.158,-1.158 1.758,-1.075 2.672,0.371c0.649,1.025 1.179,2.427 1.179,3.114c0,0.688 -0.545,0.407 -1.212,-0.625c-2.016,-3.12 -1.494,0.902 0.657,5.062c2.26,4.37 3.586,4.84 2.471,0.876c-0.554,-1.97 -0.438,-2.302 0.389,-1.109c0.96,1.386 1.283,1.398 1.728,0.063c0.386,-1.16 0.793,-0.999 1.387,0.549c0.502,1.309 0.343,1.882 -0.396,1.425c-1.898,-1.172 -1.467,1.12 0.721,3.833c1.815,2.251 1.9,1.93 1.173,-4.449c-0.518,-4.544 -0.364,-6.451 0.455,-5.625c0.681,0.688 1.553,5.75 1.937,11.25c0.823,11.774 2.047,16.487 6.118,23.543c3.089,5.353 5.144,14.105 3.546,15.093c-0.495,0.306 -5.099,-1.978 -10.23,-5.074l0,0ZM70.698,49.688c-0.542,-0.843 -1.113,-2.658 -1.269,-4.033c-0.156,-1.375 -0.535,-3.906 -0.841,-5.625c-0.307,-1.718 -0.622,-3.687 -0.7,-4.375c-0.079,-0.687 -0.712,-0.273 -1.407,0.921c-0.873,1.498 -0.822,3 0.165,4.843c0.786,1.47 1.571,3.96 1.744,5.535c0.241,2.192 -0.228,2.758 -2.002,2.416c-1.274,-0.245 -2.317,0.109 -2.317,0.787c0,0.678 0.704,1.142 1.563,1.03c3.977,-0.516 4.788,0.069 3.481,2.511c-0.711,1.33 -1.271,2.877 -1.244,3.438c0.028,0.56 0.897,-0.541 1.931,-2.448c1.04,-1.917 1.44,-4.152 0.896,-5l0,0ZM65.087,53.468c-2.033,-3.635 -2.171,-8.021 -0.252,-8.021c0.824,0 1.217,0.891 0.874,1.979c-0.513,1.628 -0.401,1.667 0.629,0.217c0.873,-1.227 0.648,-3.03 -0.742,-5.944c-1.382,-2.899 -2.299,-3.701 -2.99,-2.613c-1.361,2.143 -1.289,3.749 0.129,2.873c0.64,-0.396 1.463,-0.236 1.828,0.355c0.784,1.268 -4.225,1.168 -6.298,-0.126c-0.793,-0.495 -1.765,-0.024 -2.179,1.054c-0.411,1.071 -1.313,1.597 -2.006,1.169c-0.692,-0.428 -1.259,-0.122 -1.259,0.679c0,0.802 0.792,1.154 1.76,0.783c1.101,-0.423 2.445,0.74 3.592,3.11c1.459,3.011 4.93,6.075 8.13,7.175c0.196,0.067 -0.351,-1.143 -1.216,-2.69l0,0ZM60.798,50.968c-0.507,-0.86 -1.724,-2.969 -2.706,-4.688c-1.674,-2.931 -1.66,-2.974 0.223,-0.698c1.332,1.611 2.006,1.856 2.006,0.729c0,-2.831 1.422,-0.476 1.801,2.984c0.394,3.585 0.055,4.013 -1.324,1.673l0,0ZM72.297,33.077c-1.087,-1.086 -1.976,-2.591 -1.976,-3.344c0,-0.753 -0.322,-1.047 -0.717,-0.652c-0.394,0.394 0.259,2.597 1.452,4.896c1.192,2.298 2.404,3.48 2.692,2.627c0.289,-0.853 -0.365,-2.44 -1.451,-3.527ZM61.074,28.583c-2.27,-3.241 -2.693,-2.179 -0.651,1.637c0.743,1.388 1.644,2.231 2.002,1.873c0.358,-0.358 -0.25,-1.938 -1.351,-3.51l0,0ZM125.658,69.164c1.216,-0.317 2.903,-0.296 3.75,0.046c0.846,0.343 -0.149,0.602 -2.212,0.577c-2.062,-0.026 -2.755,-0.306 -1.538,-0.623l0,0ZM125.321,67.53c-3.781,-0.463 -5.295,-0.934 -3.363,-1.046c2.412,-0.14 3.235,-0.693 2.629,-1.766c-0.706,-1.25 -0.546,-1.25 0.801,0c0.926,0.859 2.837,1.523 4.246,1.474c2.537,-0.087 2.537,-0.098 0.062,-1.162c-2.385,-1.025 -2.371,-1.078 0.313,-1.162c2.008,-0.063 2.812,0.627 2.812,2.412c0,1.375 -0.14,2.409 -0.312,2.297c-0.172,-0.112 -3.406,-0.583 -7.188,-1.047l0,0ZM17.196,66.28c-0.424,-0.687 0.174,-1.25 1.33,-1.25c1.726,0 1.824,-0.334 0.545,-1.875c-0.981,-1.182 -1.065,-1.875 -0.226,-1.875c1.934,0 2.849,1.977 1.972,4.263c-0.866,2.257 -2.478,2.585 -3.621,0.737l0,0ZM50.321,66.207c0,-0.729 0.563,-0.977 1.25,-0.552c0.688,0.425 1.25,1.021 1.25,1.324c0,0.303 -0.562,0.551 -1.25,0.551c-0.687,0 -1.25,-0.595 -1.25,-1.323ZM30.875,63.257c-1.334,-0.975 -2.094,-2.103 -1.69,-2.507c0.404,-0.404 1.756,0.393 3.004,1.773c2.656,2.934 2.111,3.239 -1.314,0.735l0,-0.001ZM22.123,60.695c-1.335,-1.009 -1.792,-1.853 -1.017,-1.875c0.775,-0.022 2.11,0.804 2.965,1.835c1.976,2.381 1.169,2.398 -1.948,0.04l0,0ZM38.418,56.251c-3.37,-3.421 -5.586,-6.195 -4.925,-6.164c1.693,0.08 12.522,10.917 11.715,11.723c-0.364,0.365 -3.42,-2.137 -6.79,-5.559l0,0ZM31.698,54.883c-3.024,-2.693 -5.192,-5.204 -4.818,-5.578c0.375,-0.375 3.048,1.639 5.941,4.475c6.807,6.672 6.009,7.456 -1.123,1.103ZM73,58.917c-0.993,-0.629 -1.194,-1.384 -0.484,-1.823c0.667,-0.412 1.055,-2.732 0.863,-5.156c-0.428,-5.387 0.059,-5.509 2.573,-0.646c1.464,2.831 1.616,4.376 0.613,6.25c-1.528,2.855 -1.343,2.783 -3.565,1.375l0,0ZM75.763,53.724c-0.589,-0.589 -1.155,0.423 -1.263,2.258c-0.169,2.859 -0.02,3.008 1.067,1.065c0.698,-1.247 0.786,-2.735 0.196,-3.323l0,0ZM22.196,56.28c-0.424,-0.687 0.072,-1.25 1.103,-1.25c1.031,0 2.223,0.563 2.647,1.25c0.425,0.688 -0.071,1.25 -1.102,1.25c-1.031,0 -2.223,-0.562 -2.648,-1.25ZM26.571,55.03c-1.718,-1.344 -2.509,-2.457 -1.756,-2.472c0.753,-0.015 2.387,1.097 3.631,2.472c2.851,3.15 2.152,3.15 -1.875,0ZM168.386,47.103c0.033,-1.759 0.764,-3.901 1.623,-4.761c1.862,-1.861 2.093,-4.037 0.312,-2.937c-0.687,0.425 -1.25,0.21 -1.25,-0.477c0,-0.688 0.563,-1.598 1.25,-2.023c0.688,-0.425 1.25,-0.143 1.25,0.625c0,0.769 0.658,0.991 1.463,0.494c1.014,-0.627 1.189,-0.192 0.571,1.419c-0.867,2.259 -0.822,2.26 1.663,0.011c4.208,-3.809 2.815,-0.438 -2.231,5.4c-4.443,5.138 -4.707,5.266 -4.651,2.249l0,0ZM172.821,42.224c0,-0.697 -0.829,-0.562 -1.875,0.306c-1.031,0.856 -1.875,2.119 -1.875,2.806c0,0.698 0.829,0.562 1.875,-0.306c1.032,-0.856 1.875,-2.118 1.875,-2.806ZM29.905,47.947c-0.459,-0.458 -0.834,-1.415 -0.834,-2.125c0,-0.783 0.583,-0.709 1.48,0.187c0.813,0.814 1.188,1.77 0.833,2.125c-0.355,0.356 -1.021,0.271 -1.479,-0.187ZM204.071,43.78c0.736,-1.375 1.968,-2.5 2.738,-2.5c0.77,0 0.382,1.125 -0.863,2.5c-1.244,1.375 -2.476,2.5 -2.737,2.5c-0.262,0 0.127,-1.125 0.862,-2.5ZM71.673,42.72c-2.042,-3.816 -1.619,-4.878 0.651,-1.637c1.101,1.572 1.709,3.152 1.351,3.51c-0.358,0.358 -1.259,-0.485 -2.002,-1.873l0,0ZM45.881,36.981c-1.322,-2.018 -2.693,-2.783 -4.05,-2.262c-1.819,0.697 -1.844,0.556 -0.219,-1.239c1.68,-1.855 2.016,-1.796 3.994,0.7c1.188,1.499 2.172,2.199 2.188,1.556c0.015,-0.643 -1.192,-2.468 -2.683,-4.054l-2.71,-2.885l3.96,-1.381c2.178,-0.759 3.96,-1.981 3.96,-2.716c0,-0.735 0.356,-0.981 0.79,-0.547c0.434,0.434 1.806,0.245 3.049,-0.42c2.575,-1.378 4.048,0.086 2.954,2.936c-0.765,1.994 -2.577,2.096 -5.443,0.309c-1.35,-0.843 -1.578,-0.595 -0.951,1.037c0.554,1.446 0.351,1.853 -0.625,1.25c-0.99,-0.612 -1.174,-0.181 -0.582,1.362c0.765,1.996 0.618,2.056 -1.278,0.518c-1.842,-1.495 -1.992,-1.488 -1.064,0.05c1.034,1.715 1.923,8.835 1.103,8.835c-0.217,0 -1.294,-1.372 -2.393,-3.049l0,0ZM139.611,37.53c2.214,-8.143 7.503,-23.624 7.926,-23.201c0.552,0.552 -7.062,24.739 -8.087,25.688c-0.379,0.351 -0.307,-0.768 0.161,-2.487l0,0ZM92.48,30.942c-0.358,-0.932 -0.42,-3.347 -0.138,-5.366c0.396,-2.824 0.27,-3.109 -0.543,-1.238c-0.992,2.283 -1.106,2.247 -1.843,-0.57c-0.432,-1.652 -0.526,-3.262 -0.21,-3.579c0.316,-0.316 0.615,0.222 0.663,1.195c0.052,1.046 0.528,0.748 1.162,-0.729c0.959,-2.231 1.084,-2.257 1.163,-0.238c0.048,1.243 0.509,2 1.025,1.681c1.061,-0.656 1.116,8.796 0.057,9.855c-0.377,0.377 -0.979,-0.078 -1.336,-1.011l0,0ZM132.998,29.618c-0.893,-1.075 -2.27,-5.36 -3.061,-9.521c-0.791,-4.162 -1.819,-7.567 -2.285,-7.567c-0.465,0 -0.509,-1.265 -0.097,-2.812c0.748,-2.806 0.752,-2.805 1.634,0.312c0.811,2.869 0.893,2.901 1.008,0.39c0.086,-1.895 0.866,-2.678 2.541,-2.552c1.956,0.147 2.311,0.907 1.859,3.985c-0.552,3.763 -0.539,3.757 1.238,-0.573c2.557,-6.228 2.377,-3.879 -0.496,6.492c-1.366,4.927 -2.262,9.181 -1.991,9.451c0.271,0.271 1.421,-2.703 2.557,-6.609c2.857,-9.828 3.508,-8.03 0.873,2.412c-1.845,7.312 -2.392,8.265 -3.78,6.592l0,0ZM133.229,13.364l-0.84,-5.209l-1.062,3.75c-0.585,2.063 -0.706,5.719 -0.268,8.125c0.749,4.123 0.858,4.207 1.902,1.459c0.609,-1.604 0.729,-5.26 0.268,-8.125ZM136.67,29.301c0.06,-1.456 0.356,-1.752 0.755,-0.755c0.361,0.902 0.317,1.98 -0.098,2.396c-0.416,0.415 -0.711,-0.323 -0.657,-1.641l0,0ZM87.492,25.044c-1.083,-2.758 -1.479,-5.014 -0.879,-5.014c1.06,0 4.037,8.838 3.244,9.631c-0.218,0.218 -1.282,-1.86 -2.365,-4.617l0,0ZM189.071,26.28c0,-0.768 -0.556,-1.054 -1.235,-0.634c-0.716,0.443 -0.914,-0.075 -0.471,-1.23c0.421,-1.096 1.118,-1.554 1.548,-1.017c0.431,0.538 1.265,1.335 1.854,1.773c0.589,0.438 0.449,1.181 -0.312,1.651c-0.761,0.47 -1.384,0.226 -1.384,-0.543l0,0ZM137.935,25.57c-0.165,-1.936 3.716,-14.627 4.295,-14.048c0.269,0.269 -0.562,3.84 -1.846,7.936c-1.284,4.096 -2.386,6.846 -2.449,6.112l0,0ZM184.696,22.53c0.425,-0.687 1.021,-1.25 1.324,-1.25c0.303,0 0.551,0.563 0.551,1.25c0,0.688 -0.595,1.25 -1.323,1.25c-0.728,0 -0.977,-0.562 -0.552,-1.25ZM179.071,20.03c0,-0.687 0.596,-1.25 1.324,-1.25c0.728,0 0.976,0.563 0.551,1.25c-0.425,0.688 -1.02,1.25 -1.323,1.25c-0.304,0 -0.552,-0.562 -0.552,-1.25ZM84.821,16.78c-0.444,-1.159 -0.527,-2.389 -0.183,-2.733c0.343,-0.343 0.989,0.324 1.433,1.483c0.445,1.16 0.528,2.389 0.184,2.733c-0.344,0.344 -0.989,-0.323 -1.434,-1.483ZM90.42,16.695c-0.054,-0.803 -0.422,-2.491 -0.818,-3.75c-0.684,-2.177 -0.649,-2.179 0.713,-0.055c0.789,1.229 1.157,2.916 0.819,3.75c-0.444,1.094 -0.643,1.109 -0.714,0.055ZM175.321,16.28c-1.031,-0.666 -1.312,-1.211 -0.625,-1.211c0.688,0 2.094,0.545 3.125,1.211c1.032,0.667 1.313,1.212 0.625,1.212c-0.687,0 -2.093,-0.545 -3.125,-1.212ZM92.92,15.445c-0.054,-0.803 -0.422,-2.491 -0.818,-3.75c-0.684,-2.177 -0.649,-2.179 0.713,-0.055c0.789,1.229 1.157,2.916 0.819,3.75c-0.444,1.094 -0.643,1.109 -0.714,0.055ZM153.446,12.53c0.425,-0.687 1.021,-1.25 1.324,-1.25c0.303,0 0.551,0.563 0.551,1.25c0,0.688 -0.595,1.25 -1.323,1.25c-0.728,0 -0.977,-0.562 -0.552,-1.25ZM79.788,10.443c-0.441,-1.148 -0.094,-2.525 0.771,-3.059c1.693,-1.047 3.462,0.888 3.493,3.823c0.014,1.284 -0.52,1.105 -1.859,-0.625c-1.565,-2.023 -1.751,-2.063 -1.116,-0.239c0.973,2.793 -0.22,2.885 -1.289,0.1l0,0ZM110.302,8.468c-0.015,-2.19 -0.272,-2.412 -1.164,-1.003c-0.905,1.432 -1.311,1.148 -1.939,-1.354c-1.049,-4.181 -4.34,-4.133 -4.502,0.065l-0.125,3.229l-1.001,-3.125c-0.84,-2.624 -1.027,-2.724 -1.169,-0.625c-0.153,2.257 -0.343,2.196 -1.956,-0.625c-0.982,-1.718 -1.806,-2.388 -1.83,-1.488c-0.025,0.926 -0.679,1.244 -1.507,0.732c-0.982,-0.607 -1.202,-0.224 -0.669,1.163c0.569,1.484 -0.056,2.281 -2.217,2.823c-1.655,0.416 -3.604,0.388 -4.331,-0.061c-0.726,-0.449 -1.329,-0.08 -1.34,0.82c-0.014,1.222 -0.309,1.177 -1.167,-0.179c-1.425,-2.252 -0.597,-3.689 2.877,-4.992c1.963,-0.736 2.913,-0.46 3.534,1.026c0.755,1.805 0.859,1.811 0.938,0.054c0.05,-1.126 1.838,-2.473 4.15,-3.125c5.005,-1.414 17.187,-0.835 17.187,0.816c0,0.665 -1.405,0.856 -3.125,0.425c-1.884,-0.473 -3.125,-0.25 -3.125,0.562c0,0.74 0.844,1.022 1.875,0.626c1.419,-0.544 1.875,0.226 1.875,3.165c0,2.136 -0.281,3.883 -0.625,3.883c-0.343,0 -0.633,-1.265 -0.644,-2.812l0,0ZM139.445,10.03c0.31,-1.031 1.337,-1.663 2.283,-1.403c0.945,0.259 2.422,0.493 3.281,0.521c0.859,0.027 1.562,0.518 1.562,1.091c0,1.355 -1.415,1.293 -3.717,-0.162c-1.212,-0.767 -2.206,-0.653 -2.907,0.332c-0.744,1.044 -0.896,0.93 -0.502,-0.379l0,0ZM151.659,8.982c0.049,-0.455 0.572,-1.952 1.162,-3.327c0.987,-2.295 1.083,-2.244 1.182,0.625c0.087,2.559 0.347,2.785 1.433,1.25c1.036,-1.465 1.222,-1.489 0.85,-0.109c-0.465,1.728 -4.8,3.191 -4.627,1.561ZM104.645,7.447c-0.453,-0.733 -0.556,-1.601 -0.228,-1.929c0.327,-0.327 0.929,0.273 1.336,1.333c0.845,2.203 0.125,2.591 -1.108,0.596l0,0ZM146.571,5.178c0,-1.375 0.563,-2.848 1.25,-3.273c0.688,-0.425 1.25,0.353 1.25,1.728c0,1.375 -0.562,2.847 -1.25,3.272c-0.687,0.425 -1.25,-0.352 -1.25,-1.727ZM140.916,4.035c0.36,-0.94 0.655,-2.208 0.655,-2.818c0,-0.609 0.844,-0.784 1.875,-0.389c2.903,1.114 2.361,5.334 -0.655,5.106c-1.586,-0.119 -2.286,-0.829 -1.875,-1.899l0,0ZM150.42,4.301c0.06,-1.456 0.356,-1.752 0.755,-0.755c0.361,0.902 0.317,1.98 -0.098,2.396c-0.416,0.415 -0.711,-0.323 -0.657,-1.641l0,0ZM129.091,2.843c-0.011,-1.547 0.543,-2.813 1.23,-2.813c1.567,0 1.567,1.327 0,3.75c-0.979,1.517 -1.215,1.337 -1.23,-0.937ZM135.42,2.843c-0.071,-2.012 0.613,-2.813 2.401,-2.813c1.375,0 2.5,0.563 2.5,1.25c0,0.688 -0.796,1.25 -1.77,1.25c-0.974,0 -2.055,0.703 -2.402,1.563c-0.347,0.859 -0.675,0.297 -0.729,-1.25Z" style="fill:#000;fill-rule:nonzero;"/></svg>