<?xml version="1.0" standalone="no"?><!DOCTYPE svg PUBLIC "-//W3C//DTD SVG 1.1//EN" "http://www.w3.org/Graphics/SVG/1.1/DTD/svg11.dtd"><svg width="100%" height="100%" viewBox="0 0 243 266" version="1.1" xmlns="http://www.w3.org/2000/svg" xmlns:xlink="http://www.w3.org/1999/xlink" xml:space="preserve" style="fill-rule:evenodd;clip-rule:evenodd;stroke-linejoin:round;stroke-miterlimit:1.41421;"><path id="path3516" d="M93.122,264.651c-2.482,-1.082 -10.19,-8.597 -10.19,-9.934c0,-1.086 7.209,-9.815 8.522,-10.318c0.558,-0.215 1.426,0.03 1.928,0.544c1.266,1.295 4.23,9.47 3.882,10.704c-0.212,0.751 -0.132,0.794 0.314,0.164c0.451,-0.637 1.159,-0.346 2.867,1.179c1.248,1.114 2.594,2.021 2.99,2.016c0.44,-0.006 0.406,-0.211 -0.086,-0.524c-1.038,-0.659 -0.183,-2.049 1.895,-3.081c0.896,-0.445 1.71,-1.536 1.84,-2.466c0.128,-0.917 0.511,-2.006 0.851,-2.421c0.34,-0.414 0.636,-3.825 0.658,-7.579c0.039,-6.721 0.064,-6.827 1.636,-6.827c2.301,0 2.658,-1.124 0.527,-1.659c-1.333,-0.335 -1.571,-0.605 -0.899,-1.02c0.743,-0.459 0.761,-0.938 0.095,-2.545c-1.185,-2.86 -0.361,-5.419 1.847,-5.737c1.781,-0.256 1.779,-0.261 -0.493,-1.147l-2.283,-0.89l0.495,-8.493c0.273,-4.67 0.583,-11.45 0.689,-15.066c0.113,-3.847 0.53,-6.98 1.003,-7.551c0.878,-1.057 0.325,-2.65 -0.7,-2.016c-0.345,0.213 -0.627,-0.085 -0.627,-0.663c0,-0.578 0.455,-1.051 1.01,-1.051c0.556,0 1.011,-0.454 1.011,-1.01c0,-0.556 -0.285,-1.011 -0.634,-1.011c-0.386,0 -0.514,-5.602 -0.327,-14.317c0.408,-19.078 0.683,-22.05 2.14,-23.123c1.123,-0.827 1.123,-0.89 0,-1.325c-0.9,-0.349 -1.179,-1.238 -1.179,-3.754c0,-1.813 0.303,-3.297 0.674,-3.297c0.37,0 0.674,-0.455 0.674,-1.011c0,-0.555 -0.319,-1.01 -0.709,-1.01c-0.473,0 -0.651,-3.735 -0.535,-11.286c0.096,-6.207 -0.04,-11.892 -0.302,-12.633c-0.585,-1.658 -7.422,-3.923 -16.676,-5.524c-6.227,-1.077 -6.61,-1.068 -12.128,0.277c-3.133,0.763 -6.681,1.792 -7.884,2.285c-1.925,0.79 -2.327,0.758 -3.347,-0.262c-1.023,-1.024 -1.054,-1.418 -0.256,-3.348c0.498,-1.203 1.266,-4.158 1.707,-6.566c0.441,-2.409 0.985,-4.835 1.209,-5.391c0.223,-0.555 0.549,-1.768 0.722,-2.695c0.922,-4.915 4.089,-15.587 5.501,-18.528c1.523,-3.176 3.317,-7.762 4.217,-10.78c0.22,-0.742 0.603,-1.5 0.849,-1.685c0.247,-0.185 1.438,-2.762 2.646,-5.727c1.209,-2.964 2.581,-5.694 3.05,-6.066c0.469,-0.372 1.048,-1.282 1.286,-2.022c0.533,-1.652 3.574,-5.514 3.977,-5.05c5.142,5.918 8.017,10.687 4.869,8.075c-0.794,-0.659 -1.246,-0.685 -1.828,-0.103c-0.582,0.582 -0.494,1.359 0.354,3.138c0.621,1.301 0.906,2.36 0.634,2.353c-0.655,-0.015 -3.006,-2.56 -4.504,-4.873c-1.096,-1.693 -3.068,-2.56 -3.064,-1.347c0.001,0.278 1.214,2.289 2.695,4.47c3.921,5.771 3.329,6.383 -1.543,1.598c-1.248,-1.225 -2.501,-1.563 -2.501,-0.675c0,0.279 1.558,2.41 3.462,4.735c1.904,2.325 3.326,4.363 3.16,4.53c-0.166,0.166 -2.346,-1.394 -4.843,-3.467c-4.548,-3.775 -7.019,-4.506 -3.595,-1.063c3.087,3.104 7.402,8.232 6.928,8.232c-0.248,0 -1.318,-0.642 -2.378,-1.426c-3.075,-2.273 -3.687,-1.245 -1.256,2.107c2.292,3.158 1.966,3.018 -3.543,-1.518c-3.302,-2.719 -3.999,-3.012 -3.999,-1.683c0,0.95 3.128,4.541 3.956,4.541c0.56,0 4.803,5.636 4.803,6.381c0,0.238 -0.9,-0.099 -2,-0.749c-2.316,-1.368 -3.381,-0.787 -2.154,1.177c0.757,1.212 0.718,1.287 -0.363,0.698c-0.665,-0.362 -2.255,-1.745 -3.532,-3.072c-3.035,-3.156 -4.508,-3.219 -2.677,-0.116c0.745,1.264 1.796,2.468 2.335,2.674c0.539,0.207 0.98,0.724 0.98,1.149c0,0.425 1.087,2.254 2.415,4.064c2.946,4.013 2.311,4.243 -1.47,0.531c-1.546,-1.517 -3.302,-2.654 -3.901,-2.526c-0.814,0.173 0.039,1.577 3.365,5.54c5.482,6.53 4.46,6.038 -4.378,-2.107c-2.373,-2.188 -3.443,-2.692 -3.443,-1.624c0,0.312 2.123,2.895 4.717,5.741c2.594,2.845 4.716,5.336 4.716,5.535c0,0.869 -5.808,-4.006 -7.763,-6.515c-0.953,-1.224 -1.735,-1.616 -2.612,-1.308c-1.08,0.379 -0.68,1.078 2.928,5.116c2.299,2.573 4.809,5.546 5.578,6.608c1.297,1.792 1.306,1.881 0.118,1.232c-0.705,-0.384 -3.018,-2.39 -5.141,-4.457c-2.123,-2.068 -4.169,-3.759 -4.548,-3.759c-1.489,0 -0.513,1.765 3.435,6.207c2.267,2.551 3.996,4.765 3.841,4.919c-0.413,0.413 -3.921,-2.977 -3.921,-3.79c0,-0.382 -0.485,-0.21 -1.077,0.382c-0.986,0.986 -0.986,1.214 0,2.719c1.393,2.126 1.36,2.312 -0.33,1.871c-1.174,-0.307 -1.369,-0.102 -1.179,1.242l0.228,1.61l9.096,-0.227c9.014,-0.226 9.159,-0.205 16.151,2.251c3.881,1.363 8.143,3.34 9.473,4.393c3.754,2.973 5.256,3.073 10.364,0.684c7.417,-3.467 16.648,-4.869 21.966,-3.335l3.021,0.872l-6.4,0.522c-7.688,0.628 -17.012,3.378 -20.049,5.915c-2.18,1.82 -2.197,1.88 -2.544,9.191c-0.192,4.047 -0.472,19.638 -0.621,34.646c-0.337,33.745 -1.12,63.334 -1.677,63.334c-0.231,0 -0.305,2.046 -0.164,4.548c0.14,2.501 -0.069,8.328 -0.464,12.949c-0.613,7.164 -1.024,9.022 -2.793,12.615c-4.308,8.75 -13.439,13.092 -20.79,9.885l0,0ZM93.039,263.435c0,-0.163 -0.303,-0.484 -0.674,-0.713c-0.371,-0.229 -0.674,-0.096 -0.674,0.297c0,0.392 0.303,0.713 0.674,0.713c0.371,0 0.674,-0.133 0.674,-0.297l0,0ZM105.167,263.058c0,-0.37 -0.134,-0.673 -0.298,-0.673c-0.163,0 -0.484,0.303 -0.713,0.673c-0.229,0.371 -0.095,0.674 0.297,0.674c0.392,0 0.714,-0.303 0.714,-0.674ZM95.397,256.321c-0.229,-0.371 -0.702,-0.674 -1.05,-0.674c-0.349,0 -0.634,0.303 -0.634,0.674c0,0.37 0.472,0.674 1.05,0.674c0.578,0 0.863,-0.304 0.634,-0.674ZM88.996,255.647c0,-0.37 -0.134,-0.674 -0.297,-0.674c-0.163,0 -0.484,0.304 -0.713,0.674c-0.229,0.371 -0.096,0.674 0.297,0.674c0.392,0 0.713,-0.303 0.713,-0.674ZM91.299,253.217c1.111,-0.426 1.512,-2.96 0.47,-2.96c-0.328,0 -1.093,0.758 -1.7,1.684c-1.106,1.687 -0.764,2.041 1.23,1.276l0,0ZM115.817,224.673c0.19,-3.29 -0.61,-5.568 -1.607,-4.571c-0.501,0.501 -0.896,7.368 -0.467,8.125c0.828,1.462 1.889,-0.356 2.074,-3.554ZM113.252,219.264c0,-0.371 -0.303,-0.674 -0.674,-0.674c-0.371,0 -0.674,0.303 -0.674,0.674c0,0.37 0.303,0.673 0.674,0.673c0.371,0 0.674,-0.303 0.674,-0.673ZM116.284,217.916c-0.229,-0.37 -0.702,-0.674 -1.051,-0.674c-0.348,0 -0.634,0.304 -0.634,0.674c0,0.371 0.473,0.674 1.051,0.674c0.577,0 0.863,-0.303 0.634,-0.674ZM116.231,211.484c0.237,-0.943 0.244,-2.018 0.015,-2.387c-0.228,-0.37 -0.049,-1.114 0.399,-1.654c0.512,-0.617 0.552,-0.981 0.107,-0.981c-0.393,0 -0.593,-0.897 -0.451,-2.021c0.166,-1.314 -0.042,-2.021 -0.595,-2.021c-0.601,0 -0.898,1.582 -1.011,5.39c-0.155,5.246 0.655,7.185 1.536,3.674l0,0ZM113.589,211.179c0.229,-0.371 0.113,-0.674 -0.258,-0.674c-0.37,0 -0.861,0.303 -1.09,0.674c-0.229,0.37 -0.113,0.673 0.258,0.673c0.37,0 0.861,-0.303 1.09,-0.673ZM113.926,209.534c0,-0.164 -0.304,-0.485 -0.674,-0.714c-0.371,-0.229 -0.674,-0.095 -0.674,0.297c0,0.393 0.303,0.714 0.674,0.714c0.37,0 0.674,-0.134 0.674,-0.297l0,0ZM112.318,206.575c0.042,-0.803 -0.186,-1.46 -0.506,-1.46c-0.32,0 -0.581,0.278 -0.581,0.618c0,0.341 -0.2,1.14 -0.445,1.777c-0.312,0.813 -0.161,1.063 0.506,0.841c0.522,-0.174 0.984,-0.973 1.026,-1.776l0,0ZM116.621,197.647c0,-1.642 -1.575,-1.41 -1.903,0.28c-0.129,0.665 0.215,1.124 0.843,1.124c0.625,0 1.06,-0.576 1.06,-1.404l0,0ZM116.621,191.639c0,-1.853 -0.304,-3.369 -0.674,-3.369c-0.371,0 -0.697,0.228 -0.725,0.506c-0.464,4.548 -0.333,6.232 0.485,6.232c0.647,0 0.914,-0.983 0.914,-3.369ZM116.702,184.396c0.251,-9.805 0.196,-11.3 -0.418,-11.448c-0.371,-0.089 -0.702,0.972 -0.737,2.359c-0.035,1.386 -0.145,4.491 -0.246,6.9c-0.22,5.271 -0.206,5.39 0.646,5.39c0.37,0 0.71,-1.44 0.755,-3.201ZM116.108,171.258c0.943,-0.727 1.14,-3.307 1.44,-18.848c0.192,-9.903 0.096,-18.162 -0.211,-18.352c-0.595,-0.367 -0.518,-3.395 0.129,-5.079c0.214,-0.556 0.553,-3.047 0.755,-5.536c0.375,-4.637 -0.193,-6.018 -1.896,-4.605c-0.681,0.566 -0.903,2.931 -0.88,9.392c0.016,4.75 -0.206,9.018 -0.494,9.484c-0.293,0.474 -0.169,1.068 0.281,1.346c1.147,0.709 0.362,31.745 -0.821,32.497c-0.474,0.301 -0.521,0.527 -0.109,0.533c0.393,0.005 1.205,-0.369 1.806,-0.832l0,0ZM76.868,100.681c0,-0.371 -0.472,-0.674 -1.05,-0.674c-0.578,0 -0.863,0.303 -0.634,0.674c0.229,0.37 0.702,0.674 1.05,0.674c0.349,0 0.634,-0.304 0.634,-0.674l0,0ZM82.932,78.783c0,-0.555 -0.303,-1.01 -0.673,-1.01c-0.371,0 -0.674,0.455 -0.674,1.01c0,0.556 0.303,1.011 0.674,1.011c0.37,0 0.673,-0.455 0.673,-1.011ZM86.288,71.356c-0.469,-0.565 -1.028,-0.852 -1.242,-0.637c-0.215,0.214 0.056,0.671 0.601,1.016c1.426,0.902 1.613,0.792 0.641,-0.379l0,0ZM90.344,63.786c0,-0.282 -0.607,-0.891 -1.348,-1.353c-1.096,-0.685 -1.347,-0.673 -1.347,0.062c0,0.497 0.202,1.106 0.449,1.353c0.614,0.614 2.246,0.569 2.246,-0.062l0,0ZM96.422,46.788c-1.255,-0.775 -1.649,-0.381 -1.086,1.086c0.346,0.901 0.62,0.974 1.257,0.338c0.636,-0.637 0.599,-0.948 -0.171,-1.424l0,0ZM156.909,116.155c-0.684,-1.191 -1.704,-1.999 -2.526,-1.999c-1.811,0 -1.775,-1.087 0.052,-1.564c1.124,-0.294 1.343,-0.723 1.023,-2.001c-0.225,-0.894 -0.587,-2.808 -0.805,-4.252c-2.194,-14.518 -6.868,-33.329 -9.858,-39.683c-1.672,-3.552 -1.778,-4.135 -0.874,-4.802c0.907,-0.67 0.887,-0.797 -0.166,-1.073c-1.255,-0.33 -1.783,-1.255 -4.121,-7.211c-0.789,-2.008 -3.788,-7.69 -6.665,-12.626c-5.62,-9.641 -7.165,-10.926 -7.971,-6.629c-0.243,1.297 -0.696,2.358 -1.007,2.358c-0.946,0 -6.62,-4.042 -7.562,-5.387c-0.636,-0.908 -1.158,-1.079 -1.862,-0.611c-0.782,0.521 -0.133,1.424 3.237,4.504c2.319,2.119 4.214,4.085 4.211,4.37c-0.003,0.285 -0.762,0.328 -1.689,0.096c-2.38,-0.598 -2.105,0.25 1.179,3.629l2.864,2.946l-3.656,-2.247c-2.011,-1.236 -4.239,-3.232 -4.951,-4.436c-0.713,-1.205 -1.558,-2.19 -1.88,-2.19c-0.869,0 -6.694,-6.25 -6.694,-7.182c0,-0.443 0.53,-0.926 1.179,-1.074c0.648,-0.148 -0.384,-0.397 -2.295,-0.554c-1.911,-0.158 -3.35,-0.087 -3.199,0.157c0.151,0.244 0.009,1.153 -0.316,2.021c-0.55,1.469 -0.651,1.38 -1.455,-1.285c-0.476,-1.575 -1.272,-2.863 -1.769,-2.863c-1.096,0 -1.145,1.129 -0.169,3.927c1.104,3.169 0.387,4.019 -1.168,1.383c-1.062,-1.8 -1.217,-2.661 -0.692,-3.838c0.736,-1.65 -0.221,-3.317 -1.464,-2.549c-0.511,0.316 -0.615,4.108 -0.114,4.108c0.047,0 0.209,1.213 0.36,2.696c0.151,1.482 0.442,3.377 0.648,4.211c0.559,2.272 -0.991,1.851 -1.882,-0.512c-1.039,-2.751 -2.183,-2.13 -2.003,1.088l0.148,2.624l-1.432,-3.032c-1.034,-2.189 -1.512,-2.696 -1.719,-1.822c-0.158,0.665 0.026,2.105 0.407,3.2c1.081,3.101 -0.241,2.339 -1.513,-0.873c-1.055,-2.66 -1.056,-2.911 -0.021,-3.537c4.097,-2.479 5.356,-3.593 5.546,-4.908c0.286,-1.985 -1.465,-1.969 -2.425,0.023c-0.544,1.128 -0.743,1.229 -0.777,0.392c-0.025,-0.618 -0.215,-1.564 -0.421,-2.103c-0.207,-0.538 0.118,-1.472 0.722,-2.076c1.014,-1.014 0.969,-1.098 -0.596,-1.098c-2.193,0 -2.739,0.979 -2.522,4.521c0.16,2.589 0.022,2.891 -1.314,2.891c-0.821,0 -1.881,0.53 -2.355,1.178c-0.791,1.083 -0.896,1.038 -1.295,-0.55c-0.723,-2.883 -0.119,-8.184 0.998,-8.752c2.129,-1.082 12.809,-3.285 13.899,-2.867c0.7,0.269 0.979,0.171 0.717,-0.252c-0.578,-0.936 12.403,-2.505 17.339,-2.096c2.097,0.174 3.543,0.138 3.213,-0.079c-0.699,-0.459 -1.089,-9.559 -0.491,-11.443c0.252,-0.793 0.844,-1.163 1.561,-0.975c1.354,0.354 1.456,2.94 0.231,5.904c-0.639,1.548 -0.634,2.075 0.024,2.482c1.052,0.65 1.911,0.147 1.911,-1.118c0,-0.534 0.266,-0.971 0.591,-0.971c0.326,0 0.445,1.3 0.266,2.89c-0.221,1.955 -0.03,3.127 0.588,3.623c0.502,0.404 6.509,1.554 13.348,2.556c11.373,1.667 25.97,5.337 25.333,6.369c-0.134,0.217 0.459,0.437 1.318,0.489c2.026,0.121 10.126,3.979 19.898,9.477c5.002,2.814 10.336,6.576 14.945,10.541c7.282,6.263 21.646,21.317 26.359,27.626c2.724,3.645 10.491,18.604 13.523,26.045c0.981,2.406 2.228,5.179 2.772,6.162c1.111,2.007 1.311,5.009 0.373,5.589c-1.171,0.723 -4.094,-0.946 -7.041,-4.022c-2.444,-2.551 -3.249,-3.012 -4.65,-2.66c-1.802,0.452 -3.124,-0.692 -2.046,-1.77c0.378,-0.379 2.276,-0.077 4.865,0.772c2.334,0.767 4.413,1.224 4.621,1.016c0.539,-0.539 -2.328,-8.883 -3.633,-10.573c-0.392,-0.506 -1.398,-2.652 -2.237,-4.768c-0.839,-2.116 -1.949,-4.2 -2.468,-4.63c-0.519,-0.431 -0.943,-1.201 -0.943,-1.711c0,-0.511 -0.3,-0.928 -0.666,-0.928c-0.366,0 -1.806,-2.249 -3.2,-4.997c-1.605,-3.163 -4.389,-6.98 -7.588,-10.403c-2.78,-2.974 -6.555,-7.129 -8.39,-9.234c-3.406,-3.905 -15.946,-15.119 -16.909,-15.119c-0.292,0 -3.654,-2.122 -7.471,-4.716c-3.818,-2.594 -7.429,-4.716 -8.026,-4.716c-0.597,0 -4.289,-1.549 -8.205,-3.443c-11.434,-5.529 -21.019,-8.285 -20.245,-5.822c0.146,0.464 4.34,2.977 9.321,5.585c4.98,2.608 10.839,5.943 13.019,7.411c2.18,1.468 5.198,3.504 6.707,4.524c4.185,2.829 6.925,5.661 11.896,12.295c2.499,3.335 5.362,6.973 6.362,8.085c1,1.111 3.142,3.851 4.761,6.088c4.322,5.972 17.075,33.883 16.159,35.365c-0.149,0.241 0.568,1.442 1.592,2.67l1.863,2.232l1.983,-1.265c1.091,-0.695 2.194,-1.566 2.452,-1.934c0.258,-0.369 0.65,-0.489 0.87,-0.268c0.221,0.22 -0.293,2.106 -1.142,4.19c-1.458,3.578 -2.637,4.619 -3.553,3.137c-0.812,-1.314 -6.428,-3.283 -10.654,-3.735c-2.661,-0.285 -5.737,-0.153 -7.964,0.343c-1.996,0.444 -4.538,0.698 -5.65,0.564c-1.975,-0.238 -1.944,-0.279 1.348,-1.801c2.867,-1.325 4.121,-1.508 8.422,-1.226c2.779,0.182 5.887,0.544 6.906,0.804c1.665,0.424 1.853,0.296 1.853,-1.267c0,-0.957 -0.485,-3.167 -1.077,-4.912c-1.76,-5.184 -14.379,-30.649 -16.641,-33.581c-6.865,-8.9 -11.621,-14.5 -12.314,-14.5c-0.436,0 -0.971,-0.889 -1.188,-1.975c-0.659,-3.296 -10.607,-10.774 -23.497,-17.664c-9.979,-5.334 -11.169,-5.727 -12.997,-4.293c-1.318,1.035 -1.289,1.106 1.302,3.231c8.378,6.871 12.305,10.524 15.581,14.496c3.948,4.787 4.429,5.864 2.32,5.194c-1.632,-0.518 -1.682,-0.125 -0.26,2.045c1.146,1.749 2.951,2.249 2.959,0.819c0.003,-0.463 0.624,0.067 1.381,1.179c2.203,3.235 10.069,16.482 10.069,16.957c0,0.238 -0.609,-0.118 -1.352,-0.79c-1.741,-1.576 -2.291,-0.998 -1.242,1.305c0.653,1.432 1.153,1.731 2.384,1.422c1.252,-0.315 1.557,-0.118 1.557,1.006c0,0.769 0.591,2.694 1.313,4.278c3.913,8.59 7.073,18.671 6.57,20.958c-0.164,0.745 -0.541,1.937 -0.839,2.65c-0.429,1.029 -0.315,1.209 0.555,0.876c2.443,-0.938 4.04,7.031 1.705,8.506c-0.866,0.546 -1.445,0.443 -2.411,-0.432c-0.7,-0.633 -1.627,-1.15 -2.061,-1.15c-1.108,0 -0.982,-1.023 0.252,-2.047c0.601,-0.499 0.852,-1.318 0.594,-1.935c-0.246,-0.59 -0.576,-2.133 -0.734,-3.43c-0.158,-1.297 -0.88,-4.285 -1.605,-6.64c-0.725,-2.355 -1.318,-4.819 -1.318,-5.476c0,-0.657 -0.454,-1.572 -1.01,-2.033c-0.556,-0.461 -1.011,-1.355 -1.011,-1.985c0,-0.631 -1.061,-3.595 -2.358,-6.588c-1.297,-2.993 -2.358,-5.89 -2.358,-6.437c0,-0.547 -0.45,-1.369 -1,-1.825c-0.933,-0.775 -2.121,-2.759 -7.264,-12.137c-3.604,-6.573 -10.885,-15.702 -16.712,-20.952c-9,-8.111 -17.009,-13.41 -20.267,-13.41c-1.604,0 -0.069,3.212 4.548,9.515c4.668,6.372 10.069,16.282 12.625,23.163c5.287,14.236 11.694,36.326 11.074,38.186c-0.389,1.167 -3.113,-7.814 -4.149,-13.681c-0.09,-0.508 -0.726,-2.743 -1.414,-4.966c-0.687,-2.223 -1.281,-4.346 -1.319,-4.716c-0.311,-3.046 -5.192,-14.486 -6.181,-14.486c-0.514,0 -0.934,0.276 -0.934,0.613c0,1.202 2.89,8.146 3.391,8.146c0.28,0 0.503,0.682 0.495,1.516c-0.008,0.833 0.504,3.638 1.135,6.232c0.631,2.594 1.405,6.136 1.721,7.872c0.315,1.735 0.868,3.706 1.227,4.379c0.359,0.673 0.862,3.043 1.118,5.267c0.255,2.223 0.575,4.8 0.71,5.727c0.134,0.926 0.429,3.958 0.654,6.737c0.226,2.78 0.704,5.351 1.064,5.715c0.428,0.432 1.641,0.167 3.497,-0.762c5.741,-2.875 9.245,-3.793 12.995,-3.406c1.976,0.204 4.139,0.692 4.805,1.085c0.928,0.546 0.09,0.697 -3.561,0.642c-2.626,-0.039 -5.411,0.27 -6.188,0.686c-0.778,0.416 -2.106,0.757 -2.951,0.757c-0.915,0 -2.775,1.218 -4.593,3.009l-3.056,3.01l-1.147,-1.999l0,0ZM241.267,110.135c0,-0.359 -0.454,-0.478 -1.01,-0.265c-0.556,0.213 -1.011,0.507 -1.011,0.653c0,0.145 0.455,0.264 1.011,0.264c0.556,0 1.01,-0.293 1.01,-0.652l0,0ZM190.47,109.048c-0.225,-0.586 -0.409,-1.211 -0.409,-1.388c0,-0.176 -0.29,-0.142 -0.644,0.077c-0.782,0.484 -0.154,2.376 0.788,2.376c0.371,0 0.49,-0.479 0.265,-1.065l0,0ZM241.267,108.092c0,-0.37 -0.321,-0.674 -0.713,-0.674c-0.392,0 -0.526,0.304 -0.297,0.674c0.229,0.371 0.55,0.674 0.713,0.674c0.164,0 0.297,-0.303 0.297,-0.674l0,0ZM188.346,99.839c-0.613,-2.033 -1.654,-3.105 -1.654,-1.706c0,1.618 0.73,3.222 1.465,3.222c0.358,0 0.443,-0.679 0.189,-1.516ZM186.046,92.016c-0.794,-2.766 -1.985,-4.811 -2.802,-4.811c-0.389,0 -0.549,0.379 -0.357,0.843c0.192,0.463 0.72,1.979 1.173,3.369c0.992,3.039 2.846,3.598 1.986,0.599l0,0ZM181.976,82.601c0,-0.877 -0.801,-1.46 -1.452,-1.058c-0.697,0.431 -0.096,1.62 0.818,1.62c0.349,0 0.634,-0.253 0.634,-0.562l0,0ZM175.912,69.088c0,-1.048 -2.559,-3.8 -3.065,-3.296c-0.582,0.58 1.467,3.896 2.407,3.896c0.362,0 0.658,-0.27 0.658,-0.6ZM171.87,61.685c0,-0.862 -1.982,-2.369 -2.471,-1.879c-0.489,0.489 1.018,2.47 1.879,2.47c0.325,0 0.592,-0.266 0.592,-0.591ZM146.106,58.402c-0.77,-1.622 -1.836,-4.173 -2.605,-6.232c-1.208,-3.239 -3.305,-6.738 -4.039,-6.738c-0.833,0 -0.791,0.184 0.709,3.137c2.008,3.95 4.074,8.834 4.074,9.628c0,0.39 0.473,0.71 1.05,0.71c0.578,0 0.943,-0.227 0.811,-0.505ZM163.111,48.878c0,-0.328 -0.758,-1.093 -1.685,-1.7c-1.928,-1.263 -2.206,-0.744 -0.569,1.064c1.19,1.315 2.254,1.615 2.254,0.636ZM138.383,43.193c-1.852,-3.065 -8.097,-10.521 -8.827,-10.54c-0.535,-0.014 -0.177,0.894 0.923,2.336c0.989,1.297 2.116,2.358 2.504,2.358c0.389,0 0.519,0.187 0.289,0.417c-0.229,0.229 -0.052,0.788 0.393,1.241c0.446,0.453 1.538,1.781 2.427,2.951c1.566,2.061 3.382,3.041 2.291,1.237ZM157.358,42.709c-1.92,-2.121 -11.069,-8.978 -11.46,-8.588c-0.495,0.496 10.621,9.879 11.758,9.925c0.708,0.029 0.633,-0.309 -0.298,-1.337ZM114.433,33.81c-1.051,-1.585 -3.202,-2.443 -3.202,-1.277c0,1.035 1.99,2.792 3.162,2.792c0.932,0 0.936,-0.163 0.04,-1.515l0,0ZM144.61,32.675c-0.245,-0.395 -0.767,-0.718 -1.161,-0.718c-0.447,0 -0.396,0.386 0.136,1.027c0.924,1.113 1.75,0.865 1.025,-0.309l0,0ZM119.45,31.148c-0.432,-0.432 -1.009,-0.562 -1.283,-0.289c-0.273,0.273 -0.059,0.767 0.475,1.098c1.258,0.777 1.826,0.209 0.808,-0.809l0,0ZM141.55,30.609c0,-0.37 -0.473,-0.674 -1.05,-0.674c-0.578,0 -0.863,0.304 -0.634,0.674c0.229,0.371 0.701,0.674 1.05,0.674c0.349,0 0.634,-0.303 0.634,-0.674ZM124.706,30.312c0,-0.711 -1.293,-1.01 -1.678,-0.388c-0.233,0.377 0.05,0.685 0.627,0.685c0.578,0 1.051,-0.134 1.051,-0.297ZM86.654,27.189c0.244,-0.769 0.248,-1.594 0.009,-1.833c-0.505,-0.505 -1.684,1.153 -1.699,2.39c-0.017,1.365 1.208,0.962 1.69,-0.556l0,-0.001ZM112.915,27.914c-0.229,-0.371 -0.929,-0.669 -1.556,-0.663c-0.982,0.009 -0.999,0.1 -0.128,0.663c1.319,0.853 2.211,0.853 1.684,0ZM127.125,27.829c4.053,-1.021 4.942,-2.722 2.63,-5.033c-1.178,-1.179 -2.111,-1.585 -2.889,-1.259c-0.632,0.265 -4.15,0.731 -7.817,1.035c-3.667,0.304 -6.894,0.796 -7.172,1.094c-1.073,1.151 0.621,3.573 2.532,3.622c1.031,0.026 2.481,0.308 3.222,0.626c1.933,0.831 6.001,0.794 9.494,-0.085l0,0ZM141.213,27.24c0.229,-0.37 -0.074,-0.673 -0.674,-0.673c-0.599,0 -0.902,0.303 -0.673,0.673c0.229,0.371 0.532,0.674 0.673,0.674c0.142,0 0.445,-0.303 0.674,-0.674ZM98.737,23.918c0.213,-0.345 0.13,-0.786 -0.185,-0.981c-0.315,-0.195 -0.572,0.088 -0.572,0.627c0,1.136 0.212,1.236 0.757,0.354l0,0ZM114.768,21.859c1.019,-0.005 1.853,-0.312 1.853,-0.683c0,-0.37 -1.516,-0.673 -3.369,-0.673c-2.654,0 -3.369,0.231 -3.369,1.089c0,0.801 0.401,0.981 1.516,0.683c0.834,-0.224 2.35,-0.411 3.369,-0.416ZM120.663,21.233c0,-0.79 -1.434,-1.298 -2.526,-0.896c-1.459,0.536 -0.915,1.513 0.842,1.513c0.926,0 1.684,-0.278 1.684,-0.617l0,0ZM115.869,108.378c-1.625,-1.349 -3.067,-2.559 -3.206,-2.688c-0.138,-0.129 -0.027,-0.778 0.247,-1.443c0.275,-0.664 0.441,-4.802 0.37,-9.196c-0.144,-8.888 -0.408,-8.62 4.557,-4.634c3.506,2.816 3.255,3.558 -0.491,1.453c-4.066,-2.285 -4.05,-1.121 0.036,2.69c3.415,3.185 3.918,4.968 0.586,2.078c-0.854,-0.741 -2.038,-1.338 -2.63,-1.326c-0.885,0.018 -0.843,0.197 0.232,1.011c0.72,0.544 1.479,0.989 1.689,0.989c0.209,0 0.797,0.943 1.308,2.095c0.747,1.689 0.76,2.198 0.067,2.626c-0.665,0.411 -0.52,1.083 0.639,2.959l1.5,2.426l-1.402,0c-1.512,0 -1.947,1.715 -0.561,2.21c0.464,0.166 0.656,0.504 0.427,0.752c-0.228,0.248 -1.744,-0.653 -3.368,-2.002l0,0ZM116.621,105.06c0,-0.556 -0.286,-1.01 -0.634,-1.01c-0.85,0 -1.458,1.052 -0.92,1.59c0.759,0.759 1.554,0.462 1.554,-0.58ZM116.621,100.344c-0.897,-1.081 -2.695,-1.38 -2.695,-0.449c0,0.922 0.816,1.46 2.216,1.46c1.095,0 1.176,-0.171 0.479,-1.011l0,0ZM64.404,107.41c-4.42,-2.087 -11.972,-4.065 -15.88,-4.159c-2.339,-0.057 -5.187,0.472 -7.891,1.463l-4.231,1.552l-2.506,-2.908c-3.611,-4.19 -4.327,-5.304 -4.009,-6.232c0.168,-0.489 1.198,0.203 2.532,1.702c1.238,1.39 2.764,2.527 3.391,2.527c1.518,0 2.804,-1.633 2.536,-3.218c-0.119,-0.702 0.514,-2.919 1.406,-4.925c0.893,-2.007 2.147,-4.861 2.788,-6.343c2.985,-6.908 4.908,-10.555 8.525,-16.171c5.756,-8.936 13.355,-18.772 16.576,-21.454c1.555,-1.295 4.298,-3.724 6.096,-5.397c3.419,-3.183 8.062,-6.5 9.098,-6.5c0.334,0 0.984,-0.455 1.445,-1.011c0.461,-0.556 1.064,-1.011 1.339,-1.011c0.568,0 2.977,9.384 2.524,9.837c-0.162,0.162 -1.138,-0.924 -2.17,-2.413c-1.751,-2.527 -3.041,-3.44 -3.041,-2.153c0,0.304 0.482,1.967 1.071,3.695c0.588,1.727 0.955,3.487 0.814,3.91c-0.229,0.687 -1.832,-2.518 -2.817,-5.633c-0.205,-0.648 -0.871,-1.179 -1.48,-1.179c-0.899,0 -1.024,0.441 -0.666,2.349c0.243,1.292 1.028,3.642 1.745,5.222c1.715,3.779 1.767,5.158 0.139,3.685c-1.633,-1.478 -3.152,-0.488 -2.5,1.63c1.097,3.563 -2.385,-2.443 -3.662,-6.316c-0.48,-1.456 -1.27,-2.527 -1.864,-2.527c-0.7,0 -0.887,0.374 -0.583,1.165c0.502,1.31 3.066,10.747 3.066,11.287c0,1.138 -1.172,0.033 -1.839,-1.733c-1.054,-2.793 -2.352,-1.9 -1.879,1.293l0.365,2.474l-1.328,-2.864c-0.73,-1.574 -1.672,-2.863 -2.093,-2.863c-1.038,0 -0.126,6.538 1.194,8.553c0.545,0.83 0.851,1.899 0.681,2.374c-0.17,0.475 -1.126,-0.955 -2.123,-3.179c-2.762,-6.154 -3.265,-7.074 -3.872,-7.074c-1.048,0 -0.564,2.073 2.217,9.493c1.528,4.076 2.63,7.559 2.449,7.74c-0.181,0.18 -1.355,-1.704 -2.609,-4.189c-2.322,-4.598 -3.965,-6.153 -3.965,-3.75c0,0.727 0.471,2.448 1.046,3.825c0.575,1.376 0.922,2.854 0.77,3.282c-0.152,0.429 -0.758,-0.357 -1.348,-1.747c-1.399,-3.295 -3.49,-3.546 -2.799,-0.337c0.26,1.205 0.857,2.948 1.327,3.874c1.165,2.295 2.347,6.739 1.792,6.736c-0.248,-0.001 -1.004,-1.348 -1.68,-2.991c-1.56,-3.795 -3.151,-5.299 -3.151,-2.98c0,0.881 0.283,2.586 0.627,3.788c0.345,1.202 0.378,2.185 0.073,2.185c-0.304,0 -0.744,-0.758 -0.976,-1.684c-0.233,-0.927 -0.872,-1.685 -1.421,-1.685c-1.148,0 -1.292,1.834 -0.341,4.336c0.362,0.95 0.399,1.728 0.082,1.728c-0.316,0 -0.944,-0.985 -1.394,-2.19c-1.926,-5.148 -2.958,-7.243 -3.568,-7.243c-0.358,0 -0.497,0.531 -0.309,1.18c0.187,0.648 0.713,2.695 1.168,4.547c0.456,1.853 1.139,3.976 1.518,4.717c0.681,1.331 0.672,1.331 -0.757,0.06c-2.067,-1.838 -2.393,-1.005 -1.199,3.068c1.214,4.139 0.99,4.956 -0.545,1.988c-1.452,-2.809 -2.707,-2.745 -2.066,0.106c0.271,1.204 0.647,2.872 0.836,3.705c0.254,1.12 0.04,1.516 -0.818,1.516c-0.913,0 -1.069,0.373 -0.725,1.741c0.574,2.289 -0.549,1.565 -1.633,-1.052c-0.463,-1.12 -1.246,-2.036 -1.739,-2.036c-0.739,0 -0.729,0.559 0.057,3.169c0.524,1.743 0.862,3.26 0.749,3.373c-0.112,0.112 -0.754,-0.405 -1.427,-1.148c-2.31,-2.553 -3.366,-0.922 -1.133,1.75c1,1.196 2.177,1.475 7.558,1.791c7.718,0.453 11.824,1.811 14.821,4.904c2.532,2.613 1.756,2.93 -2.384,0.975l0,0ZM49.244,90.867c0,-1.544 -1.322,-3.757 -1.996,-3.341c-0.663,0.41 0.67,4.396 1.47,4.396c0.289,0 0.526,-0.475 0.526,-1.055l0,0ZM48.907,84.51c-0.229,-0.37 -1.174,-0.673 -2.101,-0.673c-0.951,0 -1.503,0.293 -1.268,0.673c0.229,0.371 1.175,0.674 2.101,0.674c0.951,0 1.503,-0.293 1.268,-0.674l0,0ZM51.271,76.777c-0.494,-1.3 -0.95,-1.698 -1.415,-1.234c-0.464,0.465 -0.293,1.456 0.531,3.076c1.405,2.762 2.091,1.333 0.884,-1.842ZM55.982,72.427c0,-1.242 -1.326,-4.087 -1.904,-4.087c-0.325,0 -0.258,1.061 0.148,2.358c0.677,2.165 1.756,3.226 1.756,1.729l0,0ZM58.009,67.337c-0.458,-0.552 -1.134,-0.817 -1.502,-0.59c-0.406,0.252 -0.31,0.641 0.245,0.993c1.453,0.921 2.166,0.692 1.257,-0.403ZM70.131,52.843c0,-0.37 -0.455,-0.673 -1.011,-0.673c-0.556,0 -1.011,0.303 -1.011,0.673c0,0.371 0.455,0.674 1.011,0.674c0.556,0 1.011,-0.303 1.011,-0.674ZM72.778,52.001c-0.025,-0.463 -0.253,-1.361 -0.505,-1.996c-0.685,-1.727 -2.407,-0.404 -1.832,1.407c0.483,1.522 2.417,2.01 2.337,0.589l0,0ZM80.237,49.258c0,-1.11 -2.289,-6.521 -2.758,-6.521c-0.902,0 -0.741,3.851 0.225,5.399c0.686,1.099 2.533,1.917 2.533,1.122l0,0ZM159.078,102.573c0.008,-2.122 0.186,-2.631 0.664,-1.892c0.854,1.322 0.854,3.851 0,4.379c-0.41,0.254 -0.67,-0.72 -0.664,-2.487ZM0.901,98.887c-0.522,-0.211 -0.842,-1.669 -0.842,-3.836c0,-2.838 0.427,-4.145 2.267,-6.939c2.054,-3.119 6.704,-11.065 9.126,-15.596c0.522,-0.976 1.456,-2.24 2.075,-2.807c0.619,-0.568 3.3,-3.647 5.957,-6.842c6.273,-7.544 10.402,-11.306 12.973,-11.82c1.341,-0.269 2.286,-0.983 2.684,-2.031c0.76,-1.998 3.724,-4.658 6.171,-5.538c2.177,-0.782 2.238,-0.704 2.829,3.638c0.641,4.701 1.719,7.838 2.523,7.341c0.955,-0.591 0.002,-9.651 -1.217,-11.571c-0.537,-0.844 -0.822,-1.782 -0.636,-2.085c0.187,-0.302 2.314,-1.521 4.725,-2.708c2.412,-1.187 4.563,-2.447 4.781,-2.8c0.218,-0.353 1.256,-0.641 2.306,-0.641c1.131,0 2.079,-0.441 2.324,-1.081c0.244,-0.636 0.842,-0.916 1.455,-0.681c0.572,0.219 0.888,0.152 0.702,-0.149c-0.416,-0.672 14.668,-8.01 17.72,-8.621l2.203,-0.44l-0.48,6.328c-0.264,3.48 -0.585,6.446 -0.713,6.59c-0.128,0.144 -0.537,-0.538 -0.909,-1.516c-1.055,-2.777 -2.054,-2.094 -2.08,1.423c-0.023,3.05 -0.067,3.123 -0.933,1.56c-0.525,-0.949 -0.794,-2.864 -0.636,-4.548c0.218,-2.339 0.059,-2.908 -0.816,-2.908c-0.936,0 -1.042,0.751 -0.768,5.419c0.225,3.845 0.097,5.346 -0.443,5.168c-0.435,-0.144 -0.845,-2.173 -0.959,-4.745c-0.11,-2.472 -0.292,-4.494 -0.405,-4.494c-0.556,0 -6.911,3.617 -8.368,4.763c-1.219,0.959 -1.894,1.115 -2.53,0.587c-0.648,-0.538 -1.058,-0.367 -1.613,0.67c-0.948,1.77 -2.045,1.794 -2.045,0.044c0,-2.573 -1.267,-1.331 -1.719,1.684c-0.484,3.223 -1.65,4.175 -1.65,1.347c0,-0.994 -0.386,-1.684 -0.942,-1.684c-1.283,0 -1.686,5.51 -0.69,9.433c0.424,1.667 0.979,4.923 1.234,7.234c0.386,3.505 0.302,4.141 -0.506,3.83c-0.844,-0.323 -1.982,-5.946 -2.131,-10.523c-0.02,-0.629 -0.255,-1.361 -0.522,-1.628c-0.267,-0.267 -0.485,-1.041 -0.485,-1.721c0,-0.679 -0.339,-1.235 -0.753,-1.235c-0.416,0 -0.597,0.592 -0.406,1.323c0.19,0.727 -0.097,1.69 -0.638,2.139c-0.859,0.713 -0.85,0.891 0.07,1.406c0.579,0.324 1.053,1.446 1.053,2.492c0,1.047 0.39,3.079 0.867,4.515c0.489,1.474 0.694,3.785 0.47,5.306l-0.397,2.695l-1.045,-3.369c-1.283,-4.137 -2.984,-4.835 -3.387,-1.39c-0.153,1.312 0.078,2.768 0.513,3.235c1.06,1.138 1.858,6.578 0.966,6.578c-0.375,0 -0.682,-0.546 -0.682,-1.213c0,-0.667 -0.292,-1.505 -0.65,-1.863c-0.952,-0.952 -2.778,-10.236 -2.565,-13.041c0.154,-2.028 -0.049,-2.445 -1.273,-2.619c-1.388,-0.198 -1.44,-0.011 -1.128,4.042c0.18,2.338 1.214,7.462 2.298,11.388c1.084,3.926 1.97,7.337 1.97,7.58c0,0.953 -1.21,0.375 -1.542,-0.737c-0.193,-0.649 -1.117,-3.309 -2.051,-5.913c-0.95,-2.646 -1.89,-7.104 -2.13,-10.107c-0.482,-6.021 -0.849,-7.73 -1.66,-7.73c-1.695,0 -1.349,8.398 0.668,16.204c0.809,3.131 1.591,6.451 1.738,7.377c0.244,1.538 0.18,1.509 -0.731,-0.336c-0.548,-1.112 -1.479,-3.608 -2.068,-5.547c-1.035,-3.408 -2.002,-4.776 -2.807,-3.971c-0.466,0.466 1.32,8.206 3.564,15.448c1.85,5.968 1.831,5.86 1.049,5.86c-0.812,0 -5.343,-13.767 -5.975,-18.157c-0.524,-3.642 -1.677,-5.074 -2.454,-3.049c-0.826,2.152 2.5,15.263 5.929,23.375c1.517,3.588 1.312,5.477 -0.276,2.548c-2.715,-5.006 -6.425,-16.982 -7.118,-22.973c-0.511,-4.429 -1.252,-5.996 -2.326,-4.923c-0.501,0.501 -0.527,1.656 -0.083,3.7c2.506,11.56 4.467,18.672 6.496,23.554c2.453,5.906 2.672,6.706 1.835,6.706c-0.504,0 -1.093,-1.167 -3.233,-6.401c-0.606,-1.482 -1.495,-3.605 -1.976,-4.716c-0.481,-1.112 -1.369,-4.296 -1.973,-7.075c-0.605,-2.779 -1.596,-6.799 -2.202,-8.934c-1.019,-3.581 -1.192,-3.8 -2.246,-2.846c-1.027,0.93 -1.231,0.927 -2.019,-0.023c-1.54,-1.855 -1.917,-0.121 -1.009,4.637c0.924,4.837 3.056,8.448 3.024,5.121c-0.009,-0.914 -0.297,-2.873 -0.641,-4.355c-0.343,-1.482 -0.374,-2.945 -0.068,-3.252c0.661,-0.66 2.062,3.044 2.096,5.541c0.013,0.964 0.457,2.511 0.987,3.437c0.53,0.927 0.977,2.594 0.994,3.706c0.037,2.41 1.506,7.46 3.023,10.394c0.6,1.161 0.906,2.409 0.68,2.775c-0.568,0.919 -1.665,0.125 -1.665,-1.205c0,-0.602 -0.591,-2.328 -1.313,-3.835c-0.722,-1.506 -1.624,-3.573 -2.004,-4.592c-0.381,-1.019 -1.003,-1.853 -1.383,-1.853c-1.133,0 -0.794,2.338 1.069,7.365c2.396,6.463 2.05,7.134 -3.29,6.385c-2.308,-0.324 -6.688,-0.557 -9.735,-0.519c-5.198,0.065 -5.686,0.199 -7.94,2.178c-1.321,1.16 -2.467,2.085 -2.547,2.056c-0.079,-0.029 -0.524,-0.206 -0.987,-0.393l0,0ZM25.662,93.512c0,-1.285 -3.835,-8.265 -4.557,-8.294c-0.651,-0.026 -0.61,0.543 0.177,2.428c0.566,1.354 0.847,2.642 0.625,2.863c-0.68,0.677 -2.983,-2.681 -2.983,-4.349c0,-0.864 -0.323,-1.77 -0.718,-2.014c-1.041,-0.644 -1.611,0.184 -0.82,1.19c0.371,0.473 0.862,1.844 1.09,3.049c0.519,2.74 -0.974,3.028 -2.164,0.418c-0.962,-2.113 -1.625,-1.688 -1.707,1.094c-0.051,1.713 0.199,2.033 1.624,2.08c2.472,0.081 5.195,0.583 6.912,1.273c1.867,0.751 2.521,0.819 2.521,0.262l0,0ZM10.839,84.51c0,-0.37 -0.303,-0.673 -0.673,-0.673c-0.371,0 -0.674,0.303 -0.674,0.673c0,0.371 0.303,0.674 0.674,0.674c0.37,0 0.673,-0.303 0.673,-0.674ZM14.04,81.422c-0.642,-0.642 -1.93,0.398 -1.451,1.172c0.284,0.461 0.661,0.449 1.145,-0.035c0.397,-0.397 0.534,-0.908 0.306,-1.137l0,0ZM15.556,78.447c0,-0.371 -0.455,-0.674 -1.011,-0.674c-0.556,0 -1.011,0.303 -1.011,0.674c0,0.37 0.455,0.673 1.011,0.673c0.556,0 1.011,-0.303 1.011,-0.673ZM23.691,78.261c-0.083,-0.805 -1.007,-0.649 -1.297,0.219c-0.148,0.445 0.095,0.687 0.539,0.539c0.445,-0.148 0.786,-0.489 0.758,-0.758ZM19.598,71.25c0,-0.857 -0.187,-0.898 -1.003,-0.221c-0.552,0.458 -0.834,1.106 -0.627,1.441c0.531,0.86 1.63,0.038 1.63,-1.22l0,0ZM16.229,71.035c0,-0.37 -0.454,-0.674 -1.01,-0.674c-0.556,0 -1.011,0.304 -1.011,0.674c0,0.371 0.455,0.674 1.011,0.674c0.556,0 1.01,-0.303 1.01,-0.674ZM18.901,66.824c0.013,-0.278 -0.289,-0.505 -0.672,-0.505c-0.84,0 -1.984,2.791 -1.488,3.628c0.331,0.558 2.107,-2.011 2.16,-3.123l0,0ZM31.846,58.284c-0.239,-2.508 -1.365,-3.898 -1.542,-1.903c-0.123,1.385 0.188,4.174 0.526,4.727c0.731,1.196 1.26,-0.272 1.016,-2.824ZM35.769,57.56c0,-0.371 -0.304,-0.674 -0.674,-0.674c-0.371,0 -0.674,0.303 -0.674,0.674c0,0.37 0.303,0.674 0.674,0.674c0.37,0 0.674,-0.304 0.674,-0.674ZM35.095,54.865c0,-0.371 -0.285,-0.674 -0.634,-0.674c-0.349,0 -0.822,0.303 -1.051,0.674c-0.229,0.37 0.057,0.673 0.634,0.673c0.578,0 1.051,-0.303 1.051,-0.673ZM49.918,42.737c0,-0.741 -0.303,-1.348 -0.674,-1.348c-0.371,0 -0.674,0.607 -0.674,1.348c0,0.741 0.303,1.347 0.674,1.347c0.371,0 0.674,-0.606 0.674,-1.347ZM68.109,31.957c0,-0.371 -0.303,-0.674 -0.673,-0.674c-0.371,0 -0.674,0.303 -0.674,0.674c0,0.37 0.303,0.673 0.674,0.673c0.37,0 0.673,-0.303 0.673,-0.673ZM78.736,28.929c-0.073,-0.881 -0.471,-1.407 -0.931,-1.23c-0.927,0.356 -1.72,2.862 -1.181,3.734c0.63,1.019 2.245,-0.895 2.112,-2.504ZM52.248,95.92c-0.617,-1 -0.037,-1.415 1.275,-0.911c0.607,0.232 0.936,0.694 0.731,1.026c-0.505,0.816 -1.464,0.761 -2.006,-0.115ZM118.979,88.456c-1.112,-0.74 -2.855,-1.657 -3.874,-2.038c-1.13,-0.422 -1.853,-1.192 -1.853,-1.973c0,-2.112 1.547,-1.473 5.053,2.087c3.623,3.678 3.719,3.952 0.674,1.924ZM121.674,85.858c-0.229,-0.371 -0.095,-0.674 0.297,-0.674c0.392,0 0.714,0.303 0.714,0.674c0,0.371 -0.134,0.674 -0.298,0.674c-0.163,0 -0.484,-0.303 -0.713,-0.674ZM116.115,82.096c-3.427,-2.315 -4.479,-4.335 -2.8,-5.373c0.406,-0.251 0.599,-1.178 0.431,-2.061c-0.451,-2.358 0.88,-1.988 3.873,1.077c2.846,2.914 2.873,4.183 0.05,2.333c-2.745,-1.798 -2.8,-0.648 -0.118,2.485c2.059,2.404 2.974,3.994 2.27,3.941c-0.093,-0.007 -1.76,-1.088 -3.706,-2.402l0,0ZM41.003,77.802c-0.465,-1.658 -0.187,-2.618 0.547,-1.884c0.215,0.215 0.285,1.1 0.155,1.965l-0.237,1.574l-0.465,-1.655l0,0ZM119.367,74.129c-0.433,-0.522 -1.834,-1.445 -3.114,-2.053c-1.522,-0.722 -2.327,-1.575 -2.327,-2.466c0,-1.359 0.003,-1.359 1.852,-0.03c2.588,1.86 5.958,5.498 5.094,5.498c-0.395,0 -1.072,-0.427 -1.505,-0.949l0,0ZM117.128,68.428c-1.919,-1.063 -3.199,-2.244 -3.2,-2.951c-0.002,-1.322 1.364,-1.565 2.486,-0.443c0.406,0.406 1.3,0.613 1.988,0.461c1.005,-0.223 0.755,-0.579 -1.276,-1.815c-2.792,-1.698 -3.243,-2.751 -1.179,-2.751c1.579,0 1.797,-1.031 0.337,-1.592c-1.505,-0.577 -1.382,-6.219 0.154,-7.079c1.104,-0.618 1.104,-0.719 0,-1.939c-2.516,-2.78 -0.49,-4.049 2.086,-1.306c0.806,0.857 1.465,1.819 1.465,2.136c0,0.318 0.502,1.132 1.116,1.81c0.613,0.677 0.802,1.232 0.419,1.232c-0.383,0 -1.073,-0.455 -1.535,-1.011c-0.938,-1.13 -2.021,-1.338 -2.021,-0.388c0,0.342 1.116,2.085 2.479,3.874l2.48,3.252l-2.435,-1.853c-4.527,-3.446 -5.409,-1.926 -1.048,1.807c2.303,1.971 2.66,2.571 1.937,3.253c-0.706,0.665 -0.949,0.664 -1.195,-0.006c-0.17,-0.464 -0.589,-0.843 -0.932,-0.843c-0.343,0 -0.25,0.599 0.208,1.331c0.639,1.024 0.647,1.515 0.035,2.127c-0.613,0.612 -0.482,1.238 0.568,2.712c1.637,2.299 1.239,2.297 -2.937,-0.018l0,0ZM55.659,55.37c-0.811,-3.523 -1.42,-11.379 -0.907,-11.695c0.306,-0.189 0.556,-0.023 0.556,0.37c0,0.392 0.455,0.713 1.01,0.713c0.556,0 1.011,-0.588 1.011,-1.308c0,-2.448 1.278,-2.108 1.681,0.447c0.22,1.4 0.557,3.304 0.748,4.23c0.191,0.926 0.516,2.518 0.72,3.537c0.226,1.12 0.081,1.853 -0.364,1.853c-0.406,0 -0.921,-0.834 -1.144,-1.853c-0.699,-3.189 -0.896,-3.537 -2.002,-3.537c-0.708,0 -0.959,0.404 -0.733,1.179c0.907,3.112 1.208,7.58 0.51,7.58c-0.406,0 -0.895,-0.682 -1.086,-1.516l0,0ZM57.329,46.779c0,-0.37 -0.303,-0.673 -0.674,-0.673c-0.37,0 -0.673,0.303 -0.673,0.673c0,0.371 0.303,0.674 0.673,0.674c0.371,0 0.674,-0.303 0.674,-0.674ZM61.746,45.394c-1.04,-4.572 -0.938,-6.454 0.307,-5.684c0.324,0.2 0.777,1.796 1.008,3.548c0.23,1.752 0.575,4.018 0.766,5.037c0.191,1.02 0.044,1.853 -0.326,1.853c-0.371,0 -1.16,-2.139 -1.755,-4.754ZM119.335,47.466c-3.164,-2.094 -4.764,-4.075 -3.253,-4.028c1.004,0.032 6.956,5.234 6.505,5.685c-0.164,0.164 -1.628,-0.582 -3.252,-1.657ZM100.507,45c-1.513,-1.72 -2.752,-3.444 -2.752,-3.832c0,-0.854 3.65,2.536 5.498,5.106c2.162,3.009 0.238,2.116 -2.746,-1.274ZM65.533,44.808c-0.949,-2.722 -1.048,-6.351 -0.158,-5.801c0.731,0.452 1.669,5.914 1.239,7.207c-0.159,0.476 -0.646,-0.156 -1.081,-1.406ZM102.91,42.253c-1.723,-1.748 -3.134,-3.415 -3.134,-3.705c0,-1.182 1.191,-0.373 3.436,2.336c4.496,5.424 4.349,6.087 -0.302,1.369l0,0ZM68.531,41.979c-0.603,-3.015 -0.52,-5.98 0.168,-5.98c0.671,0 1.432,3.267 1.432,6.148c0,2.586 -1.072,2.473 -1.6,-0.168ZM104.513,39.389c-2.263,-2.422 -2.492,-3.747 -0.991,-5.733c1.266,-1.675 2.588,-0.967 5.126,2.745c2.289,3.348 1.846,3.823 -0.997,1.068c-1.989,-1.928 -3.832,-2.775 -3.832,-1.762c0,0.21 0.8,1.431 1.778,2.714c2.332,3.057 1.533,3.771 -1.084,0.968l0,0ZM122.695,6.859c0.006,-0.463 0.304,-1.297 0.663,-1.853c0.509,-0.788 0.656,-0.602 0.664,0.842c0.005,1.019 -0.293,1.853 -0.664,1.853c-0.37,0 -0.669,-0.379 -0.663,-0.842ZM119.572,2.68c-0.764,-1.99 1.047,-3.038 3.053,-1.767c0.808,0.511 0.79,0.763 -0.12,1.674c-1.335,1.335 -2.443,1.37 -2.933,0.093l0,0Z" style="fill:#000;fill-rule:nonzero;"/></svg>