<!DOCTYPE svg PUBLIC "-//W3C//DTD SVG 20010904//EN" "http://www.w3.org/TR/2001/REC-SVG-20010904/DTD/svg10.dtd">
<svg version="1.0" xmlns="http://www.w3.org/2000/svg" width="514px" height="333px" viewBox="0 0 5140 3330" preserveAspectRatio="xMidYMid meet">
<g id="layer1" fill="#2f2f2f" stroke="none">
 <path d="M3205 2900 c39 -4 108 -7 155 -7 l85 0 -65 7 c-36 4 -105 7 -155 7 l-90 0 70 -7z"/>
 <path d="M3747 2893 c18 -2 50 -2 70 0 21 2 7 4 -32 4 -38 0 -55 -2 -38 -4z"/>
 <path d="M3338 2863 c34 -2 88 -2 120 0 31 2 3 3 -63 3 -66 0 -92 -1 -57 -3z"/>
 <path d="M3628 2863 c12 -2 32 -2 45 0 12 2 2 4 -23 4 -25 0 -35 -2 -22 -4z"/>
 <path d="M3033 2833 c9 -2 23 -2 30 0 6 3 -1 5 -18 5 -16 0 -22 -2 -12 -5z"/>
 <path d="M3243 2833 c70 -2 184 -2 255 0 70 1 12 3 -128 3 -140 0 -198 -2 -127 -3z"/>
 <path d="M2533 2803 c20 -2 54 -2 75 0 20 2 3 4 -38 4 -41 0 -58 -2 -37 -4z"/>
 <path d="M2988 2803 c7 -3 16 -2 19 1 4 3 -2 6 -13 5 -11 0 -14 -3 -6 -6z"/>
 <path d="M3043 2803 c9 -2 25 -2 35 0 9 3 1 5 -18 5 -19 0 -27 -2 -17 -5z"/>
 <path d="M3283 2803 c48 -2 125 -2 170 0 45 1 6 3 -88 3 -93 0 -130 -2 -82 -3z"/>
 <path d="M2690 2760 c-30 -11 -64 -32 -77 -48 -24 -29 -38 -75 -28 -92 3 -5 2 -10 -4 -10 -11 0 -18 36 -12 69 2 12 18 38 37 56 32 33 32 33 5 22 -41 -15 -69 -64 -63 -110 4 -32 16 -51 70 -103 90 -89 108 -87 47 4 -47 69 -56 94 -45 129 l8 28 1 -31 c1 -32 31 -72 31 -41 0 10 9 6 31 -14 45 -42 58 -35 15 9 -65 66 -58 112 19 131 25 6 45 13 45 16 0 9 -25 4 -80 -15z m-35 -229 c-3 -3 -18 8 -33 23 l-27 29 32 -23 c18 -13 30 -26 28 -29z"/>
 <path d="M3178 2773 c84 -2 219 -2 300 0 81 1 12 3 -153 3 -165 0 -231 -2 -147 -3z"/>
 <path d="M2338 2743 c6 -2 18 -2 25 0 6 3 1 5 -13 5 -14 0 -19 -2 -12 -5z"/>
 <path d="M2508 2743 c12 -2 22 -9 22 -14 0 -5 -53 -9 -122 -9 -67 0 -119 -2 -117 -4 4 -4 130 -15 177 -16 12 0 22 -4 22 -10 0 -6 -40 -11 -97 -12 l-98 -2 97 -5 c53 -3 99 -9 103 -13 11 -10 -70 -20 -109 -13 -24 5 -36 3 -36 -4 0 -7 23 -11 59 -11 33 0 63 -5 67 -11 4 -8 -24 -10 -99 -7 -58 1 -100 0 -94 -4 7 -4 49 -8 95 -8 48 0 82 -4 82 -10 0 -6 -57 -11 -147 -12 l-148 -1 140 -8 c155 -7 145 -6 145 -16 0 -5 -36 -7 -81 -5 -56 3 -79 0 -74 -7 3 -6 40 -11 86 -11 47 0 79 -4 79 -10 0 -7 -38 -10 -101 -9 -55 0 -103 -2 -106 -5 -4 -3 36 -6 88 -6 52 0 101 -5 109 -10 16 -10 9 -11 -190 -12 l-95 -1 75 -7 c41 -4 105 -8 143 -9 37 0 67 -5 67 -11 0 -6 -47 -11 -117 -11 l-118 -2 134 -8 c143 -9 182 -18 85 -20 -32 -1 -45 -4 -29 -6 17 -2 41 -7 55 -10 21 -6 16 -8 -25 -13 l-50 -7 47 -1 c67 -3 72 -22 6 -23 -29 -1 -42 -4 -28 -6 95 -16 107 -35 65 -97 l-25 -37 22 3 c15 2 23 10 23 23 0 11 8 23 18 27 13 6 17 19 17 59 0 78 10 53 15 -37 4 -73 3 -77 -10 -54 -8 14 -14 19 -15 11 0 -8 -7 -23 -16 -32 -16 -17 -15 -19 10 -29 33 -12 49 -13 61 -1 6 5 34 14 63 20 47 10 59 9 100 -9 36 -16 43 -23 32 -30 -9 -6 -17 -5 -22 3 -6 9 -8 9 -8 0 0 -20 -20 -15 -21 5 0 14 -2 14 -9 -3 -5 -11 -9 -14 -9 -7 -1 10 -6 10 -22 2 -11 -7 -23 -9 -26 -6 -3 3 -13 1 -23 -4 -11 -6 -36 -4 -71 5 -66 18 -247 55 -263 54 -16 -1 65 -26 164 -50 47 -12 89 -25 93 -29 10 -9 17 -10 -233 36 -107 19 -231 41 -275 49 -44 8 -113 21 -153 30 -84 17 -110 19 -96 6 5 -5 61 -18 124 -29 63 -12 167 -30 230 -42 252 -45 297 -55 258 -58 -20 -2 -130 11 -245 28 -114 17 -242 35 -283 40 -41 5 -82 11 -91 15 -9 3 -19 0 -21 -7 -4 -9 6 -13 36 -14 37 -1 151 -17 524 -74 74 -11 141 -20 150 -21 10 0 12 -3 6 -5 -7 -3 -146 7 -310 21 -403 35 -414 36 -414 49 0 6 -11 -8 -25 -31 -34 -56 -62 -64 -91 -27 -30 37 -22 46 32 38 28 -4 44 -3 44 4 0 6 -19 12 -42 14 -37 3 -43 6 -40 23 5 31 14 34 60 26 23 -5 45 -5 47 -1 7 11 -20 20 -56 20 -24 0 -29 4 -29 25 0 24 2 24 48 19 33 -5 44 -3 37 4 -5 6 -26 12 -45 14 -32 3 -35 6 -41 41 -8 52 -21 62 -82 63 -50 2 -48 -3 5 -20 15 -4 16 -9 6 -31 -7 -15 -20 -25 -32 -25 -20 -1 -20 -2 -3 -14 25 -19 22 -54 -5 -59 -22 -3 -22 -4 5 -15 15 -6 27 -18 27 -26 0 -8 5 -18 12 -22 8 -5 9 0 6 14 -4 15 0 25 10 32 16 9 16 9 0 10 -12 0 -18 8 -18 25 0 17 6 25 18 25 16 1 16 1 -1 14 -14 11 -15 19 -8 39 5 14 7 28 4 31 -4 3 -2 6 4 6 27 0 35 -31 30 -109 -6 -100 -47 -184 -92 -189 -15 -2 -32 1 -38 7 -15 15 -27 14 -27 -4 0 -20 32 -35 61 -28 13 3 36 17 51 31 23 21 30 23 43 12 21 -17 19 -30 -5 -30 -11 0 -20 -4 -20 -10 0 -9 176 -12 703 -13 81 0 147 -4 147 -8 0 -5 -15 -9 -32 -9 -75 0 -138 -13 -138 -27 0 -9 6 -13 13 -10 7 3 20 -11 31 -34 11 -21 28 -47 39 -56 15 -14 14 -8 -6 22 -15 22 -27 51 -27 64 0 25 0 25 36 -10 l35 -34 -10 28 c-14 37 -14 42 3 28 11 -10 15 -8 19 6 4 16 6 16 12 -4 4 -11 15 -23 24 -26 10 -2 22 -22 30 -47 15 -52 27 -46 12 7 -6 21 -11 48 -11 61 0 22 0 22 20 2 11 -11 29 -48 41 -82 11 -34 27 -74 35 -90 21 -40 17 -47 -9 -17 -23 28 -77 66 -77 55 0 -4 12 -18 28 -32 l27 -25 -33 16 c-21 10 -31 12 -30 4 5 -19 -16 -21 -37 -3 -11 8 -13 13 -5 9 8 -4 4 3 -9 14 -24 21 -38 24 -103 21 -24 -1 -38 3 -38 10 0 9 11 10 37 5 l38 -7 -19 21 c-11 12 -21 19 -24 16 -3 -3 -11 0 -18 6 -7 5 -15 6 -18 1 -12 -20 -28 -152 -22 -184 9 -47 60 -126 95 -146 18 -10 32 -28 35 -46 4 -16 17 -44 31 -62 22 -29 24 -36 15 -85 -10 -61 -28 -119 -42 -134 -12 -13 1 45 14 62 5 6 5 13 0 17 -10 6 -32 -36 -32 -59 0 -8 -7 -15 -15 -15 -8 0 -17 -11 -21 -25 -3 -14 -9 -25 -13 -25 -9 0 -32 -62 -26 -68 3 -3 13 2 23 11 28 25 34 20 17 -13 -18 -35 -19 -46 -2 -33 6 6 22 13 35 16 17 4 22 1 22 -15 0 -10 4 -17 9 -14 5 4 13 -6 18 -21 l10 -28 6 26 c6 22 14 28 48 33 56 9 86 25 68 37 -16 10 -11 16 16 21 12 2 19 -2 17 -10 -1 -9 6 -10 23 -6 20 5 35 -1 63 -23 20 -16 48 -35 62 -42 19 -10 17 -6 -9 17 -41 35 -51 66 -18 56 21 -6 21 -5 3 8 -17 13 -17 15 -2 21 9 4 16 2 16 -3 0 -6 11 -10 25 -10 37 0 119 -23 130 -37 6 -7 24 -11 40 -9 17 2 46 5 65 6 l35 2 -30 8 -30 7 30 8 c26 7 27 9 10 16 -19 7 -19 8 -1 8 15 1 16 4 6 16 -10 12 -10 15 3 15 9 0 28 -5 43 -10 36 -14 162 -14 198 0 16 6 31 9 33 6 8 -8 -55 -36 -82 -36 -14 0 -24 -4 -21 -9 5 -8 52 -1 104 14 12 4 22 4 22 1 0 -4 -10 -11 -22 -16 -22 -8 -22 -9 5 -9 15 -1 27 -5 27 -11 0 -18 20 -11 21 8 0 12 4 10 12 -9 7 -15 18 -24 26 -21 26 9 2 -13 -36 -33 -50 -26 -50 -25 -33 -35 13 -8 12 -12 -5 -24 -36 -28 39 -1 113 40 59 32 64 33 39 10 -32 -30 -79 -56 -101 -56 -8 0 -18 -5 -21 -10 -10 -16 42 -1 108 31 64 31 69 23 7 -12 -22 -13 -40 -27 -40 -32 0 -5 6 -4 13 2 8 6 17 8 20 4 12 -12 7 -21 -15 -26 -12 -4 -19 -9 -16 -13 4 -3 22 -1 40 5 34 11 30 6 -19 -26 -17 -11 -17 -12 4 -12 12 -1 34 4 50 9 26 9 26 9 9 -5 -10 -8 -48 -24 -82 -35 -35 -12 -64 -26 -64 -30 0 -5 12 -5 28 0 78 26 135 39 126 30 -32 -32 -264 -84 -264 -60 0 5 14 10 30 10 17 0 30 5 30 11 0 8 -14 10 -45 6 -41 -6 -62 5 -32 16 6 3 -1 6 -18 7 l-30 2 30 13 c30 14 29 14 -30 16 -33 1 -50 4 -37 6 41 8 24 26 -20 20 -63 -8 -140 3 -134 19 4 10 -5 14 -32 14 -28 0 -33 -3 -22 -10 11 -7 4 -9 -25 -9 -22 1 -32 3 -22 6 9 2 17 9 17 14 0 11 -97 12 -104 1 -2 -4 12 -7 32 -5 l37 2 -35 -10 c-19 -6 -75 -25 -123 -41 -51 -17 -101 -28 -118 -26 -18 3 -26 1 -20 -5 5 -5 34 -7 65 -5 68 4 60 -8 -14 -21 l-55 -9 48 -1 c33 -1 46 -5 41 -12 -4 -7 -22 -9 -45 -6 -22 3 -37 1 -33 -4 3 -5 22 -9 42 -10 29 0 33 -2 17 -8 -11 -5 -27 -6 -35 -4 -10 3 -10 0 3 -10 10 -8 18 -18 18 -21 -3 -20 0 -26 9 -21 6 4 8 11 5 16 -4 5 -1 9 5 9 8 0 10 -9 6 -25 -9 -36 11 -103 34 -118 11 -6 20 -22 20 -35 0 -69 67 -140 142 -149 72 -9 98 -24 98 -58 0 -16 5 -37 10 -45 7 -11 10 -5 10 23 0 33 8 45 60 97 33 33 60 63 60 68 0 5 -20 -10 -44 -34 -24 -24 -50 -44 -57 -44 -11 1 -11 3 1 13 44 35 63 78 62 146 0 63 0 65 13 36 8 -16 17 -43 21 -60 l8 -30 6 35 6 35 6 -31 c4 -17 5 -42 2 -55 l-5 -24 15 25 c8 14 16 39 16 55 1 26 3 27 10 10 27 -63 -2 -123 -69 -143 -51 -16 -91 -63 -91 -107 0 -19 5 -37 10 -40 6 -4 10 7 10 25 0 29 24 90 36 90 3 0 2 -10 -2 -22 -4 -13 -7 -47 -6 -75 1 -29 -1 -53 -4 -53 -3 0 -20 9 -37 21 l-32 21 28 -26 c15 -14 37 -26 49 -26 17 0 19 5 15 26 -5 27 18 110 33 119 5 3 5 -9 -1 -27 -14 -51 6 -56 30 -7 l20 44 -6 -50 c-6 -58 2 -57 16 1 8 35 9 31 8 -37 0 -60 4 -82 19 -102 29 -40 37 -32 13 14 -19 38 -20 51 -14 147 7 103 8 105 23 76 10 -19 15 -52 14 -99 -4 -112 38 -160 119 -137 19 6 26 11 16 11 -28 2 -97 40 -96 54 1 18 17 54 18 40 1 -17 47 -39 99 -48 34 -5 47 -3 63 11 10 9 19 12 19 6 0 -18 -42 -52 -64 -52 -15 0 -17 -3 -9 -11 8 -8 19 -7 39 2 21 11 34 29 49 74 20 55 24 60 53 63 43 4 41 22 -3 22 -35 0 -94 41 -116 81 -16 30 4 22 26 -10 18 -28 62 -57 72 -47 2 2 -5 7 -16 11 -11 3 -43 43 -71 90 -28 47 -55 87 -61 90 -18 12 -9 25 19 25 31 0 58 -20 95 -71 34 -46 34 -59 1 -28 -24 21 -26 22 -16 3 6 -11 9 -30 6 -41 -4 -14 4 -28 25 -46 17 -14 31 -30 31 -34 0 -5 8 -9 18 -10 22 -1 139 -12 149 -14 26 -4 47 4 68 27 14 15 22 30 19 35 -3 5 2 21 10 36 11 20 15 23 16 11 0 -10 5 -18 10 -18 6 0 10 -11 10 -24 0 -32 -43 -82 -76 -90 -15 -4 -24 -9 -21 -12 10 -10 74 24 95 51 30 38 31 111 2 120 -11 3 -20 11 -20 16 0 6 4 8 9 5 5 -3 24 -3 42 1 l33 6 -48 14 c-37 11 -67 33 -141 105 -111 107 -108 105 -146 103 -17 -1 -28 3 -26 9 2 6 22 12 44 14 58 4 104 -27 160 -110 54 -80 88 -108 144 -115 27 -4 36 -9 27 -14 -10 -7 -9 -9 4 -9 9 0 20 5 23 10 3 6 20 10 36 10 35 0 99 25 99 38 0 5 14 15 31 22 17 7 44 30 61 51 l31 38 38 -19 c49 -26 80 -25 114 2 26 20 28 20 55 5 43 -26 76 -21 116 16 63 58 57 146 -15 211 -11 10 -18 23 -15 28 3 5 1 15 -5 22 -9 10 -8 15 3 19 8 3 17 1 19 -6 2 -7 8 -9 12 -5 4 4 -3 17 -16 29 -21 18 -21 20 -4 14 54 -19 61 -18 33 4 -16 12 -28 27 -28 32 0 6 11 1 25 -10 41 -32 80 -36 121 -12 l35 21 39 -20 c46 -24 117 -26 147 -5 19 13 22 13 27 0 9 -23 35 -19 29 5 -3 11 0 20 6 20 6 0 11 -5 11 -11 0 -8 11 -9 32 -5 34 7 58 23 58 39 0 5 -8 3 -18 -6 -25 -23 -35 -21 -27 4 5 16 0 28 -20 45 -36 31 -42 30 -74 -7 -52 -62 -80 -89 -90 -89 -20 0 -11 15 18 31 16 10 36 32 45 50 9 19 32 45 52 58 45 31 81 21 106 -29 11 -22 17 -28 18 -17 0 26 -26 73 -45 81 -26 9 -64 7 -88 -6 -20 -10 -21 -10 -8 5 7 10 24 17 37 17 12 0 26 5 29 10 12 19 -50 10 -92 -15 -52 -29 -56 -18 -8 24 31 27 41 30 76 26 23 -3 46 -8 52 -12 6 -4 7 -1 2 7 -6 10 -2 11 19 6 14 -3 26 -4 26 -1 0 12 -63 35 -97 35 -34 0 -41 4 -65 44 -18 30 -39 50 -67 62 -33 14 -41 23 -41 45 0 14 -8 33 -17 40 -11 10 -14 10 -9 2 4 -8 2 -13 -8 -13 -8 0 -16 -6 -19 -12 -8 -21 -35 22 -42 67 -9 54 -47 117 -92 154 -21 17 -32 31 -25 31 26 0 78 -28 111 -60 19 -18 43 -35 55 -36 111 -18 114 -18 146 14 16 17 30 39 30 49 0 29 -29 63 -53 62 -15 0 -17 -2 -7 -6 8 -3 23 -12 33 -21 20 -17 24 -40 4 -24 -7 6 -22 9 -33 6 -15 -4 -30 7 -61 43 -22 27 -57 60 -77 73 -26 18 -36 32 -36 52 0 74 -73 122 -151 99 -74 -22 -135 -11 -197 36 -42 32 -35 41 9 14 19 -12 41 -21 49 -21 8 0 1 9 -17 20 -27 16 -63 60 -49 60 3 0 22 -11 42 -25 20 -14 42 -25 48 -25 6 0 -4 9 -21 20 -35 21 -46 47 -15 35 9 -4 33 -8 52 -11 l35 -4 -37 11 c-44 13 -63 43 -20 33 26 -6 26 -6 7 9 -19 16 -19 16 17 17 20 0 40 5 43 10 4 7 -2 9 -18 5 -14 -4 -28 -2 -31 4 -5 7 2 11 16 12 l23 0 -23 16 c-21 15 -21 16 -5 29 13 9 59 14 158 15 l140 2 -135 9 c-96 6 -143 5 -163 -3 -15 -7 -31 -9 -34 -5 -4 4 3 9 15 13 12 3 22 9 22 14 0 5 80 10 178 11 l177 1 -140 8 c-77 5 -166 9 -197 9 -64 1 -77 14 -25 25 17 4 38 12 45 17 7 7 70 9 162 6 83 -2 146 0 142 4 -10 10 -293 4 -358 -7 -27 -4 -44 -3 -48 4 -5 7 1 11 14 11 12 0 18 4 15 10 -4 6 58 11 167 13 l173 3 -192 2 c-179 2 -194 1 -212 -17 -12 -12 -41 -22 -73 -26 -59 -7 -106 7 -156 45 -22 18 -28 19 -37 7 -22 -31 -103 -29 -113 3 -3 9 1 11 14 6 39 -15 74 -18 74 -7 0 6 -10 11 -23 11 -12 0 -28 9 -35 20 -11 18 -9 19 26 19 20 -1 143 0 272 1 l235 3 -130 9 c-71 5 -184 7 -250 5 -131 -5 -145 -3 -145 19 0 13 24 14 153 11 85 -2 162 0 173 4 10 4 -50 8 -133 8 -95 1 -153 5 -153 11 0 12 31 13 345 10 132 -1 238 0 235 3 -3 3 -131 8 -285 12 -154 4 -284 11 -290 16 -5 5 38 9 105 9 62 0 111 2 109 4 -3 3 -56 6 -119 7 -114 1 -115 1 -115 -22 0 -16 -11 -30 -32 -44 -18 -11 -32 -28 -33 -38 0 -10 -10 -32 -22 -48 -16 -21 -23 -45 -23 -76 -1 -40 -5 -49 -35 -74 -59 -50 -136 -50 -184 -2 -34 34 -33 50 0 24 40 -32 53 -25 16 8 -17 17 -32 33 -32 37 0 4 8 0 18 -9 35 -31 97 -47 139 -34 21 6 42 11 48 11 5 1 11 9 13 19 3 15 0 15 -33 -4 -42 -25 -103 -22 -144 8 -38 29 -38 47 1 23 22 -13 48 -19 78 -19 l45 2 -47 6 c-29 4 -57 16 -73 31 -31 29 -33 45 -2 26 12 -8 38 -17 57 -20 34 -5 34 -5 8 6 -28 12 -38 28 -17 28 5 0 8 4 4 9 -3 6 10 8 32 5 36 -4 37 -4 11 7 -46 18 -33 31 25 25 40 -4 44 -3 19 3 -54 14 -63 31 -17 32 l40 1 -38 11 c-57 18 -34 27 52 22 74 -4 69 0 -16 11 -69 9 -49 24 31 24 46 0 78 5 82 11 5 9 -10 10 -57 5 -53 -6 -62 -5 -51 6 10 10 59 13 210 12 160 -1 183 0 122 8 -112 13 -422 4 -500 -15 -55 -13 -59 -15 -29 -16 20 -1 58 6 85 14 62 19 61 19 39 -5 -10 -11 -13 -20 -7 -20 7 0 7 -11 -1 -36 -12 -41 -64 -85 -119 -103 -21 -7 -38 -19 -38 -27 0 -8 -7 -29 -16 -47 l-17 -32 22 19 c22 20 22 20 15 0 -14 -38 -46 -75 -83 -93 -77 -40 -205 -44 -301 -11 -40 15 -135 81 -166 116 -19 24 -21 24 -57 9 -46 -19 -157 -19 -203 0 -19 8 -32 10 -29 5 13 -21 -23 -9 -45 15 -12 13 -26 22 -30 20 -8 -5 -50 32 -50 44 0 5 -9 11 -20 14 -19 5 -19 5 0 -32 10 -20 44 -56 74 -80 62 -49 70 -69 9 -25 -26 19 -32 22 -20 8 19 -23 23 -39 6 -28 -6 3 -4 -7 5 -24 18 -35 28 -34 129 13 82 38 81 25 0 -18 -38 -20 -62 -37 -54 -37 8 0 33 11 55 24 42 24 146 47 116 25 -13 -9 -13 -11 -1 -16 9 -3 -5 -15 -35 -30 -27 -13 -42 -22 -33 -19 86 24 99 30 95 43 -10 26 9 12 32 -22 25 -39 30 -62 6 -27 -13 19 -21 22 -52 16 -48 -9 -89 -30 -101 -52 -7 -14 -18 -17 -45 -14 -20 2 -34 8 -31 12 3 5 -12 7 -32 4 l-38 -5 30 16 c17 8 21 13 10 9 -11 -3 -51 -7 -90 -9 -46 -3 -57 -1 -31 3 l39 7 -28 34 c-25 29 -30 31 -35 15 -6 -15 -16 -6 -54 46 -26 36 -49 76 -52 90 -3 14 -10 37 -15 51 -17 45 -13 122 10 165 12 21 21 46 21 56 0 9 5 20 10 23 21 13 9 25 -22 24 -24 -1 -27 -3 -10 -6z m1535 -346 c17 8 30 7 52 -6 22 -12 55 -16 128 -16 80 1 95 -1 82 -12 -10 -6 -43 -15 -74 -18 -94 -10 -99 -12 -33 -14 36 0 78 5 98 14 26 11 34 11 31 2 -2 -6 -25 -21 -50 -31 -41 -17 -55 -18 -105 -9 -31 5 -66 13 -77 17 -11 3 0 -4 25 -16 65 -31 171 -29 208 4 l27 23 -24 -27 c-33 -37 -82 -52 -155 -45 -40 4 -55 2 -44 -4 34 -19 131 -22 172 -5 39 16 39 16 22 -3 -21 -23 -102 -43 -148 -36 -26 4 -29 3 -13 -4 29 -14 84 -12 128 3 47 17 45 1 -4 -26 -26 -15 -47 -18 -89 -15 -34 3 -48 2 -35 -3 39 -17 118 -11 155 11 l35 21 -23 -25 c-43 -46 -152 -53 -225 -15 -12 6 -28 3 -55 -11 -49 -26 -83 -30 -140 -19 -65 14 -151 80 -152 117 0 11 6 9 22 -5 19 -16 20 -16 9 -1 -18 23 -6 34 16 15 10 -9 29 -21 43 -28 23 -12 22 -10 -5 16 -26 25 -28 29 -11 32 10 2 23 -1 29 -7 6 -6 15 -11 20 -11 5 0 1 7 -8 16 -22 23 -12 28 26 15 45 -16 60 -13 22 4 -18 8 -33 19 -33 24 0 6 13 8 33 4 l32 -6 -30 26 -30 26 55 -4 c41 -4 47 -3 24 4 -71 19 -74 42 -4 28 34 -7 58 -6 73 0z m-1210 -39 c-13 -6 -23 -14 -23 -18 0 -5 -7 -10 -15 -14 -12 -4 -13 -2 -5 13 10 20 26 29 50 30 9 0 5 -5 -7 -11z m238 -90 c16 -30 4 -20 -31 25 -29 37 -30 39 -6 17 15 -14 32 -33 37 -42z m29 7 c0 -11 -14 7 -31 40 -7 13 -3 12 10 -5 11 -14 21 -29 21 -35z m-515 -2 c4 -21 3 -33 -4 -33 -6 0 -11 4 -11 9 0 5 -3 24 -6 42 -9 44 11 27 21 -18z m630 -25 c-42 -23 -98 -85 -121 -133 -12 -27 -23 -44 -23 -37 -1 7 6 27 15 43 8 17 14 33 11 35 -7 7 -34 -30 -45 -61 -10 -28 -10 -28 -11 -6 -1 30 30 96 62 134 23 25 45 38 33 18 -7 -11 38 -6 61 8 10 6 23 10 28 10 6 0 1 -5 -10 -11z m-238 -28 c6 -34 23 -51 23 -24 0 10 3 15 6 11 4 -3 19 0 35 8 39 21 53 19 29 -5 -11 -11 -22 -32 -25 -47 -3 -16 -17 -49 -30 -76 -14 -26 -25 -59 -25 -75 -1 -15 -7 -40 -15 -57 l-14 -30 6 29 c3 16 6 65 7 109 1 66 -2 81 -15 82 -8 2 -24 -10 -35 -26 -10 -16 -23 -29 -27 -29 -10 0 3 132 14 144 4 5 11 -8 14 -28 10 -48 25 -46 25 4 0 47 18 53 27 10z m723 -71 c34 -33 59 -63 56 -66 -3 -3 -45 34 -93 82 -48 49 -74 78 -56 66 17 -12 59 -49 93 -82z m-155 38 c63 -47 165 -158 165 -180 0 -5 -12 6 -27 25 -34 42 -166 168 -175 168 -5 0 -17 9 -28 20 -35 35 -7 21 65 -33z m59 -2 c72 -61 122 -117 150 -167 l19 -33 -32 35 c-17 19 -39 48 -49 63 -9 16 -52 58 -95 93 -44 35 -74 64 -68 64 5 0 39 -25 75 -55z m-424 -4 c-11 -21 -30 -37 -30 -25 0 8 30 44 37 44 2 0 -1 -9 -7 -19z m354 -30 c65 -43 198 -225 196 -267 -1 -5 -13 14 -27 41 -34 66 -81 125 -99 125 -9 0 -12 5 -8 11 8 13 -51 69 -72 69 -19 0 -19 -1 22 -46 84 -93 164 -217 164 -256 0 -10 5 -18 11 -18 5 0 8 -4 4 -9 -3 -6 -1 -29 4 -52 12 -52 4 -61 -89 -88 -84 -25 -145 -33 -250 -33 l-85 -1 70 -9 c112 -15 264 10 357 58 22 11 27 20 23 35 -4 11 -2 19 4 19 10 0 15 -20 12 -47 -1 -7 3 -13 9 -13 6 0 9 15 7 35 -3 20 -1 38 3 40 10 6 70 -92 70 -114 0 -23 -35 -55 -50 -46 -7 4 -16 1 -21 -6 -7 -11 -9 -10 -9 4 0 10 -4 15 -10 12 -6 -3 -10 5 -10 19 0 23 -2 25 -25 16 -14 -5 -25 -7 -25 -5 0 3 11 10 25 15 14 5 25 16 25 24 0 11 -14 8 -57 -13 -32 -16 -83 -34 -113 -41 -60 -14 -255 -19 -335 -8 l-50 7 50 -14 c57 -15 250 -18 310 -6 22 5 56 12 75 16 l35 6 -32 -15 c-85 -39 -326 -45 -440 -11 -28 8 -74 31 -102 49 -67 46 -65 37 4 -15 31 -23 54 -44 51 -46 -7 -8 -46 17 -90 56 -43 39 -92 52 -102 27 -6 -16 24 -56 43 -56 32 0 8 -19 -49 -39 -35 -11 -51 -19 -35 -16 15 3 27 3 27 1 0 -3 -12 -12 -27 -21 l-28 -15 30 5 30 5 -30 -14 c-16 -8 -32 -10 -35 -6 -3 5 -17 0 -30 -10 -14 -11 -19 -20 -12 -20 6 0 12 -5 12 -11 0 -5 -5 -7 -11 -4 -6 4 -17 -2 -25 -14 -8 -12 -22 -21 -31 -21 -12 0 -13 -3 -4 -14 18 -22 -22 -42 -42 -21 -8 8 -17 12 -19 9 -3 -2 -13 13 -23 33 -49 102 -79 159 -90 168 -31 26 -43 60 -36 100 4 23 12 39 19 37 7 -1 28 6 47 16 25 14 31 22 23 30 -8 8 -17 8 -30 1 -20 -11 -21 -7 -12 41 l7 32 13 -23 13 -24 7 32 c7 34 24 36 24 3 0 -10 5 -31 12 -47 6 -15 11 -31 10 -35 -3 -11 32 -10 62 2 19 7 25 6 23 -2 -1 -7 6 -14 16 -16 18 -4 20 17 2 31 -6 5 -1 6 10 4 11 -2 19 -9 17 -15 -3 -15 11 -15 25 -1 13 13 33 4 33 -14 0 -7 -4 -6 -10 3 -6 9 -10 10 -10 3 0 -6 5 -15 10 -18 6 -3 10 -13 10 -21 0 -8 -5 -12 -11 -9 -6 4 -9 0 -7 -11 2 -13 -7 -24 -29 -34 -18 -8 -33 -21 -33 -28 0 -8 5 -10 13 -5 6 4 15 8 19 8 4 0 17 8 29 19 12 10 40 24 63 31 22 7 35 13 29 14 -7 1 -13 11 -12 24 0 12 3 16 6 10 2 -7 12 -13 21 -13 11 0 13 3 6 8 -24 16 -11 40 25 48 l36 7 -30 8 c-30 7 -30 7 -6 14 23 8 23 9 6 22 -14 10 -15 13 -4 13 8 1 1 7 -16 14 l-30 13 38 8 c20 4 37 12 37 17 0 5 -9 6 -20 3 -11 -4 -20 -2 -20 4 0 5 16 13 35 17 47 9 45 24 -2 17 -51 -8 -33 10 32 30 30 10 103 18 185 22 127 5 146 -6 32 -18 -82 -9 -55 -17 55 -17 61 0 125 -3 142 -6 26 -6 30 -4 25 10 -4 10 -18 16 -38 16 -17 0 -38 5 -46 10 -17 11 -9 13 35 10 26 -2 28 0 16 14 -12 14 -32 16 -140 12 -69 -3 -157 -12 -196 -21 -38 -8 -81 -18 -95 -21 -16 -3 -21 -2 -15 4 22 21 116 42 230 52 66 6 125 11 130 12 6 0 21 -2 34 -6 17 -6 22 -5 19 5 -5 16 -137 19 -263 8 -67 -7 -69 -6 -30 6 22 8 88 14 148 14 82 1 108 4 104 14 -4 12 -131 14 -227 2 -38 -5 -42 -4 -25 7 22 13 294 28 302 16 2 -5 13 -8 25 -8 17 0 19 2 7 16 -10 13 -35 15 -146 13 -73 -1 -136 1 -140 4 -7 8 86 12 186 9 56 -2 62 0 51 13 -9 11 -33 15 -91 15 -45 0 -79 4 -79 10 0 6 42 7 113 4 99 -6 117 -9 151 -33z m-1479 -52 c132 -11 303 -25 380 -30 77 -5 145 -12 150 -14 6 -2 -189 -4 -432 -4 -244 0 -445 4 -448 9 -3 5 3 15 13 22 10 7 21 21 25 31 5 14 14 17 39 12 18 -3 141 -14 273 -26z m760 12 c-3 -6 -11 -11 -17 -11 -6 0 -6 6 2 15 14 17 26 13 15 -4z m30 2 c-11 -26 -23 -115 -14 -106 4 5 10 20 13 35 2 15 9 35 15 45 9 16 11 15 20 -9 6 -16 13 -28 16 -28 2 0 11 16 19 35 24 56 54 37 37 -23 -5 -15 -6 -60 -4 -98 4 -52 1 -74 -10 -89 -15 -19 -15 -17 -10 23 3 25 2 42 -5 42 -11 0 -22 -33 -22 -72 0 -20 -4 -26 -15 -22 -21 9 -19 -12 4 -33 11 -10 22 -31 25 -48 5 -23 4 -25 -3 -10 -15 33 -48 57 -83 60 -18 2 -35 4 -38 5 -3 1 -9 2 -13 1 -19 -3 -39 75 -34 129 l5 55 -15 -40 c-9 -22 -15 -49 -15 -60 0 -15 -3 -13 -14 10 -14 29 -15 29 -9 3 4 -23 2 -25 -16 -21 -17 5 -19 10 -13 32 4 14 7 38 6 54 -1 15 3 27 8 27 6 0 10 -5 10 -11 0 -5 4 -8 10 -4 5 3 7 12 3 20 -3 8 -1 15 5 15 6 0 12 -6 15 -12 6 -19 35 8 52 46 19 44 19 7 -1 -49 -8 -25 -13 -61 -11 -78 3 -26 4 -23 6 13 1 32 4 41 10 31 10 -16 12 -10 25 68 6 34 31 81 42 81 4 0 3 -8 -1 -17z m935 7 c0 -5 -2 -10 -4 -10 -3 0 -8 5 -11 10 -3 6 -1 10 4 10 6 0 11 -4 11 -10z m284 -30 c-12 -12 -64 -24 -64 -15 0 7 40 24 60 24 10 1 11 -2 4 -9z m113 -21 c32 -12 70 -45 85 -74 8 -15 3 -13 -19 7 -20 19 -48 31 -89 39 -70 13 -74 16 -43 28 32 13 33 13 66 0z m-218 -41 c-5 -18 -9 -52 -9 -75 0 -24 -4 -43 -10 -43 -14 0 -13 123 2 138 21 21 27 13 17 -20z m-99 -115 c0 0 -9 1 -20 4 -21 6 -26 35 -13 83 6 21 8 16 19 -30 7 -30 13 -56 14 -57z m190 92 c-7 -9 -15 -13 -17 -11 -7 7 7 26 19 26 6 0 6 -6 -2 -15z m159 0 c27 -13 41 -33 41 -57 0 -5 -16 4 -35 21 -71 62 -165 26 -165 -63 0 -14 -4 -28 -10 -31 -6 -4 -10 8 -10 29 0 19 5 38 10 41 6 3 10 15 10 25 0 45 99 67 159 35z m418 -45 c14 -17 18 -74 4 -65 -5 3 -12 18 -16 34 -3 16 -15 37 -26 47 -10 9 -19 22 -19 27 0 10 35 -16 57 -43z m-1973 -60 c6 -33 4 -36 -25 -47 -40 -15 -47 -11 -55 35 -4 20 -13 49 -21 65 -8 16 -9 27 -3 27 5 0 10 -4 10 -10 0 -5 10 -14 22 -21 18 -10 20 -9 15 5 -4 9 -10 24 -14 33 -4 10 9 2 29 -17 21 -21 38 -49 42 -70z m1915 74 c22 -28 28 -54 11 -54 -5 0 -14 9 -20 19 -5 11 -19 22 -30 25 -11 3 -28 8 -38 11 -12 3 -34 -6 -57 -25 -36 -29 -88 -40 -99 -22 -3 5 8 6 24 4 24 -3 36 3 63 32 30 31 41 36 80 36 37 0 49 -5 66 -26z m-769 -8 c0 -8 3 -21 6 -30 4 -12 0 -16 -16 -16 -16 0 -20 4 -16 16 3 9 6 22 6 30 0 8 5 14 10 14 6 0 10 -6 10 -14z m207 -23 c-7 -22 -13 -31 -15 -21 -3 15 14 58 22 58 2 0 -1 -17 -7 -37z m156 30 c-7 -2 -19 -2 -25 0 -7 3 -2 5 12 5 14 0 19 -2 13 -5z m-258 -102 c-9 -8 -44 31 -39 45 14 48 16 48 30 4 7 -24 11 -46 9 -49z m610 59 c3 -6 -1 -7 -9 -4 -18 7 -21 14 -7 14 6 0 13 -4 16 -10z m-170 -48 c-3 -3 -18 7 -33 23 l-27 28 33 -23 c18 -12 31 -25 27 -28z m-485 -11 c15 -14 43 -35 63 -46 26 -13 46 -37 68 -80 18 -33 51 -82 74 -110 68 -81 74 -97 57 -163 -13 -53 -35 -92 -53 -92 -4 0 -5 9 -2 20 4 14 0 20 -12 20 -17 0 -17 1 -1 19 9 10 18 37 21 60 3 35 -1 48 -30 86 -19 24 -45 66 -59 93 -25 49 -51 73 -93 86 -18 6 -23 3 -23 -9 0 -11 5 -15 15 -11 8 3 15 1 15 -4 0 -6 6 -10 14 -10 21 0 64 -55 75 -95 5 -19 20 -49 32 -67 14 -19 19 -33 12 -35 -6 -2 -9 -14 -6 -26 3 -15 -2 -12 -14 11 -22 39 -38 33 -17 -6 16 -32 18 -52 4 -52 -5 0 -10 8 -10 18 0 9 -5 24 -10 32 -8 11 -9 7 -4 -15 5 -23 4 -27 -6 -19 -6 7 -13 23 -13 37 -1 14 -5 23 -9 21 -14 -9 -56 63 -60 103 -2 23 1 39 5 36 5 -3 7 3 5 13 -2 10 -12 20 -23 22 -31 6 -45 22 -44 51 0 23 1 24 8 6 8 -19 8 -19 16 4 5 18 3 28 -11 38 -25 18 -33 16 -27 -7 9 -34 -23 -23 -41 14 -21 44 -20 73 2 85 23 13 50 4 82 -28z m338 28 c18 0 8 -5 -28 -15 -33 -9 -64 -24 -77 -40 -24 -26 -31 -17 -13 16 13 24 60 51 78 45 8 -3 26 -5 40 -6z m450 -34 c42 -13 62 -27 109 -80 47 -53 62 -63 80 -59 18 5 22 3 17 -9 -8 -21 -32 -29 -54 -17 -10 5 -25 7 -33 4 -8 -3 -24 5 -36 17 -29 31 -17 38 17 8 17 -15 14 -9 -8 14 -47 52 -94 79 -160 94 l-55 13 54 -5 c30 -2 71 -13 93 -23 21 -11 38 -16 38 -11 0 16 -45 37 -95 44 -27 4 -57 11 -65 16 -26 15 42 10 98 -6z m-348 -5 c8 -5 11 -10 5 -10 -5 0 -17 5 -25 10 -8 5 -10 10 -5 10 6 0 17 -5 25 -10z m-1530 -54 c0 -5 -8 -2 -17 5 -15 12 -16 12 -10 -3 5 -14 1 -18 -14 -18 -19 0 -19 1 -4 16 9 10 13 24 10 38 -6 19 -5 19 14 -4 11 -14 21 -29 21 -34z m-368 23 c17 -9 18 -13 7 -20 -11 -6 -8 -9 8 -9 28 0 73 -20 73 -33 0 -5 7 -7 15 -4 8 4 17 2 20 -4 4 -5 11 -7 16 -4 5 4 9 -9 10 -27 0 -27 2 -30 9 -13 8 19 9 19 9 -2 1 -13 -4 -23 -10 -23 -14 0 -2 -52 13 -61 6 -4 7 -12 4 -18 -4 -6 -3 -10 2 -9 32 9 7 -64 -30 -89 -39 -26 -95 -42 -84 -24 5 7 -1 11 -16 11 -18 0 -20 2 -8 10 8 5 10 10 4 10 -6 0 -11 6 -11 14 0 8 6 12 13 9 6 -2 15 0 19 6 3 6 -2 14 -12 17 -10 3 -31 12 -48 19 l-30 14 35 -5 c32 -4 31 -3 -14 15 -46 19 -81 41 -43 28 29 -11 9 13 -21 24 -20 8 -23 12 -13 18 11 7 10 10 -3 18 -9 5 -18 23 -20 41 -3 27 0 32 18 33 20 1 20 2 1 6 -37 9 -38 22 -4 31 24 7 28 10 12 11 -12 1 -25 6 -28 11 -9 14 81 13 107 -1z m2193 -10 c42 -11 80 -40 97 -74 8 -16 5 -14 -18 6 -36 33 -67 49 -91 48 -10 0 -5 -5 12 -10 17 -5 49 -31 73 -59 56 -65 44 -65 -17 0 -46 49 -48 50 -107 51 -32 0 -53 3 -46 6 6 2 12 8 12 13 0 14 -60 -7 -100 -35 -53 -37 -90 -45 -128 -29 -18 7 -32 16 -32 19 0 3 27 4 60 4 49 -1 65 2 83 19 48 45 128 61 202 41z m-437 -26 c-15 -16 -33 -44 -41 -63 l-15 -35 -1 48 c-1 45 1 49 32 62 48 21 54 18 25 -12z m107 -3 c3 -6 -5 -10 -18 -10 -30 0 -57 -37 -57 -79 0 -16 -4 -33 -10 -36 -5 -3 -10 -25 -11 -48 l0 -42 -15 45 c-20 66 -18 97 9 112 12 7 22 20 22 28 0 14 39 40 62 40 6 0 15 -4 18 -10z m-508 -32 c-3 -8 -6 -5 -6 6 -1 11 2 17 5 13 3 -3 4 -12 1 -19z m326 -20 c-3 -18 -10 -37 -15 -43 -10 -10 -2 50 9 68 9 16 12 5 6 -25z m337 8 c0 -2 -22 -16 -50 -30 -50 -26 -75 -31 -104 -20 -28 11 -17 23 17 18 20 -4 51 2 82 15 58 23 55 22 55 17z m138 -46 c23 -16 50 -47 60 -67 22 -44 38 -128 22 -118 -5 3 -10 20 -10 37 0 82 -81 148 -183 148 -55 0 -57 8 -5 20 57 14 74 11 116 -20z m-451 -47 c-3 -10 -5 -4 -5 12 0 17 2 24 5 18 2 -7 2 -21 0 -30z m214 6 c-13 -11 -31 -17 -38 -14 -8 3 -19 5 -24 5 -5 0 -9 4 -9 9 0 9 25 14 80 19 10 1 6 -6 -9 -19z m208 6 c32 -16 81 -70 81 -88 0 -6 -14 6 -32 27 -17 21 -46 45 -65 52 -18 8 -33 16 -33 19 0 9 21 5 49 -10z m-48 -22 c20 -8 46 -28 58 -44 l22 -29 -55 35 c-33 21 -75 38 -103 42 -41 6 -44 8 -23 14 29 8 50 4 101 -18z m-1481 -3 c0 -5 5 -10 11 -10 5 0 7 5 4 11 -4 6 2 5 14 -3 19 -12 19 -13 3 -20 -27 -10 -31 -9 -42 12 -7 14 -7 20 0 20 5 0 10 -4 10 -10z m1449 -26 c29 -8 50 -18 47 -21 -3 -4 -2 -11 4 -17 6 -9 -9 -12 -56 -14 -101 -3 -145 -35 -160 -117 -3 -22 -10 -47 -15 -55 -7 -13 -9 -13 -14 2 -6 16 -9 16 -26 -5 l-20 -22 7 35 c20 104 71 191 129 216 39 17 41 17 104 -2z m139 -41 c39 -67 83 -111 117 -116 21 -3 15 -4 -19 -6 -51 -1 -86 18 -86 46 0 7 -4 13 -9 13 -5 0 -7 8 -4 18 2 10 -7 34 -21 55 -14 20 -21 37 -15 37 5 0 22 -21 37 -47z m-853 27 c-6 -10 -106 -43 -112 -36 -3 2 71 31 115 45 2 1 0 -3 -3 -9z m465 -30 c0 -16 -4 -31 -9 -34 -5 -3 -8 12 -7 33 1 44 16 45 16 1z m-485 -10 c-3 -5 -12 -10 -18 -10 -7 0 -6 4 3 10 19 12 23 12 15 0z m45 -5 c0 -8 -4 -15 -10 -15 -5 0 -7 7 -4 15 4 8 8 15 10 15 2 0 4 -7 4 -15z m-355 -10 c50 0 117 4 150 8 33 5 57 5 52 1 -18 -18 -171 -31 -266 -21 -53 5 -102 9 -108 10 -7 0 -13 4 -13 8 0 5 21 5 48 1 26 -4 88 -7 137 -7z m475 -13 c0 -9 11 -43 24 -74 25 -60 22 -72 -9 -38 -10 11 -21 17 -25 15 -13 -8 -20 36 -13 82 5 40 23 51 23 15z m-1294 -30 c-35 -36 -41 -24 -9 17 17 21 29 29 31 22 2 -7 -7 -25 -22 -39z m469 28 c10 -11 16 -20 13 -20 -3 0 -13 9 -23 20 -10 11 -16 20 -13 20 3 0 13 -9 23 -20z m123 -62 l-3 -73 -45 -12 c-25 -6 -46 -10 -48 -9 -1 2 3 18 10 36 10 31 12 32 19 12 12 -31 51 -30 47 1 -3 26 12 117 19 117 3 0 3 -33 1 -72z m663 -16 c4 -42 10 -87 14 -99 6 -18 3 -23 -9 -23 -9 0 -16 -4 -16 -10 0 -11 -32 -1 -42 14 -4 6 -13 5 -24 -5 -16 -13 -17 -11 -11 20 4 18 7 49 7 69 0 42 11 35 26 -16 10 -36 10 -35 18 42 12 126 27 129 37 8z m89 67 c0 -6 -4 -7 -10 -4 -5 3 -10 11 -10 16 0 6 5 7 10 4 6 -3 10 -11 10 -16z m-1300 -19 c-6 -12 -14 -19 -17 -17 -2 3 1 15 7 27 6 12 14 19 17 17 2 -3 -1 -15 -7 -27z m621 -70 c5 0 9 7 9 15 0 25 17 17 22 -10 6 -29 2 -35 -25 -35 -13 0 -17 -5 -13 -15 9 -25 -9 -17 -32 15 -17 22 -20 34 -13 52 5 13 13 37 17 53 7 28 8 27 17 -22 5 -29 14 -53 18 -53z m1234 91 c3 -5 -5 -11 -17 -13 -18 -3 -14 -7 19 -16 61 -18 60 -29 -1 -24 -40 3 -62 -1 -95 -17 -42 -22 -42 -22 -31 -2 6 11 23 28 38 36 l27 16 -32 -6 c-40 -8 -42 -1 -5 19 30 17 88 21 97 7z m-928 -7 c-3 -3 -12 -4 -19 -1 -8 3 -5 6 6 6 11 1 17 -2 13 -5z m-69 -11 c-21 -2 -57 -2 -80 0 -24 2 -7 4 37 4 44 0 63 -2 43 -4z m221 -72 c12 -38 21 -80 21 -93 1 -48 24 -62 97 -60 73 2 103 -4 103 -20 0 -6 -8 -7 -17 -3 -10 4 -52 6 -94 6 l-77 -1 -25 52 -25 53 -11 -40 c-6 -22 -19 -46 -31 -52 -18 -12 -17 -9 5 31 20 37 25 59 25 120 0 42 2 76 4 76 2 0 13 -31 25 -69z m-379 9 c0 -24 -5 -40 -15 -43 -19 -8 -26 5 -14 23 5 8 9 28 9 43 0 16 4 26 10 22 6 -3 10 -23 10 -45z m295 40 c-3 -5 -16 -15 -28 -21 -21 -10 -21 -9 2 10 25 23 36 27 26 11z m-228 -6 c-3 -3 -12 -4 -19 -1 -8 3 -5 6 6 6 11 1 17 -2 13 -5z m86 -1 c-7 -2 -21 -2 -30 0 -10 3 -4 5 12 5 17 0 24 -2 18 -5z m-443 -28 c-26 -28 -40 -32 -40 -12 0 19 21 37 44 37 18 0 18 -1 -4 -25z m510 5 c0 -5 -5 -10 -12 -10 -6 0 -42 -33 -81 -72 l-70 -73 57 66 c31 36 56 69 56 73 0 3 -12 3 -27 0 -20 -5 -25 -3 -18 4 6 6 26 12 45 15 19 2 38 5 43 5 4 1 7 -2 7 -8z m-1030 -4 c0 -2 -8 -10 -17 -17 -16 -13 -17 -12 -4 4 13 16 21 21 21 13z m550 -6 c0 -5 -5 -10 -11 -10 -5 0 -7 5 -4 10 3 6 8 10 11 10 2 0 4 -4 4 -10z m1435 -9 c-17 -7 -13 -11 25 -21 25 -8 49 -13 54 -11 13 3 36 -19 52 -51 8 -15 19 -62 24 -105 6 -42 17 -87 25 -100 23 -34 61 -40 98 -14 l32 22 -28 -25 c-34 -32 -64 -33 -117 -5 -48 25 -53 33 -80 135 -24 93 -67 144 -120 144 -18 0 -29 4 -25 10 11 18 -10 11 -58 -20 -36 -22 -53 -43 -71 -82 -20 -43 -25 -48 -25 -28 -1 14 9 46 22 70 29 57 89 90 161 89 36 0 45 -3 31 -8z m155 5 c0 -11 -19 -15 -25 -6 -3 5 1 10 9 10 9 0 16 -2 16 -4z m-2001 -31 c7 -7 10 -18 7 -24 -11 -18 -33 -13 -39 9 -3 11 -16 24 -29 30 -19 8 -17 9 12 4 19 -3 41 -12 49 -19z m921 10 c-7 -9 -15 -13 -17 -11 -7 7 7 26 19 26 6 0 6 -6 -2 -15z m990 5 c24 -15 7 -18 -20 -3 -14 7 -18 13 -10 13 8 0 22 -4 30 -10z m245 -25 c35 -26 50 -73 21 -62 -8 3 -17 -1 -20 -9 -5 -13 -10 -13 -36 1 -19 10 -40 13 -53 9 -19 -6 -20 -5 -9 9 8 9 32 17 55 19 l42 3 -34 18 c-21 12 -44 17 -62 13 -31 -6 -50 11 -28 26 23 15 88 1 124 -27z m-1268 19 c-3 -3 -12 -4 -19 -1 -8 3 -5 6 6 6 11 1 17 -2 13 -5z m-1007 -28 c0 -8 -4 -17 -9 -21 -12 -7 -24 12 -16 25 9 15 25 12 25 -4z m40 -5 c0 -6 -4 -13 -10 -16 -5 -3 -10 1 -10 9 0 9 5 16 10 16 6 0 10 -4 10 -9z m240 -11 c-26 -20 -70 -27 -70 -10 0 5 6 7 13 5 6 -3 23 1 37 9 37 21 49 18 20 -4z m1668 6 c46 -24 62 -51 76 -127 7 -41 17 -83 22 -94 7 -17 6 -18 -8 -7 -24 19 -48 75 -48 110 0 17 -5 34 -12 38 -17 11 -2 -82 20 -120 10 -17 28 -35 40 -41 12 -5 22 -13 22 -18 0 -4 5 -5 11 -1 7 4 10 1 7 -7 -7 -21 -49 -23 -85 -4 -41 22 -57 69 -49 138 5 42 3 58 -14 85 -17 28 -25 32 -61 32 -36 0 -40 2 -29 15 16 19 72 19 108 1z m-2003 -83 c-6 -16 -35 -17 -35 -1 0 6 6 27 12 46 l13 34 7 -33 c4 -19 5 -40 3 -46z m675 56 c0 -19 52 -44 85 -41 33 3 -4 -14 -49 -22 -38 -7 -39 -21 -1 -28 19 -4 19 -4 -2 -16 -18 -10 -31 -9 -75 8 -63 24 -62 24 -54 5 8 -22 -13 -18 -59 10 -22 13 -47 25 -56 25 -20 0 -45 28 -35 37 4 4 11 1 15 -6 7 -11 13 -9 30 8 11 11 32 21 46 21 14 0 25 3 25 8 0 4 29 7 65 8 55 0 65 -2 65 -17z m121 9 c0 -10 2 -10 6 0 6 14 39 16 48 2 10 -16 -45 -33 -61 -19 -8 6 -14 15 -14 20 0 14 20 10 21 -3z m200 -16 c-12 -23 -89 -102 -99 -102 -6 0 99 119 106 120 1 0 -2 -8 -7 -18z m-226 -2 c3 -6 -1 -7 -9 -4 -18 7 -21 14 -7 14 6 0 13 -4 16 -10z m1019 -14 c-13 -49 -27 -76 -39 -76 -8 0 -21 -3 -30 -6 -12 -5 -10 3 9 30 14 21 28 45 31 55 8 26 37 23 29 -3z m170 18 c24 -9 19 -22 -6 -18 -30 5 -64 -25 -76 -67 l-10 -34 -1 36 c-2 62 43 102 93 83z m-1621 -21 c9 24 30 21 22 -3 -3 -11 -2 -20 4 -20 5 0 11 10 13 23 3 20 7 19 53 -25 29 -27 51 -55 51 -67 0 -24 -1 -24 -28 -10 -30 16 -34 2 -8 -26 l23 -25 -22 0 c-20 0 -22 -2 -11 -15 21 -25 2 -30 -24 -6 -13 12 -26 36 -30 53 -3 18 -14 32 -25 35 -11 3 -22 15 -25 27 -2 11 -4 -3 -3 -32 2 -43 -1 -52 -15 -52 -10 0 -18 5 -18 11 0 5 5 7 10 4 11 -7 11 16 0 60 -7 29 -8 29 -10 -10 l-2 -40 -10 34 c-11 41 -3 81 17 81 8 0 15 6 16 13 0 6 4 3 8 -7 7 -18 8 -18 14 -3z m678 -1 c-5 -10 -18 -25 -28 -33 -12 -10 -11 -5 6 19 24 35 38 43 22 14z m-851 -8 c0 -2 -9 -4 -20 -4 -11 0 -20 4 -20 9 0 5 9 7 20 4 11 -3 20 -7 20 -9z m54 4 c-4 -6 -7 -27 -6 -47 0 -33 -1 -34 -10 -13 -11 21 2 72 17 72 4 0 3 -5 -1 -12z m-29 -15 c-4 -10 -7 -36 -6 -57 2 -35 0 -38 -14 -26 -14 11 -17 10 -22 -8 -8 -30 -24 -28 -54 9 -16 20 -31 29 -38 25 -9 -6 -8 -11 4 -20 16 -12 11 -51 -6 -41 -4 3 -15 -8 -24 -25 -15 -28 -26 -39 -24 -22 1 4 1 16 0 26 -1 18 -3 18 -26 -4 -21 -19 -25 -21 -25 -7 0 21 -4 21 -36 1 -33 -22 -39 -13 -13 20 l21 26 -27 -10 c-33 -12 -35 -12 -35 0 0 14 89 70 111 70 9 0 19 6 22 14 4 10 23 14 66 15 34 0 73 6 89 14 37 20 45 20 37 0z m46 -34 c-9 -23 -10 -23 -10 -2 -1 12 2 30 6 40 6 15 8 15 11 2 1 -8 -2 -26 -7 -40z m1266 26 c64 -38 114 -53 146 -44 35 9 35 -2 0 -18 -41 -20 -55 -16 -123 28 -35 23 -73 45 -84 49 -20 8 -20 9 -2 9 11 1 39 -10 63 -24z m-1234 -5 c-3 -11 -7 -20 -9 -20 -2 0 -4 9 -4 20 0 11 4 20 9 20 5 0 7 -9 4 -20z m954 -2 c-3 -8 -6 -5 -6 6 -1 11 2 17 5 13 3 -3 4 -12 1 -19z m1029 -79 c22 -24 44 -24 91 2 31 18 35 18 23 3 -8 -9 -32 -30 -54 -45 -36 -27 -40 -27 -66 -14 -33 17 -38 30 -39 105 l0 55 14 -43 c7 -24 21 -52 31 -63z m46 69 c-11 -11 -32 -3 -32 12 0 12 34 18 39 7 2 -5 -1 -13 -7 -19z m-631 7 c0 -14 -37 -18 -70 -9 -26 7 -26 8 9 15 44 8 61 7 61 -6z m174 -82 c-20 -51 -63 -83 -110 -82 l-30 1 30 10 c46 16 83 56 102 112 14 41 18 46 21 27 2 -13 -4 -44 -13 -68z m-388 28 c38 -13 50 -14 42 -4 -12 14 1 18 17 5 19 -17 110 -46 138 -44 25 2 27 0 16 -13 -15 -18 -11 -18 27 -5 l28 10 -24 -20 c-38 -32 -100 -26 -200 19 -105 48 -170 57 -271 37 -84 -16 -100 -14 -43 5 91 30 202 34 270 10z m-522 -1 c-7 -11 -65 -43 -65 -36 0 4 62 45 68 46 2 0 0 -5 -3 -10z m-175 -10 c-8 -5 -35 -9 -60 -8 l-45 1 50 7 c28 4 55 7 60 8 6 1 3 -3 -5 -8z m1208 -50 c0 -9 -3 -7 -8 5 -5 11 -8 29 -8 40 0 16 2 15 8 -5 4 -14 8 -32 8 -40z m-1028 20 c-35 -29 -50 -36 -50 -22 0 6 68 50 80 52 2 0 -11 -13 -30 -30z m471 8 c18 -6 40 -16 47 -22 27 -23 64 -62 73 -79 9 -16 8 -18 -9 -13 -18 6 -18 5 2 -38 12 -28 34 -53 56 -66 27 -17 30 -20 10 -15 -14 4 -36 15 -50 26 -14 10 -45 33 -70 51 -25 17 -53 40 -63 50 -11 11 -31 18 -55 17 l-37 -1 34 -11 c19 -6 64 -39 100 -73 36 -33 80 -68 96 -77 18 -10 23 -16 14 -17 -9 0 -40 19 -68 41 -29 23 -55 39 -58 35 -4 -3 -13 0 -22 8 -9 8 -40 24 -70 36 -45 17 -68 20 -142 16 -49 -2 -87 -1 -84 4 3 5 30 21 61 35 56 26 70 44 20 26 -15 -6 -26 -7 -26 -1 0 13 12 19 92 40 70 19 71 20 22 16 -28 -3 -76 -16 -107 -30 -44 -19 -57 -22 -57 -11 0 45 206 83 291 53z m479 -70 c-31 -67 -78 -107 -144 -124 -51 -13 -63 -13 -111 1 -30 8 -57 20 -61 26 -4 8 -1 8 12 1 31 -15 133 -14 185 3 56 19 93 62 111 130 10 38 14 43 21 27 6 -13 2 -33 -13 -64z m48 42 c5 -46 -22 -110 -66 -158 l-38 -41 24 -10 c20 -10 22 -16 16 -48 -4 -21 -11 -39 -15 -41 -5 -2 -9 -11 -9 -19 0 -30 -29 7 -32 40 -3 31 -4 32 -57 33 -37 1 -58 7 -66 18 -7 9 -17 16 -23 16 -6 0 -13 4 -16 9 -3 4 25 8 62 7 79 -1 101 10 158 80 33 40 38 53 38 100 1 59 19 69 24 14z m-1563 10 c3 -5 2 -10 -4 -10 -5 0 -13 5 -16 10 -3 6 -2 10 4 10 5 0 13 -4 16 -10z m685 -43 c0 -2 -10 -12 -22 -23 l-23 -19 19 23 c18 21 26 27 26 19z m890 -57 c-16 -40 -23 -33 -9 9 6 18 14 30 17 27 2 -3 -1 -19 -8 -36z m-990 25 c0 -7 -63 -45 -75 -45 -5 0 8 11 30 24 47 28 45 27 45 21z m120 1 c0 -2 -8 -10 -17 -17 -16 -13 -17 -12 -4 4 13 16 21 21 21 13z m608 -23 c-10 -2 -26 -2 -35 0 -10 3 -2 5 17 5 19 0 27 -2 18 -5z m132 2 c0 -2 -14 -12 -32 -21 -36 -19 -153 -23 -170 -6 -8 8 10 9 63 6 54 -4 81 -1 99 9 27 16 40 20 40 12z m-467 -56 c12 -7 37 -25 55 -40 18 -16 38 -29 45 -29 13 -1 57 -34 57 -44 0 -10 -58 -7 -65 4 -9 15 -25 12 -19 -4 10 -27 59 -39 97 -25 30 11 37 10 51 -4 22 -22 21 -25 -22 -38 -33 -10 -44 -8 -79 10 -38 19 -56 40 -58 68 -1 20 -45 73 -78 94 -34 20 -21 27 16 8z m-99 -19 c53 -20 76 -41 160 -145 22 -27 43 -40 87 -52 47 -13 57 -19 48 -30 -15 -17 -61 -17 -106 2 -20 9 -69 49 -108 90 -39 41 -77 75 -85 75 -9 0 -6 -8 8 -23 12 -13 19 -26 16 -30 -3 -3 3 -18 13 -34 11 -15 25 -39 32 -53 10 -22 9 -21 -11 4 -71 92 -96 111 -183 146 -29 11 -29 12 -10 26 43 32 138 3 210 -64 l39 -37 -26 35 c-38 53 -82 78 -149 86 -32 4 -59 11 -59 15 0 16 68 9 124 -11z m748 -55 c9 -12 10 -77 2 -99 -3 -9 -12 -16 -20 -16 -10 0 -14 15 -14 58 0 36 -6 66 -15 78 -24 31 -17 39 12 13 15 -13 31 -28 35 -34z m-72 18 c3 -2 4 -30 3 -61 -1 -32 0 -67 2 -78 11 -51 77 -30 94 29 l9 32 1 -35 c3 -94 -86 -113 -123 -27 -8 18 -15 25 -15 17 -1 -9 8 -32 18 -53 19 -37 14 -50 -8 -23 -25 30 -30 74 -14 116 16 39 15 42 -7 72 l-23 31 29 -7 c16 -4 31 -10 34 -13z m-769 -41 c37 -17 108 -92 133 -140 8 -15 30 -42 50 -61 19 -19 33 -37 31 -41 -7 -11 58 -38 109 -45 63 -10 51 -18 -24 -16 -95 2 -121 19 -212 139 -22 30 -55 63 -74 74 -19 11 -33 23 -30 25 6 6 54 -24 88 -56 46 -41 43 -16 -4 35 -23 26 -62 56 -85 66 -24 10 -43 23 -43 28 0 14 20 12 61 -8z m-708 1 c-13 -2 -33 -2 -45 0 -13 2 -3 4 22 4 25 0 35 -2 23 -4z m1232 -13 l50 -19 -41 -1 c-27 0 -50 7 -65 20 -32 26 -9 26 56 0z m-1330 -10 c15 -6 10 -8 -21 -8 -23 0 -51 -5 -62 -11 -26 -14 -28 -9 -6 13 17 17 56 20 89 6z m313 -12 c17 -15 15 -28 -5 -29 -10 0 6 -10 35 -21 79 -31 107 -99 53 -128 -19 -10 -20 -8 -15 18 9 44 -37 92 -93 97 -39 3 -45 0 -76 -36 -19 -21 -37 -39 -40 -39 -7 0 22 38 60 77 21 21 21 23 3 23 -10 0 -22 -4 -25 -10 -3 -5 -11 -10 -17 -10 -5 0 0 9 13 21 l24 20 -25 -4 c-14 -2 -34 -8 -45 -12 -14 -5 -11 1 10 19 16 14 38 27 50 29 26 6 77 -3 93 -15z m477 2 c7 -11 -39 -25 -55 -15 -5 3 -8 11 -5 16 8 12 52 12 60 -1z m650 -10 c-3 -5 2 -26 11 -45 9 -20 14 -39 10 -43 -11 -11 -40 13 -46 39 -6 24 8 59 23 59 4 0 5 -4 2 -10z m-1386 -23 c13 -6 27 -21 32 -32 5 -11 14 -28 21 -37 24 -34 -2 -30 -39 6 -45 43 -73 52 -119 38 -19 -5 -34 -7 -34 -4 1 12 25 39 39 43 20 7 72 0 100 -14z m1228 17 c-3 -3 -12 -4 -19 -1 -8 3 -5 6 6 6 11 1 17 -2 13 -5z m-1367 -134 c20 -22 37 -30 62 -30 43 -1 113 -33 127 -58 18 -34 13 -37 -16 -10 -19 17 -50 30 -93 38 -36 7 -75 22 -87 33 -13 11 -23 16 -23 9 0 -17 69 -69 100 -76 30 -5 104 -65 83 -66 -7 0 -10 -7 -6 -16 4 -11 -5 -8 -31 10 -20 13 -55 27 -78 31 -45 8 -87 44 -115 99 -13 27 -10 25 22 -12 20 -23 46 -47 58 -53 12 -6 7 2 -12 18 -38 32 -62 95 -50 128 4 11 11 34 16 50 7 28 8 27 11 -17 2 -35 10 -55 32 -78z m1460 90 c0 -11 9 -29 21 -41 16 -16 29 -19 65 -16 48 5 56 -4 22 -27 -38 -27 -86 -20 -119 15 -32 34 -36 52 -16 74 17 20 27 18 27 -5z m-1350 -18 c0 -5 -16 -13 -35 -19 -36 -11 -44 -6 -23 15 14 14 58 16 58 4z m544 -2 c-12 -12 -123 -27 -112 -15 8 8 66 22 103 24 13 1 16 -2 9 -9z m726 -6 c0 -8 5 -12 10 -9 13 8 13 -41 0 -65 -6 -11 -30 -33 -54 -50 -50 -33 -109 -40 -142 -16 -17 13 -13 14 37 9 34 -3 64 -1 75 6 15 8 9 9 -27 5 -38 -5 -58 -1 -103 19 -31 14 -56 31 -56 36 0 15 12 14 35 -3 11 -8 50 -17 85 -20 60 -6 67 -5 95 18 l30 26 -35 -17 c-39 -20 -106 -22 -136 -5 -15 9 -8 10 36 9 62 -1 115 21 125 53 8 24 25 27 25 4z m-949 -24 c29 -23 22 -25 -17 -6 -16 9 -39 12 -57 9 -21 -4 -28 -3 -23 5 11 19 72 14 97 -8z m389 -10 l35 -19 -55 5 c-69 7 -83 11 -75 24 10 16 57 11 95 -10z m-185 -20 c-19 -7 -18 -8 5 -15 14 -4 33 -13 43 -20 14 -10 8 -11 -35 -8 -78 6 -98 12 -98 28 0 10 10 15 31 15 16 0 28 4 25 9 -3 4 7 6 22 3 23 -5 24 -6 7 -12z m208 -24 c16 -12 13 -14 -30 -18 -26 -2 -59 0 -71 6 -22 9 -22 11 -5 17 30 12 87 9 106 -5z m-523 0 c0 -2 -8 -10 -17 -17 -16 -13 -17 -12 -4 4 13 16 21 21 21 13z m545 -53 c28 -13 35 -23 35 -45 0 -17 -7 -31 -20 -38 -11 -6 -18 -15 -15 -20 8 -12 -29 -22 -51 -13 -10 4 -45 33 -77 65 -50 51 -54 57 -25 42 18 -9 48 -30 65 -47 18 -17 36 -27 40 -23 4 4 0 12 -10 17 -24 14 -22 33 2 19 22 -11 61 -14 61 -4 0 14 -36 33 -62 34 -29 0 -38 14 -15 23 22 9 36 7 72 -10z m-367 -24 c26 -11 59 -36 75 -56 31 -41 28 -56 -6 -26 -12 11 -35 28 -52 36 -16 9 -23 17 -15 17 25 1 -20 30 -48 30 -13 0 -20 4 -17 10 8 13 9 13 63 -11z m-258 -3 c0 -2 -8 -24 -19 -48 -20 -47 -43 -72 -81 -87 -14 -5 -18 -10 -10 -10 25 -1 79 37 100 71 21 36 27 20 10 -28 -16 -43 -53 -65 -113 -69 -61 -3 -97 13 -128 57 -13 17 -18 28 -11 24 7 -4 12 -2 12 6 0 7 8 1 17 -14 10 -15 31 -32 47 -38 35 -12 39 -12 32 -2 -3 5 12 16 33 25 27 12 45 31 65 67 15 28 31 50 37 50 5 0 9 -2 9 -4z m266 -52 c12 -7 41 -39 65 -70 24 -31 53 -62 64 -68 38 -21 45 -42 16 -51 -33 -10 -83 19 -153 89 -38 37 -68 69 -68 72 0 10 24 2 51 -17 16 -11 29 -16 29 -11 0 13 -31 39 -57 46 -13 4 -23 14 -23 22 0 17 41 10 76 -12z m414 -53 c-15 -30 -35 -41 -67 -38 -17 1 -29 4 -27 6 2 2 -10 13 -27 23 -34 21 -34 37 -1 19 29 -15 77 -14 92 3 16 21 42 9 30 -13z m-280 -2 c0 -6 -4 -7 -10 -4 -5 3 -10 11 -10 16 0 6 5 7 10 4 6 -3 10 -11 10 -16z m340 -54 c-8 -24 -19 -37 -36 -41 -32 -8 -86 7 -92 25 -3 10 0 12 13 7 34 -13 87 5 104 35 20 36 26 21 11 -26z m-340 3 c0 -6 -7 -5 -15 2 -8 7 -15 17 -15 22 0 6 7 5 15 -2 8 -7 15 -17 15 -22z m-75 -88 c25 -22 41 -40 35 -40 -12 0 -100 79 -88 80 4 0 28 -18 53 -40z m20 -48 c22 -11 47 -23 55 -26 8 -3 -1 -4 -20 -1 -39 6 -111 52 -118 75 -3 10 3 8 19 -7 13 -11 42 -30 64 -41z"/>
 <path d="M3099 2193 c-13 -16 -12 -17 4 -4 16 13 21 21 13 21 -2 0 -10 -8 -17 -17z"/>
 <path d="M3466 2155 c10 -8 27 -15 38 -15 15 0 16 3 6 15 -7 8 -24 15 -38 15 -25 0 -25 -1 -6 -15z"/>
 <path d="M3423 2086 c2 -6 16 -12 31 -14 35 -4 26 14 -9 20 -16 4 -24 1 -22 -6z"/>
 <path d="M3490 2086 c0 -3 10 -16 23 -29 30 -32 53 -24 25 9 -19 21 -48 33 -48 20z"/>
 <path d="M3463 2047 c2 -7 14 -14 26 -15 28 -4 20 13 -9 21 -14 3 -20 1 -17 -6z"/>
 <path d="M3508 2001 c12 -11 22 -26 22 -35 0 -9 7 -16 16 -16 10 0 14 -6 11 -15 -4 -8 -2 -17 3 -20 6 -4 10 -12 10 -18 0 -7 -8 -2 -18 11 -17 21 -23 22 -144 21 -69 -1 -131 -5 -138 -9 -17 -10 188 -24 228 -16 18 4 33 3 37 -3 4 -7 -8 -11 -32 -12 -21 -1 -47 -2 -58 -3 -11 -1 -32 -3 -47 -4 -40 -3 -35 -23 5 -21 67 3 192 21 201 29 5 5 -2 23 -18 42 -14 18 -30 38 -34 43 -4 6 -11 18 -15 28 -3 9 -16 17 -29 17 l-23 -1 23 -18z"/>
 <path d="M3552 2008 c3 -7 15 -15 27 -16 16 -3 22 1 19 10 -3 7 -15 15 -27 16 -16 3 -22 -1 -19 -10z"/>
 <path d="M3580 1975 c0 -3 11 -23 25 -45 14 -22 25 -41 25 -43 0 -10 -135 -40 -237 -52 -29 -4 -53 -11 -53 -16 0 -14 110 -2 205 21 44 11 90 22 103 24 32 5 34 10 20 37 -29 54 -51 79 -69 79 -11 0 -19 -2 -19 -5z"/>
 <path d="M3130 1950 c0 -5 5 -10 11 -10 5 0 7 5 4 10 -3 6 -8 10 -11 10 -2 0 -4 -4 -4 -10z"/>
 <path d="M3170 1950 c0 -5 5 -10 10 -10 6 0 10 5 10 10 0 6 -4 10 -10 10 -5 0 -10 -4 -10 -10z"/>
 <path d="M3200 1950 c0 -5 7 -10 15 -10 8 0 15 5 15 10 0 6 -7 10 -15 10 -8 0 -15 -4 -15 -10z"/>
 <path d="M3100 1939 c0 -5 5 -7 10 -4 6 3 10 8 10 11 0 2 -4 4 -10 4 -5 0 -10 -5 -10 -11z"/>
 <path d="M3180 1910 c0 -5 5 -10 10 -10 6 0 10 5 10 10 0 6 -4 10 -10 10 -5 0 -10 -4 -10 -10z"/>
 <path d="M3215 1910 c4 -6 11 -8 16 -5 14 9 11 15 -7 15 -8 0 -12 -5 -9 -10z"/>
 <path d="M3195 1870 c-3 -5 1 -10 10 -10 9 0 13 5 10 10 -3 6 -8 10 -10 10 -2 0 -7 -4 -10 -10z"/>
 <path d="M3235 1870 c-3 -5 1 -10 10 -10 9 0 13 5 10 10 -3 6 -8 10 -10 10 -2 0 -7 -4 -10 -10z"/>
 <path d="M3270 1870 c0 -5 9 -10 20 -10 11 0 20 5 20 10 0 6 -9 10 -20 10 -11 0 -20 -4 -20 -10z"/>
 <path d="M3320 1870 c0 -5 9 -10 21 -10 11 0 17 5 14 10 -3 6 -13 10 -21 10 -8 0 -14 -4 -14 -10z"/>
 <path d="M3660 1851 c-8 -5 -55 -16 -104 -26 -49 -9 -106 -24 -125 -31 -35 -14 -33 -14 39 -10 41 3 102 14 134 26 67 23 66 23 65 13 -3 -21 2 -33 16 -33 16 0 18 12 9 48 -7 24 -11 26 -34 13z"/>
 <path d="M3255 1820 c-3 -5 1 -10 10 -10 9 0 13 5 10 10 -3 6 -8 10 -10 10 -2 0 -7 -4 -10 -10z"/>
 <path d="M3290 1820 c0 -5 9 -10 20 -10 11 0 20 5 20 10 0 6 -9 10 -20 10 -11 0 -20 -4 -20 -10z"/>
 <path d="M3605 1795 c-16 -8 -61 -21 -100 -31 -92 -22 -109 -38 -30 -29 86 11 185 43 185 60 0 18 -15 18 -55 0z"/>
 <path d="M3619 1750 c-79 -33 -152 -50 -222 -50 -43 -1 -49 -3 -33 -12 24 -14 161 5 256 35 36 11 67 21 70 22 15 2 30 18 25 26 -9 13 -22 10 -96 -21z"/>
 <path d="M2665 1739 c-9 -13 -7 -15 28 -23 26 -6 27 -6 10 14 -20 23 -29 25 -38 9z"/>
 <path d="M3348 1733 c12 -2 32 -2 45 0 12 2 2 4 -23 4 -25 0 -35 -2 -22 -4z"/>
 <path d="M3695 1730 c-3 -5 -16 -10 -29 -10 -12 0 -26 -4 -31 -9 -25 -22 -119 -44 -215 -51 l-105 -7 96 -1 c147 -3 326 39 313 73 -7 17 -20 20 -29 5z"/>
 <path d="M2771 1654 c0 -11 3 -14 6 -6 3 7 2 16 -1 19 -3 4 -6 -2 -5 -13z"/>
 <path d="M3775 1650 c-3 -5 -1 -10 4 -10 6 0 11 5 11 10 0 6 -2 10 -4 10 -3 0 -8 -4 -11 -10z"/>
 <path d="M3808 1633 c7 -3 16 -2 19 1 4 3 -2 6 -13 5 -11 0 -14 -3 -6 -6z"/>
 <path d="M3805 1610 c-19 -8 -19 -9 3 -9 12 -1 22 4 22 9 0 6 -1 10 -2 9 -2 0 -12 -4 -23 -9z"/>
 <path d="M2932 1975 c0 -16 2 -22 5 -12 2 9 2 23 0 30 -3 6 -5 -1 -5 -18z"/>
 <path d="M3835 1850 c3 -5 8 -10 11 -10 2 0 4 5 4 10 0 6 -5 10 -11 10 -5 0 -7 -4 -4 -10z"/>
 <path d="M3840 1826 c0 -2 7 -7 16 -10 8 -3 12 -2 9 4 -6 10 -25 14 -25 6z"/>
 <path d="M3931 1644 c0 -11 3 -14 6 -6 3 7 2 16 -1 19 -3 4 -6 -2 -5 -13z"/>
 <path d="M3910 1592 c0 -5 7 -15 15 -22 8 -7 15 -8 15 -2 0 5 -7 15 -15 22 -8 7 -15 8 -15 2z"/>
 <path d="M4538 1803 c7 -3 16 -2 19 1 4 3 -2 6 -13 5 -11 0 -14 -3 -6 -6z"/>
 <path d="M4471 1716 c12 -10 60 -16 54 -6 -3 5 -18 10 -32 10 -15 0 -24 -2 -22 -4z"/>
 <path d="M2475 1240 c3 -5 13 -10 21 -10 8 0 14 5 14 10 0 6 -9 10 -21 10 -11 0 -17 -4 -14 -10z"/>
 <path d="M3808 1143 c6 -2 18 -2 25 0 6 3 1 5 -13 5 -14 0 -19 -2 -12 -5z"/>
 <path d="M3738 1133 c7 -3 16 -2 19 1 4 3 -2 6 -13 5 -11 0 -14 -3 -6 -6z"/>
 <path d="M2820 625 c46 -18 61 -18 30 0 -14 8 -34 14 -45 14 -13 0 -8 -5 15 -14z"/>
 <path d="M2753 2730 c-18 -11 -33 -23 -33 -28 0 -15 44 -49 79 -61 48 -16 50 -7 2 12 -64 26 -59 37 16 32 l68 -4 -54 13 c-83 22 -89 38 -11 31 36 -3 85 -2 110 3 44 10 43 10 -30 11 -41 1 -84 4 -95 6 -11 3 -35 -4 -52 -15z"/>
 <path d="M3223 2743 c9 -2 23 -2 30 0 6 3 -1 5 -18 5 -16 0 -22 -2 -12 -5z"/>
 <path d="M3273 2743 c4 -3 24 -9 44 -13 32 -7 26 -8 -37 -10 -41 -1 -104 -6 -140 -10 -63 -7 -62 -7 37 -8 71 -2 103 -6 105 -14 7 -20 191 -23 248 -4 l45 14 -47 1 c-26 1 -50 -3 -53 -9 -7 -11 -95 -11 -140 0 -23 6 -10 8 50 10 69 3 74 4 35 9 l-45 7 60 6 c33 4 69 7 80 6 11 -1 76 0 145 2 l125 4 -150 6 c-206 10 -370 11 -362 3z"/>
 <path d="M3093 2733 c15 -2 37 -2 50 0 12 2 0 4 -28 4 -27 0 -38 -2 -22 -4z"/>
 <path d="M3808 2723 c7 -3 16 -2 19 1 4 3 -2 6 -13 5 -11 0 -14 -3 -6 -6z"/>
 <path d="M4118 2723 c17 -2 47 -2 65 0 17 2 3 4 -33 4 -36 0 -50 -2 -32 -4z"/>
 <path d="M4258 2723 c23 -2 59 -2 80 0 20 2 1 4 -43 4 -44 0 -61 -2 -37 -4z"/>
 <path d="M2968 2703 c6 -2 18 -2 25 0 6 3 1 5 -13 5 -14 0 -19 -2 -12 -5z"/>
 <path d="M2700 2682 c0 -10 10 -27 23 -38 12 -10 16 -12 10 -4 -7 8 -13 22 -13 31 0 10 -4 21 -10 24 -5 3 -10 -2 -10 -13z"/>
 <path d="M3127 2684 c-2 -2 -34 -4 -72 -5 -38 -1 -85 -9 -104 -17 -20 -8 -52 -18 -71 -22 -33 -7 -32 -8 15 -9 34 -1 61 5 84 20 18 11 35 18 37 16 10 -10 -34 -51 -74 -68 -24 -11 -42 -22 -39 -25 9 -9 91 19 115 39 24 22 28 17 12 -14 -11 -19 -51 -45 -105 -66 -19 -7 -23 -12 -12 -12 31 -2 85 27 122 63 44 44 46 24 3 -29 l-33 -40 40 24 c22 13 45 30 51 38 6 7 13 13 16 13 11 0 0 -60 -15 -84 -26 -39 -20 -43 13 -11 34 33 41 21 8 -15 l-22 -23 48 -44 c60 -54 75 -56 24 -3 -51 55 -48 70 6 26 54 -45 64 -46 26 -4 -34 37 -32 47 4 22 35 -22 44 -12 12 14 -46 36 -27 34 40 -3 36 -20 67 -35 69 -33 2 2 -11 12 -30 23 -19 10 -35 22 -35 27 0 11 2 10 43 -7 20 -8 60 -15 89 -15 53 1 53 1 23 14 -17 7 -57 16 -90 20 -61 8 -126 32 -168 61 -22 16 -22 16 8 10 l30 -7 -32 21 c-18 11 -33 23 -33 26 0 10 55 -2 87 -18 30 -16 133 -34 133 -24 0 3 -23 10 -50 16 -52 11 -100 36 -100 52 0 13 28 11 32 -2 4 -11 115 -38 158 -38 34 0 8 14 -42 23 -69 13 -47 21 47 18 51 -2 100 0 109 5 9 5 -14 9 -62 9 -44 1 -109 11 -152 22 -65 19 -152 27 -163 16z m122 -18 c-7 -8 -108 -10 -115 -3 -4 4 21 7 56 7 35 0 61 -2 59 -4z"/>
 <path d="M3703 2683 c9 -2 23 -2 30 0 6 3 -1 5 -18 5 -16 0 -22 -2 -12 -5z"/>
 <path d="M4213 2683 c26 -2 67 -2 90 0 23 2 2 3 -48 3 -49 0 -68 -1 -42 -3z"/>
 <path d="M3610 2662 c0 -5 14 -7 30 -4 17 2 30 6 30 8 0 2 -13 4 -30 4 -16 0 -30 -4 -30 -8z"/>
 <path d="M578 2653 c7 -3 16 -2 19 1 4 3 -2 6 -13 5 -11 0 -14 -3 -6 -6z"/>
 <path d="M428 2643 c7 -3 16 -2 19 1 4 3 -2 6 -13 5 -11 0 -14 -3 -6 -6z"/>
 <path d="M526 2636 c-16 -7 -25 -16 -20 -19 5 -3 21 3 34 14 29 21 26 22 -14 5z"/>
 <path d="M4518 2643 c6 -2 18 -2 25 0 6 3 1 5 -13 5 -14 0 -19 -2 -12 -5z"/>
 <path d="M468 2633 c7 -3 16 -2 19 1 4 3 -2 6 -13 5 -11 0 -14 -3 -6 -6z"/>
 <path d="M2506 2624 c-15 -40 9 -134 35 -134 5 0 2 14 -7 32 -10 20 -14 45 -11 70 5 39 -6 61 -17 32z"/>
 <path d="M534 2605 c-4 -9 -13 -14 -21 -13 -10 2 -21 -11 -30 -37 -19 -55 -37 -192 -27 -213 5 -11 10 13 14 65 3 50 11 88 19 95 11 11 13 9 7 -12 -3 -14 -9 -72 -13 -130 -5 -77 -9 -96 -14 -70 l-6 35 -2 -32 c-2 -56 19 -133 37 -133 12 0 10 -5 -8 -25 -36 -38 -83 -34 -127 10 -19 19 -33 28 -29 20 3 -8 3 -15 0 -15 -11 0 -35 74 -31 94 3 12 2 39 -3 61 -4 22 -8 31 -9 20 -1 -16 -3 -17 -10 -6 -6 10 -8 0 -5 -30 10 -90 48 -180 84 -199 10 -6 40 -10 66 -10 42 0 51 4 84 39 44 46 113 184 131 261 7 30 13 88 13 128 0 63 -3 75 -23 95 l-23 22 11 -23 c14 -26 22 -153 9 -146 -4 3 -8 -8 -8 -25 0 -46 -45 -178 -77 -223 l-28 -41 -8 59 c-10 68 -3 256 9 276 5 7 10 22 11 33 2 11 9 25 16 30 17 14 20 35 5 35 -9 0 -8 4 2 10 10 7 11 10 2 10 -7 0 -15 -7 -18 -15z m-20 -59 c-6 -16 -24 -23 -24 -8 0 10 22 33 27 28 2 -2 1 -11 -3 -20z m-27 -333 c-3 -10 -5 -4 -5 12 0 17 2 24 5 18 2 -7 2 -21 0 -30z"/>
 <path d="M4318 2613 c34 -2 90 -2 125 0 34 2 6 3 -63 3 -69 0 -97 -1 -62 -3z"/>
 <path d="M3453 2603 c9 -2 25 -2 35 0 9 3 1 5 -18 5 -19 0 -27 -2 -17 -5z"/>
 <path d="M3710 2600 c-8 -5 -10 -10 -5 -10 6 0 17 5 25 10 8 5 11 10 5 10 -5 0 -17 -5 -25 -10z"/>
 <path d="M3593 2583 c15 -2 39 -2 55 0 15 2 2 4 -28 4 -30 0 -43 -2 -27 -4z"/>
 <path d="M701 2576 c2 -2 18 -6 34 -10 22 -5 26 -4 15 4 -14 9 -59 15 -49 6z"/>
 <path d="M830 2573 c14 -3 29 -10 33 -17 6 -7 7 -6 4 4 -2 8 -16 16 -33 17 -25 1 -26 0 -4 -4z"/>
 <path d="M2540 2565 c0 -16 60 -88 67 -81 5 4 -56 96 -64 96 -2 0 -3 -7 -3 -15z"/>
 <path d="M3740 2569 c0 -5 5 -7 10 -4 6 3 10 8 10 11 0 2 -4 4 -10 4 -5 0 -10 -5 -10 -11z"/>
 <path d="M770 2528 c-11 -18 -25 -51 -31 -73 -16 -57 -22 -225 -8 -241 6 -7 8 -18 4 -25 -8 -12 14 -31 27 -23 4 3 8 14 8 24 0 10 8 21 18 23 14 4 14 6 -5 12 -27 9 -36 34 -36 101 0 48 27 159 44 177 12 15 49 -3 49 -24 0 -14 -7 -19 -27 -20 l-28 -1 28 -10 c15 -5 27 -17 27 -27 0 -14 -7 -17 -32 -15 l-33 3 33 -8 c40 -11 44 -14 36 -34 -3 -9 -20 -17 -42 -19 l-37 -4 38 -8 c21 -5 41 -6 44 -2 10 10 13 186 4 186 -5 0 -8 8 -7 18 1 12 -7 18 -26 20 -22 3 -32 -3 -48 -30z m50 2 c0 -5 -4 -10 -10 -10 -5 0 -10 5 -10 10 0 6 5 10 10 10 6 0 10 -4 10 -10z"/>
 <path d="M3528 2553 c6 -2 18 -2 25 0 6 3 1 5 -13 5 -14 0 -19 -2 -12 -5z"/>
 <path d="M688 2538 c6 -6 18 -8 28 -6 14 3 12 5 -9 10 -19 3 -25 2 -19 -4z"/>
 <path d="M922 2524 c4 -3 23 -10 43 -14 21 -5 34 -5 29 -1 -10 10 -80 24 -72 15z"/>
 <path d="M3538 2523 c12 -2 30 -2 40 0 9 3 -1 5 -23 4 -22 0 -30 -2 -17 -4z"/>
 <path d="M540 2508 c0 -4 9 -8 19 -8 11 0 26 -3 35 -6 9 -3 16 -2 16 4 0 5 -16 12 -35 14 -19 2 -35 0 -35 -4z"/>
 <path d="M302 2485 c0 -16 2 -22 5 -12 2 9 2 23 0 30 -3 6 -5 -1 -5 -18z"/>
 <path d="M332 2504 c4 -3 23 -10 43 -14 21 -5 34 -5 29 -1 -10 10 -80 24 -72 15z"/>
 <path d="M1037 2492 c-26 -28 -45 -83 -53 -150 l-7 -62 -41 -1 -41 -1 40 -11 c30 -9 41 -18 43 -36 4 -23 3 -24 -52 -17 -35 4 -56 2 -56 -4 0 -5 22 -10 49 -10 52 0 85 -20 79 -48 -2 -12 -19 -15 -88 -15 l-85 1 90 -8 c50 -4 94 -5 98 -1 4 4 3 20 -2 34 -10 25 -8 27 14 27 13 0 27 5 30 10 4 6 -7 10 -24 10 -27 0 -31 4 -31 26 0 25 2 26 43 21 28 -4 36 -3 22 3 -11 5 -30 9 -42 9 -16 1 -23 7 -23 21 0 17 5 19 33 14 17 -3 38 -7 45 -10 6 -2 12 0 12 5 0 5 -21 12 -46 16 -45 6 -46 7 -40 38 15 74 28 108 44 114 9 4 22 13 28 21 20 28 44 -24 44 -97 0 -131 -74 -295 -143 -317 -12 -4 -24 -10 -27 -15 -7 -10 -78 8 -97 23 -7 6 -11 14 -8 18 3 4 -4 10 -15 13 -23 6 -33 -4 -25 -26 9 -22 79 -57 114 -57 118 0 228 185 219 365 -2 54 -8 79 -22 94 -23 26 -57 27 -79 3z"/>
 <path d="M3034 2495 c-10 -8 -14 -14 -9 -14 6 0 19 6 29 14 11 8 15 15 10 15 -6 0 -19 -7 -30 -15z"/>
 <path d="M885 2445 c-10 -89 -34 -177 -54 -205 -10 -14 -28 -44 -39 -67 -50 -97 -161 -134 -222 -73 -11 11 -24 20 -29 20 -12 0 -21 -25 -13 -37 13 -20 80 -41 129 -42 46 0 50 3 109 64 39 40 68 81 80 112 9 26 20 53 24 58 8 12 27 85 34 135 3 19 2 49 -3 65 -7 27 -9 25 -16 -30z"/>
 <path d="M685 2480 c3 -5 14 -10 23 -10 15 0 15 2 2 10 -20 13 -33 13 -25 0z"/>
 <path d="M1165 2472 c15 -15 75 -26 75 -13 0 6 -8 11 -17 11 -10 0 -29 3 -43 6 -17 5 -22 3 -15 -4z"/>
 <path d="M525 2462 c6 -6 28 -13 50 -17 49 -8 28 9 -25 20 -24 5 -32 4 -25 -3z"/>
 <path d="M1261 2454 c-11 -8 -28 -28 -36 -43 -11 -23 -19 -27 -40 -24 -15 3 -25 1 -25 -6 0 -6 9 -11 20 -11 19 0 20 -7 20 -89 l0 -90 -35 6 c-22 3 -35 2 -35 -5 0 -6 16 -12 36 -14 27 -2 39 -9 45 -25 8 -22 6 -23 -59 -24 -49 -1 -60 -3 -42 -9 40 -13 107 -11 118 3 7 8 8 26 2 52 -14 60 -12 158 3 180 10 12 16 14 21 7 8 -14 36 -16 36 -3 0 5 -9 11 -20 14 -24 6 -26 20 -5 41 8 8 15 20 15 28 0 7 9 4 22 -10 19 -19 22 -31 20 -99 -3 -83 -26 -157 -70 -224 -28 -45 -100 -86 -128 -74 -16 7 -14 9 14 15 54 12 49 20 -11 20 -32 0 -60 0 -64 1 -4 0 -9 -4 -11 -9 -4 -13 60 -42 92 -42 42 0 100 35 129 77 42 62 59 113 65 199 7 126 -25 194 -77 158z"/>
 <path d="M4133 2463 c42 -2 112 -2 155 0 42 1 7 3 -78 3 -85 0 -120 -2 -77 -3z"/>
 <path d="M4378 2463 c6 -2 18 -2 25 0 6 3 1 5 -13 5 -14 0 -19 -2 -12 -5z"/>
 <path d="M3440 2440 c-8 -5 -35 -10 -60 -11 l-45 -1 39 -8 c21 -4 57 -3 79 2 22 5 45 7 51 4 13 -4 -55 -36 -79 -36 -8 0 -15 -5 -15 -11 0 -13 31 -5 93 27 27 13 51 24 53 24 13 0 0 -28 -23 -52 -15 -15 -22 -28 -17 -28 13 0 94 78 94 90 0 13 -150 13 -170 0z"/>
 <path d="M168 2433 c7 -3 16 -2 19 1 4 3 -2 6 -13 5 -11 0 -14 -3 -6 -6z"/>
 <path d="M272 2420 c0 -14 2 -19 5 -12 2 6 2 18 0 25 -3 6 -5 1 -5 -13z"/>
 <path d="M920 2431 c0 -5 14 -11 30 -13 35 -5 41 7 8 16 -31 8 -38 7 -38 -3z"/>
 <path d="M1350 2430 c0 -11 22 -18 79 -24 24 -3 49 -10 54 -15 6 -6 13 -38 15 -71 5 -75 -19 -168 -59 -227 -37 -53 -72 -62 -124 -32 -35 21 -37 21 -33 3 8 -42 92 -53 141 -19 58 41 97 141 97 252 0 99 -12 116 -85 125 -33 5 -66 10 -72 13 -7 2 -13 0 -13 -5z"/>
 <path d="M3080 2432 c0 -9 75 -82 85 -82 9 0 5 5 -40 49 -25 24 -45 39 -45 33z"/>
 <path d="M4145 2425 c65 -19 126 -19 151 0 18 14 17 15 -11 8 -34 -8 -56 -8 -135 1 l-55 6 50 -15z"/>
 <path d="M688 2423 c6 -2 18 -2 25 0 6 3 1 5 -13 5 -14 0 -19 -2 -12 -5z"/>
 <path d="M325 2410 c3 -5 15 -10 26 -10 10 0 19 5 19 10 0 6 -12 10 -26 10 -14 0 -23 -4 -19 -10z"/>
 <path d="M2618 2370 c28 -29 52 -62 52 -72 0 -10 5 -18 10 -18 30 0 -6 56 -68 106 l-47 37 53 -53z"/>
 <path d="M2644 2404 c3 -9 6 -18 6 -20 0 -2 7 -4 15 -4 13 0 13 3 3 20 -15 24 -33 27 -24 4z"/>
 <path d="M1032 2405 c3 -3 19 -10 37 -15 24 -7 31 -6 31 6 0 10 -12 14 -37 14 -20 0 -34 -2 -31 -5z"/>
 <path d="M115 2390 c17 -4 41 -8 55 -8 l25 0 -25 8 c-14 4 -38 8 -55 8 l-30 0 30 -8z"/>
 <path d="M1422 2371 c-8 -23 -15 -28 -31 -24 -12 3 -21 1 -21 -6 0 -6 6 -11 14 -11 22 0 27 -15 16 -44 -6 -17 -14 -24 -25 -20 -8 3 -15 1 -15 -5 0 -6 9 -11 20 -11 13 0 20 -7 20 -19 0 -14 -6 -17 -27 -15 -24 3 -24 2 5 -6 42 -14 41 -30 -3 -30 -19 0 -35 -4 -35 -10 0 -5 18 -10 40 -10 33 0 40 -3 40 -20 0 -18 -7 -20 -57 -21 -68 -1 -46 -17 24 -18 40 -1 43 1 51 32 5 17 5 34 0 35 -12 5 -10 30 5 35 7 3 5 6 -5 6 -34 2 -20 31 15 32 l32 1 -30 10 c-39 14 -37 11 -29 42 5 22 10 25 33 21 l26 -5 -23 12 c-20 10 -23 18 -19 45 7 41 -7 43 -21 4z"/>
 <path d="M272 2370 c0 -14 2 -19 5 -12 2 6 2 18 0 25 -3 6 -5 1 -5 -13z"/>
 <path d="M525 2380 c11 -5 31 -9 45 -9 23 0 23 1 5 9 -11 5 -31 9 -45 9 -23 0 -23 -1 -5 -9z"/>
 <path d="M315 2360 c3 -5 18 -10 33 -9 24 0 25 1 7 9 -28 12 -47 12 -40 0z"/>
 <path d="M670 2360 c20 -13 43 -13 35 0 -3 6 -16 10 -28 10 -18 0 -19 -2 -7 -10z"/>
 <path d="M4450 2362 c0 -5 64 -9 143 -9 102 -1 130 1 97 7 -59 11 -240 12 -240 2z"/>
 <path d="M385 2350 c3 -5 8 -10 11 -10 2 0 4 5 4 10 0 6 -5 10 -11 10 -5 0 -7 -4 -4 -10z"/>
 <path d="M1058 2353 c7 -3 16 -2 19 1 4 3 -2 6 -13 5 -11 0 -14 -3 -6 -6z"/>
 <path d="M1666 2351 c5 -5 27 -12 49 -15 l40 -6 -45 15 c-53 17 -57 18 -44 6z"/>
 <path d="M4758 2353 c7 -3 16 -2 19 1 4 3 -2 6 -13 5 -11 0 -14 -3 -6 -6z"/>
 <path d="M3544 2335 c-10 -8 -14 -15 -8 -15 6 0 17 7 24 15 16 19 9 19 -16 0z"/>
 <path d="M525 2330 c11 -5 29 -9 40 -9 l20 0 -20 9 c-11 5 -29 9 -40 9 l-20 0 20 -9z"/>
 <path d="M910 2326 c0 -2 11 -6 25 -8 14 -3 25 -1 25 3 0 5 -11 9 -25 9 -14 0 -25 -2 -25 -4z"/>
 <path d="M1768 2323 c6 -2 18 -2 25 0 6 3 1 5 -13 5 -14 0 -19 -2 -12 -5z"/>
 <path d="M660 2310 c20 -13 33 -13 25 0 -3 6 -14 10 -23 10 -15 0 -15 -2 -2 -10z"/>
 <path d="M1810 2317 c0 -7 230 -61 236 -55 2 3 -40 15 -93 27 -54 12 -108 24 -120 27 -13 4 -23 4 -23 1z"/>
 <path d="M780 2290 c36 -11 50 -11 50 0 0 6 -17 10 -37 9 -34 -1 -35 -2 -13 -9z"/>
 <path d="M1160 2290 c0 -6 7 -10 15 -10 8 0 15 2 15 4 0 2 -7 6 -15 10 -8 3 -15 1 -15 -4z"/>
 <path d="M1240 2278 c0 -4 6 -8 14 -8 8 0 21 -3 30 -6 9 -3 16 -2 16 4 0 5 -13 12 -30 14 -16 3 -30 1 -30 -4z"/>
 <path d="M641 2276 c12 -10 60 -16 54 -6 -3 5 -18 10 -32 10 -15 0 -24 -2 -22 -4z"/>
 <path d="M2730 2270 c0 -13 11 -13 30 0 12 8 11 10 -7 10 -13 0 -23 -4 -23 -10z"/>
 <path d="M2690 2260 c0 -5 7 -10 16 -10 8 0 12 5 9 10 -3 6 -10 10 -16 10 -5 0 -9 -4 -9 -10z"/>
 <path d="M4415 2260 c-4 -6 9 -10 32 -10 28 0 34 3 23 10 -20 13 -47 13 -55 0z"/>
 <path d="M338 2253 c6 -2 18 -2 25 0 6 3 1 5 -13 5 -14 0 -19 -2 -12 -5z"/>
 <path d="M395 2250 c3 -5 8 -10 11 -10 2 0 4 5 4 10 0 6 -5 10 -11 10 -5 0 -7 -4 -4 -10z"/>
 <path d="M2078 2253 c7 -3 16 -2 19 1 4 3 -2 6 -13 5 -11 0 -14 -3 -6 -6z"/>
 <path d="M4518 2253 c7 -3 16 -2 19 1 4 3 -2 6 -13 5 -11 0 -14 -3 -6 -6z"/>
 <path d="M520 2240 c0 -5 5 -10 10 -10 6 0 10 5 10 10 0 6 -4 10 -10 10 -5 0 -10 -4 -10 -10z"/>
 <path d="M898 2243 c7 -3 16 -2 19 1 4 3 -2 6 -13 5 -11 0 -14 -3 -6 -6z"/>
 <path d="M1150 2240 c20 -13 43 -13 35 0 -3 6 -16 10 -28 10 -18 0 -19 -2 -7 -10z"/>
 <path d="M2118 2243 c7 -3 16 -2 19 1 4 3 -2 6 -13 5 -11 0 -14 -3 -6 -6z"/>
 <path d="M2815 2240 c-3 -5 -1 -10 4 -10 6 0 11 5 11 10 0 6 -2 10 -4 10 -3 0 -8 -4 -11 -10z"/>
 <path d="M620 2230 c0 -5 21 -9 48 -9 42 1 44 2 17 9 -44 11 -65 11 -65 0z"/>
 <path d="M1240 2230 c0 -5 12 -10 28 -10 21 0 24 2 12 10 -20 13 -40 13 -40 0z"/>
 <path d="M2175 2230 c11 -5 29 -8 40 -8 16 0 15 2 -5 8 -34 11 -60 11 -35 0z"/>
 <path d="M4475 2220 c3 -5 11 -10 16 -10 6 0 7 5 4 10 -3 6 -11 10 -16 10 -6 0 -7 -4 -4 -10z"/>
 <path d="M4538 2223 c6 -2 18 -2 25 0 6 3 1 5 -13 5 -14 0 -19 -2 -12 -5z"/>
 <path d="M2248 2213 c6 -2 18 -2 25 0 6 3 1 5 -13 5 -14 0 -19 -2 -12 -5z"/>
 <path d="M617 2183 c18 -2 50 -2 70 0 21 2 7 4 -32 4 -38 0 -55 -2 -38 -4z"/>
 <path d="M1240 2180 c0 -5 4 -10 9 -10 6 0 13 5 16 10 3 6 -1 10 -9 10 -9 0 -16 -4 -16 -10z"/>
 <path d="M4462 2180 c6 -22 93 -78 141 -91 46 -12 95 -6 123 17 18 15 18 15 -3 5 -32 -16 -118 -13 -161 5 -20 8 -52 29 -71 47 -18 18 -32 25 -29 17z"/>
 <path d="M4528 2170 c24 -20 113 -51 141 -49 9 0 -9 9 -40 19 -31 9 -67 25 -80 34 -33 23 -49 19 -21 -4z"/>
 <path d="M4605 2180 c11 -5 31 -9 45 -9 23 0 23 1 5 9 -11 5 -31 9 -45 9 -23 0 -23 -1 -5 -9z"/>
 <path d="M1550 2150 c20 -5 39 -5 45 1 5 5 -8 9 -35 8 l-45 -1 35 -8z"/>
 <path d="M668 2143 c12 -2 32 -2 45 0 12 2 2 4 -23 4 -25 0 -35 -2 -22 -4z"/>
 <path d="M1508 2103 c12 -2 30 -2 40 0 9 3 -1 5 -23 4 -22 0 -30 -2 -17 -4z"/>
 <path d="M4715 2074 c-27 -13 -44 -24 -37 -24 15 0 92 38 92 45 0 6 4 8 -55 -21z"/>
 <path d="M298 2063 c7 -3 16 -2 19 1 4 3 -2 6 -13 5 -11 0 -14 -3 -6 -6z"/>
 <path d="M348 2063 c6 -2 18 -2 25 0 6 3 1 5 -13 5 -14 0 -19 -2 -12 -5z"/>
 <path d="M483 2063 c9 -2 23 -2 30 0 6 3 -1 5 -18 5 -16 0 -22 -2 -12 -5z"/>
 <path d="M760 2060 c0 -5 12 -10 26 -10 14 0 23 4 19 10 -3 6 -15 10 -26 10 -10 0 -19 -4 -19 -10z"/>
 <path d="M4613 2053 c9 -2 25 -2 35 0 9 3 1 5 -18 5 -19 0 -27 -2 -17 -5z"/>
 <path d="M4630 2001 c0 -4 9 -16 20 -26 11 -10 21 -32 21 -49 1 -25 3 -27 6 -8 6 29 -14 79 -33 86 -8 3 -14 2 -14 -3z"/>
 <path d="M2371 1314 c0 -11 3 -14 6 -6 3 7 2 16 -1 19 -3 4 -6 -2 -5 -13z"/>
 <path d="M2735 1126 c31 -15 134 -33 124 -22 -3 3 -30 10 -60 16 -30 6 -63 12 -74 15 -11 3 -6 -1 10 -9z"/>
 <path d="M2828 1133 c7 -3 16 -2 19 1 4 3 -2 6 -13 5 -11 0 -14 -3 -6 -6z"/>
 <path d="M3260 1109 c0 -5 5 -7 10 -4 6 3 10 8 10 11 0 2 -4 4 -10 4 -5 0 -10 -5 -10 -11z"/>
 <path d="M3340 1110 c0 -5 5 -10 10 -10 6 0 10 5 10 10 0 6 -4 10 -10 10 -5 0 -10 -4 -10 -10z"/>
 <path d="M2488 1073 c6 -2 18 -2 25 0 6 3 1 5 -13 5 -14 0 -19 -2 -12 -5z"/>
 <path d="M5003 1065 c-18 -8 -33 -16 -33 -19 0 -8 59 15 66 25 7 11 6 11 -33 -6z"/>
 <path d="M3280 1050 c0 -5 5 -10 10 -10 6 0 10 5 10 10 0 6 -4 10 -10 10 -5 0 -10 -4 -10 -10z"/>
 <path d="M2503 1043 c9 -2 23 -2 30 0 6 3 -1 5 -18 5 -16 0 -22 -2 -12 -5z"/>
 <path d="M2550 1030 c-8 -5 -10 -10 -5 -10 6 0 17 5 25 10 8 5 11 10 5 10 -5 0 -17 -5 -25 -10z"/>
 <path d="M2525 990 c3 -5 17 -10 31 -10 14 0 22 4 19 10 -3 6 -17 10 -31 10 -14 0 -22 -4 -19 -10z"/>
 <path d="M3285 990 c-7 -12 2 -12 30 0 19 8 19 9 -2 9 -12 1 -25 -3 -28 -9z"/>
 <path d="M3385 990 c-3 -5 -2 -10 4 -10 5 0 13 5 16 10 3 6 2 10 -4 10 -5 0 -13 -4 -16 -10z"/>
 <path d="M3010 970 c0 -5 5 -10 10 -10 6 0 10 5 10 10 0 6 -4 10 -10 10 -5 0 -10 -4 -10 -10z"/>
 <path d="M3050 970 c0 -5 5 -10 11 -10 5 0 7 5 4 10 -3 6 -8 10 -11 10 -2 0 -4 -4 -4 -10z"/>
 <path d="M2530 960 c0 -5 14 -10 32 -10 36 0 35 4 -4 14 -17 4 -28 2 -28 -4z"/>
 <path d="M3395 960 c-3 -5 -1 -10 4 -10 6 0 11 5 11 10 0 6 -2 10 -4 10 -3 0 -8 -4 -11 -10z"/>
 <path d="M3295 930 c-3 -5 -1 -10 4 -10 6 0 11 5 11 10 0 6 -2 10 -4 10 -3 0 -8 -4 -11 -10z"/>
 <path d="M2573 923 c9 -2 25 -2 35 0 9 3 1 5 -18 5 -19 0 -27 -2 -17 -5z"/>
 <path d="M3400 919 c0 -5 5 -7 10 -4 6 3 10 8 10 11 0 2 -4 4 -10 4 -5 0 -10 -5 -10 -11z"/>
 <path d="M3360 910 c0 -5 5 -10 10 -10 6 0 10 5 10 10 0 6 -4 10 -10 10 -5 0 -10 -4 -10 -10z"/>
 <path d="M3330 900 c0 -5 5 -10 10 -10 6 0 10 5 10 10 0 6 -4 10 -10 10 -5 0 -10 -4 -10 -10z"/>
 <path d="M3328 863 c7 -3 16 -2 19 1 4 3 -2 6 -13 5 -11 0 -14 -3 -6 -6z"/>
 <path d="M4563 813 c-7 -15 -11 -28 -9 -31 6 -6 28 38 24 48 -2 5 -9 -3 -15 -17z"/>
 <path d="M3147 254 c-4 -4 3 -15 15 -25 29 -26 35 -24 12 4 -10 12 -19 23 -20 25 0 1 -4 -1 -7 -4z"/>
 <path d="M3208 203 c6 -2 18 -2 25 0 6 3 1 5 -13 5 -14 0 -19 -2 -12 -5z"/>
 <path d="M3278 203 c12 -2 30 -2 40 0 9 3 -1 5 -23 4 -22 0 -30 -2 -17 -4z"/>
 </g>

</svg>